<svg height="480pt" viewBox="-32 0 480 480.00058" width="480pt" xmlns="http://www.w3.org/2000/svg"><path d="m225.109375 32v280h160s24-168-160-280zm0 0" fill="#195c85"/><path d="m193.109375 32v280h-184s136-128 184-280zm0 0" fill="#195c85"/><path d="m33.109375 344-21.671875 62.175781c-5.914062 14.789063-4.105469 31.546875 4.824219 44.734375 8.929687 13.191406 23.816406 21.089844 39.746093 21.089844h264.605469c19.628907 0 37.28125-11.949219 44.570313-30.175781l43.925781-97.824219zm0 0" fill="#f9bf5a"/><path d="m387.558594 392 21.550781-48h-376l-16.726563 48zm0 0" fill="#f48a42"/><path d="m209.109375 8c8.835937 0 16 7.164062 16 16v320h-32v-320c0-8.835938 7.164063-16 16-16zm0 0" fill="#ffd782"/><path d="m161.109375 432h-120c-4.417969 0-8-3.582031-8-8s3.582031-8 8-8h120c4.417969 0 8 3.582031 8 8s-3.582031 8-8 8zm0 0" fill="#f48a42"/><path d="m201.109375 432h-8c-4.417969 0-8-3.582031-8-8s3.582031-8 8-8h8c4.417969 0 8 3.582031 8 8s-3.582031 8-8 8zm0 0" fill="#f48a42"/><path d="m344.070312 264c-3.800781-.003906-7.070312-2.675781-7.832031-6.398438-15.398437-76.984374-77.511719-147.554687-78.136719-148.257812-2.011718-2.117188-2.707031-5.164062-1.820312-7.945312.890625-2.785157 3.226562-4.859376 6.09375-5.417969 2.867188-.558594 5.8125.492187 7.679688 2.738281 2.671874 3 65.601562 74.554688 81.871093 155.746094.863281 4.332031-1.949219 8.542968-6.28125 9.40625-.515625.097656-1.046875.140625-1.574219.128906zm0 0" fill="#7fcac9"/><path d="m161.109375 288h-32c-4.417969 0-8-3.582031-8-8s3.582031-8 8-8h32c4.417969 0 8 3.582031 8 8s-3.582031 8-8 8zm0 0" fill="#7fcac9"/><path d="m409.109375 336h-176v-16h152c3.980469 0 7.355469-2.925781 7.921875-6.863281 3.105469-34.234375-.722656-68.738281-11.265625-101.457031-15.695313-51.679688-54.328125-125.28125-148.65625-184.046876v-3.632812c0-13.253906-10.742187-24-24-24-13.253906 0-24 10.746094-24 24v6.710938c-47.109375 147.6875-180.144531 274.199218-181.488281 275.457031-2.390625 2.246093-3.167969 5.730469-1.957032 8.78125 1.210938 3.054687 4.164063 5.054687 7.445313 5.050781h176v16h-152c-3.402344 0-6.429687 2.15625-7.550781 5.367188l-21.550782 61.832031c-6.902343 17.253906-4.796874 36.808593 5.621094 52.199219 10.417969 15.386718 27.792969 24.605468 46.378906 24.601562h264.597657c22.8125.105469 43.371093-13.726562 51.871093-34.894531l43.929688-97.832031c1.109375-2.476563.890625-5.34375-.585938-7.621094-1.472656-2.277344-4-3.652344-6.710937-3.652344zm-31.351563-32h-144.648437v-257.480469c144.21875 94.6875 146.402344 226.160157 144.648437 257.480469zm-349.367187 0c32-33.113281 111.75-122.03125 156.71875-227.550781v227.550781zm172.71875-280c0-4.417969 3.582031-8 8-8s8 3.582031 8 8v312h-16zm-16 328h211.640625l-14.398438 32h-354.714843l11.160156-32zm172.640625 86.855469c-6.03125 15.222656-20.769531 25.199219-37.144531 25.144531h-264.597657c-13.34375.003906-25.808593-6.640625-33.238281-17.722656-7.433593-11.082032-8.847656-25.136719-3.777343-37.476563l3.070312-8.800781h353.136719zm0 0"/><path d="m161.109375 416h-120c-4.417969 0-8 3.582031-8 8s3.582031 8 8 8h120c4.417969 0 8-3.582031 8-8s-3.582031-8-8-8zm0 0"/><path d="m201.109375 416h-8c-4.417969 0-8 3.582031-8 8s3.582031 8 8 8h8c4.417969 0 8-3.582031 8-8s-3.582031-8-8-8zm0 0"/><path d="m336.238281 257.601562c.761719 3.722657 4.03125 6.394532 7.832031 6.398438.539063.003906 1.074219-.050781 1.601563-.160156 4.332031-.863282 7.140625-5.074219 6.277344-9.40625-16.238281-81.195313-79.199219-152.746094-81.871094-155.746094-1.867187-2.246094-4.8125-3.296875-7.679687-2.738281-2.867188.558593-5.203126 2.632812-6.089844 5.417969-.890625 2.78125-.195313 5.828124 1.816406 7.945312.585938.703125 62.714844 71.273438 78.113281 148.289062zm0 0"/><path d="m161.109375 272h-32c-4.417969 0-8 3.582031-8 8s3.582031 8 8 8h32c4.417969 0 8-3.582031 8-8s-3.582031-8-8-8zm0 0"/></svg>