<svg height="479pt" viewBox="-95 0 479 479.994" width="479pt" xmlns="http://www.w3.org/2000/svg"><path d="m88.496094 255.992188h104v48h-104zm0 0" fill="#f9bb4b"/><path d="m88.496094 351.992188h104v120h-104zm0 0" fill="#f9bb4b"/><path d="m208.496094 111.992188h-176c-13.253906 0-24 10.746093-24 24 0 56 48 104 48 104s16 16 32 16h104c16 0 40-24 40-48v-96zm0 0" fill="#ffd782"/><path d="m120.496094 215.992188h-16c0-40.757813-39.625-47.832032-41.3125-48.109376l2.625-15.777343c31.488281 4.902343 54.699218 32.023437 54.6875 63.886719zm0 0" fill="#f9c15f"/><path d="m50.839844 245.648438c-2.054688-2.054688-50.34375-51.015626-50.34375-109.65625 0-17.671876 14.328125-32 32-32h48c17.675781 0 32 14.328124 32 32 0 17.675781-14.324219 32-32 32h-32v-16h32c8.835937 0 16-7.160157 16-16 0-8.835938-7.164063-16-16-16h-48c-8.835938 0-16 7.164062-16 16 0 52.089843 45.199218 97.882812 45.65625 98.347656zm0 0" fill="#f9c15f"/><path d="m64.496094 303.992188h152v48h-152zm0 0" fill="#844aa8"/><path d="m82.839844 309.65625 11.3125-11.316406 24.003906 24.003906-11.316406 11.3125zm0 0" fill="#dc93bf"/><path d="m122.84375 309.652344 11.3125-11.316406 24.003906 24.003906-11.316406 11.3125zm0 0" fill="#dc93bf"/><path d="m162.839844 309.65625 11.3125-11.316406 24.003906 24.003906-11.316406 11.3125zm0 0" fill="#dc93bf"/><g fill="#f3bb59"><path d="m16.496094 359.992188h16v16h-16zm0 0"/><path d="m16.496094 391.992188h16v16h-16zm0 0"/><path d="m.496094 375.992188h16v16h-16zm0 0"/><path d="m32.496094 375.992188h16v16h-16zm0 0"/><path d="m256.496094 271.992188h16v16h-16zm0 0"/><path d="m256.496094 303.992188h16v16h-16zm0 0"/><path d="m240.496094 287.992188h16v16h-16zm0 0"/><path d="m272.496094 287.992188h16v16h-16zm0 0"/></g><path d="m160.496094 23.992188c13.253906 0 24 10.746093 24 24v80c0 13.257812-10.746094 24-24 24s-24-10.742188-24-24v-80c0-13.253907 10.746094-24 24-24zm0 0" fill="#f7ab31"/><path d="m64.496094 23.992188c13.253906 0 24 10.746093 24 24v80c0 13.257812-10.746094 24-24 24s-24-10.742188-24-24v-80c0-13.253907 10.746094-24 24-24zm0 0" fill="#f7ab31"/><path d="m208.496094 39.992188c13.253906 0 24 10.746093 24 24v80c0 13.257812-10.746094 24-24 24s-24-10.742188-24-24v-80c0-13.253907 10.746094-24 24-24zm0 0" fill="#f9bb4b"/><path d="m112.496094 7.992188c13.253906 0 24 10.746093 24 24v80c0 13.257812-10.746094 24-24 24s-24-10.742188-24-24v-80c0-13.253907 10.746094-24 24-24zm0 0" fill="#f9bb4b"/><path d="m240.496094 207.992188v-144c-.003906-11.832032-6.539063-22.699219-16.992188-28.246094-10.449218-5.550782-23.113281-4.878906-32.917968 1.742187-3.226563-9.378906-10.636719-16.722656-20.046876-19.859375-9.410156-3.136718-19.746093-1.707031-27.953124 3.859375-4.410157-12.855469-16.5-21.488281-30.089844-21.488281s-25.679688 8.632812-30.085938 21.488281c-9.808594-6.621093-22.46875-7.292969-32.921875-1.742187-10.449219 5.546875-16.988281 16.414062-16.992187 28.246094v56c-17.671875 0-32 14.328124-32 32 0 58.640624 48.289062 107.601562 50.34375 109.65625 8.289062 8.160156 18.480468 14.117187 29.65625 17.328124v33.015626h-16c-4.417969 0-8 3.582031-8 8v48c0 4.421874 3.582031 8 8 8h16v120h120v-120h16c4.417968 0 8-3.578126 8-8v-48c0-4.417969-3.582032-8-8-8h-16v-33.261719c22.925781-8.8125 38.570312-30.21875 40-54.738281zm-32-160c8.835937 0 16 7.164062 16 16v80c0 8.839843-7.164063 16-16 16-8.835938 0-16-7.160157-16-16v-80c0-8.835938 7.164062-16 16-16zm-48-16c8.835937 0 16 7.164062 16 16v80c0 8.839843-7.164063 16-16 16-8.835938 0-16-7.160157-16-16v-80c0-8.835938 7.164062-16 16-16zm-64 0c0-8.835938 7.164062-16 16-16 8.835937 0 16 7.164062 16 16v80c0 8.839843-7.164063 16-16 16-8.835938 0-16-7.160157-16-16zm-9.238282 118.449218c3.292969-3.390625 5.796876-7.46875 7.328126-11.945312.480468.328125 1.039062.546875 1.542968.851562-1.0625 4.878906-4.34375 8.984375-8.871094 11.09375zm-38.761718-102.449218c0-8.835938 7.164062-16 16-16 8.835937 0 16 7.164062 16 16v80c0 8.839843-7.164063 16-16 16-8.835938 0-16-7.160157-16-16zm-32 88c0-8.835938 7.164062-16 16-16v8c.035156 11.382812 6.132812 21.882812 16 27.554687v12.445313h15.273437c4.984375.96875 40.726563 9.25 40.726563 48h16c.554687-20.394532-9.144532-39.714844-25.832032-51.453126 8.3125-4.128906 14.417969-11.667968 16.730469-20.65625.375 0 .726563.109376 1.101563.109376 6.386718.007812 12.628906-1.90625 17.914062-5.496094 3.222656 9.382812 10.636719 16.726562 20.046875 19.863281 9.410157 3.136719 19.742188 1.707031 27.953125-3.863281 3.046875 9.042968 10.019532 16.222656 18.96875 19.535156 8.953125 3.308594 18.917969 2.398438 27.117188-2.484375v36.445313c0 19.832031-20.527344 40-32 40h-104c-10.027344-1.578126-19.269532-6.371094-26.34375-13.652344-.457032-.464844-45.65625-46.257813-45.65625-98.347656zm168 328h-88v-104h88zm24-152v32h-136v-32h12.6875l21.65625 21.65625 11.3125-11.308594-10.34375-10.347656h17.375l21.65625 21.65625 11.3125-11.308594-10.34375-10.347656h17.375l21.65625 21.65625 11.3125-11.308594-10.34375-10.347656zm-112-16v-32h88v32zm0 0"/><path d="m16.496094 359.992188h16v16h-16zm0 0"/><path d="m16.496094 391.992188h16v16h-16zm0 0"/><path d="m.496094 375.992188h16v16h-16zm0 0"/><path d="m32.496094 375.992188h16v16h-16zm0 0"/><path d="m256.496094 271.992188h16v16h-16zm0 0"/><path d="m256.496094 303.992188h16v16h-16zm0 0"/><path d="m240.496094 287.992188h16v16h-16zm0 0"/><path d="m272.496094 287.992188h16v16h-16zm0 0"/></svg>