<svg height="511pt" viewBox="-60 1 511 511.999" width="511pt" xmlns="http://www.w3.org/2000/svg"><path d="m366.882812 482.949219h-341.296874c-9.714844 0-17.585938-7.871094-17.585938-17.582031v-440.28125c0-9.714844 7.871094-17.585938 17.585938-17.585938h341.296874c9.714844 0 17.585938 7.871094 17.585938 17.585938v440.28125c0 9.710937-7.871094 17.582031-17.585938 17.582031zm0 0" fill="#dadee4"/><path d="m366.882812 7.5h-22.414062v350c0 58.238281-47.210938 105.449219-105.453125 105.449219h-231.015625v2.417969c0 9.710937 7.871094 17.582031 17.585938 17.582031h341.296874c9.714844 0 17.585938-7.871094 17.585938-17.582031v-440.28125c0-9.714844-7.871094-17.585938-17.585938-17.585938zm0 0" fill="#b4bcc9"/><path d="m384.46875 25.085938c0-9.714844-7.871094-17.585938-17.585938-17.585938h-341.296874c-9.714844 0-17.585938 7.871094-17.585938 17.585938v74.027343h376.46875zm0 0" fill="#5f6c75"/><path d="m366.882812 7.5h-22.414062v14.609375c0 31.484375-25.519531 57.003906-57.003906 57.003906h-279.464844v20h376.46875v-74.027343c0-9.714844-7.871094-17.585938-17.585938-17.585938zm0 0" fill="#4e5a61"/><path d="m277.640625 33.234375h81.09375v40.144531h-81.09375zm0 0" fill="#d4e6f1"/><path d="m358.734375 73.378906v-40.144531h-15.359375c-3.503906 17.703125-15.195312 32.457031-30.972656 40.144531zm0 0" fill="#a9cce3"/><path d="m137.308594 7.5h-111.722656c-9.714844 0-17.585938 7.871094-17.585938 17.585938v17.03125h129.308594zm0 0" fill="#dadee4"/><path d="m8 42.117188h129.308594v56.996093h-129.308594zm0 0" fill="#81b8fd"/><path d="m8 79.113281h129.308594v20h-129.308594zm0 0" fill="#62a6fd"/><path d="m86.214844 66.339844h-27.121094c-4.453125 0-8.351562-2.980469-9.527344-7.273438l-4.628906-16.949218h55.429688l-4.628907 16.949218c-1.171875 4.292969-5.074219 7.273438-9.523437 7.273438zm0 0" fill="#62a6fd"/><path d="m222.789062 53.308594c0 8.628906-6.996093 15.625-15.628906 15.625-8.628906 0-15.625-6.996094-15.625-15.625 0-8.632813 6.996094-15.628906 15.625-15.628906 8.632813 0 15.628906 6.996093 15.628906 15.628906zm0 0" fill="#81b8fd"/><path d="m308.082031 255.652344c0 61.773437-50.074219 111.851562-111.847656 111.851562s-111.847656-50.078125-111.847656-111.851562c0-61.769532 50.074219-111.847656 111.847656-111.847656s111.847656 50.078124 111.847656 111.847656zm0 0" fill="#5f6c75"/><path d="m242.382812 153.742188c21.960938 20.421874 35.699219 49.558593 35.699219 81.910156 0 61.773437-50.074219 111.851562-111.847656 111.851562-16.457031 0-32.078125-3.554687-46.148437-9.9375 19.964843 18.570313 46.730468 29.9375 76.148437 29.9375 61.773437 0 111.847656-50.078125 111.847656-111.851562 0-45.316406-26.949219-84.335938-65.699219-101.910156zm0 0" fill="#4e5a61"/><path d="m243.820312 232.03125v47.246094c0 5.035156 3.46875 9.398437 8.371094 10.535156l46.496094 10.765625c6.039062-13.75 9.394531-28.945313 9.394531-44.925781 0-15.976563-3.355469-31.171875-9.394531-44.921875l-46.496094 10.765625c-4.902344 1.136718-8.371094 5.5-8.371094 10.535156zm0 0" fill="#8f9bae"/><path d="m298.679688 210.730469-22.34375 5.175781c4.515624 25.332031.398437 52.503906-13.617188 76.34375l35.96875 8.328125c.179688-.484375 2.589844-5.5625 4.886719-13.410156 7.210937-24.574219 5.90625-51.8125-4.894531-76.4375zm0 0" fill="#5f6c75"/><path d="m252.191406 289.8125c-4.902344-1.136719-8.371094-5.503906-8.371094-10.535156v-47.246094c0-5.035156 3.46875-9.398438 8.371094-10.535156l5.007813-1.160156c-12.195313-21.007813-34.921875-35.144532-60.964844-35.144532-38.917969 0-70.464844 31.546875-70.464844 70.464844 0 38.914062 31.546875 70.464844 70.464844 70.464844 26.042969 0 48.769531-14.140625 60.964844-35.148438zm0 0" fill="#d4e6f1"/><path d="m243.820312 279.277344v-47.246094c0-5.035156 3.46875-9.398438 8.371094-10.535156l5.007813-1.160156c-10.625-18.304688-29.246094-31.386719-51.089844-34.453126 12.722656 12.746094 20.589844 30.339844 20.589844 49.769532 0 38.917968-31.546875 70.464844-70.464844 70.464844-3.355469 0-6.648437-.234376-9.875-.691407 12.753906 12.785157 30.390625 20.691407 49.875 20.691407 26.042969 0 48.765625-14.136719 60.964844-35.144532l-5.007813-1.160156c-4.902344-1.136719-8.371094-5.503906-8.371094-10.535156zm0 0" fill="#a9cce3"/><path d="m349.089844 380.375h-79.445313c-2.757812 0-4.992187 2.234375-4.992187 4.988281v62.210938c0 2.753906 2.234375 4.988281 4.992187 4.988281h79.445313c2.757812 0 4.992187-2.234375 4.992187-4.988281v-62.210938c0-2.753906-2.234375-4.988281-4.992187-4.988281zm0 0" fill="#81b8fd"/><path d="m349.089844 380.375h-35.007813v21.382812c0 17.015626-13.792969 30.804688-30.804687 30.804688h-18.621094v15.011719c0 2.753906 2.230469 4.988281 4.988281 4.988281h79.445313c2.757812 0 4.992187-2.234375 4.992187-4.988281v-62.210938c0-2.753906-2.234375-4.988281-4.992187-4.988281zm0 0" fill="#62a6fd"/><path d="m316.746094 399.25h-14.757813c-3 0-5.628906-2.007812-6.421875-4.898438l-3.828125-13.976562h35.261719l-3.828125 13.976562c-.796875 2.890626-3.425781 4.898438-6.425781 4.898438zm0 0" fill="#62a6fd"/><path d="m61.789062 504.5h-14.597656c-2.160156 0-4.007812-1.546875-4.390625-3.667969l-3.230469-17.882812h29.839844l-3.230468 17.882812c-.382813 2.121094-2.230469 3.667969-4.390626 3.667969zm0 0" fill="#5f6c75"/><path d="m330.679688 504.5h14.597656c2.160156 0 4.007812-1.546875 4.390625-3.667969l3.230469-17.882812h-29.839844l3.230468 17.882812c.382813 2.121094 2.230469 3.667969 4.390626 3.667969zm0 0" fill="#5f6c75"/><path d="m216.941406 262.652344c-20.710937 0-20.710937-14-41.425781-14s-20.714844 14-41.425781 14c-3.097656 0-5.726563-.316406-8.035156-.847656 3.117187 36.03125 33.335937 64.3125 70.179687 64.3125 26.042969 0 48.769531-14.136719 60.964844-35.144532l-5.007813-1.160156c-4.902344-1.136719-8.371094-5.503906-8.371094-10.535156v-27.40625c-8.160156 4.132812-12.601562 10.78125-26.878906 10.78125zm0 0" fill="#a0cafe"/><path d="m243.820312 279.277344v-27.40625c-7.238281 3.664062-11.554687 9.304687-22.394531 10.535156-11.960937 29.117188-42.339843 47.605469-75.046875 43.023438 32.597656 32.671874 87.5 25.707031 110.820313-14.457032l-5.007813-1.160156c-4.902344-1.136719-8.371094-5.503906-8.371094-10.535156zm0 0" fill="#81b8fd"/><path d="m366.882812 0h-341.296874c-13.832032 0-25.085938 11.253906-25.085938 25.085938v102.703124c0 4.140626 3.359375 7.5 7.5 7.5s7.5-3.359374 7.5-7.5v-21.175781h269.902344c4.140625 0 7.5-3.355469 7.5-7.5 0-4.140625-3.359375-7.5-7.5-7.5h-140.59375v-76.613281h222.074218c5.5625 0 10.085938 4.523438 10.085938 10.085938v66.527343h-56.566406c-4.144532 0-7.5 3.359375-7.5 7.5 0 4.144531 3.355468 7.5 7.5 7.5h56.566406v358.753907c0 5.558593-4.523438 10.082031-10.085938 10.082031h-341.296874c-5.5625 0-10.085938-4.523438-10.085938-10.082031v-302.578126c0-4.144531-3.359375-7.5-7.5-7.5s-7.5 3.355469-7.5 7.5v302.578126c0 13.832031 11.253906 25.082031 25.085938 25.082031h7.71875l2.113281 11.714843c1.03125 5.699219 5.980469 9.835938 11.773437 9.835938h14.597656c5.792969 0 10.742188-4.136719 11.773438-9.835938l2.113281-11.714843h241.113281l2.117188 11.714843c1.027344 5.699219 5.980469 9.835938 11.769531 9.835938h14.601563c5.789062 0 10.742187-4.136719 11.769531-9.835938l2.117187-11.714843h7.71875c13.832032 0 25.082032-11.253907 25.082032-25.085938v-440.277343c.003906-13.832032-11.25-25.085938-25.082032-25.085938zm-351.382812 91.613281v-41.996093h23.710938l3.121093 11.425781c2.058594 7.535156 8.949219 12.796875 16.761719 12.796875h27.121094c7.8125 0 14.703125-5.261719 16.757812-12.796875l3.121094-11.425781h23.714844v41.996093zm39.261719-41.996093h35.785156l-2.042969 7.472656c-.28125 1.03125-1.222656 1.75-2.289062 1.75h-27.121094c-1.066406 0-2.007812-.71875-2.292969-1.75zm75.046875-15h-114.308594v-9.53125c0-5.5625 4.523438-10.085938 10.085938-10.085938h104.222656zm-70.554688 462.382812h-9.523437l-1.183594-6.550781h11.886719zm283.484375 0h-9.523437l-1.179688-6.550781h11.886719zm0 0"/><path d="m366.234375 73.378906v-40.144531c0-4.140625-3.359375-7.5-7.5-7.5h-81.09375c-4.140625 0-7.5 3.359375-7.5 7.5v40.144531c0 4.140625 3.359375 7.5 7.5 7.5h81.09375c4.140625 0 7.5-3.359375 7.5-7.5zm-15-7.5h-66.09375v-25.144531h66.09375zm0 0"/><path d="m299.804688 60.808594h8.660156c4.140625 0 7.5-3.359375 7.5-7.5 0-4.144532-3.359375-7.5-7.5-7.5h-8.660156c-4.140626 0-7.5 3.355468-7.5 7.5 0 4.140625 3.359374 7.5 7.5 7.5zm0 0"/><path d="m327.914062 60.808594h8.65625c4.140626 0 7.5-3.359375 7.5-7.5 0-4.144532-3.359374-7.5-7.5-7.5h-8.65625c-4.144531 0-7.5 3.355468-7.5 7.5 0 4.140625 3.355469 7.5 7.5 7.5zm0 0"/><path d="m166.667969 39.367188c0 3.460937-2.808594 6.269531-6.269531 6.269531-3.464844 0-6.269532-2.808594-6.269532-6.269531 0-3.464844 2.804688-6.269532 6.269532-6.269532 3.460937 0 6.269531 2.804688 6.269531 6.269532zm0 0"/><path d="m166.667969 67.246094c0 3.464844-2.808594 6.273437-6.269531 6.273437-3.464844 0-6.269532-2.808593-6.269532-6.273437 0-3.460938 2.804688-6.269532 6.269532-6.269532 3.460937 0 6.269531 2.808594 6.269531 6.269532zm0 0"/><path d="m235.988281 46.867188c4.140625 0 7.5-3.359376 7.5-7.5 0-4.140626-3.359375-7.5-7.5-7.5-7.472656 0-6.246093-.257813-13.640625 4.011718-8.714844-7.605468-21.667968-7.597656-30.375 0-7.316406-4.226562-6.089844-4.011718-13.636718-4.011718-4.140626 0-7.5 3.359374-7.5 7.5 0 4.140624 3.359374 7.5 7.5 7.5h2.667968l3.457032 1.996093c-.570313 2.925781-.570313 5.960938 0 8.890625l-3.457032 1.992188h-2.667968c-4.140626 0-7.5 3.359375-7.5 7.5 0 4.144531 3.359374 7.5 7.5 7.5 7.46875 0 6.246093.257812 13.636718-4.011719 8.71875 7.605469 21.667969 7.597656 30.375 0 7.363282 4.253906 6.132813 4.011719 13.640625 4.011719 4.140625 0 7.5-3.355469 7.5-7.5 0-4.140625-3.359375-7.5-7.5-7.5h-2.671875l-3.457031-1.992188c.570313-2.925781.570313-5.964844 0-8.890625l3.457031-1.996093zm-28.828125 14.566406c-4.480468 0-8.125-3.644532-8.125-8.125 0-4.484375 3.644532-8.128906 8.125-8.128906 4.480469 0 8.128906 3.644531 8.128906 8.128906 0 4.480468-3.648437 8.125-8.128906 8.125zm0 0"/><path d="m260.195312 39.367188c0 3.460937-2.808593 6.269531-6.269531 6.269531-3.464843 0-6.269531-2.808594-6.269531-6.269531 0-3.464844 2.804688-6.269532 6.269531-6.269532 3.460938 0 6.269531 2.804688 6.269531 6.269532zm0 0"/><path d="m260.195312 67.246094c0 3.464844-2.808593 6.273437-6.269531 6.273437-3.464843 0-6.269531-2.808593-6.269531-6.273437 0-3.460938 2.804688-6.269532 6.269531-6.269532 3.460938 0 6.269531 2.808594 6.269531 6.269532zm0 0"/><path d="m283.171875 263.292969-6.53125-1.511719v-12.253906l6.53125-1.511719c4.035156-.9375 6.550781-4.964844 5.617187-9-.9375-4.035156-4.964843-6.550781-9-5.617187l-12.339843 2.859374c-3.398438.785157-5.808594 3.816407-5.808594 7.304688v24.179688c0 3.492187 2.410156 6.519531 5.8125 7.308593l12.335937 2.855469c4.039063.9375 8.066407-1.582031 9-5.617188.933594-4.03125-1.582031-8.0625-5.617187-8.996093zm0 0"/><path d="m257.15625 385.363281v62.207031c0 6.890626 5.601562 12.492188 12.488281 12.492188h79.445313c6.886718 0 12.492187-5.601562 12.492187-12.492188v-62.207031c0-6.886719-5.605469-12.492187-12.492187-12.492187h-79.445313c-6.886719.003906-12.488281 5.605468-12.488281 12.492187zm60.011719 2.511719-1.0625 3.875h-13.476563l-1.0625-3.875zm-45.011719 0h13.859375l2.316406 8.460938c1.683594 6.132812 7.296875 10.414062 13.65625 10.414062h14.757813c6.359375 0 11.976562-4.28125 13.65625-10.414062l2.316406-8.460938h13.863281v57.1875h-74.425781zm0 0"/><path d="m67.132812 434.097656c-4.140624 0-7.5 3.359375-7.5 7.5s3.359376 7.5 7.5 7.5h31.9375c4.140626 0 7.5-3.359375 7.5-7.5s-3.359374-7.5-7.5-7.5zm0 0"/><path d="m45.089844 416.46875c0 4.140625 3.359375 7.5 7.5 7.5h61.023437c4.140625 0 7.5-3.359375 7.5-7.5 0-4.144531-3.359375-7.5-7.5-7.5h-61.023437c-4.140625 0-7.5 3.355469-7.5 7.5zm0 0"/><path d="m196.234375 360.003906c-57.539063 0-104.347656-46.8125-104.347656-104.351562 0-57.539063 46.808593-104.347656 104.347656-104.347656 22.558594 0 44.03125 7.082031 62.101563 20.484374 3.324218 2.472657 8.023437 1.773438 10.492187-1.554687 2.464844-3.324219 1.769531-8.023437-1.554687-10.492187-20.671876-15.332032-45.238282-23.4375-71.039063-23.4375-65.808594 0-119.347656 53.539062-119.347656 119.347656 0 65.8125 53.539062 119.351562 119.347656 119.351562 48.546875 0 90.417969-29.136718 109.042969-70.84375.195312-.359375.363281-.734375.5-1.132812 16.117187-37.128906 12.648437-81.632813-12.347656-116.644532-2.40625-3.371093-7.089844-4.152343-10.460938-1.746093s-4.152344 7.089843-1.746094 10.460937c2.410156 3.375 4.601563 6.867188 6.574219 10.457032l-27.097656 6.273437c-14.445313-21.1875-38.65625-34.140625-64.464844-34.140625-42.988281 0-77.964844 34.976562-77.964844 77.964844 0 42.992187 34.976563 77.964844 77.964844 77.964844 25.808594 0 50.019531-12.949219 64.464844-34.136719l27.054687 6.265625c-17.753906 32.308594-52.121094 54.257812-91.519531 54.257812zm0-167.316406c19.15625 0 37.226563 8.839844 49.082031 23.5625-5.480468 3.214844-8.996094 9.125-8.996094 15.78125v15.515625c-6.550781 4.175781-9.75 7.609375-19.378906 7.609375-8.058594 0-11.605468-2.398438-16.511718-5.714844-5.464844-3.691406-12.261719-8.285156-24.914063-8.285156s-19.453125 4.59375-24.914063 8.285156c-5.777343 3.90625-9.292968 5.882813-17.328124 5.703125.273437-34.484375 28.410156-62.457031 62.960937-62.457031zm0 125.929688c-29.734375 0-54.71875-20.714844-61.28125-48.46875 12.101563-.207032 18.710937-4.671876 24.046875-8.28125 4.910156-3.316407 8.457031-5.714844 16.515625-5.714844s11.605469 2.398437 16.515625 5.714844c5.460938 3.691406 12.257812 8.285156 24.910156 8.285156 8.769532 0 14.726563-2.203125 19.378906-4.789063v13.914063c0 6.65625 3.515626 12.566406 8.996094 15.78125-11.855468 14.722656-29.925781 23.558594-49.082031 23.558594zm57.648437-36.113282c-1.511718-.347656-2.5625-1.675781-2.5625-3.226562 0-39.789063 0 27.488281 0-47.25 0-1.546875 1.054688-2.875 2.5625-3.226563l40.273438-9.324219c8.480469 22.941407 8.679688 48.835938-.035156 72.34375zm0 0"/></svg>