<?xml version="1.0" encoding="iso-8859-1"?>
<!-- Generator: Adobe Illustrator 19.0.0, SVG Export Plug-In . SVG Version: 6.00 Build 0)  -->
<svg version="1.1" id="Capa_1" xmlns="http://www.w3.org/2000/svg" xmlns:xlink="http://www.w3.org/1999/xlink" x="0px" y="0px"
	 viewBox="0 0 512 512" style="enable-background:new 0 0 512 512;" xml:space="preserve">
<polygon style="fill:#45A2FF;" points="205.563,240.165 251.236,195.277 336.153,195.277 371.496,159.891 250.399,159.891 
	184.691,94.184 281.174,94.184 281.174,58.799 158.443,58.799 153.874,63.367 153.843,63.335 91.288,125.89 91.319,125.921 
	57.873,159.367 7.5,159.367 7.5,194.753 72.53,194.753 116.341,150.943 180.542,215.143 133.465,262.221 197.868,326.625 
	225.452,304.165 183.508,262.221 "/>
<g>
	<polygon style="fill:#2488FF;" points="85.657,159.367 105.211,139.813 91.288,125.89 91.319,125.921 57.873,159.367 	"/>
	<rect x="7.5" y="159.369" style="fill:#2488FF;" width="27.784" height="35.386"/>
	<polygon style="fill:#2488FF;" points="161.248,262.221 208.325,215.143 144.125,150.943 130.233,164.835 180.542,215.143 
		133.465,262.221 197.868,326.625 213.183,314.156 	"/>
</g>
<circle style="fill:#FFC477;" cx="86.48" cy="58.519" r="51.04"/>
<path style="fill:#FFA733;" d="M71.918,94.612c-19.932-19.931-19.932-52.247,0-72.178c7.211-7.211,16.044-11.798,25.324-13.792
	C80.871,5.125,63.108,9.714,50.387,22.434c-19.932,19.932-19.932,52.247,0,72.178c12.721,12.721,30.484,17.309,46.855,13.792
	C87.962,106.411,79.128,101.823,71.918,94.612z"/>
<path style="fill:#ADDFBB;" d="M180.516,358.786l-3.773-3.902l223.552-223.826l7.042,6.334c-0.111,7.847-0.174,12.267-0.285,20.113
	l-206.32,201.568C192.829,358.96,188.419,358.898,180.516,358.786z"/>
<path style="fill:#45A2FF;" d="M7.01,393.891c49.702,0,49.702,20,99.404,20s49.702-20,99.404-20c49.7,0,49.7,20,99.399,20
	c49.698,0,49.698-20,99.396-20c49.699,0,49.699,20,99.398,20v90.595h-497L7.01,393.891z"/>
<path style="fill:#2488FF;" d="M7.01,393.891v110.595h43.996V401.631C40.225,397.488,28.086,393.891,7.01,393.891z"/>
<rect x="122.974" y="76.16" transform="matrix(0.7071 -0.7071 0.7071 0.7071 -49.4899 159.0195)" style="fill:#FF456D;" width="88.469" height="126.179"/>
<polygon style="fill:#2488FF;" points="184.691,94.184 215.109,94.184 179.723,58.799 158.443,58.799 153.874,63.367 "/>
<g>
	
		<rect x="154.273" y="113.965" transform="matrix(-0.7071 0.7071 -0.7071 -0.7071 372.5095 92.1938)" style="fill:#FF0C38;" width="25.775" height="18.562"/>
	
		<rect x="187.921" y="147.605" transform="matrix(-0.7071 0.7071 -0.7071 -0.7071 453.737 125.8283)" style="fill:#FF0C38;" width="25.775" height="18.562"/>
	<polygon style="fill:#FF0C38;" points="119.273,125.921 167.851,77.343 153.874,63.367 91.319,125.921 180.542,215.143 
		194.519,201.167 	"/>
</g>
<g>
	
		<rect x="138.27" y="113.959" transform="matrix(-0.7071 0.7071 -0.7071 -0.7071 345.1851 103.4991)" style="fill:#D8D7DA;" width="25.775" height="18.562"/>
	
		<rect x="171.921" y="147.609" transform="matrix(-0.7071 0.7071 -0.7071 -0.7071 426.4248 137.1486)" style="fill:#D8D7DA;" width="25.775" height="18.562"/>
</g>
<g>
	<rect x="260.93" y="17.319" style="fill:#FFC477;" width="20.233" height="41.479"/>
	<rect x="260.93" y="94.179" style="fill:#FFC477;" width="20.233" height="41.479"/>
</g>
<g>
	<path style="fill:#1D1D1F;" d="M116.341,161.549l53.594,53.594l-47.077,47.078l57.182,57.182l10.606-10.606l-46.575-46.575l0,0
		l99.026-99.026l4.196,4.196h91.034v-15h-84.821l-50.708-50.708h70.869v26.478h-5.233v-13.979h-15v28.979h35.233v-21.158
		L336.333,85.2h95.872v-15h-95.871l-47.667-36.806V9.819h-35.233v28.979h15V24.819h5.233v26.479H155.336l-10.441,10.379
		c0.857-16.023-4.814-32.333-17.026-44.546c-22.824-22.824-59.961-22.824-82.785,0s-22.824,59.961,0,82.785
		c11.412,11.412,26.402,17.118,41.393,17.118c1.052,0,2.103-0.035,3.153-0.091l-34.862,34.925H0v50.386h75.637L116.341,161.549z
		 M101.926,125.921l20.671-20.671l11.412,11.412l-9.129,9.129l23.731,23.731l9.128-9.128l9.915,9.915l-9.128,9.128l23.731,23.731
		l9.128-9.128l9.827,9.827l-20.671,20.671L101.926,125.921z M148.611,128.309l-2.519-2.519l7.62-7.62l2.519,2.519L148.611,128.309z
		 M182.257,161.955l-2.519-2.519l7.62-7.62l2.519,2.519L182.257,161.955z M211.819,173.26l-9.827-9.827l9.098-9.098l-23.731-23.731
		l-9.098,9.098l-9.915-9.915l9.098-9.098l-23.731-23.731l-9.097,9.097l-11.412-11.412l20.671-20.671l78.616,78.616L211.819,173.26z
		 M288.667,103.052l0.008-50.703l32.829,25.349L288.667,103.052z M273.667,66.299v20.386h-85.869l-20.386-20.386H273.667z
		 M86.476,102.061c-11.629,0-22.563-4.529-30.786-12.752c-16.975-16.976-16.975-44.596,0-61.572
		c8.488-8.488,19.637-12.731,30.786-12.731s22.298,4.244,30.786,12.731c16.975,16.976,16.975,44.596,0,61.572
		C109.039,97.532,98.105,102.061,86.476,102.061z M15,187.253v-20.386h45.979l30.34-30.34l14.415,14.415l-36.311,36.311H15z"/>
	<polygon style="fill:#1D1D1F;" points="254.305,202.777 294.866,202.777 294.866,187.777 248.168,187.777 200.26,234.863 
		172.901,262.221 205.063,294.384 215.67,283.777 194.114,262.221 210.821,245.514 	"/>
	<path style="fill:#1D1D1F;" d="M414.549,134.667l-14.855-13.382L165.738,355.199l11.057,11.449l26.45,0.395l210.908-205.763
		L414.549,134.667z M399.246,154.867L197.234,351.951l-6.928-0.103l209.121-209.085L399.246,154.867z"/>
	<path style="fill:#1D1D1F;" d="M457.601,396.934c-12.879-5.183-26.197-10.542-52.499-10.542s-39.619,5.359-52.498,10.542
		c-12.086,4.864-23.501,9.458-46.898,9.458s-34.813-4.594-46.9-9.458c-12.879-5.183-26.197-10.542-52.5-10.542
		s-39.622,5.359-52.501,10.542c-12.087,4.864-23.503,9.458-46.902,9.458s-34.815-4.594-46.902-9.458
		c-12.88-5.183-26.198-10.542-52.501-10.542H0v125.595h512V406.392h-7.5C481.103,406.392,469.688,401.798,457.601,396.934z
		 M497,496.986H15v-95.424c18.489,0.873,28.683,4.974,39.402,9.288c12.88,5.183,26.198,10.542,52.502,10.542
		c26.303,0,39.622-5.359,52.501-10.542c12.087-4.864,23.503-9.458,46.902-9.458c23.397,0,34.813,4.594,46.9,9.458
		c12.879,5.183,26.197,10.542,52.5,10.542c26.301,0,39.619-5.359,52.498-10.542c12.086-4.864,23.502-9.458,46.898-9.458
		c23.397,0,34.813,4.594,46.899,9.458c11.594,4.666,23.542,9.474,44.999,10.387v75.749H497z"/>
	<path style="fill:#1D1D1F;" d="M416.387,431.682c16.143,1.22,25.601,5.026,35.614,9.056c6.923,2.786,14.082,5.667,23.437,7.716
		l3.209-14.652c-8.129-1.781-14.403-4.306-21.046-6.979c-10.632-4.278-21.626-8.703-40.084-10.097L416.387,431.682z"/>
	<rect x="447.2" y="70.199" style="fill:#1D1D1F;" width="64.795" height="15"/>
	<rect x="84" y="286.13" style="fill:#1D1D1F;" width="41.36" height="15"/>
	<rect x="34" y="286.13" style="fill:#1D1D1F;" width="15" height="15"/>
	<rect x="59" y="286.13" style="fill:#1D1D1F;" width="15" height="15"/>
	<rect x="15.442" y="237.559" style="fill:#1D1D1F;" width="60" height="15"/>
	<rect x="90.44" y="237.559" style="fill:#1D1D1F;" width="17.565" height="15"/>
	<rect x="458.75" y="353.24" style="fill:#1D1D1F;" width="14.75" height="15"/>
	<rect x="433.75" y="353.24" style="fill:#1D1D1F;" width="15" height="15"/>
	<rect x="408.75" y="353.24" style="fill:#1D1D1F;" width="15" height="15"/>
	<rect x="436.61" y="277.46" style="fill:#1D1D1F;" width="15" height="15"/>
	<rect x="361.61" y="277.46" style="fill:#1D1D1F;" width="15" height="15"/>
	<rect x="411.61" y="277.46" style="fill:#1D1D1F;" width="15" height="15"/>
	<rect x="386.61" y="277.46" style="fill:#1D1D1F;" width="15" height="15"/>
</g>
<g>
	<path style="fill:#FFFFFF;" d="M125.514,58.523h-15c0-13.073-10.631-23.855-23.698-24.035l0.206-14.999
		C108.246,19.781,125.514,37.292,125.514,58.523z M62.438,58.523h-15c0-6.208,1.496-12.39,4.327-17.877l13.33,6.877
		C63.332,50.942,62.438,54.643,62.438,58.523z M69.599,41.408L59.067,30.726c4.418-4.356,9.869-7.631,15.764-9.472l4.47,14.318
		C75.677,36.705,72.322,38.722,69.599,41.408z"/>
	<path style="fill:#FFFFFF;" d="M106.894,449.243c-9.837,0-18.494-0.75-26.466-2.293l2.85-14.727
		c7.022,1.359,14.748,2.02,23.617,2.02c0.003,0,0.005,0,0.008,0c23.399,0,34.815-4.594,46.902-9.458
		c4.882-1.964,9.93-3.996,15.785-5.739l4.281,14.376c-5.185,1.544-9.693,3.358-14.466,5.279
		c-12.88,5.183-26.199,10.542-52.502,10.542C106.901,449.243,106.897,449.243,106.894,449.243z M70.004,444.385
		c-5.3-1.588-9.988-3.428-14.723-5.331l5.594-13.918c4.569,1.836,8.733,3.471,13.436,4.88L70.004,444.385z M46.208,435.509
		c-4.73-1.724-8.977-2.962-13.366-3.897l3.126-14.671c5.089,1.084,9.975,2.506,15.377,4.476L46.208,435.509z"/>
</g>
<g>
</g>
<g>
</g>
<g>
</g>
<g>
</g>
<g>
</g>
<g>
</g>
<g>
</g>
<g>
</g>
<g>
</g>
<g>
</g>
<g>
</g>
<g>
</g>
<g>
</g>
<g>
</g>
<g>
</g>
</svg>
