<?xml version="1.0" encoding="iso-8859-1"?>
<!-- Generator: Adobe Illustrator 19.0.0, SVG Export Plug-In . SVG Version: 6.00 Build 0)  -->
<svg version="1.1" id="Layer_1" xmlns="http://www.w3.org/2000/svg" xmlns:xlink="http://www.w3.org/1999/xlink" x="0px" y="0px"
	 viewBox="0 0 512 512" style="enable-background:new 0 0 512 512;" xml:space="preserve">
<polyline style="fill:#FEC95B;" points="353.496,166.989 505.65,166.989 505.65,433.567 6.344,433.567 6.344,166.989 
	159.969,166.989 "/>
<polyline style="fill:#BACBD8;" points="353.496,166.989 505.65,166.989 505.65,196.762 6.344,196.762 6.344,166.989 
	159.969,166.989 "/>
<g>
	<polygon style="fill:#FEC95B;" points="146.344,149.005 256.691,78.427 367.036,149.005 	"/>
	<polyline style="fill:#FEC95B;" points="348.539,149.005 348.539,180.741 164.853,180.741 164.853,149.005 	"/>
</g>
<polyline style="fill:#E2AD50;" points="348.539,149.005 348.539,161.853 164.853,161.853 164.853,149.005 "/>
<polyline style="fill:#BACBD8;" points="353.496,388.233 505.65,388.233 505.65,433.567 6.344,433.567 6.344,388.233 
	159.969,388.233 "/>
<rect x="201.785" y="180.893" style="fill:#E2AD50;" width="108.959" height="227.438"/>
<polyline style="fill:#FEC95B;" points="268.691,174.394 268.691,375.385 243.303,375.385 243.303,174.394 "/>
<g>
	<polyline style="fill:#E2AD50;" points="268.691,179.836 268.691,198.877 243.303,198.877 243.303,179.836 	"/>
	<polyline style="fill:#E2AD50;" points="201.785,179.836 201.785,198.877 176.397,198.877 176.397,179.836 	"/>
	<polyline style="fill:#E2AD50;" points="335.865,179.836 335.865,198.877 310.476,198.877 310.476,179.836 	"/>
</g>
<g>
	<polyline style="fill:#CDEFF7;" points="268.691,246.327 310.476,246.327 310.476,207.34 268.691,207.34 	"/>
	<polyline style="fill:#CDEFF7;" points="201.517,246.327 243.303,246.327 243.303,207.34 201.517,207.34 	"/>
	<polyline style="fill:#CDEFF7;" points="201.517,336.245 243.303,336.245 243.303,292.873 201.517,292.873 	"/>
	<polyline style="fill:#CDEFF7;" points="268.691,336.245 310.476,336.245 310.476,292.873 268.691,292.873 	"/>
</g>
<g>
	<polyline style="fill:#BACBD8;" points="206.278,410.294 206.278,375.385 171.369,375.385 171.369,410.294 	"/>
	<polyline style="fill:#BACBD8;" points="340.625,410.294 340.625,375.385 305.716,375.385 305.716,410.294 	"/>
	<polyline style="fill:#BACBD8;" points="273.451,410.294 273.451,375.385 238.542,375.385 238.542,410.294 	"/>
</g>
<polyline style="fill:#E2E5E8;" points="370.245,433.567 370.245,410.294 141.749,410.294 141.749,433.567 "/>
<g>
	<rect x="46.704" y="216.712" style="fill:#CDEFF7;" width="34.909" height="50.777"/>
	<rect x="110.175" y="216.712" style="fill:#CDEFF7;" width="34.909" height="50.777"/>
	<rect x="46.704" y="312.976" style="fill:#CDEFF7;" width="34.909" height="50.777"/>
	<rect x="110.175" y="312.976" style="fill:#CDEFF7;" width="34.909" height="50.777"/>
	<rect x="368.291" y="216.712" style="fill:#CDEFF7;" width="34.909" height="50.777"/>
	<rect x="431.762" y="216.712" style="fill:#CDEFF7;" width="34.909" height="50.777"/>
	<rect x="368.291" y="312.976" style="fill:#CDEFF7;" width="34.909" height="50.777"/>
	<rect x="431.762" y="312.976" style="fill:#CDEFF7;" width="34.909" height="50.777"/>
</g>
<path d="M505.653,160.645H354.888v-5.289h12.15c2.819,0,5.301-1.86,6.092-4.566s-0.297-5.61-2.672-7.129L260.114,73.083
	c-2.087-1.334-4.754-1.334-6.841,0l-110.346,70.578c-2.375,1.519-3.463,4.423-2.672,7.129s3.273,4.566,6.092,4.566h12.161v5.289
	H6.347c-3.505,0-6.347,2.842-6.347,6.347V433.57c0,3.505,2.842,6.347,6.347,6.347h499.306c3.505,0,6.347-2.842,6.347-6.347V166.992
	C512,163.487,509.158,160.645,505.653,160.645z M363.901,427.223H148.099v-10.578h215.802V427.223z M329.521,369.041h-12.694
	v-181.95h12.694V369.041z M279.802,403.95v-28.562c0-2.957-2.025-5.433-4.76-6.139v-26.655h29.091v26.655
	c-2.736,0.706-4.76,3.183-4.76,6.139v28.562H279.802z M207.868,213.537h29.091v26.446h-29.091V213.537z M207.868,252.678h29.091
	v16.926h-29.091V252.678z M207.868,282.298h29.091v4.231h-29.091V282.298z M207.868,299.223h29.091v30.678h-29.091V299.223z
	 M207.868,369.25v-26.655h29.091v26.655c-2.736,0.706-4.76,3.183-4.76,6.139v28.562h-19.57v-28.562
	C212.628,372.433,210.603,369.955,207.868,369.25z M244.893,381.736h22.215v22.215h-22.215V381.736z M275.041,213.537h29.091v26.446
	h-29.091V213.537z M275.041,252.678h29.091v16.926h-29.091V252.678z M275.041,282.298h29.091v4.231h-29.091V282.298z
	 M275.041,299.223h29.091v30.678h-29.091V299.223z M304.132,200.843h-29.091v-13.752h29.091V200.843z M262.347,369.041h-12.694
	v-181.95h12.694V369.041z M236.959,200.843h-29.091v-13.752h29.091V200.843z M195.174,369.041h-12.694v-181.95h12.694V369.041z
	 M169.785,369.25c-2.736,0.706-4.76,3.183-4.76,6.139v6.347H12.694V202.959h157.091V369.25z M177.719,381.736h22.215v22.215h-22.215
	V381.736z M312.066,403.95v-22.215h22.215v22.215H312.066z M342.215,369.25V202.959h157.091v178.777H346.975v-6.347
	C346.975,372.433,344.95,369.955,342.215,369.25z M499.306,173.339v16.926H342.215v-3.174h6.326c3.505,0,6.347-2.842,6.347-6.347
	v-7.405H499.306z M256.693,85.966l88.643,56.697H168.05L256.693,85.966z M342.194,155.355v19.041h-12.673h-12.694h-12.694h-29.091
	h-12.694h-12.694h-12.694h-29.091h-12.694h-12.694h-11.277v-19.041H342.194z M158.508,173.339v7.405
	c0,3.505,2.842,6.347,6.347,6.347h4.93v3.174H12.694v-16.926H158.508z M12.694,394.43h152.331v9.521h-23.273
	c-3.505,0-6.347,2.842-6.347,6.347v16.926H12.694V394.43z M376.595,427.223v-16.926c0-3.505-2.842-6.347-6.347-6.347h-23.273v-9.521
	h152.331v32.793H376.595z"/>
<path d="M46.709,273.835h34.909c3.505,0,6.347-2.842,6.347-6.347v-50.777c0-3.505-2.842-6.347-6.347-6.347H46.709
	c-3.505,0-6.347,2.842-6.347,6.347v50.777C40.362,270.993,43.205,273.835,46.709,273.835z M53.057,261.14v-21.157h22.215v21.157
	H53.057z M75.271,223.058v4.231H53.057v-4.231H75.271z"/>
<path d="M110.18,273.835h34.909c3.505,0,6.347-2.842,6.347-6.347v-50.777c0-3.505-2.842-6.347-6.347-6.347H110.18
	c-3.505,0-6.347,2.842-6.347,6.347v50.777C103.833,270.993,106.676,273.835,110.18,273.835z M116.528,261.14v-21.157h22.215v21.157
	H116.528z M138.742,223.058v4.231h-22.215v-4.231H138.742z"/>
<path d="M46.709,370.099h34.909c3.505,0,6.347-2.842,6.347-6.347v-50.777c0-3.505-2.842-6.347-6.347-6.347H46.709
	c-3.505,0-6.347,2.842-6.347,6.347v50.777C40.362,367.258,43.205,370.099,46.709,370.099z M53.057,357.405v-21.157h22.215v21.157
	H53.057z M75.271,319.322v4.231H53.057v-4.231H75.271z"/>
<path d="M110.18,370.099h34.909c3.505,0,6.347-2.842,6.347-6.347v-50.777c0-3.505-2.842-6.347-6.347-6.347H110.18
	c-3.505,0-6.347,2.842-6.347,6.347v50.777C103.833,367.258,106.676,370.099,110.18,370.099z M116.528,357.405v-21.157h22.215v21.157
	H116.528z M138.742,319.322v4.231h-22.215v-4.231H138.742z"/>
<path d="M368.296,273.835h34.909c3.505,0,6.347-2.842,6.347-6.347v-50.777c0-3.505-2.842-6.347-6.347-6.347h-34.909
	c-3.505,0-6.347,2.842-6.347,6.347v50.777C361.949,270.993,364.792,273.835,368.296,273.835z M374.643,261.14v-21.157h22.215v21.157
	H374.643z M396.858,223.058v4.231h-22.215v-4.231H396.858z"/>
<path d="M431.767,273.835h34.909c3.505,0,6.347-2.842,6.347-6.347v-50.777c0-3.505-2.842-6.347-6.347-6.347h-34.909
	c-3.505,0-6.347,2.842-6.347,6.347v50.777C425.42,270.993,428.263,273.835,431.767,273.835z M438.114,261.14v-21.157h22.215v21.157
	H438.114z M460.329,223.058v4.231h-22.215v-4.231H460.329z"/>
<path d="M368.296,370.099h34.909c3.505,0,6.347-2.842,6.347-6.347v-50.777c0-3.505-2.842-6.347-6.347-6.347h-34.909
	c-3.505,0-6.347,2.842-6.347,6.347v50.777C361.949,367.258,364.792,370.099,368.296,370.099z M374.643,357.405v-21.157h22.215
	v21.157H374.643z M396.858,319.322v4.231h-22.215v-4.231H396.858z"/>
<path d="M431.767,370.099h34.909c3.505,0,6.347-2.842,6.347-6.347v-50.777c0-3.505-2.842-6.347-6.347-6.347h-34.909
	c-3.505,0-6.347,2.842-6.347,6.347v50.777C425.42,367.258,428.263,370.099,431.767,370.099z M438.114,357.405v-21.157h22.215v21.157
	H438.114z M460.329,319.322v4.231h-22.215v-4.231H460.329z"/>
<g>
</g>
<g>
</g>
<g>
</g>
<g>
</g>
<g>
</g>
<g>
</g>
<g>
</g>
<g>
</g>
<g>
</g>
<g>
</g>
<g>
</g>
<g>
</g>
<g>
</g>
<g>
</g>
<g>
</g>
</svg>
