<svg height="466pt" viewBox="-24 0 466 466.75" width="466pt" xmlns="http://www.w3.org/2000/svg"><path d="m401.324219 110.828125c17.339843 18.972656 5.050781 50.800781-21.390625 51.703125-.429688.007812-.859375.019531-1.296875.019531h-79.292969l-1.507812-.78125 7.199218-13.960937c.300782-.410156.519532-7.289063 0-7.289063h-55.398437l-9.050781 16.050781-.539063-.308593h-110.152344c-23.59375-.003907-45.375-12.644531-57.078125-33.132813-4.085937-7.160156-6.234375-15.261718-6.242187-23.507812v-90.621094c19.621093.003906 36.742187 13.308594 41.589843 32.320312l7.492188 29.351563h230.589844c7.871094-.003906 15.449218 2.988281 21.199218 8.367187l7.210938 6.742188h-28.109375c-6.953125 0-12.585937 5.632812-12.585937 12.582031 0 6.953125 5.632812 12.585938 12.585937 12.585938h54.117187zm0 0" fill="#e48e66"/><path d="m204.375 70.671875h-88.71875l-7.492188-29.351563c-4.847656-19.011718-21.96875-32.316406-41.589843-32.320312v90.621094c.007812 8.246094 2.15625 16.347656 6.242187 23.507812 11.703125 20.488282 33.484375 33.128906 57.078125 33.132813h74.480469zm0 0" fill="#d18162"/><path d="m141.726562 418.128906h-50.261718c-14.015625 0-25.375-11.363281-25.371094-25.378906v-30.371094c0-13.761718 10.972656-25.019531 24.730469-25.367187.210937-.011719.429687-.011719.640625-.011719h236.160156c.210938 0 .429688 0 .640625.011719 13.757813.347656 24.730469 11.605469 24.730469 25.367187v30.371094c.003906 14.015625-11.355469 25.378906-25.371094 25.378906zm179.21875-40.558594c-.003906-11-8.925781-19.914062-19.925781-19.910156s-19.917969 8.921875-19.914062 19.921875c0 11 8.917969 19.917969 19.917969 19.917969 11.003906-.003906 19.921874-8.925781 19.921874-19.929688zm-183.300781 0c-.003906-11-8.925781-19.914062-19.925781-19.910156s-19.914062 8.921875-19.914062 19.921875c.003906 11 8.921874 19.917969 19.921874 19.917969 11.003907-.003906 19.921876-8.925781 19.917969-19.929688zm0 0" fill="#f8ec7d"/><path d="m251.253906 254.371094h37.421875c6.601563 0 12.519531 4.070312 14.878907 10.238281l21.550781 63.128906v1.292969h.441406l2.71875 7.96875v.011719c-.210937-.011719-.429687-.011719-.640625-.011719h-37.378906v-8.121094c0-11.003906-8.921875-19.925781-19.925782-19.925781-11.003906 0-19.925781 8.921875-19.925781 19.925781v8.121094h-158.929687c-.210938 0-.429688 0-.640625.011719v-.011719l2.722656-7.96875h.097656v-.292969l21.890625-64.128906c2.359375-6.164063 8.277344-10.238281 14.878906-10.238281zm0 0" fill="#e48e66"/><path d="m301.023438 357.628906c11.011718-.007812 19.945312 8.914063 19.953124 19.925782.003907 11.007812-8.917968 19.941406-19.929687 19.945312-11.007813.003906-19.9375-8.917969-19.941406-19.929688-.007813-11.007812 8.910156-19.9375 19.917969-19.941406zm0 0" fill="#e48e66"/><path d="m317.136719 418.128906v31.640625c-.003907 4.402344-3.570313 7.972657-7.972657 7.980469h-23.828124c-4.402344-.007812-7.96875-3.578125-7.972657-7.980469v-31.640625zm0 0" fill="#e48e66"/><path d="m290.246094 336.46875v.53125h-39.851563v-8.121094c0-11.003906 8.921875-19.925781 19.925781-19.925781 11.003907 0 19.925782 8.921875 19.925782 19.925781zm0 0" fill="#f8ec7d"/><path d="m141.726562 418.128906v31.640625c0 4.40625-3.566406 7.976563-7.972656 7.980469h-23.828125c-4.402343-.007812-7.96875-3.578125-7.972656-7.980469v-31.640625zm0 0" fill="#d18162"/><path d="m117.726562 357.628906c11.007813-.007812 19.941407 8.914063 19.949219 19.925782.003907 11.007812-8.917969 19.941406-19.925781 19.945312-11.011719.003906-19.941406-8.917969-19.945312-19.929688-.007813-11.007812 8.914062-19.9375 19.921874-19.941406zm0 0" fill="#d18162"/><path d="m209.375 254.371094h-78.960938c-6.601562 0-12.519531 4.074218-14.878906 10.238281l-21.890625 64.128906v.292969h-.097656l-2.722656 7.96875v.011719c.210937-.011719.429687-.011719.640625-.011719h117.910156zm0 0" fill="#d18162"/><path d="m209.375 337h-117.910156c-.210938 0-.429688 0-.640625.011719-13.757813.347656-24.730469 11.605469-24.730469 25.367187v30.371094c-.003906 14.015625 11.355469 25.378906 25.371094 25.378906h117.910156zm-91.648438 60.5c-11.015624.007812-19.945312-8.914062-19.953124-19.925781-.003907-11.011719 8.921874-19.941407 19.933593-19.945313 11.015625 0 19.941407 8.929688 19.9375 19.941406.003907 11.003907-8.914062 19.925782-19.917969 19.929688zm0 0" fill="#e2d574"/><path d="m301.023438 357.628906c11.011718-.007812 19.945312 8.914063 19.953124 19.925782.003907 11.007812-8.917968 19.941406-19.929687 19.945312-11.007813.003906-19.9375-8.917969-19.941406-19.929688-.007813-11.007812 8.910156-19.9375 19.917969-19.941406zm0 0" fill="#e48e66"/><path d="m359.375 311.5v11.128906c-.003906 3.535156-2.867188 6.398438-6.398438 6.402344h-27.429687l-.441406-1.292969v-3.4375c0-10.605469 8.59375-19.199219 19.199219-19.199219h8.671874c3.53125 0 6.394532 2.863282 6.398438 6.398438zm0 0" fill="#f8ec7d"/><path d="m317.136719 418.128906v31.640625c-.003907 4.402344-3.570313 7.972657-7.972657 7.980469h-23.828124c-4.402344-.007812-7.96875-3.578125-7.972657-7.980469v-31.640625zm0 0" fill="#e48e66"/><path d="m290.246094 336.46875v.53125h-39.851563v-8.121094c0-11.003906 8.921875-19.925781 19.925781-19.925781 11.003907 0 19.925782 8.921875 19.925782 19.925781zm0 0" fill="#f8ec7d"/><path d="m141.726562 418.128906v31.640625c0 4.40625-3.566406 7.976563-7.972656 7.980469h-23.828125c-4.402343-.007812-7.96875-3.578125-7.972656-7.980469v-31.640625zm0 0" fill="#e48e66"/><path d="m117.726562 357.628906c11.007813-.007812 19.941407 8.914063 19.949219 19.925782.003907 11.007812-8.917969 19.941406-19.925781 19.945312-11.011719.003906-19.941406-8.917969-19.945312-19.929688-.007813-11.007812 8.914062-19.9375 19.921874-19.941406zm0 0" fill="#e48e66"/><path d="m93.644531 324.300781v4.4375l-.097656.292969h-27.773437c-3.53125-.003906-6.394532-2.867188-6.398438-6.402344v-11.128906c.003906-3.535156 2.867188-6.398438 6.398438-6.398438h8.671874c10.605469 0 19.199219 8.59375 19.199219 19.199219zm0 0" fill="#f8ec7d"/><path d="m401.324219 110.828125-.660157.121094h-54.117187c-6.953125 0-12.585937-5.632813-12.585937-12.585938 0-6.949219 5.632812-12.582031 12.585937-12.582031h28.109375l10.347656 9.667969 14.5 13.550781c.640625.601562 1.242188 1.210938 1.820313 1.828125zm0 0" fill="#f8ec7d"/><path d="m305.035156 140.519531c.519532 0 .300782 6.878907 0 7.289063l-7.199218 13.960937-6.082032 11.789063c-11.828125 16.402344-30.816406 26.121094-51.039062 26.121094h-24.441406l24.3125-43.109376 9.050781-16.050781zm0 0" fill="#f8ec7d"/><g fill="#63316d"><path d="m117.726562 348.628906c-15.984374-.007812-28.945312 12.941406-28.953124 28.925782-.003907 15.980468 12.945312 28.941406 28.929687 28.945312 15.980469.003906 28.9375-12.949219 28.941406-28.929688-.011719-15.96875-12.949219-28.917968-28.917969-28.941406zm0 39.871094c-6.042968.007812-10.945312-4.886719-10.953124-10.925781-.003907-6.042969 4.894531-10.941407 10.933593-10.945313 6.042969 0 10.941407 4.898438 10.9375 10.941406-.003906 6.03125-4.886719 10.921876-10.917969 10.929688zm0 0"/><path d="m301.023438 348.628906c-15.980469-.007812-28.941407 12.941406-28.949219 28.925782-.003907 15.980468 12.945312 28.941406 28.925781 28.945312 15.984375.003906 28.941406-12.949219 28.945312-28.929688-.011718-15.96875-12.949218-28.917968-28.921874-28.941406zm0 39.871094c-6.039063.007812-10.945313-4.886719-10.949219-10.925781-.003907-6.042969 4.890625-10.941407 10.933593-10.945313 6.042969 0 10.941407 4.898438 10.9375 10.941406-.003906 6.03125-4.890624 10.921876-10.921874 10.929688zm0 0"/><path d="m352.976562 296.101562h-8.671874c-6.671876-.007812-13.125 2.367188-18.207032 6.6875l-14.023437-41.085937c-.035157-.101563-.070313-.207031-.109375-.308594-3.726563-9.625-12.96875-15.984375-23.289063-16.023437h-28.472656c-.808594-13.160156-11.703125-23.421875-24.886719-23.441406h-47.820312c-13.183594.019531-24.082032 10.28125-24.890625 23.441406h-32.191407c-10.3125.046875-19.546874 6.398437-23.28125 16.011718-.039062.105469-.078124.210938-.113281.320313l-14.101562 41.3125c-5.117188-4.460937-11.679688-6.917969-18.46875-6.914063h-8.675781c-8.5.007813-15.390626 6.898438-15.398438 15.398438v11.128906c.007812 8.503906 6.898438 15.390625 15.398438 15.402344h1.324218c-6.441406 6.460938-10.039062 15.222656-10 24.347656v30.371094c.019532 18.976562 15.394532 34.355469 34.371094 34.378906h1.488281v22.640625c.007813 9.371094 7.601563 16.96875 16.972657 16.980469h23.828124c9.371094-.011719 16.960938-7.609375 16.96875-16.980469v-22.640625h117.636719v22.640625c.007813 9.371094 7.601563 16.96875 16.972657 16.980469h23.828124c9.371094-.011719 16.964844-7.609375 16.972657-16.980469v-22.640625h1.488281c18.976562-.023437 34.351562-15.402344 34.371094-34.378906v-30.371094c.039062-9.125-3.558594-17.886718-10-24.347656h.980468c8.503907-.011719 15.390626-6.898438 15.402344-15.402344v-11.128906c-.011718-8.503906-6.902344-15.390625-15.402344-15.398438zm-8.671874 18h6.070312v5.929688h-15.332031c1.667969-3.613281 5.28125-5.925781 9.261719-5.929688zm-156.808594-74.171874h47.820312c3.25.007812 6.0625 2.265624 6.769532 5.441406h-61.359376c.707032-3.175782 3.515626-5.433594 6.769532-5.441406zm-63.507813 27.78125c1.050781-2.628907 3.597657-4.347657 6.425781-4.339844h158.261719c2.820313.011718 5.359375 1.722656 6.425781 4.332031l20.582032 60.300781h-16.460938c-.460937-15.632812-13.265625-28.066406-28.902344-28.066406-15.640624 0-28.445312 12.433594-28.90625 28.066406h-138.007812zm157.210938 60.289062h-21.761719c.449219-5.675781 5.1875-10.054688 10.882812-10.054688 5.695313 0 10.429688 4.378907 10.878907 10.054688zm-212.824219-13.898438h6.070312c3.980469.003907 7.59375 2.316407 9.261719 5.929688h-15.332031zm64.351562 134.648438h-21.773437v-21.621094h21.773437zm175.410157 0h-21.773438v-21.621094h21.773438zm35.859375-56c-.007813 9.039062-7.332032 16.367188-16.371094 16.378906h-236.160156c-9.039063-.011718-16.363282-7.339844-16.371094-16.378906v-30.371094c.050781-8.859375 7.097656-16.09375 15.953125-16.371094.066406 0 .101563 0 .167969-.007812h236.660156c.058594 0 .113281 0 .171875.007812 8.851563.28125 15.898437 7.511719 15.949219 16.371094zm0 0"/><path d="m407.898438 104.683594c-.769532-.824219-1.5-1.558594-2.25-2.257813l-32.054688-29.957031c-7.40625-6.953125-17.191406-10.8125-27.347656-10.800781h-223.601563l-5.761719-22.578125c-5.871093-22.996094-26.578124-39.08593775-50.308593-39.089844-4.96875 0-9 4.03125-9 9v90.621094c.007812 9.8125 2.566406 19.453125 7.425781 27.976562 13.332031 23.261719 38.082031 37.625 64.894531 37.664063h95.457031l-16.914062 30c-1.574219 2.785156-1.546875 6.195312.066406 8.957031 1.613282 2.761719 4.574219 4.460938 7.769532 4.460938h24.441406c23.105468-.03125 44.796875-11.132813 58.339844-29.855469.261718-.363281.496093-.742188.699218-1.140625l3.164063-6.132813h75.71875c.507812 0 1.003906-.011719 1.5-.023437h.097656c15.386719-.449219 29.066406-9.90625 34.921875-24.140625 6.226562-14.382813 3.410156-31.082031-7.195312-42.625zm-63.902344-8.84375c.675781-.675782 1.59375-1.058594 2.550781-1.058594h24.558594l7.671875 7.171875h-32.230469c-1.984375-.003906-3.589844-1.609375-3.59375-3.589844-.003906-.949219.371094-1.855469 1.042969-2.523437zm-59.921875 72.976562c-10.183594 13.730469-26.261719 21.839844-43.359375 21.863282h-9.03125l16.742187-29.6875 6.46875-11.472657h39.132813zm114.5-28.410156c-3.105469 7.761719-10.539063 12.925781-18.898438 13.128906-.34375.007813-.6875.015625-1.039062.015625h-66.4375l.679687-1.316406c1.125-1.953125 1.375-4.09375 1.453125-7.671875.09375-4.082031-.199219-6.109375-1.179687-8.035156-1.539063-3.070313-4.679688-5.007813-8.117188-5.007813h-55.398437c-3.25 0-6.246094 1.75-7.839844 4.582031l-6.292969 11.160157h-105.609375c-20.351562-.027344-39.136719-10.929688-49.261719-28.585938-3.308593-5.808593-5.054687-12.375-5.058593-19.054687v-80.394532c11.75 3.226563 20.863281 12.511719 23.871093 24.320313l7.488282 29.347656c1.019531 3.988281 4.609375 6.777344 8.722656 6.777344h220.128906c-1.644531.941406-3.160156 2.09375-4.507812 3.425781-6.171875 6.175782-8.019532 15.460938-4.679688 23.527344 3.34375 8.066406 11.214844 13.324219 19.949219 13.324219h50.476563c3.832031 6.15625 4.410156 13.796875 1.550781 20.457031zm0 0"/><path d="m291.164062 90.621094h-155.367187c-4.972656 0-9 4.027344-9 9 0 4.96875 4.027344 9 9 9h155.367187c4.972657 0 9-4.03125 9-9 0-4.972656-4.027343-9-9-9zm0 0"/><path d="m24.203125 35.320312c-4.96875 0-9 4.027344-9 9 0 4.96875 4.03125 9 9 9h11.300781c4.972656 0 9-4.03125 9-9 0-4.972656-4.027344-9-9-9zm0 0"/><path d="m42.566406 75.921875h-33.191406c-4.96875 0-9 4.027344-9 9 0 4.96875 4.03125 9 9 9h33.191406c4.96875 0 9-4.03125 9-9 0-4.972656-4.03125-9-9-9zm0 0"/><path d="m37.625 116.519531h-16.25c-4.96875 0-9 4.03125-9 9 0 4.972657 4.03125 9 9 9h16.25c4.96875 0 9-4.027343 9-9 0-4.96875-4.03125-9-9-9zm0 0"/></g></svg>