<svg height="511pt" viewBox="1 -34 511.999 511" width="511pt" xmlns="http://www.w3.org/2000/svg"><path d="m119.105469 433.414062h-66.570313c-10.871094 0-19.679687-8.8125-19.679687-19.679687v-148.449219c0-10.867187 8.808593-19.679687 19.679687-19.679687h66.570313c10.871093 0 19.679687 8.8125 19.679687 19.679687v148.449219c0 10.867187-8.808594 19.679687-19.679687 19.679687zm0 0" fill="#7071da"/><path d="m91.898438 176.527344-3.046876 28.859375h-26.761718c-12.980469 0-25.332032 5.585937-33.914063 15.328125-.511719.589844-1.171875.851562-1.832031.851562-1.257812 0-2.476562-.972656-2.476562-2.480468v-10.042969c0-16.046875 11.601562-30.039063 27.5-32.246094 1.300781-.171875 2.617187-.269531 3.9375-.269531zm0 0" fill="#ffbc70"/><path d="m488.449219 209.042969v10.042969c0 1.5-1.21875 2.46875-2.484375 2.46875-.652344 0-1.320313-.261719-1.832032-.839844-8.574218-9.742188-20.921874-15.328125-33.90625-15.328125h-27.148437l-3.050781-28.859375h36.984375c1.308593 0 2.628906.097656 3.929687.277344 15.898438 2.199218 27.507813 16.191406 27.507813 32.238281zm0 0" fill="#ffbc70"/><path d="m392.898438 433.414062h66.570312c10.871094 0 19.679688-8.8125 19.679688-19.679687v-148.449219c0-10.867187-8.808594-19.679687-19.679688-19.679687h-66.570312c-10.871094 0-19.679688 8.8125-19.679688 19.679687v148.449219c0 10.867187 8.808594 19.679687 19.679688 19.679687zm0 0" fill="#7071da"/><path d="m418.03125 157.683594c-1.035156-9.777344-9.28125-17.195313-19.109375-17.195313h-285.914063c-9.828124 0-18.074218 7.417969-19.109374 17.195313l-7.054688 66.683594c-.070312.671874-.105469 1.347656-.105469 2.023437 0 10.613281 8.605469 19.21875 19.214844 19.21875h300.023437c10.613282 0 19.21875-8.605469 19.21875-19.21875 0-.675781-.039062-1.351563-.109374-2.023437zm0 0" fill="#ff8163"/><path d="m313.378906 278.308594h22.316406l18.3125-32.699219h-197.394531l18.316407 32.699219zm0 0" fill="#6e6e6e"/><g fill="#d7d7e5"><path d="m237.507812 278.3125h-62.574218v78.882812h161.410156v-78.882812zm0 0"/><path d="m138.785156 323.445312h36.144532v33.746094h-36.144532zm0 0"/><path d="m336.34375 323.445312h36.878906v33.746094h-36.878906zm0 0"/></g><path d="m167.792969 193.046875c0 13.058594-10.585938 23.640625-23.640625 23.640625-13.058594 0-23.644532-10.582031-23.644532-23.640625s10.585938-23.640625 23.644532-23.640625c13.054687 0 23.640625 10.582031 23.640625 23.640625zm0 0" fill="#b7fffe"/><path d="m391.5625 193.046875c0 13.058594-10.582031 23.640625-23.640625 23.640625s-23.640625-10.582031-23.640625-23.640625 10.582031-23.640625 23.640625-23.640625 23.640625 10.582031 23.640625 23.640625zm0 0" fill="#b7fffe"/><path d="m391.433594 39.566406c-2.414063-16.6875-16.714844-29.066406-33.578125-29.066406h-205.21875c-16.859375 0-31.160157 12.378906-33.578125 29.066406l-12.976563 89.601563c-.867187 5.96875 3.765625 11.320312 9.796875 11.320312h278.734375c6.03125 0 10.660157-5.351562 9.796875-11.320312zm0 0" fill="#ffbc70"/><path d="m161.972656 41.824219h-9.335937c-1.285157 0-2.394531.960937-2.578125 2.230469l-13.664063 96.433593h237.484375l-13.445312-96.433593c-.183594-1.273438-1.292969-2.230469-2.578125-2.230469zm0 0" fill="#9ce8fd"/><path d="m411.398438 145.09375 16.847656-23.808594h54.261718c10.765626 0 19.492188-8.726562 19.492188-19.492187v-6.808594c0-10.765625-8.726562-19.492187-19.492188-19.492187h-11.121093c-6.25 0-12.117188 2.996093-15.785157 8.050781l-27.355468 37.742187zm0 0" fill="#ffbc70"/><path d="m100.5625 145.0625-16.808594-23.773438h-54.261718c-10.765626 0-19.492188-8.730468-19.492188-19.496093v-6.804688c0-10.769531 8.726562-19.496093 19.492188-19.496093h11.121093c6.25 0 12.117188 2.996093 15.785157 8.054687l27.355468 37.738281zm0 0" fill="#ffbc70"/><path d="m262.753906 357.195312h-87.820312l20.996094 29.53125h120.378906l21-29.53125zm0 0" fill="#6e6e6e"/><path d="m144.152344 159.40625c-18.550782 0-33.644532 15.089844-33.644532 33.640625s15.09375 33.640625 33.644532 33.640625c18.546875 0 33.640625-15.089844 33.640625-33.640625s-15.09375-33.640625-33.640625-33.640625zm0 47.28125c-7.523438 0-13.644532-6.117188-13.644532-13.640625s6.121094-13.644531 13.644532-13.644531c7.523437 0 13.640625 6.121094 13.640625 13.644531s-6.117188 13.640625-13.640625 13.640625zm0 0"/><path d="m367.921875 159.40625c-18.550781 0-33.640625 15.089844-33.640625 33.640625s15.089844 33.640625 33.640625 33.640625 33.640625-15.089844 33.640625-33.640625-15.089844-33.640625-33.640625-33.640625zm0 47.28125c-7.523437 0-13.640625-6.117188-13.640625-13.640625s6.117188-13.644531 13.640625-13.644531 13.640625 6.121094 13.640625 13.644531-6.117188 13.640625-13.640625 13.640625zm0 0"/><path d="m313.613281 159.40625c-5.523437 0-10 4.476562-10 10v13.640625h-8.578125v-13.640625c0-5.523438-4.480468-10-10-10-5.523437 0-10 4.476562-10 10v13.640625h-8.679687v-13.640625c0-5.523438-4.476563-10-10-10-5.523438 0-10 4.476562-10 10v13.640625h-8.679688v-13.640625c0-5.523438-4.476562-10-10-10-5.523437 0-10 4.476562-10 10v13.640625h-7.777343v-13.640625c0-5.523438-4.476563-10-10-10-5.519532 0-10 4.476562-10 10v47.28125c0 5.523438 4.480468 10 10 10 5.523437 0 10-4.476562 10-10v-13.640625h7.777343v13.640625c0 5.523438 4.476563 10 10 10 5.523438 0 10-4.476562 10-10v-13.640625h8.679688v13.640625c0 5.523438 4.476562 10 10 10 5.523437 0 10-4.476562 10-10v-13.640625h8.679687v13.640625c0 5.523438 4.476563 10 10 10 5.519532 0 10-4.476562 10-10v-13.640625h8.578125v13.640625c0 5.523438 4.476563 10 10 10 5.523438 0 10-4.476562 10-10v-47.28125c0-5.523438-4.476562-10-10-10zm0 0"/><path d="m482.507812 65.492188h-11.121093c-9.421875 0-18.351563 4.554687-23.882813 12.183593l-27.34375 37.730469c-.023437.035156-.050781.070312-.074218.105469l-6.265626 8.851562-12.488281-86.230469c-3.105469-21.453124-21.796875-37.632812-43.476562-37.632812h-205.21875c-21.675781 0-40.367188 16.175781-43.476563 37.632812l-12.230468 84.46875-5.011719-7.085937c-.023438-.039063-.054688-.074219-.078125-.113281l-27.34375-37.726563c-5.53125-7.628906-14.460938-12.183593-23.882813-12.183593h-11.121093c-16.261719 0-29.492188 13.230468-29.492188 29.496093v6.804688c0 16.261719 13.230469 29.496093 29.492188 29.496093h49.085937l9.410156 13.308594c-2.148437 3.5625-3.570312 7.636719-4.035156 12.03125l-1.046875 9.898438h-27.601562c-1.675782 0-3.4375.117187-5.3125.363281-20.59375 2.859375-36.125 20.984375-36.125 42.152344v10.042969c0 6.878906 5.597656 12.480468 12.480468 12.480468 3.601563 0 7.023438-1.574218 9.328125-4.242187 6.6875-7.585938 16.3125-11.9375 26.414063-11.9375h15.648437l-.839843 7.925781c-.105469 1.015625-.160157 2.050781-.160157 3.078125 0 3.21875.53125 6.316406 1.496094 9.21875h-25.699219c-16.367187 0-29.679687 13.3125-29.679687 29.679687v148.445313c0 16.363281 13.3125 29.679687 29.679687 29.679687h66.570313c16.367187 0 29.679687-13.3125 29.679687-29.679687v-46.542969h20.984375l18.011719 25.332032c1.875 2.636718 4.914062 4.203124 8.148438 4.203124h120.378906c3.238281 0 6.273437-1.566406 8.148437-4.203124l18.011719-25.332032h20.75v46.542969c0 16.363281 13.3125 29.679687 29.679688 29.679687h66.570312c16.367188 0 29.679688-13.3125 29.679688-29.679687v-148.449219c0-16.363281-13.3125-29.679687-29.679688-29.679687h-25.773438c.964844-2.898438 1.496094-5.996094 1.496094-9.214844 0-1.015625-.054687-2.046875-.160156-3.074219l-.839844-7.929687h16.035156c10.101563 0 19.722657 4.351562 26.394532 11.929687 2.367187 2.691406 5.773437 4.238282 9.34375 4.238282 6.882812 0 12.484375-5.59375 12.484375-12.46875v-10.042969c0-21.175781-15.535157-39.292969-36.140625-42.144531-1.789063-.246094-3.574219-.371094-5.296875-.371094h-27.988281l-1.046876-9.898438c-.464843-4.378906-1.875-8.433594-4.007812-11.988281l9.449219-13.355469h49.089843c16.261719 0 29.492188-13.230468 29.492188-29.492187v-6.808594c0-16.261719-13.230469-29.492187-29.492188-29.492187zm-453.015624 45.796874c-5.234376 0-9.492188-4.261718-9.492188-9.496093v-6.804688c0-5.234375 4.257812-9.496093 9.492188-9.496093h11.121093c3.035157 0 5.90625 1.46875 7.6875 3.921874l15.855469 21.875zm5.277343 91.347657c2.398438-8.308594 9.320313-14.730469 17.894531-15.925781.9375-.121094 1.828126-.183594 2.640626-.183594h25.484374l-.9375 8.859375h-17.761718c-9.671875 0-19.070313 2.542969-27.320313 7.25zm422.242188-16.109375c.8125 0 1.671875.0625 2.558593.183594 8.640626 1.195312 15.574219 7.617187 17.976563 15.914062-8.238281-4.691406-17.636719-7.238281-27.316406-7.238281h-18.152344l-.9375-8.859375zm-328.058594-145.527344c1.695313-11.6875 11.875-20.5 23.683594-20.5h205.222656c11.804687 0 21.988281 8.8125 23.679687 20.496094v.003906l12.960938 89.488281h-11.917969l-12.25-87.859375c-.890625-6.160156-6.253906-10.804687-12.476562-10.804687h-119.9375c-5.523438 0-10 4.476562-10 10 0 5.519531 4.476562 10 10 10h113.503906l10.964844 78.664062h-214.472657l11.144532-78.664062h2.914062c5.523438 0 10-4.480469 10-10 0-5.523438-4.476562-10-10-10h-9.335937c-6.222657 0-11.585938 4.644531-12.480469 10.828125l-12.441406 87.835937h-11.71875zm-9.847656 382.414062h-23.285157v-142.4375c0-5.523437-4.476562-10-10-10-5.523437 0-10 4.476563-10 10v142.4375h-23.285156c-5.339844 0-9.679687-4.34375-9.679687-9.679687v-9l3.359375 3.660156c1.972656 2.148438 4.664062 3.234375 7.367187 3.234375 2.417969 0 4.84375-.871094 6.761719-2.636718 4.066406-3.734376 4.335938-10.0625.601562-14.128907l-18.089843-19.691406v-23.367187l3.359375 3.660156c1.972656 2.148437 4.664062 3.234375 7.367187 3.234375 2.417969 0 4.84375-.871094 6.761719-2.632813 4.066406-3.738281 4.335938-10.0625.601562-14.132812l-18.089843-19.691406v-23.363282l3.359375 3.660156c1.972656 2.144532 4.664062 3.234376 7.367187 3.234376 2.417969 0 4.84375-.871094 6.761719-2.636719 4.066406-3.734375 4.335938-10.0625.601562-14.128907l-18.089843-19.691406v-4.03125c0-5.339844 4.339843-9.683594 9.679687-9.683594h66.570313c5.339843 0 9.679687 4.34375 9.679687 9.683594v4.03125l-18.089844 19.691406c-3.734374 4.066407-3.464843 10.394532.601563 14.128907 1.921875 1.765625 4.34375 2.636719 6.761719 2.636719 2.703125 0 5.394531-1.089844 7.367187-3.234376l3.359375-3.660156v23.363282l-18.089844 19.695312c-3.734374 4.066406-3.464843 10.394531.601563 14.128906 1.921875 1.765625 4.34375 2.636719 6.761719 2.636719 2.703125 0 5.394531-1.089844 7.367187-3.238281l3.359375-3.65625v23.363281l-18.089844 19.695313c-3.734374 4.066406-3.464843 10.390624.601563 14.128906 1.921875 1.761718 4.34375 2.632812 6.761719 2.632812 2.703125 0 5.394531-1.085937 7.367187-3.234375l3.359375-3.65625v8.996094c0 5.335937-4.339844 9.679687-9.679687 9.679687zm244.113281-158.128906v48.160156h-16.871094v-33.691406l13.523438-24.148437h4.976562c-1.050781 3.039062-1.628906 6.292969-1.628906 9.679687zm-178.285156 23.027344h52.574218c5.519532 0 10-4.480469 10-10v-.003906c0-5.523438-4.480468-10-10-10h-56.71875l-7.113281-12.699219h163.269531l-7.109374 12.699219h-16.457032c-5.523437 0-10 4.476562-10 10v.003906c0 5.519531 4.476563 10 10 10h12.96875v35.054688c0 .023437-.003906.050781-.003906.078124v23.746094h-141.410156zm-34.179688-32.707031 14.179688 25.320312v32.519531h-16.148438v-48.160156c0-3.386718-.578125-6.644531-1.628906-9.679687zm14.175782 91.585937h-16.144532v-13.746094h16.144532zm146.21875 29.535156h-110.054688l-6.78125-9.53125h123.613281zm35.199218-29.535156v-13.746094h16.871094v13.746094zm122.800782-81.90625v4.03125l-18.089844 19.695313c-3.734375 4.066406-3.464844 10.390625.601562 14.128906 1.921875 1.765625 4.34375 2.636719 6.761719 2.636719 2.703125 0 5.394531-1.089844 7.367187-3.238282l3.359376-3.65625v23.363282l-18.089844 19.691406c-3.734375 4.066406-3.464844 10.394531.601562 14.128906 1.921875 1.765625 4.34375 2.636719 6.761719 2.636719 2.703125 0 5.394531-1.089844 7.367187-3.234375l3.359376-3.660156v23.363281l-18.089844 19.695313c-3.734375 4.066406-3.464844 10.390624.601562 14.128906 1.921875 1.765625 4.34375 2.636718 6.761719 2.636718 2.703125 0 5.394531-1.089843 7.367187-3.234374l3.359376-3.660157v9c0 5.335938-4.339844 9.679688-9.679688 9.679688h-23.285156v-142.441407c0-5.519531-4.476563-10-10-10-5.523438 0-10 4.480469-10 10v142.441407h-23.285156c-5.339844 0-9.679688-4.34375-9.679688-9.679688v-9l3.359375 3.660157c1.972656 2.144531 4.664063 3.234374 7.367187 3.234374 2.417969 0 4.839844-.871093 6.761719-2.636718 4.066407-3.738282 4.335938-10.0625.601563-14.128906l-18.089844-19.695313v-17.929687c0-.015626 0-.03125 0-.050782v-5.378906l3.359375 3.65625c1.972656 2.148438 4.664063 3.234375 7.367187 3.234375 2.417969 0 4.839844-.871094 6.761719-2.636719 4.066407-3.734375 4.335938-10.0625.601563-14.128906l-18.089844-19.691406v-23.363282l3.359375 3.65625c1.972656 2.148438 4.664063 3.238282 7.367187 3.238282 2.417969 0 4.84375-.871094 6.761719-2.636719 4.066407-3.734375 4.335938-10.0625.601563-14.128906l-18.089844-19.695313v-4.03125c0-5.335937 4.34375-9.679687 9.679688-9.679687h66.574218c5.335938 0 9.675782 4.34375 9.675782 9.679687zm-76.25-29.679687h-286.945313c-5.082031 0-9.214844-4.132813-9.214844-9.214844 0-.324219.015625-.648437.050781-.972656l7.054688-66.683594c.496094-4.703125 4.4375-8.25 9.164062-8.25h285.914063c2.230469 0 4.277344.796875 5.878906 2.125.023438.019531.050781.039063.074219.058594 1.753906 1.484375 2.953125 3.613281 3.210938 6.066406l4.753906 44.9375.292968 2.761719c0 .003906 0 .007812.003907.011718l2.003906 18.964844c.035156.328125.050781.65625.050781.976563 0 5.082031-4.132812 9.21875-9.214844 9.21875zm99.101562-133.8125c0 5.234375-4.257812 9.496093-9.492188 9.496093h-34.664062l15.855469-21.875c1.78125-2.453124 4.652343-3.921874 7.6875-3.921874h11.121093c5.234376 0 9.492188 4.261718 9.492188 9.496093zm0 0"/><path d="m191.148438 45.644531c1.597656 3.84375 5.558593 6.386719 9.730468 6.167969 4.175782-.21875 7.855469-3.085938 9.070313-7.085938 1.160156-3.824218-.121094-8.097656-3.214844-10.632812-3.363281-2.757812-8.277344-3.007812-11.894531-.589844-3.910156 2.621094-5.503906 7.789063-3.691406 12.140625zm0 0"/><path d="m285.808594 274.488281c-1.609375-3.871093-5.570313-6.390625-9.765625-6.164062-4.160157.226562-7.808594 3.101562-9.027344 7.082031-1.21875 3.984375.261719 8.457031 3.609375 10.933594 3.269531 2.417968 7.777344 2.609375 11.230469.460937 4.097656-2.542969 5.8125-7.859375 3.953125-12.3125zm0 0"/></svg>