<?xml version="1.0" encoding="iso-8859-1"?>
<!-- Generator: Adobe Illustrator 19.0.0, SVG Export Plug-In . SVG Version: 6.00 Build 0)  -->
<svg version="1.1" id="Capa_1" xmlns="http://www.w3.org/2000/svg" xmlns:xlink="http://www.w3.org/1999/xlink" x="0px" y="0px"
	 viewBox="0 0 480.002 480.002" style="enable-background:new 0 0 480.002 480.002;" xml:space="preserve">
<path style="fill:#06AAE9;" d="M192.001,344l-88-88l-24,24l96,96h272v-32H192.001z"/>
<path style="fill:#F7931E;" d="M176.001,24C90.025,24,34.585,80.528,32.089,151.256c-0.088,3.579,1.458,7.003,4.2,9.304
	c10.564,9.32,26.216,9.951,37.496,1.512c3.721-2.648,8.711-2.648,12.432,0c10.534,7.917,25.034,7.917,35.568,0
	c3.721-2.648,8.711-2.648,12.432,0c10.534,7.917,25.034,7.917,35.568,0c3.721-2.648,8.711-2.648,12.432,0
	c10.534,7.917,25.034,7.917,35.568,0c3.721-2.648,8.711-2.648,12.432,0c10.534,7.917,25.034,7.917,35.568,0
	c3.721-2.648,8.711-2.648,12.432,0c11.281,8.44,26.936,7.805,37.496-1.52c2.744-2.291,4.286-5.714,4.184-9.288
	C317.065,80.536,254.169,24,176.001,24z"/>
<circle style="fill:#ED1C24;" cx="408.001" cy="72" r="28.448"/>
<path d="M472.001,392H163.313L53.657,282.344c-3.07-3.178-8.134-3.266-11.312-0.196c-3.178,3.07-3.266,8.134-0.196,11.312
	c0.064,0.067,0.13,0.132,0.196,0.196l38.528,38.528L36.001,392h-28c-4.418,0-8,3.582-8,8s3.582,8,8,8h41.056L9.345,467.56
	c-2.452,3.676-1.46,8.644,2.216,11.096s8.644,1.46,11.096-2.216L68.281,408h99.72v64c0,4.418,3.582,8,8,8s8-3.582,8-8v-64h219.72
	l45.6,68.44c2.452,3.676,7.42,4.668,11.096,2.216s4.668-7.42,2.216-11.096L422.945,408h49.056c4.418,0,8-3.582,8-8
	S476.419,392,472.001,392L472.001,392z M92.297,343.608L140.689,392H56.001L92.297,343.608z"/>
<path d="M200.001,168c6.407-0.036,12.636-2.113,17.784-5.928c3.719-2.656,8.713-2.656,12.432,0c10.534,7.917,25.034,7.917,35.568,0
	c3.719-2.656,8.713-2.656,12.432,0c11.28,8.443,26.937,7.808,37.496-1.52c2.744-2.291,4.286-5.714,4.184-9.288
	C317.065,80.536,254.169,24,176.001,24C90.025,24,34.585,80.528,32.089,151.248c-0.089,3.581,1.456,7.008,4.2,9.312
	c5.477,4.746,12.466,7.383,19.712,7.44c6.407-0.036,12.636-2.113,17.784-5.928c3.719-2.656,8.713-2.656,12.432,0
	c10.534,7.917,25.034,7.917,35.568,0c3.719-2.656,8.713-2.656,12.432,0c9.886,7.492,23.42,7.944,33.784,1.128v145.52l-58.344-58.344
	c-3.124-3.123-8.188-3.123-11.312,0l-24,24c-3.123,3.124-3.123,8.188,0,11.312l96,96c1.505,1.489,3.539,2.32,5.656,2.312h272
	c4.418,0,8-3.582,8-8v-32c0-4.418-3.582-8-8-8H195.313l-11.312-11.312V163.2C188.77,166.288,194.32,167.953,200.001,168L200.001,168
	z M192.001,352h248v16H179.313l-88-88l12.688-12.688l66.336,66.336l16,16C187.838,351.153,189.875,352,192.001,352L192.001,352z
	 M152.001,152c-3.023-0.043-5.953-1.046-8.368-2.864c-9.333-6.736-21.931-6.736-31.264,0c-4.923,3.825-11.813,3.825-16.736,0
	c-9.333-6.736-21.931-6.736-31.264,0c-2.414,1.821-5.345,2.824-8.368,2.864c-2.795-0.031-5.517-0.898-7.816-2.488
	C51.641,84.912,103.865,40,176.001,40c68.336,0,124,47.92,127.792,109.536c-2.296,1.576-5.008,2.433-7.792,2.464
	c-3.023-0.043-5.953-1.046-8.368-2.864c-9.333-6.736-21.931-6.736-31.264,0c-4.923,3.825-11.813,3.825-16.736,0
	c-9.333-6.736-21.931-6.736-31.264,0c-4.923,3.825-11.813,3.825-16.736,0c-9.333-6.736-21.931-6.736-31.264,0
	C157.955,150.957,155.024,151.96,152.001,152L152.001,152z"/>
<path d="M371.553,72c0,20.13,16.318,36.448,36.448,36.448S444.449,92.13,444.449,72s-16.318-36.448-36.448-36.448l0,0
	C387.88,35.574,371.575,51.879,371.553,72z M408.001,51.552c11.293,0,20.448,9.155,20.448,20.448s-9.155,20.448-20.448,20.448
	S387.553,83.293,387.553,72l0,0C387.566,60.712,396.713,51.565,408.001,51.552z"/>
<path d="M336.001,72c0,4.418,3.582,8,8,8h14.216c4.418,0,8-3.582,8-8s-3.582-8-8-8h-14.216C339.583,64,336.001,67.582,336.001,72z"
	/>
<path d="M368.401,21.088c-3.178-3.07-8.242-2.982-11.312,0.196c-2.994,3.1-2.994,8.016,0,11.116l10.064,10.064
	c3.178,3.07,8.242,2.982,11.312-0.196c2.994-3.1,2.994-8.016,0-11.116L368.401,21.088z"/>
<path d="M416.001,22.216V8c0-4.418-3.582-8-8-8s-8,3.582-8,8v14.216c0,4.418,3.582,8,8,8S416.001,26.634,416.001,22.216z"/>
<path d="M458.913,21.088c-3.124-3.123-8.188-3.123-11.312,0l-10.064,10.064c-3.178,3.07-3.266,8.134-0.196,11.312
	c3.07,3.178,8.134,3.266,11.312,0.196c0.067-0.064,0.132-0.13,0.196-0.196L458.913,32.4
	C462.036,29.276,462.036,24.212,458.913,21.088z"/>
<path d="M472.001,64h-14.216c-4.418,0-8,3.582-8,8s3.582,8,8,8h14.216c4.418,0,8-3.582,8-8S476.419,64,472.001,64z"/>
<path d="M437.537,101.536c-3.123,3.124-3.123,8.188,0,11.312l10.064,10.064c3.178,3.07,8.242,2.982,11.312-0.196
	c2.994-3.1,2.994-8.015,0-11.116l-10.064-10.064C445.725,98.413,440.661,98.413,437.537,101.536z"/>
<path d="M400.001,121.784V136c0,4.418,3.582,8,8,8s8-3.582,8-8v-14.216c0-4.418-3.582-8-8-8S400.001,117.366,400.001,121.784z"/>
<path d="M367.153,101.536L357.089,111.6c-3.178,3.07-3.266,8.134-0.196,11.312c3.07,3.178,8.134,3.266,11.312,0.196
	c0.067-0.064,0.132-0.13,0.196-0.196l10.064-10.064c3.069-3.178,2.982-8.243-0.196-11.312
	C375.168,98.542,370.253,98.542,367.153,101.536z"/>
<g>
</g>
<g>
</g>
<g>
</g>
<g>
</g>
<g>
</g>
<g>
</g>
<g>
</g>
<g>
</g>
<g>
</g>
<g>
</g>
<g>
</g>
<g>
</g>
<g>
</g>
<g>
</g>
<g>
</g>
</svg>
