<?xml version="1.0" encoding="iso-8859-1"?>
<!-- Generator: Adobe Illustrator 21.0.0, SVG Export Plug-In . SVG Version: 6.00 Build 0)  -->
<svg version="1.1" id="Capa_1" xmlns="http://www.w3.org/2000/svg" xmlns:xlink="http://www.w3.org/1999/xlink" x="0px" y="0px"
	 viewBox="0 0 512 512" style="enable-background:new 0 0 512 512;" xml:space="preserve">
<g>
	<g transform="translate(1 11)">
		<path style="fill:#4E342E;" d="M41.667,82.867h426.667c18.851,0,34.133,15.282,34.133,34.133v341.333
			c0,18.851-15.282,34.133-34.133,34.133H41.667c-18.851,0-34.133-15.282-34.133-34.133V117
			C7.533,98.149,22.815,82.867,41.667,82.867z"/>
		<path style="fill:#795548;" d="M41.667,82.867h401.067c18.851,0,34.133,15.282,34.133,34.133v341.333
			c0,18.851-15.282,34.133-34.133,34.133H41.667c-18.851,0-34.133-15.282-34.133-34.133V117
			C7.533,98.149,22.815,82.867,41.667,82.867z"/>
		<g>
			<polygon style="fill:#424242;" points="161.133,373 161.133,492.467 109.933,492.467 109.933,364.467 109.933,159.667 
				109.933,82.867 161.133,82.867 161.133,151.133 			"/>
			<polygon style="fill:#424242;" points="348.867,432.733 348.867,492.467 400.067,492.467 400.067,355.933 400.067,151.133 
				400.067,82.867 348.867,82.867 348.867,125.533 			"/>
		</g>
		<path style="fill:#AD1457;" d="M190.744,273.587c-2.817,3.161-2.817,7.932,0,11.093c2.92,3.124,4.537,7.244,4.523,11.52
			c-0.046,7.343-4.738,13.851-11.691,16.213c-2.942,0.979-5.25,3.287-6.229,6.229c-2.363,6.953-8.87,11.645-16.213,11.691
			c-4.276,0.015-8.396-1.603-11.52-4.523c-0.491-0.398-1.004-0.768-1.536-1.109c-3.105-1.66-6.915-1.218-9.557,1.109
			c-2.028,1.926-4.531,3.281-7.253,3.925c-1.384,0.413-2.822,0.614-4.267,0.597c-4.276,0.015-8.396-1.603-11.52-4.523
			c-0.406-0.34-0.833-0.654-1.28-0.939c-3.128-1.851-7.093-1.471-9.813,0.939c-2.028,1.926-4.531,3.281-7.253,3.925
			c-1.384,0.413-2.822,0.614-4.267,0.597c-4.798,0.018-9.369-2.035-12.544-5.632c-1.653-1.726-2.906-3.794-3.669-6.059
			c-0.979-2.942-3.287-5.25-6.229-6.229c-6.952-2.363-11.645-8.87-11.691-16.213c-0.015-4.276,1.603-8.396,4.523-11.52
			c2.817-3.161,2.817-7.932,0-11.093c-6.032-6.496-6.032-16.544,0-23.04c2.817-3.161,2.817-7.932,0-11.093
			c-2.92-3.124-4.537-7.244-4.523-11.52c0.046-7.343,4.738-13.851,11.691-16.213c2.942-0.979,5.25-3.287,6.229-6.229
			c0.764-2.264,2.016-4.333,3.669-6.059c3.175-3.597,7.746-5.65,12.544-5.632c1.444-0.017,2.883,0.184,4.267,0.597
			c2.785,0.658,5.347,2.042,7.424,4.011c2.636,2.468,6.615,2.82,9.643,0.853c0.405-0.236,0.778-0.523,1.109-0.853
			c3.159-2.983,7.346-4.633,11.691-4.608c1.444-0.017,2.883,0.184,4.267,0.597c2.722,0.645,5.225,1.999,7.253,3.925
			c2.642,2.327,6.452,2.77,9.557,1.109c0.532-0.341,1.045-0.712,1.536-1.109c3.124-2.92,7.244-4.537,11.52-4.523
			c7.343,0.046,13.851,4.738,16.213,11.691c0.979,2.942,3.287,5.25,6.229,6.229c6.952,2.363,11.645,8.87,11.691,16.213
			c0.015,4.276-1.603,8.396-4.523,11.52c-2.817,3.161-2.817,7.932,0,11.093C196.776,257.042,196.776,267.091,190.744,273.587z"/>
		<path style="fill:#E91E63;" d="M165.144,273.587c-2.817,3.161-2.817,7.932,0,11.093c2.92,3.124,4.537,7.244,4.523,11.52
			c-0.046,7.343-4.738,13.851-11.691,16.213c-2.942,0.979-5.25,3.287-6.229,6.229c-0.764,2.264-2.016,4.333-3.669,6.059
			c-3.175,3.597-7.746,5.65-12.544,5.632c-1.444,0.017-2.883-0.184-4.267-0.597c-2.722-0.645-5.225-1.999-7.253-3.925
			c-2.721-2.41-6.685-2.789-9.813-0.939c-0.447,0.285-0.874,0.598-1.28,0.939c-3.124,2.92-7.244,4.538-11.52,4.523
			c-1.444,0.017-2.883-0.184-4.267-0.597c-2.722-0.645-5.225-1.999-7.253-3.925c-2.642-2.327-6.452-2.77-9.557-1.109
			c-1.653-1.726-2.906-3.794-3.669-6.059c-0.979-2.942-3.287-5.25-6.229-6.229c-6.952-2.363-11.645-8.87-11.691-16.213
			c-0.015-4.276,1.603-8.396,4.523-11.52c2.817-3.161,2.817-7.932,0-11.093c-6.032-6.496-6.032-16.544,0-23.04
			c2.817-3.161,2.817-7.932,0-11.093c-2.92-3.124-4.537-7.244-4.523-11.52c0.046-7.343,4.738-13.851,11.691-16.213
			c2.942-0.979,5.25-3.287,6.229-6.229c0.764-2.264,2.016-4.333,3.669-6.059c3.017,1.743,6.816,1.328,9.387-1.024
			c2.077-1.969,4.639-3.352,7.424-4.011c1.384-0.413,2.822-0.614,4.267-0.597c4.276-0.015,8.396,1.603,11.52,4.523
			c0.406,0.34,0.833,0.654,1.28,0.939c3.128,1.851,7.093,1.471,9.813-0.939c2.028-1.926,4.531-3.281,7.253-3.925
			c1.384-0.413,2.822-0.614,4.267-0.597c4.798-0.018,9.369,2.035,12.544,5.632c1.653,1.726,2.906,3.794,3.669,6.059
			c0.979,2.942,3.287,5.25,6.229,6.229c6.953,2.363,11.645,8.87,11.691,16.213c0.015,4.276-1.603,8.396-4.523,11.52
			c-2.817,3.161-2.817,7.932,0,11.093C171.176,257.042,171.176,267.091,165.144,273.587z"/>
		<path style="fill:#1566C0;" d="M453.485,274.525l-42.24,42.24c-3.168,3.234-7.505,5.056-12.032,5.056
			c-4.527,0-8.864-1.822-12.032-5.056l-84.48-84.48c-3.234-3.168-5.056-7.505-5.056-12.032c0-4.527,1.822-8.864,5.056-12.032
			l41.472-41.472l0.768-0.768c3.189-3.195,7.518-4.991,12.032-4.991s8.843,1.796,12.032,4.991l84.48,84.48
			c3.195,3.189,4.991,7.518,4.991,12.032C458.476,267.008,456.681,271.337,453.485,274.525z"/>
		<path style="fill:#2296F3;" d="M427.885,274.525l-41.472,41.472l-83.712-83.712c-3.234-3.168-5.056-7.505-5.056-12.032
			c0-4.527,1.822-8.864,5.056-12.032l41.472-41.472l83.712,83.712c3.195,3.189,4.991,7.518,4.991,12.032
			C432.876,267.008,431.081,271.337,427.885,274.525z"/>
		<path style="fill:#2E7D32;" d="M332.056,390.067H212.077c-2.983-0.094-5.7-1.739-7.165-4.338c-1.465-2.6-1.467-5.776-0.003-8.376
			l58.624-108.373l1.365-2.56c1.391-2.673,4.155-4.35,7.168-4.35s5.777,1.677,7.168,4.35l29.867,55.211l18.517,34.219l11.605,21.504
			c1.464,2.6,1.463,5.777-0.003,8.376C337.756,388.328,335.039,389.973,332.056,390.067z"/>
		<path style="fill:#4CAF50;" d="M314.989,390.067H212.077c-2.983-0.094-5.7-1.739-7.165-4.338c-1.465-2.6-1.467-5.776-0.003-8.376
			l58.624-108.373l28.501,52.651l18.517,34.219l11.605,21.504c1.464,2.6,1.463,5.777-0.003,8.376S317.972,389.973,314.989,390.067z"
			/>
		<g>
			<path style="fill:#F0C419;" d="M502.467,151.133c-37.703,0-68.267-30.564-68.267-68.267"/>
			<path style="fill:#F0C419;" d="M75.8,492.467c0-37.703-30.564-68.267-68.267-68.267"/>
			<path style="fill:#F0C419;" d="M75.8,82.867c0,37.703-30.564,68.267-68.267,68.267"/>
			<path style="fill:#F0C419;" d="M502.467,424.2c-37.703,0-68.267,30.564-68.267,68.267"/>
		</g>
		<g>
			<path style="fill:#FEC108;" d="M75.8,492.467H41.667c-18.851,0-34.133-15.282-34.133-34.133V424.2
				C45.236,424.2,75.8,454.764,75.8,492.467z"/>
			<path style="fill:#FEC108;" d="M75.8,82.867c0,37.703-30.564,68.267-68.267,68.267V117c0-18.851,15.282-34.133,34.133-34.133
				H75.8z"/>
		</g>
		<g>
			<path style="fill:#FFB301;" d="M502.467,424.2v34.133c0,18.851-15.282,34.133-34.133,34.133H434.2
				c0.006-27.824,16.88-52.866,42.667-63.317C485.008,425.889,493.697,424.209,502.467,424.2z"/>
			<path style="fill:#FFB301;" d="M502.467,117v34.133c-8.77-0.009-17.458-1.689-25.6-4.949
				c-25.786-10.451-42.661-35.494-42.667-63.317h34.133C487.185,82.867,502.467,98.149,502.467,117z"/>
		</g>
		<g>
			<path style="fill:#FEC108;" d="M476.867,429.149v29.184c0,18.851-15.282,34.133-34.133,34.133H434.2
				C434.206,464.643,451.08,439.601,476.867,429.149z"/>
			<path style="fill:#FEC108;" d="M476.867,117v29.184c-25.786-10.451-42.661-35.494-42.667-63.317h8.533
				C461.585,82.867,476.867,98.149,476.867,117z"/>
		</g>
	</g>
	<g>
		<path d="M469.333,85.333H384V51.2C383.972,22.935,361.065,0.028,332.8,0H179.2c-28.265,0.028-51.172,22.935-51.2,51.2v34.133
			H42.667C19.114,85.362,0.028,104.448,0,128v341.333C0.028,492.886,19.114,511.972,42.667,512h426.667
			c23.552-0.028,42.638-19.114,42.667-42.667V128C511.972,104.448,492.886,85.362,469.333,85.333z M401.067,358.4
			c-4.713,0-8.533,3.82-8.533,8.533v128H358.4v-51.2c0-4.713-3.821-8.533-8.533-8.533c-4.713,0-8.533,3.821-8.533,8.533v51.2
			H170.667V384c0-4.713-3.821-8.533-8.533-8.533c-4.713,0-8.533,3.821-8.533,8.533v110.933h-34.133V375.467
			c0-4.713-3.821-8.533-8.533-8.533c-4.713,0-8.533,3.821-8.533,8.533v119.467H84.83c-4.033-35.621-32.142-63.73-67.763-67.763
			V170.163c35.621-4.033,63.73-32.142,67.763-67.763h17.57v68.267c0,4.713,3.821,8.533,8.533,8.533c4.713,0,8.533-3.821,8.533-8.533
			V102.4H153.6v59.733c0,4.713,3.821,8.533,8.533,8.533c4.713,0,8.533-3.821,8.533-8.533V102.4h170.667v34.133
			c0,4.713,3.821,8.533,8.533,8.533c4.713,0,8.533-3.821,8.533-8.533V102.4h34.133v59.733c0,4.713,3.82,8.533,8.533,8.533
			s8.533-3.821,8.533-8.533V102.4h17.57c4.033,35.621,32.142,63.73,67.763,67.763V427.17c-35.621,4.033-63.73,32.142-67.763,67.763
			H409.6v-128C409.6,362.221,405.78,358.4,401.067,358.4z M494.933,128v24.917c-26.163-3.804-46.713-24.354-50.517-50.517h24.917
			C483.472,102.4,494.933,113.862,494.933,128z M145.067,51.2c0-18.851,15.282-34.133,34.133-34.133h153.6
			c18.851,0,34.133,15.282,34.133,34.133v34.133H145.067V51.2z M42.667,102.4h24.917c-3.804,26.163-24.354,46.713-50.517,50.517V128
			C17.067,113.862,28.528,102.4,42.667,102.4z M17.067,469.333v-24.917c26.163,3.804,46.713,24.354,50.517,50.517H42.667
			C28.528,494.933,17.067,483.472,17.067,469.333z M469.333,494.933h-24.917c3.804-26.163,24.354-46.713,50.517-50.517v24.917
			C494.933,483.472,483.472,494.933,469.333,494.933z"/>
		<path d="M204.8,307.2c0.005-6.304-2.33-12.386-6.554-17.067c4.22-4.682,6.555-10.763,6.554-17.067
			c0.088-6.288-2.353-12.348-6.775-16.819c5.873-6.394,8.106-15.328,5.93-23.733c-2.175-8.405-8.462-15.134-16.699-17.876
			c-0.423-0.101-0.753-0.431-0.853-0.853c-3.478-10.453-13.252-17.509-24.269-17.519c-6.286-0.088-12.345,2.35-16.819,6.767
			c-9.634-8.801-24.409-8.734-33.963,0.154c-6.372-5.975-15.35-8.289-23.816-6.138c-8.466,2.151-15.251,8.47-17.997,16.762
			c-0.101,0.423-0.431,0.753-0.853,0.853c-10.44,3.489-17.48,13.261-17.485,24.269c-0.088,6.288,2.353,12.348,6.775,16.819
			c-4.356,4.713-6.776,10.896-6.775,17.314c-0.088,6.288,2.353,12.348,6.775,16.819c-5.873,6.394-8.106,15.328-5.93,23.733
			c2.175,8.405,8.462,15.134,16.699,17.876c0.423,0.101,0.753,0.431,0.853,0.853c3.478,10.453,13.252,17.509,24.269,17.519
			c6.286,0.088,12.345-2.35,16.819-6.767c9.701,8.735,24.432,8.735,34.133,0c6.395,5.877,15.333,8.111,23.741,5.934
			c8.408-2.177,15.138-8.469,17.876-16.711c0.101-0.423,0.431-0.753,0.853-0.853C197.739,327.988,204.792,318.214,204.8,307.2z
			 M185.472,267.315c3.014,3.242,3.014,8.261,0,11.503c-5.825,6.416-5.825,16.206,0,22.622c1.952,2.134,2.69,5.111,1.961,7.91
			c-0.729,2.799-2.826,5.038-5.57,5.948c-5.506,1.807-9.824,6.125-11.631,11.631c-1.03,2.639-3.263,4.624-6.005,5.337
			s-5.659,0.067-7.844-1.736c-6.414-5.838-16.216-5.838-22.63,0c-3.279,2.918-8.224,2.918-11.503,0
			c-6.413-5.842-16.218-5.842-22.63,0c-2.186,1.8-5.102,2.443-7.843,1.73s-4.974-2.695-6.007-5.331
			c-1.809-5.503-6.127-9.818-11.631-11.622c-2.747-0.912-4.844-3.153-5.571-5.954s0.014-5.78,1.97-7.913
			c5.825-6.416,5.825-16.206,0-22.622c-3.019-3.243-3.019-8.268,0-11.511c5.825-6.416,5.825-16.206,0-22.622
			c-1.455-1.562-2.266-3.617-2.27-5.751c0-3.687,2.368-6.956,5.871-8.107c5.503-1.806,9.821-6.12,11.631-11.622
			c1.04-2.649,3.289-4.638,6.046-5.344c2.757-0.707,5.686-0.045,7.872,1.777c6.332,5.914,16.162,5.914,22.494,0
			c3.296-2.943,8.275-2.943,11.571,0c6.411,5.846,16.219,5.846,22.63,0c2.186-1.803,5.105-2.447,7.847-1.733
			s4.975,2.702,6.003,5.342c1.81,5.502,6.128,9.816,11.631,11.622c2.747,0.912,4.844,3.153,5.571,5.954
			c0.727,2.801-0.014,5.78-1.97,7.913C179.667,251.148,179.671,260.908,185.472,267.315z"/>
		<path d="M460.553,291.601c4.802-4.801,7.5-11.313,7.5-18.103s-2.698-13.302-7.5-18.103l-84.48-84.48
			c-10.007-9.976-26.199-9.976-36.207,0l-42.231,42.24c-4.802,4.801-7.5,11.313-7.5,18.103s2.698,13.302,7.5,18.103l84.48,84.48
			c4.801,4.802,11.313,7.5,18.103,7.5s13.302-2.698,18.103-7.5L460.553,291.601z M394.172,321.766l-84.48-84.48
			c-3.326-3.331-3.326-8.726,0-12.058l42.231-42.24c1.601-1.602,3.772-2.503,6.037-2.503c2.265,0,4.437,0.9,6.037,2.503l84.48,84.48
			c3.326,3.331,3.326,8.726,0,12.058l-42.249,42.24C402.898,325.092,397.503,325.092,394.172,321.766z"/>
		<path d="M336.154,362.778c-1.451-2.683-4.223-4.388-7.272-4.472c-3.049-0.085-5.911,1.464-7.509,4.062
			c-1.598,2.598-1.688,5.851-0.237,8.534l11.955,21.632l-119.714-0.154l59.358-110.891l29.867,55.194
			c2.246,4.147,7.428,5.689,11.576,3.443c4.147-2.246,5.689-7.428,3.443-11.575l-29.867-55.185
			c-2.884-5.432-8.532-8.827-14.682-8.827c-6.15,0-11.797,3.396-14.682,8.827l-60.023,110.933
			c-2.935,5.369-2.798,11.893,0.358,17.135c2.986,5.07,8.435,8.178,14.319,8.166H333.09c5.896,0.006,11.351-3.12,14.327-8.209
			c3.157-5.242,3.293-11.766,0.358-17.135L336.154,362.778z"/>
	</g>
</g>
<g>
</g>
<g>
</g>
<g>
</g>
<g>
</g>
<g>
</g>
<g>
</g>
<g>
</g>
<g>
</g>
<g>
</g>
<g>
</g>
<g>
</g>
<g>
</g>
<g>
</g>
<g>
</g>
<g>
</g>
</svg>
