<svg id="Layer_1" height="512" viewBox="0 0 128 128" width="512" xmlns="http://www.w3.org/2000/svg" data-name="Layer 1"><path d="m121.5 6.5v96.218a18.781 18.781 0 0 1 -18.782 18.782h-27.067a18.781 18.781 0 0 1 -18.782-18.782h8.992a9.805 9.805 0 0 0 9.79 9.79h27.066a9.805 9.805 0 0 0 9.79-9.79v-96.218z" fill="#76defe"/><path d="m74.19 86.67c-3.72 1.72-8.67 3.27-12.77 3.27h-.46c-4.11 0-9.05-1.55-12.77-3.27 4.58-7.74 6.65-18.23 13-18.23s8.42 10.49 13 18.23z" fill="#d94c66"/><path d="m86.148 94.778c-15.578 0-14.891-26.334-24.96-26.334s-9.382 26.334-24.96 26.334c-30.441-.234-29.728-32.516-29.728-46.363s32.022-15.193 54.688-15.193 54.687 1.346 54.687 15.193.714 46.129-29.727 46.363z" fill="#fa5776"/><path d="m86.15 94.78a11.746 11.746 0 0 1 -1.2-.06c28.55-1.52 27.86-32.75 27.86-46.3s-30.61-15.13-53.15-15.19c.52-.01 1.03-.01 1.53-.01 22.66 0 54.68 1.35 54.68 15.2s.72 46.12-29.72 46.36z" fill="#d94c66"/><path d="m36.228 86.778c-18.116-.14-21.752-14.422-21.728-37.422a2.353 2.353 0 0 1 .9-1.873c1.459-1.119 5.105-3.015 13.788-4.41 10.33-1.659 23.207-1.851 31.995-1.851s21.665.192 31.995 1.851c8.645 1.389 12.3 3.275 13.768 4.374a2.35 2.35 0 0 1 .924 1.885v.024c.025 22.984-3.605 37.263-21.751 37.421-2.965-.017-4.847-3.14-8.193-10.584-2.988-6.646-7.08-15.75-16.742-15.75s-13.754 9.1-16.742 15.75c-3.351 7.465-5.234 10.585-8.214 10.585z" fill="#76defe"/><path d="m107.88 49.36c.02 22.98-3.61 37.26-21.76 37.42a3.774 3.774 0 0 1 -1.56-.34c14.42-2.31 17.47-16.05 17.44-37.08v-.03a2.331 2.331 0 0 0 -.92-1.88c-1.47-1.1-5.13-2.99-13.77-4.38-9.04-1.45-20.03-1.78-28.53-1.84.83-.01 1.64-.01 2.41-.01 8.79 0 21.66.19 31.99 1.85 8.65 1.39 12.3 3.28 13.77 4.38a2.331 2.331 0 0 1 .92 1.88z" fill="#67c1dd"/><path d="m71.125 104.468h-19.874a1.75 1.75 0 0 1 0-3.5h19.874a1.75 1.75 0 0 1 0 3.5z" fill="#67c1dd"/><g fill="#232629"><path d="m121.5 4.75h-8.99a1.75 1.75 0 0 0 -1.75 1.75v31.846c-10.41-5.9-30.959-6.874-49.572-6.874-3.785 0-7.136.038-10.244.116a1.75 1.75 0 1 0 .088 3.5c3.079-.078 6.4-.115 10.156-.115 10.968 0 40.7 0 50.067 7.9a1.759 1.759 0 0 0 .249.212 7.019 7.019 0 0 1 2.621 5.327v.934c.016 14.107.048 43.463-27.977 43.678-7.5 0-10.765-7.255-13.918-14.272-2.788-6.2-5.422-12.062-11.042-12.062s-8.253 5.859-11.042 12.062c-3.154 7.017-6.416 14.272-13.905 14.272-28.041-.211-28.006-29.567-27.99-43.674v-.934c0-4.439 4.406-7.839 13.1-10.1a1.75 1.75 0 0 0 -.883-3.387c-10.43 2.714-15.717 7.253-15.717 13.487v.93c-.016 14.046-.051 46.94 31.477 47.181 5.96 0 9.793-3.378 12.624-7.662a33.448 33.448 0 0 0 12.108 2.825h.46a33.441 33.441 0 0 0 12.105-2.823c2.832 4.283 6.669 7.661 12.636 7.661 12.528-.1 20.059-5.359 24.6-12.54v18.732a8.049 8.049 0 0 1 -8.04 8.04h-27.071a8.05 8.05 0 0 1 -7.843-6.292h3.318a1.75 1.75 0 0 0 0-3.5h-19.874a1.75 1.75 0 0 0 0 3.5h3.958a20.547 20.547 0 0 0 20.441 18.782h18.319a1.75 1.75 0 0 0 0-3.5h-18.319a17.054 17.054 0 0 1 -16.94-15.28h5.533a11.559 11.559 0 0 0 11.408 9.79h27.07a11.553 11.553 0 0 0 11.54-11.54v-26.094c3.377-9.665 3.373-20.6 3.365-27.28v-.93a10.088 10.088 0 0 0 -3.365-7.522v-32.644h5.49v94.47a17.049 17.049 0 0 1 -17.03 17.03 1.75 1.75 0 0 0 0 3.5 20.553 20.553 0 0 0 20.53-20.53v-96.22a1.75 1.75 0 0 0 -1.751-1.75zm-60.08 83.44h-.46a29.326 29.326 0 0 1 -10.309-2.363c1-1.877 1.868-3.812 2.688-5.636 2.411-5.364 4.494-10 7.849-10s5.438 4.633 7.849 10c.82 1.824 1.691 3.76 2.689 5.638a29.318 29.318 0 0 1 -10.306 2.361z"/><path d="m32.693 36.267a1.841 1.841 0 0 0 .206-.012c2.021-.237 4.2-.444 6.482-.614a1.75 1.75 0 0 0 -.26-3.49c-2.329.173-4.56.385-6.631.627a1.75 1.75 0 0 0 .2 3.488z"/><path d="m12.751 49.354c-.021 18.866 1.773 39.006 23.463 39.174h.014c4.283 0 6.565-4.389 9.814-11.618 2.948-6.557 6.616-14.716 15.146-14.716s12.2 8.16 15.146 14.717c3.242 7.212 5.518 11.593 9.8 11.617 21.711-.19 23.507-20.32 23.486-39.2a4.12 4.12 0 0 0 -1.62-3.283c-1.839-1.375-5.854-3.306-14.539-4.7-10.454-1.678-23.425-1.873-32.272-1.873s-21.818.194-32.272 1.873c-8.765 1.408-12.764 3.355-14.577 4.749a4.129 4.129 0 0 0 -1.589 3.26zm3.719-.483c.983-.754 4.219-2.66 13-4.07 10.207-1.639 22.99-1.829 31.717-1.829s21.51.189 31.717 1.829c8.716 1.4 11.994 3.3 13 4.047a.619.619 0 0 1 .222.51c.029 26.206-5.209 35.54-19.992 35.669-1.756-.01-3.361-2.331-6.607-9.553-3-6.683-7.543-16.781-18.338-16.781s-15.335 10.099-18.339 16.783c-3.287 7.312-4.833 9.547-6.616 9.552-14.782-.117-20.012-9.453-19.983-35.67a.609.609 0 0 1 .219-.486z"/></g></svg>