<?xml version="1.0" encoding="iso-8859-1"?>
<!-- Generator: Adobe Illustrator 19.0.0, SVG Export Plug-In . SVG Version: 6.00 Build 0)  -->
<svg version="1.1" id="Capa_1" xmlns="http://www.w3.org/2000/svg" xmlns:xlink="http://www.w3.org/1999/xlink" x="0px" y="0px"
	 viewBox="0 0 512 512" style="enable-background:new 0 0 512 512;" xml:space="preserve">
<path style="fill:#78B9EB;" d="M365.822,188.863l-7.273,21.659c-8.258,24.592-35.131,37.964-59.733,29.706l-17.641-5.927
	l-123.273-41.369c-24.602-8.258-37.964-35.141-29.716-59.733l7.273-21.659c5.003-14.908,16.847-25.687,30.871-30.027
	c9.122-2.833,19.168-2.943,28.862,0.311l140.924,47.306C360.709,137.388,374.08,164.261,365.822,188.863z"/>
<path style="fill:#5AAAE7;" d="M290.839,225.973l-9.664,8.328l-123.273-41.369c-24.602-8.258-37.964-35.141-29.716-59.733
	l7.273-21.659c5.003-14.908,16.847-25.687,30.871-30.027L290.839,225.973z"/>
<polygon style="fill:#C70024;" points="265.333,237.475 183.107,308.349 170.69,319.048 19.158,143.255 31.584,132.546 
	113.81,61.672 "/>
<polygon style="fill:#FF0C38;" points="265.333,237.475 183.107,308.349 31.584,132.546 113.81,61.672 "/>
<path style="fill:#A5001E;" d="M122.47,72.421l-93.959,80.98c-4.752,4.089-11.995,3.556-16.094-1.195l-2.13-2.471
	c-4.099-4.752-3.556-11.995,1.195-16.094l7.434-6.409l86.515-74.571c4.712-4.059,11.844-3.576,15.963,1.045
	c0.05,0.05,0.1,0.1,0.141,0.151l2.12,2.471C127.754,61.079,127.221,68.322,122.47,72.421z"/>
<path style="fill:#C70024;" d="M121.395,53.705l-86.525,74.571c-4.701,4.059-11.834,3.566-15.953-1.045l86.515-74.571
	C110.143,48.602,117.276,49.084,121.395,53.705z"/>
<circle style="fill:#A5001E;" cx="132.767" cy="179.701" r="44.222"/>
<path style="fill:#FF728B;" d="M467.442,78.026L363.909,34.43c-8.859-3.73-19.065,0.429-22.795,9.288l-14.394,34.19
	c-0.105,0.051-0.109,0.053-0.004,0.002l-42.339,33.823c-1.445,1.153-2.803,2.412-4.047,3.753c-3.06,3.271-5.531,7.069-7.28,11.224
	l-34.592,82.167c-5.509,13.086,0.631,28.156,13.717,33.665l24.391,10.269l-0.001,0.002l119.871,50.465
	c13.087,5.509,28.163-0.633,33.672-13.72l34.619-82.231c2.448-5.817,3.414-12.15,2.808-18.431l-5.197-53.889l14.392-34.185
	C480.46,91.961,476.302,81.756,467.442,78.026z"/>
<path style="fill:#FF3F62;" d="M396.436,303.279l-119.871-50.465l44.566-105.859c2.467-5.86,6.362-11.009,11.33-14.977
	l42.344-33.826l87.533,36.851l5.197,53.892c0.606,6.282-0.359,12.616-2.808,18.431l-34.619,82.231
	C424.599,302.646,409.523,308.788,396.436,303.279z"/>
<path style="fill:#FF728B;" d="M462.336,135.007l-41.577,34.396c-1.353,1.122-2.618,2.325-3.786,3.611
	c-2.953,3.204-5.332,6.91-7.035,10.953l-44.699,106.176l-113.063-47.6c-13.086-5.509-19.226-20.579-13.717-33.665l34.592-82.167
	c1.749-4.155,4.22-7.953,7.28-11.224c1.245-1.342,2.603-2.601,4.047-3.753l42.339-33.823L462.336,135.007z"/>
<path style="fill:#FFA5B5;" d="M416.973,173.014c-2.953,3.204-5.332,6.91-7.035,10.953l-21.213,50.388l-136.754-57.573l21.079-50.07
	c1.749-4.155,4.22-7.953,7.28-11.224L416.973,173.014z"/>
<path style="fill:#FF0C38;" d="M467.537,188.893l-5.204-53.886l-41.57,34.397c-1.356,1.125-2.622,2.321-3.787,3.606
	c-2.953,3.205-5.334,6.912-7.042,10.96l-44.694,106.175l31.193,13.13c13.09,5.515,28.169-0.633,33.674-13.713l34.618-82.236
	C467.175,201.511,468.14,195.182,467.537,188.893z"/>
<g>
	<path style="fill:#FF3F62;" d="M342.03,179.207c0.348,8.727-8.249,15.261-16.443,12.238c-0.187-0.069-0.374-0.143-0.56-0.221
		c-0.186-0.078-0.369-0.16-0.549-0.246c-7.889-3.748-9.224-14.463-2.739-20.314l14.4-12.99c1.93-1.741,5.014-0.442,5.117,2.155
		L342.03,179.207z"/>
	<path style="fill:#FF3F62;" d="M354.259,89.499l-0.442,1.075l-42.344,33.825c-1.447,1.155-2.803,2.411-4.049,3.757
		c-3.054,3.265-5.525,7.072-7.273,11.221l-43.77,104.93l-4.209-1.768c-13.08-5.505-19.228-20.574-13.713-33.664l34.588-82.166
		c1.748-4.149,4.219-7.946,7.283-11.221c1.246-1.346,2.602-2.602,4.048-3.757l42.333-33.815c0-0.01,0.01-0.01,0.01-0.01
		L354.259,89.499z"/>
</g>
<path style="fill:#FF728B;" d="M308.289,127.262c-0.301,0.291-0.583,0.593-0.864,0.894c-3.054,3.265-5.525,7.072-7.273,11.221
	l-20.464,49.064l-27.717-11.663l21.076-50.069c1.748-4.149,4.219-7.946,7.283-11.221L308.289,127.262z"/>
<path style="fill:#FF3F62;" d="M462.336,135.011L326.719,77.909l14.394-34.19c3.73-8.859,13.936-13.018,22.795-9.288l103.533,43.595
	c8.859,3.73,13.018,13.936,9.288,22.795L462.336,135.011z"/>
<path style="fill:#FF0C38;" d="M374.924,39.069l-20.664,50.43l-27.536-11.593l14.386-34.186c3.737-8.86,13.944-13.02,22.804-9.292
	L374.924,39.069z"/>
<path style="fill:#7ED63E;" d="M477.593,242.418l-71.798,220.729c-3.064,9.413-11.834,15.792-21.739,15.792H129.12
	c-9.865,0-18.615-6.329-21.709-15.692L34.407,242.418H477.593z"/>
<path style="fill:#A4E276;" d="M477.593,242.418l-71.798,220.729c-3.064,9.413-11.834,15.792-21.739,15.792H172.127
	c-9.865,0-18.615-6.329-21.709-15.692L77.424,242.418H477.593z"/>
<circle cx="256" cy="231.297" r="6.496"/>
<path style="fill:#4E901E;" d="M504.466,242.418c0,8.871-3.627,16.937-9.473,22.774c-5.847,5.847-13.914,9.473-22.784,9.473H39.792
	c-17.741,0-32.257-14.506-32.257-32.247c0-8.871,3.627-16.937,9.473-22.784c5.847-5.847,13.914-9.473,22.784-9.473h432.416
	c17.138,0,31.273,13.552,32.207,30.459C504.446,241.212,504.466,241.815,504.466,242.418z"/>
<path style="fill:#5EAC24;" d="M504.415,240.62H71.999c-17.138,0-31.263-13.552-32.197-30.459h432.406
	C489.346,210.16,503.481,223.712,504.415,240.62z"/>
<path style="fill:#47821C;" d="M277.88,77.544v153.15c0,5.676-2.19,10.86-5.766,14.757c-4.008,4.37-9.755,7.123-16.114,7.123
	c-12.035,0-21.88-9.845-21.88-21.88V77.544c0-12.025,9.845-21.87,21.88-21.87c6.017,0,11.493,2.461,15.451,6.429
	c0.221,0.221,0.442,0.452,0.663,0.693C275.69,66.685,277.88,71.878,277.88,77.544z"/>
<path style="fill:#4E901E;" d="M277.88,77.544v153.15c0,5.676-2.19,10.86-5.766,14.757c-3.586-3.898-5.776-9.081-5.776-14.757
	V77.544c0-5.666,2.19-10.86,5.776-14.747C275.69,66.685,277.88,71.878,277.88,77.544z"/>
<path d="M474.107,202.666c2.302-10.153,1.052-13.113-4.27-68.393c12.091-30.095,14.958-32.247,14.958-40.555
	c0-10.066-5.987-19.087-15.27-22.995C361.227,25.829,365.982,25.527,357.162,25.527c-10.066,0-19.087,5.997-22.995,15.27
	l-13.652,32.428l-35.1,28.038V77.544c0-16.214-13.2-29.404-29.414-29.404s-29.414,13.19-29.414,29.404v6.871l-29.003-9.734
	c-19.057-6.399-39.229-1.658-53.394,10.689l-11.912-13.815c5.839-12.983-4.652-21.866-5.035-22.621
	c-6.839-7.928-18.848-8.768-26.722-1.979L6.57,127.925C2.391,131.521,0,136.765,0,142.29c0,4.541,1.627,8.931,4.581,12.367
	c0.717,0.51,7.947,12.165,21.631,8.318l34.174,39.651h-6.821c-4.159,0-7.534,3.375-7.534,7.534c0,4.169,3.375,7.534,7.534,7.534
	c60.694,0,110.606,0,173.021,0v12.999c0,16.214,13.2,29.414,29.414,29.414c16.145,0,29.414-13.149,29.414-29.414v-12.999
	c43.289,0,143.35,0,186.804,0c13.622,0,24.713,11.091,24.713,24.723c0,11.603-8.218,21.589-19.258,24.11
	c-4.85,1.116-437.718,0.603-437.891,0.603c-13.539,0-24.713-10.997-24.713-24.713c0-8.921,4.882-17.199,12.738-21.599
	c3.637-2.029,4.933-6.62,2.893-10.257c-2.029-3.627-6.62-4.922-10.247-2.893C7.836,214.731,0,228.042,0,242.418
	c0,21.89,17.761,39.691,39.621,39.782l60.637,183.418c4.119,12.477,15.722,20.855,28.862,20.855h27.695c0.002,0,0.004,0,0.006,0
	c0.003,0,0.006,0,0.009,0h200.018c0.003,0,0.006,0,0.009,0c0.002,0,0.004,0,0.006,0h27.192c13.2,0,24.823-8.439,28.902-20.996
	l22.372-68.774c1.286-3.948-0.884-8.208-4.832-9.493c-3.958-1.286-8.208,0.884-9.503,4.842l-3.274,10.069h-36.816l11.409-53.602
	h42.842l-4.838,14.872c-1.586,4.882,2.079,9.865,7.173,9.865c3.175,0,6.128-2.029,7.163-5.204l27.928-85.862
	c24.454-1.165,39.42-19.986,39.42-39.772C512,221.111,495.163,203.661,474.107,202.666z M21.076,148.619
	c-1.145,0-2.22-0.492-2.953-1.336c-1.29-1.829-3.054-2.675-3.054-4.993c0-1.145,0.482-2.22,1.336-2.943
	c98.429-84.145,93.418-81.904,96.471-81.904c2.668,0,3.471,2.248,5.073,3.797c1.414,1.635,1.179,4.101-0.402,5.475
	C19.174,150.803,24.107,148.619,21.076,148.619z M161.347,202.626h-57.171c-16.318-20.131-6.763-50.636,18.083-58.065
	C156.468,134.258,183.802,174.657,161.347,202.626z M179.109,202.626c3.486-6.982,5.425-14.798,5.425-22.905
	c0-34.324-33.287-59.547-66.594-49.597c-30.103,8.996-45.978,43.448-31.564,72.501h-6.088l-41.493-48.14l83.227-71.739
	c15.061,17.474,91.043,105.636,103.318,119.879H179.109z M226.586,180.977l-72.562-84.185c10.267-9.011,24.924-12.477,38.767-7.826
	l33.794,11.342V180.977z M268.367,237.958c-7.471,12.643-26.712,7.165-26.712-7.263c0-14.364,0-127.179,0-153.15
	c0-7.906,6.439-14.336,14.346-14.336s14.346,6.429,14.346,14.336v38.687C270.346,240.424,271.191,233.166,268.367,237.958z
	 M327.919,86.596c2.341,0.985,109.38,46.04,120.039,50.531c-10.197,8.439-31.564,26.099-32.639,27.013l-120.812-50.862
	L327.919,86.596z M285.414,202.626v-3.586l8.519,3.586H285.414z M393.981,202.626h-61.22l-9.664-4.069
	c13.22,4.772,27.024-5.626,26.461-19.65l-0.774-19.379c-0.347-8.958-11.015-13.467-17.691-7.444l-14.396,12.989
	c-10.448,9.423-8.187,26.541,4.42,32.639l-35.703-15.029v-56.88l119.918,50.481C403.173,180.093,402.118,183.227,393.981,202.626z
	 M326.784,176.256l7.323-6.6l0.392,9.855c0.255,6.089-8.414,6.969-9.303,1.195C325.086,179.902,325.005,177.873,326.784,176.256z
	 M458.405,202.626h-48.14l6.62-15.732c3.958-9.423,7.565-10.639,39.32-37.029C459.823,192.66,461.847,192.455,458.405,202.626z
	 M468.953,97.536l-11.472,27.245c-8.449-3.556-106.416-44.795-120.893-50.893l11.472-27.245c2.12-5.033,7.896-7.394,12.929-5.264
	l102.689,43.228C468.702,86.726,471.073,92.493,468.953,97.536z M55.494,282.2h51.756l10.908,51.25H72.436L55.494,282.2z
	 M77.417,348.518h43.948l11.409,53.602H95.137L77.417,348.518z M129.12,471.404c-6.63,0-12.477-4.229-14.557-10.518l-14.445-43.697
	h35.863l11.54,54.215H129.12z M136.771,348.518h8.197c4.161,0,7.534-3.373,7.534-7.534s-3.373-7.534-7.534-7.534h-11.404
	l-10.908-51.25h57.13l4.537,51.25h-9.217c-4.161,0-7.534,3.373-7.534,7.534s3.373,7.534,7.534,7.534h10.551l4.745,53.602H148.18
	L136.771,348.518z M162.927,471.404l-11.54-54.215h40.348l4.799,54.215H162.927z M248.466,471.404h-36.802l-4.799-54.215h41.602
	v54.215H248.466z M248.466,402.12H205.53l-4.745-53.602h47.681v53.602H248.466z M248.466,333.449h-49.015l-4.537-51.25h53.552
	L248.466,333.449L248.466,333.449z M302.014,471.404h-38.48V417.19h43.279L302.014,471.404z M308.147,402.12h-44.613v-53.602h49.358
	L308.147,402.12z M263.534,333.449V282.2h55.228l-4.537,51.25h-50.692V333.449z M350.75,471.404h-33.609l4.799-54.215h40.348
	L350.75,471.404z M323.274,402.12l4.745-53.602h48.886l-11.409,53.602H323.274z M412.82,417.189l-14.188,43.627
	c-2.059,6.329-7.916,10.588-14.577,10.588h-17.899l11.54-54.215L412.82,417.189L412.82,417.189z M380.113,333.449h-50.759
	l4.537-51.25h57.131L380.113,333.449z M440.056,333.449H395.52l10.908-51.25h50.3L440.056,333.449z"/>
<circle cx="256" cy="231.297" r="6.496"/>
<path d="M153.351,151.944c-4.048-0.984-8.127,1.497-9.112,5.545l-1.678,6.922c-17.029-4.078-32.753,1.884-41.982,19.73
	c-1.708,3.295-0.763,7.334,2.22,9.534c0.944,0.703,9.594,6.821,20.875,6.821c7.615,0,17.842-2.823,26.371-14.978
	c3.669,2.513,5.279,5.224,9.252,5.224c7.136,0,10.274-9.043,4.661-13.451l-7.575-5.967l2.501-10.277
	C159.871,157.008,157.389,152.929,153.351,151.944z M118.331,184.614c3.858-4.259,8.589-6.349,14.315-6.349
	c1.316,0,2.592,0.111,3.787,0.291C131.238,184.928,125.298,186.647,118.331,184.614z"/>
<g>
</g>
<g>
</g>
<g>
</g>
<g>
</g>
<g>
</g>
<g>
</g>
<g>
</g>
<g>
</g>
<g>
</g>
<g>
</g>
<g>
</g>
<g>
</g>
<g>
</g>
<g>
</g>
<g>
</g>
</svg>
