<?xml version="1.0" encoding="iso-8859-1"?>
<!-- Generator: Adobe Illustrator 19.0.0, SVG Export Plug-In . SVG Version: 6.00 Build 0)  -->
<svg version="1.1" id="Capa_1" xmlns="http://www.w3.org/2000/svg" xmlns:xlink="http://www.w3.org/1999/xlink" x="0px" y="0px"
	 viewBox="0 0 512 512" style="enable-background:new 0 0 512 512;" xml:space="preserve">
<polygon style="fill:#FFCB63;" points="263.5,279 223.5,279 238.5,209.5 263.5,209.5 "/>
<rect x="213.5" y="209.5" style="fill:#FFE2A8;" width="25" height="69.5"/>
<path style="fill:#A45E43;" d="M238.5,129.5l-15,25l15,25c13.807,0,25-11.193,25-25S252.307,129.5,238.5,129.5z"/>
<path style="fill:#C27749;" d="M213.5,154.5c0,13.807,11.193,25,25,25v-50C224.693,129.5,213.5,140.693,213.5,154.5z"/>
<polygon style="fill:#2DADE3;" points="183.5,279 143.5,279 158.5,209.5 183.5,209.5 "/>
<rect x="133.5" y="209.5" style="fill:#49C9FF;" width="25" height="69.5"/>
<path style="fill:#FFA754;" d="M158.5,129.5l-15,25l15,25c13.807,0,25-11.193,25-25S172.307,129.5,158.5,129.5z"/>
<path style="fill:#FFCB63;" d="M133.5,154.5c0,13.807,11.193,25,25,25v-50C144.693,129.5,133.5,140.693,133.5,154.5z"/>
<polygon style="fill:#CF301B;" points="103.5,279 63.5,279 78.5,209.5 103.5,209.5 "/>
<rect x="53.5" y="209.5" style="fill:#FF4128;" width="25" height="69.5"/>
<path style="fill:#FFB4A9;" d="M78.5,129.5l-15,25l15,25c13.807,0,25-11.193,25-25S92.307,129.5,78.5,129.5z"/>
<path style="fill:#FFD9D4;" d="M53.5,154.5c0,13.807,11.193,25,25,25v-50C64.693,129.5,53.5,140.693,53.5,154.5z"/>
<path style="fill:#A8E5FF;" d="M279.5,49c16.5,0,30,13.5,30,30v15h-30l-30-45H279.5z"/>
<path style="fill:#DBF4FF;" d="M279.5,79v15H7.5V79c0-16.5,13.5-30,30-30h212C266,49,279.5,62.5,279.5,79z"/>
<path style="fill:#1990C2;" d="M383.83,205.74C378.7,199.28,367.75,194,359.5,194h-30v105.5l105-30L383.83,205.74z"/>
<path style="fill:#2DADE3;" d="M329.5,194h-20v105.5l95-30l-50.67-63.76C348.7,199.28,337.75,194,329.5,194z"/>
<path style="fill:#A8E5FF;" d="M475.17,278.21l-30-6.424V388l59.33-20v-53.5C504.5,298,491.3,281.67,475.17,278.21z"/>
<path style="fill:#DBF4FF;" d="M474.5,308.07V368l-135,40h-30l-60-69.25l60-69.25h125l10.67,2.286
	C461.3,275.236,474.5,291.57,474.5,308.07z"/>
<polygon style="fill:#A45E43;" points="279.5,269.5 249.5,339 309.5,299.5 309.5,269.5 "/>
<polygon style="fill:#C27749;" points="7.5,269.5 7.5,299 279.5,339 279.5,269.5 "/>
<polygon style="fill:#869E47;" points="279.5,299.5 249.5,353.75 279.5,408 309.5,408 309.5,299.5 "/>
<rect x="7.5" y="299.5" style="fill:#9DB55F;" width="272" height="108.5"/>
<path style="fill:#696969;" d="M474.5,368l-15,40h30c8.25,0,15-6.75,15-15v-25H474.5z"/>
<path style="fill:#808080;" d="M394.5,368v40h65c8.25,0,15-6.75,15-15v-25H394.5z"/>
<path style="fill:#353535;" d="M394.5,353v110c30.379,0,55-24.621,55-55S424.879,353,394.5,353z"/>
<path style="fill:#4F4F4F;" d="M419.5,408c0-30.379-11.191-55-25-55c-30.369,0-55,24.621-55,55s24.631,55,55,55
	C408.309,463,419.5,438.379,419.5,408z"/>
<path style="fill:#FFFFFF;" d="M394.489,430c-12.125,0-21.989-9.869-21.989-22s9.865-22,21.989-22c12.137,0,22.011,9.869,22.011,22
	S406.626,430,394.489,430z"/>
<path style="fill:#353535;" d="M117.5,353v110c30.379,0,55-24.621,55-55S147.879,353,117.5,353z"/>
<path style="fill:#4F4F4F;" d="M142.5,408c0-30.379-11.191-55-25-55c-30.369,0-55,24.621-55,55s24.631,55,55,55
	C131.309,463,142.5,438.379,142.5,408z"/>
<path style="fill:#FFFFFF;" d="M117.489,430c-12.125,0-21.989-9.869-21.989-22s9.865-22,21.989-22c12.137,0,22.011,9.869,22.011,22
	S129.626,430,117.489,430z"/>
<path d="M238.5,187c17.92,0,32.5-14.579,32.5-32.5S256.42,122,238.5,122S206,136.579,206,154.5S220.58,187,238.5,187z M238.5,137
	c9.649,0,17.5,7.851,17.5,17.5s-7.851,17.5-17.5,17.5s-17.5-7.851-17.5-17.5S228.851,137,238.5,137z"/>
<path d="M158.5,187c17.92,0,32.5-14.579,32.5-32.5S176.42,122,158.5,122S126,136.579,126,154.5S140.58,187,158.5,187z M158.5,137
	c9.649,0,17.5,7.851,17.5,17.5s-7.851,17.5-17.5,17.5s-17.5-7.851-17.5-17.5S148.851,137,158.5,137z"/>
<path d="M78.5,187c17.92,0,32.5-14.579,32.5-32.5S96.42,122,78.5,122S46,136.579,46,154.5S60.58,187,78.5,187z M78.5,137
	c9.649,0,17.5,7.851,17.5,17.5S88.149,172,78.5,172S61,164.149,61,154.5S68.851,137,78.5,137z"/>
<path d="M339.5,307h15c4.142,0,7.5-3.357,7.5-7.5s-3.358-7.5-7.5-7.5h-15c-4.142,0-7.5,3.357-7.5,7.5S335.358,307,339.5,307z"/>
<path d="M394.489,378.5C378.229,378.5,365,391.733,365,408s13.229,29.5,29.489,29.5C410.762,437.5,424,424.267,424,408
	S410.762,378.5,394.489,378.5z M394.489,422.5C386.5,422.5,380,415.995,380,408s6.5-14.5,14.489-14.5
	c8.001,0,14.511,6.505,14.511,14.5S402.491,422.5,394.489,422.5z"/>
<path d="M117.489,437.5C133.762,437.5,147,424.267,147,408s-13.238-29.5-29.511-29.5C101.229,378.5,88,391.733,88,408
	S101.229,437.5,117.489,437.5z M117.489,393.5c8.001,0,14.511,6.505,14.511,14.5s-6.509,14.5-14.511,14.5
	C109.5,422.5,103,415.995,103,408S109.5,393.5,117.489,393.5z"/>
<path d="M476.737,270.88l-38.038-8.15l-48.996-61.653c-6.605-8.31-19.59-14.576-30.204-14.576H317V79
	c0-20.678-16.822-37.5-37.5-37.5h-242C16.822,41.5,0,58.322,0,79v329c0,4.143,3.358,7.5,7.5,7.5h47.966
	c3.719,30.937,30.111,55,62.034,55c34.462,0,62.5-28.037,62.5-62.5s-28.038-62.5-62.5-62.5c-31.923,0-58.315,24.063-62.034,55H15
	V307h287v93.5h-99.5c-4.142,0-7.5,3.357-7.5,7.5s3.358,7.5,7.5,7.5h129.966c3.719,30.937,30.111,55,62.034,55
	s58.315-24.063,62.034-55H489.5c12.407,0,22.5-10.094,22.5-22.5v-78.5C512,294.614,496.181,275.047,476.737,270.88z M117.5,360.5
	c26.191,0,47.5,21.309,47.5,47.5s-21.309,47.5-47.5,47.5S70,434.191,70,408S91.309,360.5,117.5,360.5z M359.5,201.5
	c5.956,0,14.755,4.247,18.461,8.909L418.96,262H317v-22.49c0-0.02,0-38.01,0-38.01H359.5z M221,262v-15h35v15H221z M191,262v-15h15
	v15H191z M141,262v-15h35v15H141z M111,262v-15h15v15H111z M61,262v-15h35v15H61z M15,262v-15h31v15H15z M302,232h-31v-22.5
	c0-4.143-3.358-7.5-7.5-7.5h-50c-4.142,0-7.5,3.357-7.5,7.5V232h-15v-22.5c0-4.143-3.358-7.5-7.5-7.5h-50
	c-4.142,0-7.5,3.357-7.5,7.5V232h-15v-22.5c0-4.143-3.358-7.5-7.5-7.5h-50c-4.142,0-7.5,3.357-7.5,7.5V232H15V101.5h287V232z
	 M256,232h-35v-15h35V232z M176,232h-35v-15h35V232z M96,232H61v-15h35V232z M271,247h31v15h-31V247z M37.5,56.5h242
	c12.407,0,22.5,10.094,22.5,22.5v7.5H15V79C15,66.594,25.093,56.5,37.5,56.5z M15,292v-15h287v15H15z M317,299.51
	c0-0.02,0-22.51,0-22.51h116.703l39.891,8.548C486.282,288.266,497,301.524,497,314.5v46h-61.947c-10.925-9.341-25.086-15-40.553-15
	c-31.923,0-58.315,24.063-62.034,55H317V299.51z M394.5,455.5c-26.191,0-47.5-21.309-47.5-47.5s21.309-47.5,47.5-47.5
	S442,381.809,442,408S420.691,455.5,394.5,455.5z M489.5,400.5h-32.966c-1.09-9.067-4.114-17.547-8.67-25H497V393
	C497,397.136,493.636,400.5,489.5,400.5z"/>
<g>
</g>
<g>
</g>
<g>
</g>
<g>
</g>
<g>
</g>
<g>
</g>
<g>
</g>
<g>
</g>
<g>
</g>
<g>
</g>
<g>
</g>
<g>
</g>
<g>
</g>
<g>
</g>
<g>
</g>
</svg>
