<?xml version="1.0" encoding="iso-8859-1"?>
<!-- Generator: Adobe Illustrator 19.0.0, SVG Export Plug-In . SVG Version: 6.00 Build 0)  -->
<svg version="1.1" id="Capa_1" xmlns="http://www.w3.org/2000/svg" xmlns:xlink="http://www.w3.org/1999/xlink" x="0px" y="0px"
	 viewBox="0 0 496.005 496.005" style="enable-background:new 0 0 496.005 496.005;" xml:space="preserve">
<g>
	<path style="fill:#FFA64D;" d="M155.507,227.365c0,0-62.224,5.656-109.744,53.176s-51.888,124.616-3.4,173.104
		s125.584,44.12,173.096-3.392s53.176-109.744,53.176-109.744L155.507,227.365z M192.275,405.557
		c-49.496,49.496-98.992,42.424-121.624,19.8s-29.696-72.128,19.8-121.624c39.696-39.696,79.392-43.008,93.56-42.76l51.032,51.032
		C235.283,326.165,231.971,365.861,192.275,405.557z"/>
	<path style="fill:#FFA64D;" d="M453.643,42.365c-48.488-48.488-125.584-44.12-173.104,3.4
		c-40.816,40.816-50.744,92.472-52.736,106.24l33.168,30.656c-0.016-15.152,4.2-53.648,42.76-92.208
		c49.496-49.496,98.992-42.424,121.624-19.8s29.696,72.128-19.8,121.624c-35.44,35.44-70.784,41.848-88.056,42.648l34.504,31.888
		c20.192-4.032,63.216-16.312,98.248-51.344C497.763,167.949,502.131,90.853,453.643,42.365z"/>
	<path style="fill:#FFA64D;" d="M351.715,271.717L216.291,136.293c-5.312-5.312-12.504-8.288-20-8.288l0,0
		c-15.624,0-28.288,12.664-28.288,28.288l0,0c0,7.504,2.976,14.696,8.288,20l135.432,135.432c5.304,5.304,12.496,8.288,20,8.288l0,0
		c15.616-0.008,28.28-12.672,28.28-28.296l0,0C360.003,284.221,357.027,277.029,351.715,271.717z"/>
	<path style="fill:#FFA64D;" d="M136.291,216.293l135.432,135.432c5.304,5.304,12.496,8.288,20,8.288l0,0
		c15.616-0.008,28.28-12.672,28.28-28.296l0,0c0-7.504-2.976-14.696-8.288-20L176.291,176.293c-5.312-5.312-12.504-8.288-20-8.288
		l0,0c-15.624,0-28.288,12.664-28.288,28.288l0,0C128.003,203.789,130.979,210.981,136.291,216.293z"/>
</g>
<path style="fill:#333333;" d="M459.291,36.709c-24.712-24.72-57.696-37.72-92.816-36.648c-34.312,1.064-66.84,15.28-91.592,40.04
	c-31.432,31.424-45.28,68.808-51.24,92.232l-1.712-1.712c-6.84-6.84-15.96-10.616-25.648-10.616c-20.008,0-36.28,16.28-36.28,36.288
	c0,1.4,0.248,2.752,0.4,4.12c-1.368-0.16-2.72-0.408-4.12-0.408c-20.008,0-36.28,16.28-36.28,36.288
	c0,9.696,3.776,18.808,10.624,25.656l1.688,1.688c-23.312,5.896-60.632,19.672-92.208,51.256
	c-51.784,51.784-53.296,134.512-3.392,184.416c23.76,23.752,55.128,36.696,88.744,36.696c1.352,0,2.712-0.016,4.072-0.064
	c34.312-1.064,66.84-15.28,91.592-40.04c32.136-32.128,45.832-70.184,51.552-93.4c5.68,3.528,12.2,5.504,19.048,5.504
	c20.008,0,36.28-16.28,36.28-36.288c0-1.4-0.248-2.752-0.4-4.12c1.368,0.152,2.72,0.4,4.12,0.4
	c20.008,0.008,36.28-16.272,36.28-36.28c0-6.864-1.976-13.384-5.512-19.064c24.072-5.952,61.68-19.8,93.408-51.528
	C507.683,169.341,509.195,86.613,459.291,36.709z M406.899,238.141l-0.848,0.112c-18.4,2.496-36.032,1.472-52.08-2.784
	c8.888-3.24,18.544-7.856,28.576-14.296c7.744,0.976,15.544,1.6,23.304,1.6c0.752,0,1.504,0,2.256-0.008l-0.2-16
	c-2,0.016-4.008-0.136-6.016-0.184c3.104-2.704,6.216-5.536,9.328-8.648c7.776-7.776,14.088-15.504,19.352-23.128
	c3.32,0.224,6.656,0.344,9.992,0.344c9.808,0,19.696-1.056,29.576-2.984c-4.16,9.68-9.704,18.936-16.56,27.512
	c-9.912,2.968-20.088,5.144-30.408,6.216l1.656,15.912c2.536-0.264,5.064-0.616,7.592-0.992
	C424.019,227.685,415.387,233.397,406.899,238.141z M199.763,453.501c-8.504,6.84-17.752,12.488-27.568,16.752
	c2.608-13.272,3.496-26.568,2.608-39.664c7.472-5.12,15.224-11.464,23.128-19.368c3.144-3.144,6-6.28,8.72-9.408
	C207.059,419.333,204.739,436.845,199.763,453.501z M186.619,399.901c-21.016,21.008-43.776,32.984-65.832,34.624
	c-17.536,1.304-33.76-4.096-44.488-14.832c-10.728-10.728-16.136-26.944-14.832-44.488c1.64-22.048,13.608-44.816,34.624-65.824
	c32.624-32.632,64.856-39.384,81.656-40.312l49.144,49.144C225.947,335.037,219.315,367.205,186.619,399.901z M113.779,450.637
	c-0.224,9.192-2.36,17.888-6.424,25.456l-1.232,2.28c-12.24-2.144-23.856-6.456-34.576-12.56c4.352-7.256,7.528-15,9.664-23.08
	C90.899,447.669,102.043,450.365,113.779,450.637z M17.923,389.725l1.984-1.072c7.544-4.064,16.224-6.208,25.408-6.432
	c0.256,11.12,2.752,21.672,7.216,30.992c-8.104,2.088-15.864,5.256-23.144,9.552C23.795,412.357,19.923,401.221,17.923,389.725z
	 M89.459,257.821l0.496-0.064c18.44-2.496,36.104-1.464,52.176,2.808c-8.896,3.232-18.544,7.808-28.56,14.232
	c-16.576-2.112-33.376-1.984-49.816,0.4C72.211,268.309,80.899,262.565,89.459,257.821z M296.235,42.509
	c7.4-5.952,15.4-10.92,23.816-14.928c-1.384,12.48-1.04,25.168,1.136,37.856c-7.464,5.12-15.208,11.456-23.112,19.36
	c-3.144,3.144-6,6.28-8.72,9.408C288.947,76.677,291.267,59.165,296.235,42.509z M309.387,96.109
	c21.016-21.008,43.776-32.984,65.832-34.624c17.592-1.256,33.76,4.104,44.488,14.832c18.184,18.192,27.928,62.576-19.8,110.312
	c-33.112,33.104-65.496,39.432-81.656,40.32l-49.144-49.144C270.059,160.973,276.691,128.805,309.387,96.109z M382.227,45.301
	c0.232-9.168,2.368-17.84,6.424-25.384l1.216-2.256c11.64,2.032,22.704,5.992,32.968,11.592c-4.336,7.32-7.52,15.12-9.616,23.272
	C403.899,48.053,393.347,45.541,382.227,45.301z M478.083,106.285l-1.984,1.072c-7.584,4.08-16.312,6.208-25.536,6.424
	c-0.36-12.336-3.352-23.392-7.968-32.52c8.08-2.128,15.832-5.304,23.096-9.648C471.763,82.485,475.971,94.181,478.083,106.285z
	 M449.515,129.845c10.688-0.056,20.88-2.344,30.096-6.544c0.224,10.392-0.952,20.824-3.536,31.056
	c-12.08,3.16-24.192,4.72-36.152,4.664C444.947,148.917,448.027,139.125,449.515,129.845z M241.051,229.741
	c4.264-11.76,16.928-24.416,28.688-28.688l11.976,11.976c-11.68,6.224-22.464,17.008-28.688,28.688L241.051,229.741z
	 M257.715,189.029c-11.68,6.224-22.464,17.008-28.688,28.688l-11.976-11.976c4.264-11.76,16.928-24.416,28.688-28.688
	L257.715,189.029z M246.955,258.269c-4.264,11.76-16.928,24.416-28.688,28.688l-11.976-11.976
	c11.68-6.224,22.464-17.008,28.688-28.688L246.955,258.269z M230.291,298.981c11.68-6.224,22.464-17.008,28.688-28.688
	l11.976,11.976c-4.264,11.76-16.928,24.416-28.688,28.688L230.291,298.981z M265.051,253.741
	c4.264-11.76,16.928-24.416,28.688-28.688l11.976,11.976c-11.68,6.224-22.464,17.008-28.688,28.688L265.051,253.741z
	 M221.739,153.053l11.976,11.976c-11.68,6.224-22.464,17.008-28.688,28.688l-11.976-11.976
	C197.315,169.981,209.979,157.325,221.739,153.053z M199.027,210.349c-1.432,3.888-3.84,8.048-7.008,12.064l12.544,9.928
	c2.584-3.264,4.712-6.616,6.488-9.968l11.896,11.896c-4.264,11.76-16.928,24.416-28.688,28.688l-11.888-11.888
	c3.6-1.912,7.192-4.248,10.68-7.088l-10.096-12.416c-4.184,3.4-8.544,5.968-12.616,7.472l-12.056-12.056
	c11.68-6.224,22.464-17.008,28.688-28.688L199.027,210.349z M42.507,296.237c16.656-4.968,34.176-7.296,51.704-6.888
	c-3.136,2.728-6.272,5.584-9.416,8.728c-7.904,7.904-14.24,15.648-19.36,23.112c-12.632-2.168-25.28-2.52-37.736-1.152
	C31.635,311.709,36.523,303.701,42.507,296.237z M266.267,334.957l-11.976-11.976c11.68-6.224,22.464-17.008,28.688-28.688
	l11.976,11.976C290.691,318.029,278.027,330.685,266.267,334.957z M258.963,350.277c-0.952,4.736-2.392,10.848-4.528,17.88
	c-1.256-10.256-3.608-20.104-7.008-29.416L258.963,350.277z M289.051,277.741c4.264-11.76,16.928-24.416,28.688-28.688
	l11.976,11.976c-11.68,6.224-22.464,17.008-28.688,28.688L289.051,277.741z M338.835,247.525c9.328,3.4,19.216,5.688,29.488,6.936
	c-6.8,2.056-12.904,3.512-17.896,4.504l0.04,0.184L338.835,247.525z M456.851,58.213c-7.48,4.368-15.544,7.288-24.016,8.816
	c-0.608-0.672-1.2-1.408-1.824-2.032c-1.088-1.088-2.288-2.056-3.456-3.064c1.512-8.448,4.408-16.488,8.728-23.936
	c4.064,3.08,8.016,6.344,11.696,10.024C451.211,51.253,454.115,54.685,456.851,58.213z M366.971,16.061
	c1.984-0.064,3.936,0.064,5.904,0.104c-4.272,9.272-6.512,19.536-6.584,30.296c-8.688,1.424-18.928,4.392-30.168,10.072
	c-1.424-11.912-1.184-23.776,0.936-35.352l-0.36-0.064C346.475,18.165,356.619,16.381,366.971,16.061z M275.219,63.653
	c-2.392,16.464-2.52,33.304-0.416,49.904c-6.424,10.024-11.008,19.664-14.24,28.56c-4.272-16.08-5.304-33.728-2.808-52.152
	l0.12-0.88C262.603,80.637,268.363,72.037,275.219,63.653z M241.547,127.685c1.256,10.32,3.608,20.224,7.024,29.584l-11.56-11.56
	C237.963,140.877,239.427,134.717,241.547,127.685z M196.283,136.005c4.96,0,9.6,1.848,13.304,5.088
	c-11.592,6.216-22.288,16.912-28.504,28.504c-3.24-3.696-5.08-8.344-5.08-13.304C176.003,145.109,185.107,136.005,196.283,136.005z
	 M156.283,176.005c5.416,0,10.504,2.112,14.344,5.944l4.328,4.328c-4.264,11.76-16.928,24.416-28.688,28.688l-4.32-4.32
	c-3.832-3.84-5.944-8.936-5.944-14.352C136.003,185.109,145.107,176.005,156.283,176.005z M157.267,248.581
	c-9.312-3.4-19.16-5.752-29.416-7.008c7.04-2.136,13.144-3.576,17.88-4.528L157.267,248.581z M21.163,336.965l0.016,0.096
	c11.584-2.12,23.448-2.36,35.352-0.936c-5.68,11.24-8.648,21.488-10.072,30.176c-10.696,0.056-20.856,2.264-30.056,6.464
	C16.131,360.773,17.691,348.693,21.163,336.965z M38.043,436.261c7.44-4.304,15.464-7.192,23.896-8.704
	c1,1.168,1.968,2.368,3.056,3.448c0.648,0.648,1.36,1.208,2.032,1.824c-1.536,8.488-4.464,16.576-8.832,24.048
	c-3.52-2.76-6.952-5.68-10.168-8.904C44.331,444.293,41.083,440.333,38.043,436.261z M129.035,479.949
	c-1.984,0.072-3.936-0.056-5.904-0.088c4.28-9.272,6.52-19.536,6.584-30.312c8.464-1.384,18.408-4.256,29.312-9.656
	c0.064,12.04-1.512,24.224-4.712,36.392C146.083,478.373,137.635,479.685,129.035,479.949z M220.803,432.269
	c2.384-16.44,2.504-33.248,0.4-49.824c6.424-10.024,11.008-19.664,14.24-28.56c4.272,16.08,5.304,33.728,2.808,52.152l-0.072,0.52
	C233.443,415.125,227.691,423.813,220.803,432.269z M291.723,352.005c-4.96,0-9.6-1.848-13.304-5.088
	c11.592-6.216,22.288-16.912,28.504-28.504c3.24,3.696,5.08,8.344,5.08,13.304C312.003,342.901,302.899,352.005,291.723,352.005z
	 M331.723,312.005c-5.416,0-10.504-2.112-14.344-5.944l-4.328-4.328c4.264-11.76,16.928-24.416,28.688-28.688l4.32,4.32
	c3.832,3.84,5.944,8.936,5.944,14.352C352.003,302.901,342.899,312.005,331.723,312.005z"/>
<g>
</g>
<g>
</g>
<g>
</g>
<g>
</g>
<g>
</g>
<g>
</g>
<g>
</g>
<g>
</g>
<g>
</g>
<g>
</g>
<g>
</g>
<g>
</g>
<g>
</g>
<g>
</g>
<g>
</g>
</svg>
