<?xml version="1.0" encoding="iso-8859-1"?>
<!-- Generator: Adobe Illustrator 19.0.0, SVG Export Plug-In . SVG Version: 6.00 Build 0)  -->
<svg version="1.1" id="Capa_1" xmlns="http://www.w3.org/2000/svg" xmlns:xlink="http://www.w3.org/1999/xlink" x="0px" y="0px"
	 viewBox="0 0 512 512" style="enable-background:new 0 0 512 512;" xml:space="preserve">
<path style="fill:#FFE16A;" d="M344.172,167.828c-88.539,0-160.313,71.774-160.313,160.313s71.774,160.313,160.313,160.313
	s160.313-71.774,160.313-160.313S432.711,167.828,344.172,167.828z M344.172,447.374c-65.851,0-119.233-53.382-119.233-119.233
	s53.382-119.233,119.233-119.233s119.233,53.382,119.233,119.233S410.023,447.374,344.172,447.374z"/>
<path style="fill:#FFDA45;" d="M211.365,238.356c12.069,7.171,22.556,16.73,30.81,28.024c11.309-18.635,27.58-33.921,46.982-44.03
	c-8.966-11.131-19.321-21.096-30.806-29.624C239.729,204.551,223.72,220.114,211.365,238.356z"/>
<path style="fill:#FFE16A;" d="M158.81,175.843c-83.558,0-151.296,67.737-151.296,151.296S75.252,478.434,158.81,478.434
	c30.296,0,58.507-8.911,82.166-24.248c-7.028-8.107-12.796-17.473-20.266-25.139c-18.043,10.987-39.23,17.325-61.901,17.325
	c-65.851,0-119.233-53.382-119.233-119.233S92.96,207.906,158.81,207.906s119.233,53.382,119.233,119.233
	c0,28.284-9.855,54.263-26.31,74.705c5.131,9.529,13.514,17.061,22.624,22.953c22.298-26.354,35.749-60.433,35.749-97.658
	C310.106,243.581,242.368,175.843,158.81,175.843z"/>
<g>
	<path style="fill:#FFDA45;" d="M260.806,388.899c-2.743,4.519-5.772,8.845-9.073,12.945c5.131,9.529,13.514,17.061,22.624,22.953
		c3.459-4.088,6.704-8.363,9.72-12.806C275.151,405.575,267.29,397.771,260.806,388.899z"/>
	<path style="fill:#FFDA45;" d="M220.712,429.047c-4.872,2.966-9.977,5.58-15.274,7.835c6.966,8.867,14.763,17.053,23.27,24.44
		c4.206-2.196,8.306-4.567,12.269-7.136C233.949,446.079,228.181,436.713,220.712,429.047z"/>
</g>
<polygon style="fill:#EB92A1;" points="79.656,23.546 79.656,71.64 159.812,151.796 239.969,71.64 239.969,23.546 "/>
<polygon style="fill:#E57789;" points="127.75,71.64 79.656,71.64 159.812,151.796 "/>
<g>
	<polygon style="fill:#F0AEB8;" points="191.875,71.64 239.969,71.64 159.812,151.796 	"/>
	<rect x="79.656" y="23.546" style="fill:#F0AEB8;" width="160.313" height="48.094"/>
</g>
<rect x="191.875" y="23.546" style="fill:#F5C9D0;" width="48.094" height="48.094"/>
<rect x="79.656" y="23.546" style="fill:#EB92A1;" width="48.094" height="48.094"/>
<path d="M453.02,200.393c-3.157-2.693-7.901-2.317-10.594,0.842c-2.693,3.157-2.317,7.9,0.842,10.594
	c34.129,29.107,53.703,71.501,53.703,116.312c0,84.254-68.545,152.798-152.798,152.798s-152.798-68.545-152.798-152.798
	c0-33.456,11.076-66.132,31.278-92.628c7.173,5.014,13.732,10.846,19.542,17.362c-16.011,21.695-24.769,48.173-24.769,75.266
	c0,69.889,56.859,126.748,126.748,126.748S470.92,398.029,470.92,328.141s-56.859-126.748-126.748-126.748
	c-23.992,0-47.281,6.732-67.472,19.455c-5.991-6.638-12.53-12.769-19.55-18.321c25.608-17.806,55.549-27.185,87.022-27.185
	c24.301,0,47.531,5.535,69.043,16.449c3.698,1.879,8.223,0.4,10.102-3.3c1.878-3.701,0.4-8.224-3.301-10.102
	c-23.638-11.994-49.156-18.076-75.843-18.076c-36.366,0-70.873,11.407-99.94,32.998c-24.68-15.809-53.999-24.983-85.422-24.983
	C71.242,168.329,0,239.571,0,327.139s71.242,158.81,158.81,158.81c29.904,0,58.881-8.329,84.074-24.084
	c28.17,21.389,63.27,34.104,101.288,34.104c92.541,0,167.828-75.287,167.828-167.828C512,278.922,490.502,232.36,453.02,200.393z
	 M176.344,328.141c0,36.98,12.033,71.199,32.374,98.965c-15.416,7.699-32.534,11.751-49.908,11.751
	c-61.601,0-111.718-50.117-111.718-111.718S97.209,215.421,158.81,215.421c18.322,0,35.627,4.435,50.9,12.284
	C188.145,256.573,176.344,291.944,176.344,328.141z M251.806,265.301c11.821,17.719,18.723,38.986,18.723,61.838
	c0,22.721-6.683,44.295-19.355,62.836c-11.819-17.719-18.72-38.984-18.72-61.834C232.454,305.696,239.272,283.734,251.806,265.301z
	 M344.172,216.423c61.601,0,111.718,50.117,111.718,111.718s-50.117,111.718-111.718,111.718c-21.566,0-41.719-6.149-58.813-16.776
	c20.837-27.477,32.261-61.326,32.261-95.944c0-35.403-11.649-68.135-31.309-94.572C303.725,222.002,323.655,216.423,344.172,216.423
	z M158.81,470.92c-79.281,0-143.781-64.5-143.781-143.781s64.5-143.781,143.781-143.781s143.781,64.5,143.781,143.781
	c0,31.475-10.429,62.247-29.444,87.175c-4.423-3.652-8.555-7.642-12.369-11.921c16.207-21.901,24.779-47.842,24.779-75.254
	c0-29.339-10.024-56.379-26.82-77.883c-0.459-0.951-1.12-1.823-1.99-2.538c-0.033-0.027-0.069-0.05-0.103-0.076
	c-23.266-28.225-58.484-46.25-97.834-46.25c-69.889,0-126.748,56.859-126.748,126.748S88.922,453.887,158.81,453.887
	c20.804,0,41.29-5.116,59.528-14.827c3.896,4.414,8.016,8.623,12.349,12.607C208.897,464.274,184.227,470.92,158.81,470.92z"/>
<path d="M72.166,72.147c0.122,1.803,0.897,3.528,2.177,4.808l80.156,80.156c2.895,2.895,7.732,2.895,10.627,0l80.156-80.156
	c1.397-1.396,2.202-3.341,2.202-5.315V23.546c0-4.15-3.365-7.515-7.515-7.515H79.656c-4.15,0-7.515,3.365-7.515,7.515V71.64
	C72.149,71.809,72.158,71.978,72.166,72.147z M97.797,79.155h24.865l16.575,41.44L97.797,79.155z M184.36,64.125h-49.096V31.061
	h49.096V64.125z M180.775,79.155l-20.963,52.408l-20.963-52.408H180.775z M180.386,120.595l16.576-41.44h24.865L180.386,120.595z
	 M232.454,31.061v33.065h-33.065V31.061H232.454z M87.17,31.061h33.065v33.065H87.17V31.061z"/>
<g>
</g>
<g>
</g>
<g>
</g>
<g>
</g>
<g>
</g>
<g>
</g>
<g>
</g>
<g>
</g>
<g>
</g>
<g>
</g>
<g>
</g>
<g>
</g>
<g>
</g>
<g>
</g>
<g>
</g>
</svg>
