<?xml version="1.0" encoding="iso-8859-1"?>
<!-- Generator: Adobe Illustrator 19.0.0, SVG Export Plug-In . SVG Version: 6.00 Build 0)  -->
<svg version="1.1" id="Capa_1" xmlns="http://www.w3.org/2000/svg" xmlns:xlink="http://www.w3.org/1999/xlink" x="0px" y="0px"
	 viewBox="0 0 429.904 429.904" style="enable-background:new 0 0 429.904 429.904;" xml:space="preserve">
<polygon style="fill:#ED664C;" points="420.4,246.869 420.4,375.969 379.4,375.969 390.4,246.869 "/>
<g>
	<polygon style="fill:#FDC75B;" points="420.4,233.269 420.4,246.869 390.4,246.869 370.1,246.869 369.6,86.869 420.4,53.969 	"/>
	<path style="fill:#FDC75B;" d="M215,113.769c67.5,0,122.1,54.7,122.1,122.1c0,67.5-54.7,122.1-122.1,122.1s-122.1-54.6-122.1-122
		C92.9,168.469,147.5,113.769,215,113.769z M295.5,235.969c0-44.4-36-80.4-80.5-80.4s-80.4,36-80.4,80.4s36,80.5,80.4,80.5
		S295.5,280.369,295.5,235.969z"/>
</g>
<g>
	<path style="fill:#ED664C;" d="M215,155.469c44.4,0,80.5,36,80.5,80.4s-36,80.5-80.5,80.5s-80.4-36-80.4-80.5
		S170.6,155.469,215,155.469z"/>
	<path style="fill:#ED664C;" d="M39,176.869c-8-0.1-15.3-3.4-20.6-8.8c-5.4-5.4-8.8-12.9-8.8-21v-25.3h29.8h29.8v25.3
		c0,16.4-13.4,29.8-29.8,29.8C39.3,176.869,39.2,176.869,39,176.869z"/>
</g>
<path d="M215,103.769c-72.9,0-132.1,59.3-132.1,132.1c0,72.9,59.3,132.2,132.1,132.2s132.1-59.3,132.1-132.1
	C347.1,163.069,287.9,103.769,215,103.769z M215,348.069c-61.8,0-112.1-50.3-112.1-112.2c0-61.8,50.3-112.1,112.1-112.1
	s112.1,50.3,112.1,112.2C327.1,297.769,276.8,348.069,215,348.069z"/>
<path d="M215,145.469c-49.9,0-90.5,40.6-90.5,90.4c0,49.9,40.6,90.5,90.5,90.5s90.5-40.6,90.5-90.5
	C305.5,186.069,264.9,145.469,215,145.469z M215,306.369c-38.8,0-70.5-31.6-70.5-70.5c0-38.8,31.6-70.4,70.5-70.4
	s70.5,31.6,70.5,70.4C285.5,274.769,253.8,306.369,215,306.369z"/>
<path d="M69,55.969c-5.5,0-10,4.5-10,10v46h-9.6l-0.4-46c0-5.5-4.6-10-10.1-10s-10,4.6-9.9,10.1l0.3,45.9H20v-46c0-5.5-4.5-10-10-10
	s-10,4.5-10,10v54.2c0,0.3,0,0.6,0,0.9c0,0.3,0,0.6,0,0.9v25.3c0,10.6,4,20.6,11.5,28.1c5,5,11,8.5,17.6,10.3l0.4,190.3h20
	l-0.5-190.2c17.3-4.3,30.1-20,30.1-38.6v-25.3c0-0.3,0-0.6,0-0.9c0-0.3,0-0.6,0-0.9v-54.1C79,60.369,74.5,55.969,69,55.969z
	 M59,147.069c0,10.9-8.7,19.8-19.6,19.8c-0.1,0-0.2,0-0.3,0c-5.1-0.1-9.8-2.1-13.5-5.8c-3.8-3.8-5.6-8.7-5.6-14v-15.1h19.4h0.1H59
	V147.069z"/>
<path d="M425,45.169c-3.2-1.8-7-1.6-10.1,0.4l-50.7,32.8c-2.9,1.8-4.6,5-4.5,8.4l0.3,160.2c0,5.5,4.5,10,10,10h9.4l-10.1,118.2
	c-0.2,2.8,0.7,5.5,2.6,7.6s4.6,3.2,7.4,3.2h41c5.5,0,9.6-4.5,9.6-10v-142.7v-179.3C430,50.369,428.2,46.969,425,45.169z
	 M390.2,365.969l9.3-109H410v109H390.2z M410,236.969h-30l-0.6-144.7l30.5-19.9v160.9v3.7H410z"/>
<g>
</g>
<g>
</g>
<g>
</g>
<g>
</g>
<g>
</g>
<g>
</g>
<g>
</g>
<g>
</g>
<g>
</g>
<g>
</g>
<g>
</g>
<g>
</g>
<g>
</g>
<g>
</g>
<g>
</g>
</svg>
