<?xml version="1.0" encoding="iso-8859-1"?>
<!-- Generator: Adobe Illustrator 19.0.0, SVG Export Plug-In . SVG Version: 6.00 Build 0)  -->
<svg version="1.1" id="Layer_1" xmlns="http://www.w3.org/2000/svg" xmlns:xlink="http://www.w3.org/1999/xlink" x="0px" y="0px"
	 viewBox="0 0 511.999 511.999" style="enable-background:new 0 0 511.999 511.999;" xml:space="preserve">
<g>
	<path style="fill:#ED8C18;" d="M277.267,383.796l19.623-122.133l-0.578-57.92l21.112-14.761l3.613-36.781
		c4.221-30.492,11.901-46.16-15.545-58.266l-25.233-11.129c1.375-2.595,2.378-6.431,3.471-13.09
		c0.845-5.15,4.096-29.162,1.985-36.236c-4.32-14.486-16.15-22.808-29.715-22.808c-13.566,0-25.396,8.322-29.715,22.808
		c-2.11,7.075,1.14,31.087,1.985,36.236c1.093,6.659,2.096,10.495,3.472,13.09l-25.234,11.129
		c-27.446,12.104-19.765,27.773-15.545,58.266l3.612,36.781l21.113,14.761l-0.58,57.92l19.624,122.133L249.027,384h13.946
		L277.267,383.796z"/>
	<polygon style="fill:#657694;" points="318.923,384.001 262.971,384.001 249.026,384.001 190.925,384.001 190.925,426.67 
		190.925,501.333 318.923,501.333 318.923,426.67 	"/>
</g>
<g>
	<path style="fill:#000003;" d="M285.918,437.331h0.254c5.892,0,10.667-4.777,10.667-10.668c0-5.892-4.776-10.667-10.667-10.667
		h-0.254c-5.891,0-10.667,4.776-10.667,10.667C275.25,432.554,280.027,437.331,285.918,437.331z"/>
	<path style="fill:#000003;" d="M351.999,490.665h-21.334v-53.33h1.555c5.891,0,10.667-4.776,10.667-10.667S338.111,416,332.22,416
		h-1.555v-32.002c0-5.892-4.776-10.667-10.667-10.667h-29.171l17.67-109.975c0.096-0.594,0.142-1.197,0.135-1.799l-0.521-52.297
		l16.499-11.537c2.553-1.786,4.199-4.599,4.504-7.701l3.59-36.568c0.592-4.246,1.248-8.182,1.886-11.992
		c3.744-22.428,7.282-43.613-23.718-57.287l-16.54-7.295c0.336-1.621,0.666-3.42,0.997-5.435c0.202-1.228,4.909-30.204,1.683-41.014
		C291.497,11.944,275.821,0,257.073,0c-18.751,0-34.428,11.944-39.938,30.426c-3.227,10.811,1.48,39.789,1.681,41.015
		c0.332,2.016,0.659,3.815,0.996,5.436l-16.539,7.295c-31.002,13.674-27.463,34.858-23.718,57.287
		c0.637,3.81,1.294,7.748,1.886,11.991l3.59,36.569c0.304,3.102,1.95,5.915,4.505,7.701l16.502,11.537l-0.523,52.297
		c-0.006,0.602,0.039,1.204,0.134,1.799l17.671,109.974H192c-5.891,0-10.667,4.776-10.667,10.668v32.002h-1.555
		c-5.892,0-10.667,4.776-10.667,10.668s4.776,10.667,10.667,10.667h1.555v53.331h-21.334c-5.891,0-10.667,4.776-10.667,10.667
		s4.777,10.668,10.667,10.668H352c5.891,0,10.668-4.776,10.668-10.668C362.666,495.441,357.89,490.665,351.999,490.665z
		 M244.916,373.255l-18.06-112.391l0.571-57.018c0.035-3.521-1.668-6.831-4.555-8.85l-17.089-11.948l-3.132-31.895
		c-0.015-0.141-0.031-0.281-0.05-0.42c-0.64-4.619-1.364-8.959-2.004-12.788c-3.832-22.946-4.068-27.481,11.284-34.252l25.236-11.13
		c2.711-1.196,4.801-3.465,5.773-6.263c0.972-2.799,0.734-5.876-0.652-8.493c-0.729-1.374-1.527-4.679-2.372-9.826
		c-1.579-9.605-3.267-27.466-2.288-31.456c2.834-9.512,10.121-15.191,19.492-15.191c9.368,0,16.656,5.679,19.476,15.13
		c0.994,4.049-0.693,21.912-2.274,31.519c-0.845,5.145-1.643,8.45-2.372,9.824c-1.387,2.618-1.623,5.694-0.652,8.493
		c0.972,2.799,3.064,5.067,5.774,6.263l25.235,11.13c15.353,6.772,15.116,11.306,11.284,34.252c-0.64,3.83-1.363,8.169-2.003,12.788
		c-0.02,0.14-0.036,0.281-0.05,0.42l-3.132,31.895l-17.087,11.948c-2.886,2.017-4.589,5.328-4.555,8.849l0.569,57.018
		l-18.052,112.392l-5.167,0.075h-13.979L244.916,373.255z M255.273,416h-52.607v-21.335h47.261l0.109,0.001
		c0.051,0.001,0.102,0.001,0.154,0.001h13.766c0.052,0,0.102,0,0.154-0.001l0.11-0.001h45.112v95.998H202.669v-53.328h52.607
		c5.892,0,10.667-4.776,10.667-10.667C265.941,420.776,261.166,416,255.273,416z"/>
</g>
<g>
</g>
<g>
</g>
<g>
</g>
<g>
</g>
<g>
</g>
<g>
</g>
<g>
</g>
<g>
</g>
<g>
</g>
<g>
</g>
<g>
</g>
<g>
</g>
<g>
</g>
<g>
</g>
<g>
</g>
</svg>
