<svg height="480pt" viewBox="0 0 480.04752 480" width="480pt" xmlns="http://www.w3.org/2000/svg"><path d="m8.003906 152.023438 48-96h368l48 96zm0 0" fill="#a3603e"/><path d="m424.003906 56.023438h-74.585937l-195.445313 96h318.03125zm0 0" fill="#94502d"/><path d="m24.003906 152.023438h432v288h-432zm0 0" fill="#d1d4d6"/><path d="m8.003906 440.023438h464v32h-464zm0 0" fill="#d1d4d6"/><path d="m56.003906 280.023438h368v160h-368zm0 0" fill="#4398d1"/><path d="m424.003906 312.023438h-80v-32h-16v32h-80v-32h-16v32h-80v-32h-16v32h-80v16h80v112h16v-112h80v112h16v-112h80v112h16v-112h80zm0 0" fill="#3181bd"/><path d="m200.003906 360.023438h16v32h-16zm0 0" fill="#d1d4d6"/><path d="m264.003906 360.023438h16v32h-16zm0 0" fill="#d1d4d6"/><path d="m56.003906 184.023438h368v96h-368zm0 0" fill="#c9473a"/><g fill="#e3584b"><path d="m224.003906 216.023438h16v32h-16zm0 0"/><path d="m192.003906 216.023438h16v32h-16zm0 0"/><path d="m256.003906 216.023438h16v32h-16zm0 0"/><path d="m288.003906 216.023438h16v32h-16zm0 0"/><path d="m320.003906 216.023438h16v32h-16zm0 0"/><path d="m352.003906 216.023438h16v32h-16zm0 0"/></g><path d="m160.003906 232.023438c0-8.835938-10.746094-16-24-16s-24 7.164062-24 16c0 8.835937 10.746094 16 24 16s24-7.164063 24-16zm0 0" fill="#d1d4d6"/><path d="m472.003906 440.023438h-64v-80c20.144532-10.070313 43.855469-10.070313 64 0zm0 0" fill="#e3584b"/><path d="m432.003906 352.929688c8.355469.933593 16.480469 3.335937 24 7.09375v80h16v-80c-12.367187-6.183594-26.261718-8.648438-40-7.09375zm0 0" fill="#c9473a"/><path d="m408.003906 368.023438h64v16h-64zm0 0" fill="#693721"/><path d="m408.003906 440.023438h64v32h-64zm0 0" fill="#693721"/><path d="m408.003906 400.023438h24v16h-24zm0 0" fill="#693721"/><path d="m152.003906 8.023438h176v112h-176zm0 0" fill="#eb9b05"/><path d="m328.003906 8.023438-88 64-88-64zm0 0" fill="#fdb62f"/><path d="m205.140625 46.664062-53.136719 61.253907v12.105469h10.6875l55.441406-63.910157zm0 0" fill="#d98b05"/><path d="m261.492188 56.398438 55.566406 63.625h10.945312v-11.792969l-53.527344-61.277344zm0 0" fill="#d98b05"/><path d="m72.003906 80.023438h24v16h-24zm0 0" fill="#693721"/><path d="m96.003906 96.023438h24v16h-24zm0 0" fill="#693721"/><path d="m56.003906 112.023438h24v16h-24zm0 0" fill="#693721"/><path d="m368.003906 88.023438h24v16h-24zm0 0" fill="#693721"/><path d="m400.003906 112.023438h24v16h-24zm0 0" fill="#693721"/><path d="m56.003906 264.023438h368v16h-368zm0 0" fill="#b54034"/><path d="m24.003906 152.023438h432v16h-432zm0 0" fill="#c3c5c7"/><path d="m152.003906 120.023438h176v16h-176zm0 0" fill="#94502d"/><path d="m24.003906 424.023438h32v16h-32zm0 0" fill="#c3c5c7"/><path d="m56.003906 280.023438h368v16h-368zm0 0" fill="#3181bd"/><path d="m200.003906 360.023438h16v32h-16zm0 0"/><path d="m264.003906 360.023438h16v32h-16zm0 0"/><path d="m224.003906 216.023438h16v32h-16zm0 0"/><path d="m192.003906 216.023438h16v32h-16zm0 0"/><path d="m256.003906 216.023438h16v32h-16zm0 0"/><path d="m288.003906 216.023438h16v32h-16zm0 0"/><path d="m320.003906 216.023438h16v32h-16zm0 0"/><path d="m352.003906 216.023438h16v32h-16zm0 0"/><path d="m136.003906 208.023438c-17.945312 0-32 10.542968-32 24 0 13.457031 14.054688 24 32 24 17.945313 0 32-10.542969 32-24 0-13.457032-14.054687-24-32-24zm0 32c-9.769531 0-16-4.734376-16-8 0-3.265626 6.230469-8 16-8 9.769532 0 16 4.734374 16 8 0 3.265624-6.230468 8-16 8zm0 0"/><path d="m72.003906 80.023438h24v16h-24zm0 0"/><path d="m96.003906 96.023438h24v16h-24zm0 0"/><path d="m56.003906 112.023438h24v16h-24zm0 0"/><path d="m368.003906 88.023438h24v16h-24zm0 0"/><path d="m400.003906 112.023438h24v16h-24zm0 0"/><path d="m475.578125 352.863281c-3.730469-1.816406-7.601563-3.339843-11.574219-4.550781v-188.289062h8c2.78125.015624 5.367188-1.414063 6.835938-3.773438 1.46875-2.363281 1.605468-5.316406.363281-7.800781l-48-96c-1.359375-2.726563-4.152344-4.441407-7.199219-4.425781h-88v-40.0625c0-.816407-.125-1.625-.375-2.402344-.042968-.125-.128906-.222656-.175781-.351563-.121094-.304687-.289063-.558593-.433594-.847656-.289062-.574219-.648437-1.109375-1.0625-1.601563-.21875-.242187-.453125-.472656-.699219-.6875-.484374-.425781-1.023437-.789062-1.597656-1.078124-.257812-.15625-.523437-.292969-.800781-.410157-.910156-.359375-1.878906-.550781-2.855469-.5585935h-176c-.972656.015625-1.9375.2109375-2.839844.5781245-.277343.113282-.542968.25-.800781.40625-.574219.292969-1.113281.652344-1.597656 1.078126-.730469.632812-1.332031 1.402343-1.761719 2.265624-.144531.289063-.3125.542969-.433594.847657-.046874.128906-.132812.222656-.175781.351562-.246093.777344-.371093 1.585938-.375 2.402344l-.015625.070313v40h-88c-3.03125 0-5.804687 1.710937-7.160156 4.425781l-48 96c-1.238281 2.480469-1.105469 5.425781.351562 7.78125 1.460938 2.359375 4.035157 3.792969 6.808594 3.792969h8v272h-8c-4.417968 0-7.99999975 3.582031-7.99999975 8v32c0 4.417968 3.58203175 8 7.99999975 8h464c4.417969 0 8-3.582032 8-8v-112c0-3.03125-1.710937-5.804688-4.425781-7.160157zm-195.679687-300 40.105468-29.136719v75zm30.503906 59.160157h-140.796875l43.460937-49.671876 22.203125 16.144532c2.804688 2.039062 6.601563 2.039062 9.40625 0l22.199219-16.144532zm-7-96-63.398438 46.113281-63.398437-46.113281zm-143.398438 7.703124 40.105469 29.167969-40.105469 45.832031zm-99.054687 40.296876h83.054687v56c0 4.417968 3.582032 8 8 8h176c4.417969 0 8-3.582032 8-8v-56h83.054688l40 80h-438.109375zm363.054687 112h-368c-4.417968 0-8 3.582031-8 8v248h-16v-272h416v184.945312c-5.320312-.527344-10.679687-.527344-16 0v-160.945312c0-4.417969-3.582031-8-8-8zm-360 96v-80h352v80zm352 16v24h-72v-24zm-168 24v-24h80v24zm80 16v104h-80v-104zm-176-16v-24h80v24zm80 16v104h-80v-104zm-168-16v-24h72v24zm72 16v104h-72v-104zm264 136h-384v-16h384zm4.421875-111.199219c-2.722656 1.363281-4.4375 4.152343-4.421875 7.199219v72h-56v-104h72v20.289062c-3.972656 1.210938-7.84375 2.734375-11.578125 4.550781zm59.578125 111.199219h-48v-16h48zm0-32h-48v-16h16v-16h-16v-16h48zm0-64h-48v-2.839844c15.390625-6.238282 32.609375-6.238282 48 0zm0 0"/></svg>