<?xml version="1.0" encoding="iso-8859-1"?>
<!-- Generator: Adobe Illustrator 19.0.0, SVG Export Plug-In . SVG Version: 6.00 Build 0)  -->
<svg version="1.1" id="Layer_1" xmlns="http://www.w3.org/2000/svg" xmlns:xlink="http://www.w3.org/1999/xlink" x="0px" y="0px"
	 viewBox="0 0 511.999 511.999" style="enable-background:new 0 0 511.999 511.999;" xml:space="preserve">
<polygon style="fill:#875B51;" points="8.172,171.302 8.172,291.131 255.999,323.812 255.999,171.302 "/>
<path style="fill:#4B8D8F;" d="M503.827,260.085c-8.925,18.377-27.764,31.047-49.566,31.047l-32.681,108.391l32.681,108.391h49.566
	V260.085z"/>
<path style="fill:#63ABA1;" d="M404.696,260.085c-8.924,18.376-27.764,31.047-49.566,31.047s-40.642-12.67-49.566-31.047
	c-8.924,18.376-27.764,31.047-49.566,31.047s-40.642-12.67-49.566-31.047c-8.924,18.376-27.764,31.047-49.566,31.047
	s-40.642-12.67-49.566-31.047c-8.924,18.376-27.764,31.047-49.566,31.047s-40.64-12.67-49.566-31.047v247.828h446.09V291.131
	C432.459,291.131,413.62,278.461,404.696,260.085z"/>
<path style="fill:#FE9528;" d="M255.999,12.257v98.042c27.074,0,49.021-21.947,49.021-49.021S283.073,12.257,255.999,12.257z"/>
<path style="fill:#FEC14D;" d="M272.34,61.278c0-27.074-7.316-49.021-16.34-49.021c-27.074,0-49.021,21.947-49.021,49.021
	s21.947,49.021,49.021,49.021C265.024,110.299,272.34,88.352,272.34,61.278z"/>
<g>
	<path style="fill:#FFFFFF;" d="M165.038,364.663h-16.34c-4.512,0-8.17-3.657-8.17-8.17c0-4.513,3.658-8.17,8.17-8.17h16.34
		c4.512,0,8.17,3.657,8.17,8.17C173.209,361.006,169.551,364.663,165.038,364.663z"/>
	<path style="fill:#FFFFFF;" d="M65.907,397.343h-16.34c-4.512,0-8.17-3.657-8.17-8.17c0-4.513,3.658-8.17,8.17-8.17h16.34
		c4.512,0,8.17,3.657,8.17,8.17C74.078,393.686,70.419,397.343,65.907,397.343z"/>
</g>
<path style="fill:#FD8300;" d="M474.959,367.386h-32.681l-26.211,27.605v32.681c7.228,6.964,16.342,11.983,26.515,14.18
	L474.959,367.386z"/>
<path style="fill:#FFA850;" d="M235.302,367.386l32.377,74.466c16.713-3.61,30.603-14.804,37.887-29.802
	c7.848,16.161,23.364,27.904,41.819,30.502h15.492c18.455-2.598,33.971-14.342,41.819-30.502
	c2.851,5.869,6.725,11.144,11.372,15.622l26.211-60.286H235.302z"/>
<polygon style="fill:#FFFFFF;" points="474.959,334.705 355.13,334.705 355.13,128.001 "/>
<path d="M8.172,179.473h239.658v78.978c0,4.513,3.658,8.17,8.17,8.17c4.512,0,8.17-3.657,8.17-8.17v-87.148
	c0-4.513-3.658-8.17-8.17-8.17H114.384v-16.34h8.17c4.512,0,8.17-3.657,8.17-8.17c0-4.513-3.658-8.17-8.17-8.17h-16.34
	c-4.512,0-8.17,3.657-8.17,8.17v24.51H49.022v-16.34h8.17c4.512,0,8.17-3.657,8.17-8.17c0-4.513-3.658-8.17-8.17-8.17h-16.34
	c-4.512,0-8.17,3.657-8.17,8.17v24.51H8.172c-4.512,0-8.17,3.657-8.17,8.17C0.002,175.816,3.66,179.473,8.172,179.473z"/>
<path d="M255.999,118.469c31.536,0,57.191-25.656,57.191-57.191S287.535,4.087,255.999,4.087s-57.191,25.656-57.191,57.191
	S224.464,118.469,255.999,118.469z M255.999,20.427c22.526,0,40.851,18.325,40.851,40.851s-18.325,40.851-40.851,40.851
	s-40.851-18.325-40.851-40.851S233.474,20.427,255.999,20.427z"/>
<path d="M507.396,252.736c-4.06-1.974-8.948-0.281-10.919,3.78c-7.9,16.269-24.014,26.387-42.074,26.441l-92.204-159.054
	c-1.853-3.197-5.622-4.752-9.191-3.792s-6.048,4.196-6.048,7.89v154.232c-14.708-2.553-27.339-11.907-34.046-25.716
	c-1.367-2.815-4.221-4.601-7.35-4.601s-5.983,1.787-7.35,4.601c-7.922,16.313-24.099,26.445-42.216,26.445
	s-34.294-10.133-42.216-26.445c-1.367-2.815-4.221-4.601-7.35-4.601s-5.983,1.787-7.35,4.601
	c-7.922,16.313-24.099,26.445-42.216,26.445s-34.294-10.133-42.216-26.445c-1.367-2.815-4.221-4.601-7.35-4.601
	s-5.983,1.787-7.35,4.601c-7.922,16.313-24.099,26.445-42.216,26.445c-18.118,0-34.295-10.133-42.216-26.445
	c-1.971-4.059-6.86-5.747-10.919-3.781c-4.059,1.972-5.752,6.86-3.78,10.919c10.516,21.655,32.857,35.648,56.915,35.648
	c19.409,0,37.699-9.106,49.566-23.996c11.866,14.89,30.157,23.996,49.566,23.996s37.699-9.106,49.566-23.996
	c11.866,14.89,30.157,23.996,49.566,23.996s37.699-9.106,49.566-23.996c10.183,12.778,25.103,21.277,41.395,23.437v60.474H235.303
	c-2.754,0-5.323,1.387-6.832,3.691c-1.51,2.304-1.758,5.211-0.66,7.738l27.945,64.275c-7.752-0.04-15.412-1.999-22.168-5.683
	c-3.962-2.161-8.924-0.702-11.084,3.26s-0.7,8.924,3.262,11.084c9.219,5.028,19.675,7.686,30.236,7.686
	c4.223,0,8.388-0.455,12.45-1.284c0.58-0.056,1.159-0.17,1.731-0.354c13.921-3.247,26.467-11.168,35.384-22.358
	c11.866,14.89,30.157,23.996,49.566,23.996c19.409,0,37.699-9.106,49.566-23.996c8.919,11.191,21.466,19.113,35.389,22.359
	c0.576,0.186,1.16,0.303,1.743,0.357c4.058,0.826,8.216,1.28,12.433,1.28c10.56,0,21.015-2.657,30.235-7.684
	c3.962-2.16,5.423-7.122,3.263-11.084c-2.16-3.963-7.123-5.422-11.084-3.263c-6.756,3.683-14.417,5.642-22.168,5.683l27.945-64.275
	c1.098-2.525,0.85-5.434-0.66-7.738c-1.51-2.304-4.079-3.691-6.832-3.691H363.301V158.384l79.116,136.476
	c0.032,0.057,0.064,0.111,0.097,0.167l18.265,31.507h-72.968c-4.512,0-8.17,3.657-8.17,8.17c0,4.513,3.658,8.17,8.17,8.17h87.148
	c2.922,0,5.621-1.56,7.08-4.092c1.459-2.531,1.454-5.649-0.011-8.177l-18.549-31.998c20.417-3.057,38.541-16.098,47.698-34.956
	C513.148,259.594,511.455,254.705,507.396,252.736z M437.941,432.038c-11.154-4.101-20.465-12.376-25.895-23.558
	c-1.367-2.814-4.221-4.601-7.35-4.601s-5.983,1.788-7.35,4.601c-7.922,16.313-24.099,26.445-42.216,26.445
	s-34.294-10.133-42.216-26.445c-1.367-2.814-4.221-4.601-7.35-4.601s-5.983,1.788-7.35,4.601
	c-5.43,11.182-14.741,19.457-25.895,23.558l-24.557-56.483h214.735L437.941,432.038z"/>
<g>
</g>
<g>
</g>
<g>
</g>
<g>
</g>
<g>
</g>
<g>
</g>
<g>
</g>
<g>
</g>
<g>
</g>
<g>
</g>
<g>
</g>
<g>
</g>
<g>
</g>
<g>
</g>
<g>
</g>
</svg>
