<?xml version="1.0" encoding="iso-8859-1"?>
<!-- Generator: Adobe Illustrator 19.0.0, SVG Export Plug-In . SVG Version: 6.00 Build 0)  -->
<svg version="1.1" id="Layer_1" xmlns="http://www.w3.org/2000/svg" xmlns:xlink="http://www.w3.org/1999/xlink" x="0px" y="0px"
	 viewBox="0 0 512 512" style="enable-background:new 0 0 512 512;" xml:space="preserve">
<polygon style="fill:#C84F36;" points="346.857,195.441 313.825,217.462 346.857,239.484 379.89,239.484 379.89,195.441 "/>
<rect x="8.258" y="195.441" style="fill:#F34A28;" width="338.603" height="44.043"/>
<path style="fill:#69A8FF;" d="M503.742,362.749v140.993h-41.268l-44.043-82.581l44.043-82.581
	C471.8,353.203,486.796,362.749,503.742,362.749z"/>
<path style="fill:#9BC5FF;" d="M462.474,338.581v165.161H8.258V362.749c16.946,0,31.964-9.546,41.301-24.169
	c9.348,14.622,24.334,24.169,41.279,24.169c16.957,0,31.975-9.546,41.301-24.169c9.348,14.622,24.334,24.169,41.29,24.169
	c16.946,0,31.931-9.546,41.29-24.169c9.348,14.622,24.345,24.169,41.29,24.169c16.946,0,31.964-9.546,41.29-24.169
	c9.348,14.622,24.323,24.169,41.29,24.169c16.946,0,31.931-9.546,41.301-24.169c9.337,14.622,24.323,24.169,41.268,24.169
	C438.118,362.749,453.137,353.203,462.474,338.581z"/>
<g>
	<path style="fill:#FFFFFF;" d="M118.367,412.903H41.291c-4.562,0-8.258-3.697-8.258-8.258c0-4.561,3.696-8.258,8.258-8.258h77.075
		c4.562,0,8.258,3.697,8.258,8.258C126.625,409.206,122.928,412.903,118.367,412.903z"/>
	<path style="fill:#FFFFFF;" d="M195.442,412.903h-44.043c-4.562,0-8.258-3.697-8.258-8.258c0-4.561,3.696-8.258,8.258-8.258h44.043
		c4.562,0,8.258,3.697,8.258,8.258C203.7,409.206,200.004,412.903,195.442,412.903z"/>
	<path style="fill:#FFFFFF;" d="M470.707,445.935h-77.075c-4.562,0-8.258-3.697-8.258-8.258s3.696-8.258,8.258-8.258h77.075
		c4.562,0,8.258,3.697,8.258,8.258S475.268,445.935,470.707,445.935z"/>
	<path style="fill:#FFFFFF;" d="M360.6,445.935h-44.043c-4.562,0-8.258-3.697-8.258-8.258s3.696-8.258,8.258-8.258H360.6
		c4.562,0,8.258,3.697,8.258,8.258S365.161,445.935,360.6,445.935z"/>
	<path style="fill:#FFFFFF;" d="M239.485,445.935h-88.086c-4.562,0-8.258-3.697-8.258-8.258s3.696-8.258,8.258-8.258h88.086
		c4.562,0,8.258,3.697,8.258,8.258S244.047,445.935,239.485,445.935z"/>
	<path style="fill:#FFFFFF;" d="M101.851,478.968H85.334c-4.562,0-8.258-3.697-8.258-8.258s3.696-8.258,8.258-8.258h16.516
		c4.562,0,8.258,3.697,8.258,8.258S106.412,478.968,101.851,478.968z"/>
</g>
<g>
	<circle style="fill:#FFEF4A;" cx="297.301" cy="30.28" r="22.022"/>
	<circle style="fill:#FFEF4A;" cx="132.14" cy="30.28" r="22.022"/>
</g>
<path d="M503.742,354.487c-13.55,0-26.055-7.417-34.308-20.349c-1.517-2.377-4.142-3.815-6.961-3.815s-5.444,1.438-6.961,3.815
	c-8.254,12.932-20.774,20.349-34.35,20.349c-13.537,0-26.043-7.419-34.312-20.353c-1.517-2.373-4.139-3.809-6.954-3.81
	c-2.819,0-5.439,1.435-6.958,3.805c-8.283,12.938-20.803,20.359-34.344,20.359c-12.857,0-24.775-6.695-33.026-18.436v-88.31h66.067
	v57.806c0,4.561,3.696,8.258,8.258,8.258c4.562,0,8.258-3.697,8.258-8.258V137.634h2.753c4.562,0,8.258-3.697,8.258-8.258
	c0-4.561-3.696-8.258-8.258-8.258h-85.336V59.405c12.693-3.604,22.022-15.292,22.022-29.126C327.59,13.583,314.006,0,297.31,0
	s-30.28,13.583-30.28,30.28c0,13.833,9.328,25.521,22.022,29.126v61.713H140.4V59.405c12.693-3.604,22.021-15.292,22.021-29.126
	c0-16.697-13.584-30.28-30.28-30.28s-30.28,13.583-30.28,30.28c0,13.833,9.328,25.521,22.022,29.126v61.713H8.261
	c-4.562,0-8.258,3.697-8.258,8.258c0,4.561,3.696,8.258,8.258,8.258h33.04v49.548H8.258c-4.562,0-8.258,3.697-8.258,8.258
	c0,4.561,3.696,8.258,8.258,8.258h363.374v27.527H8.258c-4.562,0-8.258,3.697-8.258,8.258s3.696,8.258,8.258,8.258h33.043v88.312
	c-8.237,11.74-20.162,18.433-33.04,18.433c-4.562,0-8.258,3.697-8.258,8.258v140.997c0,4.561,3.696,8.258,8.258,8.258h495.481
	c4.562,0,8.258-3.697,8.258-8.258V362.745C512,358.184,508.303,354.487,503.742,354.487z M283.543,30.28
	c0-7.59,6.174-13.763,13.763-13.763S311.07,22.69,311.07,30.28s-6.174,13.763-13.763,13.763S283.543,37.869,283.543,30.28z
	 M118.379,30.28c0-7.59,6.174-13.763,13.763-13.763c7.59,0,13.763,6.174,13.763,13.763s-6.174,13.763-13.763,13.763
	C124.553,44.043,118.379,37.869,118.379,30.28z M297.307,154.151c-4.562,0-8.258,3.697-8.258,8.258v24.774h-24.775v-49.548h66.067
	v49.548h-24.775v-24.774C305.565,157.848,301.869,154.151,297.307,154.151z M132.142,154.151c-4.562,0-8.258,3.697-8.258,8.258
	v24.774H99.109v-49.548h66.067v49.548H140.4v-24.774C140.4,157.848,136.704,154.151,132.142,154.151z M181.692,137.634h24.775
	v49.548h-24.775V137.634z M222.983,137.634h24.774v49.548h-24.774V137.634z M57.817,137.634h24.775v49.548H57.817V137.634z
	 M346.856,187.183v-49.548h24.775v49.548H346.856z M289.049,336.054c-8.237,11.74-20.162,18.433-33.04,18.433
	c-12.857,0-24.775-6.695-33.027-18.436v-88.308h66.067V336.054z M140.4,247.742h66.066v88.306
	c-8.262,11.743-20.186,18.439-33.04,18.439c-12.858,0-24.775-6.695-33.026-18.435C140.4,336.051,140.4,247.742,140.4,247.742z
	 M123.884,247.742v88.312c-8.237,11.74-20.162,18.433-33.04,18.433c-12.858,0-24.776-6.695-33.027-18.435v-88.31H123.884z
	 M495.484,495.484H16.519V370.344c12.417-1.99,24.011-8.409,33.043-18.251c11.016,11.997,25.827,18.91,41.282,18.91
	c15.475,0,30.292-6.911,41.301-18.91c11.016,11.997,25.826,18.91,41.28,18.91c15.452,0,30.269-6.915,41.295-18.918
	c11.017,12.003,25.83,18.918,41.288,18.918c15.475,0,30.292-6.913,41.301-18.91c11.016,11.997,25.827,18.91,41.28,18.91
	c15.452,0,30.269-6.915,41.295-18.918c11.015,12.003,25.822,18.918,41.274,18.918c15.481,0,30.301-6.909,41.311-18.905
	c9.027,9.839,20.61,16.256,33.012,18.246v125.141H495.484z"/>
<g>
</g>
<g>
</g>
<g>
</g>
<g>
</g>
<g>
</g>
<g>
</g>
<g>
</g>
<g>
</g>
<g>
</g>
<g>
</g>
<g>
</g>
<g>
</g>
<g>
</g>
<g>
</g>
<g>
</g>
</svg>
