<?xml version="1.0" encoding="iso-8859-1"?>
<!-- Generator: Adobe Illustrator 19.0.0, SVG Export Plug-In . SVG Version: 6.00 Build 0)  -->
<svg xmlns="http://www.w3.org/2000/svg" xmlns:xlink="http://www.w3.org/1999/xlink" version="1.1" id="Layer_1" x="0px" y="0px" viewBox="0 0 512 512" style="enable-background:new 0 0 512 512;" xml:space="preserve" width="512" height="512">
<g>
	<rect x="26" y="130" style="fill:#B3D7FC;" width="460" height="332"/>
	<rect x="10" y="462" style="fill:#6E6E6E;" width="492" height="40"/>
	<rect x="26" y="422" style="fill:#8397AA;" width="40" height="40"/>
	<rect x="186" y="422" style="fill:#8397AA;" width="300" height="40"/>
	<rect x="66" y="212" style="fill:#C8E7F9;" width="120" height="250"/>
	<rect x="226" y="172" style="fill:#C8E7F9;" width="260" height="200"/>
	<rect x="10" y="10" style="fill:#F0F0F0;" width="492" height="120"/>
	<polygon style="fill:#FC5B5B;" points="416,252 376,252 376,212 336,212 336,252 296,252 296,292 336,292 336,332 376,332 376,292    416,292  "/>
	<g>
		<path d="M496,140h6c5.522,0,10-4.478,10-10V10c0-5.522-4.478-10-10-10H10C4.478,0,0,4.478,0,10v120c0,5.522,4.478,10,10,10h6v312    h-6c-5.522,0-10,4.478-10,10v40c0,5.522,4.478,10,10,10h492c5.522,0,10-4.478,10-10v-40c0-5.522-4.478-10-10-10h-6V140z M236,222    h10c5.51,0,10-4.49,10-10s-4.49-10-10-10h-10v-20h240v140h-10c-5.51,0-10,4.49-10,10s4.49,10,10,10h10v20H236V222z M20,20h472v100    H20V20z M476,140v22H226c-5.522,0-10,4.478-10,10v200c0,5.522,4.478,10,10,10h250v30H196V212c0-5.522-4.478-10-10-10H66    c-5.522,0-10,4.478-10,10v200H36V140H476z M76,452V222h100v230H76z M36,432h20v20H36V432z M492,492H20v-20h472V492z M196,452v-20    h280v20H196z"/>
		<path d="M116,282h-10c-5.522,0-10,4.478-10,10s4.478,10,10,10v70c-5.522,0-10,4.478-10,10s4.478,10,10,10h10    c5.522,0,10-4.478,10-10v-90C126,286.478,121.522,282,116,282z"/>
		<path d="M41.622,98.594c1.318,0.736,3.092,0.975,4.416,0.975c2.354,0,6.24-0.802,6.24-3.84v-17.28c0,0,7.91,0,7.92,0    c11.335,0,19.68-6.857,19.68-18.56v-0.4c0-4.78-1.262-10.605-5.16-13.96c-3.44-2.96-8.014-4.44-13.72-4.44c0,0-16.52,0-16.559,0    c-2.062,0-4.64,1.252-4.64,3.761c0,0,0,50.32,0,50.876C39.798,97.091,40.563,98.003,41.622,98.594z M52.277,51.97h7.92    c4.8,0,7.199,2.667,7.199,8v0.88c0,5.333-2.399,8-7.199,8h-7.92V51.97z"/>
		<path d="M95.161,98.558c1.333,0.747,3.117,1.011,4.395,1.011c2.358,0,6.239-0.799,6.239-3.84V74.05h15.92c0,0,0,21.448,0,21.678    c0,3.025,3.912,3.842,6.24,3.842c2.352,0,6.24-0.828,6.24-3.84c0,0,0-50.41,0-50.877c0-3.048-3.916-3.764-6.24-3.764    c-2.189,0-6.24,0.737-6.24,3.761v19.6h-15.92c0,0,0-19.425,0-19.598c0-2.961-3.949-3.762-6.24-3.762    c-2.326,0-6.239,0.761-6.239,3.761c0,0,0,50.295,0,50.875C93.315,97.053,94.094,97.96,95.161,98.558z"/>
		<path d="M149.435,98.05c2.204,1.288,8.412,3.066,9.48-0.801l2.72-10h16.88c0,0,2.72,10,2.72,10.001    c1.072,3.884,7.18,2.144,9.48,0.8c1.732-1.013,2.6-2.213,2.6-3.601c0-0.16-0.054-0.452-0.16-0.88c0,0-14.854-48.456-14.96-48.798    c-0.965-3.148-5.254-4.162-8.161-4.162c-2.954,0-7.135,0.953-8.159,4.16l-14.88,48.8c-0.108,0.428-0.16,0.72-0.16,0.88    C146.835,95.837,147.701,97.037,149.435,98.05z M170.034,56.209l5.841,21.44h-11.681L170.034,56.209z"/>
		<path d="M207.796,98.564c1.331,0.745,3.112,1.005,4.398,1.005c2.351,0,6.24-0.825,6.24-3.84v-19.28h5.28    c0,0,10.87,21.105,10.959,21.279c1.875,3.641,6.818,2.307,9.321,0.241c1.68-1.387,2.52-2.853,2.52-4.4    c0-0.586-0.134-1.066-0.399-1.44l-9.761-17.68c6.453-2.506,9.681-7.92,9.681-16.24c0-11.412-6.561-17.12-19.681-17.12    c0,0-16.462,0-16.559,0c-2.102,0-3.84,1.645-3.84,3.761c0,0,0,50.652,0,50.879C205.954,97.061,206.73,97.968,207.796,98.564z     M218.434,51.97h7.92c4.77,0,7.2,2.81,7.2,7.439c0,4.652-2.473,7.441-7.2,7.441h-7.92V51.97z"/>
		<path d="M262.513,98.569c1.33,0.744,3.111,1,4.401,1c2.364,0,6.24-0.799,6.24-3.84v-30.8l7.601,13.92    c0.8,1.547,2.105,2.319,3.92,2.319c1.866,0,3.252-0.772,4.16-2.319l7.679-13.12c0,0,0,29.67,0,29.997    c0,3.057,3.885,3.843,6.24,3.843c2.37,0,6.239-0.798,6.239-3.84v-48.4c0-2.132-0.6-3.706-1.8-4.72    c-1.2-1.013-2.68-1.521-4.441-1.521c-4.971,0-7.319,2.09-9.678,6.24l-8.239,14.4c0,0-8.24-14.4-8.241-14.401    c-2.373-4.17-4.774-6.239-9.68-6.239c-1.76,0-3.239,0.508-4.439,1.521c-1.2,1.014-1.8,2.588-1.8,4.72c0,0,0,47.912,0,48.397    C260.674,97.065,261.449,97.973,262.513,98.569z"/>
		<path d="M324.231,98.05c2.184,1.276,8.421,3.034,9.48-0.801l2.72-10h16.88c0,0,2.692,9.898,2.72,10    c1.049,3.855,7.203,2.133,9.481,0.801c1.732-1.013,2.6-2.213,2.6-3.601c0-0.16-0.054-0.452-0.16-0.88    c0,0-14.873-48.517-14.96-48.799c-0.99-3.229-5.243-4.161-8.161-4.161c-2.977,0-7.12,0.909-8.159,4.16l-14.88,48.8    c-0.108,0.428-0.16,0.72-0.16,0.88C321.632,95.837,322.498,97.037,324.231,98.05z M344.831,56.209l5.841,21.44h-11.681    L344.831,56.209z"/>
		<path d="M385.431,95.489c3.546,3.04,8.173,4.561,13.88,4.561c5.866,0,10.68-1.493,14.44-4.48c3.759-2.986,5.639-7.065,5.64-12.238    c0-4.24-2.223-5.922-6.32-5.922c-3.894,0-5.947,1.254-6.16,3.764c-0.438,4.524-2.003,7.995-7.04,7.995c-4.854,0-7.28-2.666-7.28-8    V59.97c0-5.333,2.399-8,7.2-8c4.586,0,6.96,2.399,7.12,7.199c0.159,2.508,2.239,3.761,6.242,3.761    c4.144-0.001,6.238-1.726,6.238-5.92c0-4.96-1.88-8.853-5.64-11.681c-3.761-2.826-8.574-4.24-14.44-4.24    c-5.707,0-10.334,1.521-13.88,4.561c-3.548,3.04-5.32,7.813-5.32,14.32v21.199C380.11,87.677,381.883,92.449,385.431,95.489z"/>
		<path d="M446.031,74.529c0.213,0.32,0.32,0.693,0.32,1.12c0,0,0,19.843,0,20.078c0,3.055,3.879,3.842,6.239,3.842    c2.222,0,6.24-0.824,6.24-3.84v-20.08c0-0.427,0.106-0.8,0.32-1.12l16.479-27.44c0.106-0.212,0.16-0.506,0.16-0.88    c0-1.386-0.947-2.586-2.84-3.6c-2.866-1.533-7.389-2.778-9.24,0.8l-11.12,20.561l-11.199-20.561c-0.48-0.852-0.96-1.452-1.441-1.8    c-2.076-1.501-5.878-0.028-7.799,1c-1.894,1.014-2.84,2.214-2.84,3.6c0,0.374,0.052,0.668,0.16,0.88L446.031,74.529z"/>
		<path d="M426,322c-5.521,0-10,4.49-10,10s4.479,10,10,10c5.51,0,10-4.49,10-10S431.51,322,426,322z"/>
		<path d="M296,212c0-5.51-4.49-10-10-10s-10,4.49-10,10s4.49,10,10,10S296,217.51,296,212z"/>
		<path d="M426,292v-40c0-5.522-4.478-10-10-10h-30v-30c0-5.522-4.478-10-10-10h-40c-5.522,0-10,4.478-10,10v30h-30    c-5.522,0-10,4.478-10,10v40c0,5.522,4.478,10,10,10h30v30c0,5.522,4.478,10,10,10h40c5.522,0,10-4.478,10-10v-30h30    C421.522,302,426,297.522,426,292z M406,282h-30c-5.522,0-10,4.478-10,10v30h-20v-30c0-5.522-4.478-10-10-10h-30v-20h30    c5.522,0,10-4.478,10-10v-30h20v30c0,5.522,4.478,10,10,10h30V282z"/>
	</g>
</g>















</svg>
