<?xml version="1.0" encoding="iso-8859-1"?>
<!-- Generator: Adobe Illustrator 19.0.0, SVG Export Plug-In . SVG Version: 6.00 Build 0)  -->
<svg version="1.1" id="Capa_1" xmlns="http://www.w3.org/2000/svg" xmlns:xlink="http://www.w3.org/1999/xlink" x="0px" y="0px"
	 viewBox="0 0 511.998 511.998" style="enable-background:new 0 0 511.998 511.998;" xml:space="preserve">
<rect x="52.81" y="410.487" style="fill:#7C531D;" width="177.556" height="31.964"/>
<rect x="52.81" y="410.487" style="fill:#724817;" width="34.237" height="31.964"/>
<rect x="225.262" y="358.261" style="fill:#7F551D;" width="26.998" height="126.66"/>
<rect x="33.057" y="358.261" style="fill:#7C531D;" width="26.998" height="126.66"/>
<path style="fill:#8E6325;" d="M21.633,345.653c1.101-6.389,6.659-11.196,13.289-11.196c19.254,0,146.285,0,165.924,0h-48.874
	h96.549h0.381c6.185,0,11.618,4.199,13.124,10.384c2.021,8.543-4.461,16.615-13.124,16.615c-9.669,0-86.053,0-96.93,0h48.874
	c-40.105,0-133.992,0-165.924,0C26.627,361.456,20.165,353.977,21.633,345.653z"/>
<path style="fill:#7C531D;" d="M21.633,318.654c1.101-6.389,6.659-11.196,13.289-11.196c19.254,0,146.285,0,165.924,0h-48.874
	c6.844,0,90.092,0,96.93,0c6.903,0,12.527,5.171,13.381,11.797c1.028,8.245-5.394,15.202-13.381,15.202c-9.669,0-86.053,0-96.93,0
	h48.874c-40.105,0-133.992,0-165.924,0C26.612,334.457,20.167,326.961,21.633,318.654z"/>
<path style="fill:#724817;" d="M75.883,317.496c1.531-5.776,6.777-10.038,13.035-10.038c-5.438,0-48.649,0-53.996,0
	c-6.84,0-12.531,5.115-13.381,11.798c-1.034,8.217,5.377,15.201,13.381,15.201c11.535,0,42.463,0,53.996,0
	C79.927,334.457,73.595,325.868,75.883,317.496z"/>
<path style="fill:#7F551D;" d="M75.629,345.653c1.1-6.377,6.647-11.196,13.289-11.196c-5.438,0-48.649,0-53.996,0
	c-6.629,0-12.187,4.807-13.289,11.196c-1.462,8.274,4.947,15.804,13.289,15.804c11.535,0,42.463,0,53.996,0
	C80.578,361.456,74.167,353.93,75.629,345.653z"/>
<path style="fill:#8E6325;" d="M11.888,398.494c1.53-5.776,6.778-10.038,13.035-10.038c10.231,0,175.092,0,185.923,0h-48.873
	c6.844,0,90.092,0,96.93,0c7.617,0,13.5,6.254,13.5,13.5c0,7.455-6.044,13.5-13.5,13.5c-9.669,0-86.053,0-96.93,0h48.873
	c-7.024,0-176.901,0-185.923,0C16.023,415.455,9.572,406.966,11.888,398.494z"/>
<path style="fill:#7F551D;" d="M75.418,401.955c0-0.113,0.014-0.222,0.017-0.334c0.003-0.107-0.007-0.21-0.002-0.318
	c0.006-0.124,0.027-0.243,0.036-0.367c0.017-0.229,0.039-0.457,0.067-0.683c0.026-0.203,0.057-0.403,0.092-0.602
	c0.047-0.273,0.102-0.543,0.165-0.811c0.028-0.116,0.058-0.232,0.089-0.347c1.531-5.776,6.777-10.038,13.035-10.038h-9.999
	c-10.228,0-43.869,0-53.996,0c-7.273,0-13.154,5.777-13.484,12.848c-0.368,7.698,5.765,14.152,13.484,14.152
	c37.501,0,27.048,0,63.995,0C81.463,415.455,75.418,409.411,75.418,401.955z"/>
<path style="fill:#97BC31;" d="M431,321.574c1.204-1.009,1.499-2.957,0.695-4.306c-6.945-11.657-5.525-26.824,4.35-37.036
	c3.471-3.589-0.783-5.635-0.427-14.146c0.477-11.413,9.665-20.81,21.066-21.519c16.404-1.02,28.225,15.189,22.545,30.366
	c-0.689,1.84-0.321,3.9,1.042,5.315c9.655,10.026,11.176,24.945,4.578,36.515c-0.986,1.729-0.655,3.898,0.853,5.198
	c9.621,8.297,15.466,20.852,14.587,34.744c-1.356,21.438-18.966,38.612-40.429,39.472C419.7,397.785,400.215,347.382,431,321.574z"
	/>
<path style="fill:#76A314;" d="M458.271,385.81c-19.549-17.034-19.332-47.507,0.623-64.235c1.203-1.009,1.499-2.957,0.695-4.306
	c-6.945-11.657-5.525-26.824,4.35-37.036c1.334-1.379,1.703-3.387,1.02-5.179c-3.47-9.108-0.691-19.447,7.151-25.659
	c-17.733-14.068-43.2,4.252-35.045,25.659c0.683,1.793,0.313,3.8-1.02,5.179c-9.855,10.192-11.31,25.356-4.35,37.036
	c0.804,1.349,0.508,3.297-0.695,4.306c-30.104,25.236-12.318,74.755,27.271,74.624V385.81z"/>
<path style="fill:#FFB70D;" d="M444.891,441.913c-3.128,1.014-6.523-0.331-8.317-3.087c-9.094-13.974-25.236-22.348-42.748-20.827
	c-16.149-0.035-25.745,0.064-27.953-0.08c-17.483-1.141-33.044,7.462-41.794,20.907c-1.794,2.756-5.19,4.1-8.317,3.087
	c-18.16-5.885-36.829,6.126-39.732,24.242c-0.629,3.926-0.486,10.729,0.27,14.308c25.028,0,183.508,0,208.053,0
	C490.002,453.701,466.922,434.774,444.891,441.913z"/>
<path style="fill:#EDA006;" d="M425.553,427.043c-9.004-6.763-20.177-10.047-31.727-9.044c-16.149-0.035-25.745,0.064-27.953-0.08
	c-17.483-1.141-33.044,7.462-41.794,20.907c-1.794,2.756-5.19,4.1-8.317,3.087c-18.16-5.885-36.829,6.126-39.732,24.242
	c-0.629,3.926-0.486,10.729,0.27,14.308c14.978,0,112.959,0,128.997,0C396.985,460.4,405.492,436.842,425.553,427.043z"/>
<path style="fill:#FFB70D;" d="M446.887,129.088c0,6.619,0,11.487,0,18.914v0.381v2.619v0.381c0,7.581,6.216,13.5,13.5,13.5
	c7.455,0,13.499-6.044,13.499-13.5c0-7.427,0-14.853,0-22.294H446.887z"/>
<path style="fill:#EDA006;" d="M460.694,151.381c0-0.124,0-3.607,0-3.381v-15.913v-3h-13.807c0,6.619,0,11.487,0,18.914v0.381v2.619
	v0.381c0,10.422,11.447,16.944,20.412,11.58C463.349,160.611,460.694,156.314,460.694,151.381z"/>
<path style="fill:#E6E6E6;" d="M382.631,228.667c6.378,1.101,11.196,6.647,11.196,13.289c0,80.783,0,136.396,0,211.508h-26.999
	c0-44.902,0,5.705,0-52.976c0,0.417,0-11.063,0-158.532C366.827,233.674,374.288,227.201,382.631,228.667z"/>
<g>
	<path style="fill:#CCCCCC;" d="M380.327,241.957c0-4.99,2.715-9.337,6.74-11.673c-8.871-5.122-20.24,1.177-20.24,11.673
		c0,41.094,0,169.45,0,211.508h13.5C380.327,399.785,380.327,279.192,380.327,241.957z"/>
	<rect x="366.831" y="347.961" style="fill:#CCCCCC;" width="26.998" height="51.256"/>
</g>
<path style="fill:#B7B7B7;" d="M366.827,347.956c0,16.5,0,34.864,0,51.254h13.5c0-16.376,0-34.754,0-51.254H366.827z"/>
<path style="fill:#E6E6E6;" d="M501.476,126.999c-2.546-24.603-23.184-38.568-27.771-38.568c-30.104-0.168-27.859,0.02-28.817,0.534
	c-13.966,7.479-23.883,21.535-25.59,38.034c-0.283,2.729,1.911,5.088,4.655,5.088h72.869
	C499.565,132.088,501.758,129.729,501.476,126.999z"/>
<g>
	<path style="fill:#CCCCCC;" d="M446.912,126.999c1.707-16.499,11.623-30.555,25.59-38.034c0.525-0.281,1.102-0.446,1.692-0.505
		c-0.386-0.039-22.033-0.029-24.943-0.028c-1.655,0.079-2.893-0.253-4.363,0.534c-13.966,7.479-23.883,21.535-25.59,38.034
		c-0.283,2.729,1.911,5.088,4.655,5.088h27.614C448.823,132.088,446.629,129.729,446.912,126.999z"/>
	<path style="fill:#CCCCCC;" d="M351.328,450.464c11.944,0,38.145,0,57.996,0c6.599,0,11.999,5.4,11.999,11.999v18.001
		c-26.16,0-56.036,0-81.994,0v-18.001C339.329,455.863,344.73,450.464,351.328,450.464z"/>
</g>
<path style="fill:#B7B7B7;" d="M380.827,450.464c-10.162,0-19.247,0-29.498,0c-6.599,0-11.999,5.4-11.999,11.999v18.001
	c10.242,0,19.334,0,29.498,0v-18.001C368.828,455.863,374.228,450.464,380.827,450.464z"/>
<path style="fill:#E6E6E6;" d="M21.054,477.464c36.262,0,410.388,0,469.961,0c7.682,0,13.5,6.331,13.5,13.5l0,0
	c0,7.455-6.044,13.5-13.5,13.5l0,0c-23.182,0-452.133,0-469.961,0l0,0c-7.455,0-13.5-6.044-13.5-13.5l0,0
	C7.555,483.807,13.36,477.464,21.054,477.464z"/>
<path style="fill:#CCCCCC;" d="M73.067,490.629c0.003-0.107-0.006-0.21-0.002-0.318c0.006-0.124,0.027-0.243,0.036-0.367
	c0.036-0.479,0.086-0.868,0.159-1.285c0.068-0.395,0.149-0.776,0.254-1.158c1.531-5.776,6.777-10.038,13.035-10.038
	c-7.145,0-58.987,0-65.495,0c-6.901,0-12.534,5.171-13.381,11.798c-1.032,8.238,5.392,15.201,13.381,15.201
	c11.775,0,50.643,0,65.495,0C79.115,504.464,72.898,498.41,73.067,490.629z"/>
<path style="fill:#FFB70D;" d="M286.766,129.088c0,0.206,0,22.357,0,21.913v0.381c0,6.257,4.263,11.504,10.038,13.035
	c0.923,0.253,2.234,0.465,3.462,0.465c7.455,0,13.499-6.044,13.499-13.5c0-4.463,0-16.945,0-22.294L286.766,129.088L286.766,129.088
	z"/>
<path style="fill:#EDA006;" d="M300.573,151.381c0-0.124,0-3.607,0-3.381c0-7.14,0-12.174,0-18.914h-13.807
	c0,0.285,0,22.407,0,22.294c0,10.422,11.448,16.944,20.412,11.58C303.228,160.611,300.573,156.314,300.573,151.381z"/>
<path style="fill:#E6E6E6;" d="M341.355,126.999c-2.546-24.603-23.184-38.568-27.771-38.568c-1.621,0-28.245,0-26.636,0
	c-4.462,0-25.197,13.689-27.771,38.568c-0.283,2.729,1.911,5.088,4.655,5.088h72.869
	C339.444,132.088,341.637,129.729,341.355,126.999z"/>
<path style="fill:#CCCCCC;" d="M286.791,126.999c1.707-16.499,11.623-30.555,25.59-38.034c0.525-0.281,1.102-0.446,1.692-0.505
	c-0.439-0.044-27.227-0.028-27.125-0.028c-4.462,0-25.197,13.689-27.771,38.568c-0.283,2.729,1.911,5.088,4.655,5.088h27.614
	C288.701,132.088,286.508,129.729,286.791,126.999z"/>
<path d="M492.484,470.026c-0.474-16.838-11.894-30.681-26.875-35.38v-6.07l11.243-7.124c3.498-2.217,4.538-6.85,2.32-10.349
	c-2.217-3.498-6.85-4.537-10.349-2.32l-3.215,2.037v-7.688c10.198-1.556,19.716-6.273,27.23-13.608
	c20.025-19.546,20.13-51.87-0.247-71.418c6.512-13.569,4.58-30.153-5.877-41.921c6.431-20.109-9.393-40.432-30.513-39.104
	c-18.78,1.168-32.808,20.131-26.686,39.148c-10.339,11.647-12.496,28.154-5.893,41.878c-29.754,28.6-13.501,78.98,26.984,85.044
	v29.965c-2.644,0.256-5.249,0.778-7.791,1.582c-9.292-14.253-24.767-23.153-41.509-24.257c0-4.318,0-113.622,0-168.484
	c0-8.767-5.469-16.532-13.499-19.591V74.135c0-17.98,14.627-32.606,32.606-32.606s32.605,14.627,32.605,32.606v6.796
	c-4.533,0.224-7.734-0.696-11.69,1.423c-16.553,8.864-27.584,25.266-29.509,43.871c-0.741,7.14,4.918,13.361,12.113,13.361h15.435
	v11.795c0,12.013,10.159,21.11,20.488,20.984c11.021,0.57,21.51-8.74,21.51-20.984v-11.795h15.435
	c7.206,0,12.851-6.232,12.113-13.358c-1.925-18.608-12.956-35.009-29.508-43.874c-3.941-2.11-7.18-1.208-11.391-1.423v-6.796
	c0-30.75-28.965-53.68-59.078-46.198c-0.252-0.026-0.507-0.039-0.766-0.039c-11.23,0-20.367-9.136-20.367-20.366
	c0-4.143-3.357-7.499-7.499-7.499s-7.499,3.357-7.499,7.499c0,11.23-9.136,20.366-20.366,20.366c-0.258,0-0.514,0.013-0.766,0.039
	c-30.079-7.473-59.078,15.416-59.078,46.198v6.796c-4.194,0.214-7.46-0.682-11.39,1.423c-16.553,8.864-27.584,25.266-29.509,43.874
	c-0.74,7.152,4.934,13.358,12.114,13.358h15.436v11.795c0,12.401,10.721,21.597,21.507,20.984c0.429,0.005,0.824-0.027,1.182-0.066
	c0.639-0.051,1.243-0.125,1.886-0.238c0.577-0.099,1.249-0.243,1.807-0.396c9.194-2.437,15.617-10.777,15.617-20.284v-11.795h15.435
	c7.191,0,12.853-6.217,12.114-13.359c-1.926-18.607-12.957-35.008-29.512-43.875c-3.958-2.117-7.171-1.198-11.688-1.421v-6.796
	c0-17.98,14.627-32.606,32.606-32.606s32.606,14.627,32.606,32.606v148.23c-7.88,3.028-13.499,10.656-13.499,19.591v31.119
	c0,4.143,3.357,7.499,7.499,7.499c4.143,0,7.499-3.357,7.499-7.499v-31.119c0-3.931,3.725-6.729,7.339-5.838
	c0.1,0.067,4.661,1.062,4.661,5.838v98.501h-11.993v-32.386c0-4.143-3.357-7.499-7.499-7.499c-4.143,0-7.499,3.357-7.499,7.499
	c0,32.061,0,69.705,0,102.369c-16.728,1.105-32.193,9.992-41.518,24.253c-4.676-1.479-9.554-2.034-14.514-1.651
	c-18.594,1.437-34.544,16.916-35.138,36.921h-8.399v-47.052c12.818-0.521,23.086-12.815,19.428-26.338
	c-2.363-8.917-10.281-15.208-19.428-15.582v-15.094c11.068-6.722,13.499-21.565,5.201-31.436
	c11.454-13.594,1.764-34.504-16.056-34.504H77.536c-4.142,0-7.499,3.357-7.499,7.499c0,4.143,3.358,7.499,7.499,7.499h171.351
	c2.711,0,5.091,1.834,5.802,4.519l0.025,0.098c0.912,3.809-1.997,7.384-5.827,7.384H34.907c-3.806,0-6.747-3.552-5.824-7.394
	c0.068-0.1,1.081-4.605,5.824-4.605h7.631c4.143,0,7.499-3.357,7.499-7.499c0-4.143-3.357-7.499-7.499-7.499h-7.631
	c-17.799,0-27.513,20.9-16.06,34.5c-8.669,10.303-5.586,26.11,6.691,32.265v14.233h-0.631c-11.621,0-20.999,9.47-20.999,20.999
	c0,11.579,9.42,20.999,20.999,20.999h0.631v47.009h-4.5c-9.507,0-17.849,6.423-20.272,15.575
	c-3.791,13.826,7.021,26.424,20.272,26.424h382.769c4.143,0,7.499-3.357,7.499-7.499c0-4.143-3.357-7.499-7.499-7.499H21.039
	c-3.819,0-6.716-3.554-5.836-7.352c0.067-0.1,1.067-4.648,5.836-4.648c21.397,0,453.529,0,469.96,0c2.91,0,5.396,2.104,5.899,4.967
	c0.627,3.763-2.236,7.034-5.899,7.034h-52.194c-4.143,0-7.499,3.357-7.499,7.499c0,4.143,3.357,7.499,7.499,7.499h52.193
	c11.579,0,20.999-9.42,20.999-20.999C511.999,480.088,503.566,470.811,492.484,470.026z M466.373,151.381
	c0,3.841-3.592,6.722-7.34,5.838c-0.1-0.067-4.661-1.06-4.661-5.838v-11.795h12.001V151.381z M472.978,95.931
	c10.852,6.061,18.357,16.576,20.567,28.657c-13.228,0-48.731,0-66.349,0c2.211-12.081,9.714-22.596,20.568-28.657H472.978z
	 M306.251,151.381c0,2.711-1.834,5.091-4.502,5.798c-4.239,0.976-7.498-2.207-7.498-5.798v-11.795h12V151.381z M312.856,95.931
	c10.853,6.062,18.358,16.575,20.568,28.657c-13.228,0-48.732,0-66.349,0c2.211-12.081,9.714-22.596,20.568-28.657H312.856z
	 M29.069,346.617c0.067-0.1,1.061-4.661,5.839-4.661h213.98c2.866,0,5.767,2.016,5.999,6.156c-0.082,3.237-2.742,5.846-5.999,5.846
	h-23.643c-14.688,0-183.251,0-190.337,0C31.063,353.957,28.184,350.358,29.069,346.617z M244.743,368.956v12h-12v-12H244.743z
	 M217.745,368.956v12H67.537v-12H217.745z M52.538,368.956v12h-12v-12H52.538z M52.538,469.964h-12v-47.009h12
	C52.538,433.078,52.538,459.271,52.538,469.964z M217.745,469.964H67.537v-20.01h150.209v20.01H217.745z M217.745,434.955H67.537
	v-12h150.209v12H217.745z M244.743,469.964h-12c0-10.666,0-36.917,0-47.009h12V469.964z M24.908,407.956
	c-3.279,0-6.062-2.673-5.987-6.13c0.122-3.472,2.9-5.872,5.987-5.872c11.938,0,224.009,0,233.978,0c2.711,0,5.091,1.834,5.802,4.519
	c0.778,4.608-2.38,7.482-5.802,7.482C95.496,407.956,117.293,407.956,24.908,407.956z M426.167,315.826v0.001
	c-0.003,0.002-0.006,0.005-0.009,0.007C426.161,315.832,426.164,315.829,426.167,315.826z M435.801,327.322
	c4.031-3.377,5.029-9.35,2.322-13.892c-5.219-8.761-4.214-20.215,3.3-27.985c3.316-3.431,4.352-8.557,2.637-13.061
	c-3.67-9.635,3.345-19.729,13.076-20.333c10.969-0.682,18.843,10.132,15.057,20.252c-1.726,4.612-0.704,9.648,2.664,13.144
	c7.33,7.614,8.423,18.903,3.466,27.599c-2.762,4.843-1.723,10.979,2.469,14.593c21.804,18.804,12.461,54.022-15.181,60.239V339.46
	c0-4.143-3.357-7.499-7.499-7.499c-4.143,0-7.499,3.357-7.499,7.499v19.565l-2.583-1.842c-3.375-2.406-8.057-1.619-10.46,1.752
	c-2.405,3.373-1.62,8.056,1.752,10.46l11.291,8.051v10.46C422.464,381.762,413.771,345.795,435.801,327.322z M380.311,48.539
	c-2.603-4.065-5.802-7.71-9.479-10.809c3.648-2.229,6.855-5.106,9.478-8.461c2.623,3.356,5.832,6.232,9.479,8.461
	C386.113,40.829,382.914,44.475,380.311,48.539z M374.311,355.456h12v36.255h-12V355.456z M374.311,406.71h12
	c0,7.182,0,29.122,0,36.255h-12C374.311,435.832,374.311,413.892,374.311,406.71z M331.814,462.464v7.5h-48.668
	c0.742-15.091,15.724-25.643,30.289-20.916c6.286,2.038,13.239-0.484,16.915-6.131c6.512-10.008,17.252-16.364,28.963-17.435v17.483
	c-0.12,0-8.14,0-7.999,0C340.561,442.965,331.814,451.713,331.814,462.464z M413.808,469.964h-66.994v-7.5c0-2.439,2.06-4.5,4.5-4.5
	c14.025,0,44.004,0,57.995,0c2.439,0,4.5,2.061,4.5,4.5V469.964z M428.807,469.964v-7.5c0-10.751-8.747-19.499-19.499-19.499
	c-0.191,0-8.099,0-7.999,0v-17.484c11.706,1.072,22.45,7.428,28.964,17.438c3.674,5.646,10.628,8.166,16.916,6.129
	c14.539-4.712,29.543,5.799,30.287,20.917L428.807,469.964L428.807,469.964z"/>
<g>
</g>
<g>
</g>
<g>
</g>
<g>
</g>
<g>
</g>
<g>
</g>
<g>
</g>
<g>
</g>
<g>
</g>
<g>
</g>
<g>
</g>
<g>
</g>
<g>
</g>
<g>
</g>
<g>
</g>
</svg>
