<?xml version="1.0" encoding="iso-8859-1"?>
<!-- Generator: Adobe Illustrator 19.0.0, SVG Export Plug-In . SVG Version: 6.00 Build 0)  -->
<svg version="1.1" id="Capa_1" xmlns="http://www.w3.org/2000/svg" xmlns:xlink="http://www.w3.org/1999/xlink" x="0px" y="0px"
	 viewBox="0 0 511.993 511.993" style="enable-background:new 0 0 511.993 511.993;" xml:space="preserve">
<path style="fill:#FF456D;" d="M363.035,262.414l-27.583-27.583c-7.953,0-12.412,0-20.365,0l-12.181,12.181l-0.028-0.028
	l-55.906,55.906l0.028,0.028L234.819,315.1c0,7.953,0,12.412,0,20.365l27.583,27.583l22.363-22.363l40.178,40.178l75.106,111.426
	l26.225-17.677l-63.239-96.169l15.396-15.396l96.168,63.239l17.677-26.225l-111.423-75.104l-40.181-40.181L363.035,262.414z"/>
<g>
	<polygon style="fill:#FF0C38;" points="344.699,380.862 304.522,340.683 294.644,350.562 324.943,380.862 400.049,492.288 
		413.633,483.131 	"/>
	<polygon style="fill:#FF0C38;" points="254.575,335.463 254.575,315.099 266.756,302.919 266.728,302.891 322.634,246.983 
		322.662,247.011 334.843,234.832 315.087,234.832 302.907,247.011 302.879,246.983 246.972,302.891 247,302.919 234.819,315.099 
		234.819,335.463 262.402,363.046 272.281,353.168 	"/>
	<polygon style="fill:#FF0C38;" points="398.186,363.046 390.349,370.884 474.599,426.286 480.667,417.284 	"/>
</g>
<circle style="fill:#FFC477;" cx="242.667" cy="242.679" r="45.614"/>
<path style="fill:#FFA733;" d="M247.377,274.937c-17.814-17.814-17.814-46.694,0-64.508c4.095-4.095,8.779-7.236,13.774-9.449
	c-16.737-7.411-37.016-4.27-50.733,9.449c-17.814,17.814-17.814,46.694,0,64.508c13.719,13.719,33.998,16.86,50.733,9.449
	C256.155,282.174,251.472,279.032,247.377,274.937z"/>
<path style="fill:#45A2FF;" d="M351.146,89.526h23.946l4.038-11.956c3.545-2.545,6.092-4.373,9.637-6.917h16.245
	c3.545,2.545,6.092,4.373,9.637,6.917l4.038,11.956h11.796c4.745,4.745,7.405,7.405,12.15,12.15v18.002H338.996v-18.002
	C343.741,96.931,346.401,94.271,351.146,89.526z"/>
<g>
	<path style="fill:#2488FF;" d="M399.461,77.571c2.826-2.028,5.025-3.606,7.593-5.45c-0.654-0.469-1.325-0.951-2.044-1.467h-16.245
		c-3.545,2.545-6.092,4.373-9.637,6.917l-4.038,11.956h20.333L399.461,77.571z"/>
	<polygon style="fill:#2488FF;" points="371.479,89.526 351.146,89.526 338.996,101.676 338.996,119.678 359.329,119.678 
		359.329,101.676 	"/>
</g>
<path style="fill:#45A2FF;" d="M164.927,383.54h-28.904l-4.874-14.432c-4.279-3.071-7.354-5.279-11.633-8.35H99.908
	c-4.279,3.071-7.354,5.278-11.633,8.35l-4.874,14.432H69.163c-5.727,5.727-8.938,8.938-14.666,14.666v21.729h125.095v-21.729
	C173.865,392.478,170.654,389.267,164.927,383.54z"/>
<path style="fill:#57A4FF;" d="M90.057,383.54h14.239l4.874-14.432c4.058-2.913,7.045-5.057,10.991-7.889
	c-0.215-0.155-0.421-0.302-0.642-0.461H99.908c-4.279,3.071-7.354,5.279-11.633,8.35l-4.874,14.432H69.163
	c-5.727,5.727-8.938,8.938-14.666,14.666v21.729h20.894v-21.729L90.057,383.54z"/>
<path style="fill:#45A2FF;" d="M43.238,215.808l0.874-13.766c1.464-23.052,19.834-41.423,42.886-42.885l13.766-0.874l0.873-13.755
	c1.462-23.055,19.836-41.428,42.891-42.89l13.754-0.872l0.872-13.753c1.462-23.055,19.836-41.429,42.89-42.89l13.753-0.872
	c-47.65-47.65-124.907-47.65-172.557,0S-4.412,168.157,43.238,215.808z"/>
<path style="fill:#2488FF;" d="M68.406,43.25c20.62-20.62,46.784-32.31,73.694-35.084C106.825,4.53,70.268,16.219,43.238,43.25
	c-47.65,47.65-47.65,124.907,0,172.557l0.874-13.766c0.321-5.057,1.457-9.889,3.277-14.367
	C22.295,141.415,29.296,82.361,68.406,43.25z"/>
<path style="fill:#ADDFBB;" d="M144.692,101.664c-23.109,1.516-41.564,19.971-43.081,43.08l-0.848,13.538
	c-47.65-47.65-73.502-99.055-57.551-115.006s67.417,9.839,115.068,57.489L144.692,101.664z"/>
<path style="fill:#7CCC92;" d="M66.711,43.276c1.032-1.032,2.215-1.886,3.534-2.573c-12.084-3.443-21.612-2.848-27.034,2.573
	c-15.951,15.95,9.901,67.355,57.551,115.006l0.848-13.538c0.212-3.23,0.766-6.365,1.607-9.38
	C69.435,95.141,53.304,56.684,66.711,43.276z"/>
<g>
	
		<rect x="268.948" y="347.237" transform="matrix(-0.7071 0.7071 -0.7071 -0.7071 742.8314 418.4088)" style="fill:#FFC477;" width="31.625" height="31.625"/>
	
		<rect x="347.217" y="268.954" transform="matrix(-0.7071 0.7071 -0.7071 -0.7071 821.0909 229.4273)" style="fill:#FFC477;" width="31.625" height="31.625"/>
</g>
<rect x="302.576" y="326.886" transform="matrix(-0.7071 0.7071 -0.7071 -0.7071 825.9362 342.1568)" style="fill:#D8D7DA;" width="79.058" height="30.499"/>
<path style="fill:#45A2FF;" d="M264.658,202.72c-17.331-9.545-39.549-6.983-54.241,7.71c-14.693,14.693-17.254,36.91-7.709,54.241
	c2.027,3.681,4.589,7.147,7.709,10.267c5.405,5.405,11.83,9.159,18.654,11.284l1.964-1.964c4.664-4.664,4.664-12.226,0-16.89
	l-9.527-9.527c-2.055-2.055-2.055-5.388,0-7.443l28.877-28.877c2.055-2.055,5.388-2.055,7.443,0l9.527,9.527
	c4.664,4.664,12.226,4.664,16.89,0l1.964-1.964c-2.125-6.824-5.879-13.25-11.284-18.654
	C271.805,207.309,268.339,204.747,264.658,202.72z"/>
<g>
	<path style="fill:#2488FF;" d="M283.297,231.048l-9.527-9.527c-2.055-2.055-5.388-2.055-7.443,0l-4.249,4.249l5.278,5.278
		c4.512,4.512,11.727,4.645,16.416,0.428C283.613,231.334,283.449,231.2,283.297,231.048z"/>
	<path style="fill:#2488FF;" d="M226.358,274.937c-3.121-3.121-5.682-6.586-7.709-10.267c-9.545-17.331-6.983-39.549,7.709-54.241
		c6.865-6.865,15.372-11.08,24.256-12.651c-14.156-2.496-29.261,1.714-40.198,12.651c-14.693,14.693-17.254,36.911-7.709,54.241
		c2.027,3.681,4.589,7.146,7.709,10.267c5.404,5.405,11.83,9.158,18.654,11.284l1.964-1.964c1.051-1.051,1.852-2.253,2.429-3.532
		C230.955,279.066,228.568,277.147,226.358,274.937z"/>
</g>
<g>
	
		<rect x="271.318" y="281.916" transform="matrix(-0.7071 0.7071 -0.7071 -0.7071 713.1734 348.1947)" style="fill:#D8D7DA;" width="26.309" height="79.768"/>
	
		<rect x="308.628" y="244.603" transform="matrix(-0.7071 0.7071 -0.7071 -0.7071 750.4803 258.115)" style="fill:#D8D7DA;" width="26.309" height="79.768"/>
</g>
<g>
	<path style="fill:#1D1D1F;" d="M379.414,372.669l97.259,63.957l26.014-38.592l-117.042-78.892l-12.003-12.003l22.363-22.363
		l-57.445-57.446h-26.578l-16.223,16.223c0.005-0.291,0.028-0.578,0.028-0.871c0-29.288-23.827-53.114-53.113-53.114
		c-29.288,0-53.114,23.827-53.114,53.114c0,29.287,23.827,53.113,53.114,53.113c0.292,0,0.579-0.022,0.87-0.027l-16.222,16.222
		v26.578l57.446,57.445l22.362-22.363l12.001,12.001l78.894,117.045l38.593-26.013l-63.957-97.26L379.414,372.669z M226.76,277.304
		c-13.091-6.041-22.204-19.283-22.204-34.621c0-21.017,17.098-38.115,38.115-38.115c15.338,0,28.58,9.112,34.621,22.203
		c-1.566,0.557-3.382,0.224-4.633-1.027l-9.528-9.528c-4.977-4.976-13.074-4.975-18.049,0l-28.877,28.877
		c-4.976,4.976-4.976,13.073,0,18.05l9.527,9.527c0.839,0.839,1.301,1.955,1.301,3.142C227.033,276.33,226.93,276.83,226.76,277.304
		z M241.377,280.764c0.419-1.599,0.656-3.256,0.656-4.953c0-5.193-2.022-10.076-5.695-13.748l-7.946-7.945l25.714-25.714
		l7.946,7.946c5.059,5.059,12.232,6.722,18.699,5.028c0.015,0.434,0.033,0.867,0.033,1.304c0,21.016-17.098,38.114-38.114,38.114
		C242.237,280.797,241.808,280.779,241.377,280.764z M370.243,324.954l-45.3,45.3l-10.96-10.96l45.3-45.3L370.243,324.954z
		 M348.677,303.389l-7.993,7.993l-45.77-45.77l7.998-7.998L348.677,303.389z M330.077,321.988l-8.097,8.097l-45.77-45.77
		l8.097-8.097L330.077,321.988z M265.604,294.921l45.77,45.77l-7.998,7.998l-45.77-45.77L265.604,294.921z M363.039,296.529
		l-11.756-11.756l11.751-11.752l11.757,11.756L363.039,296.529z M332.345,242.33l20.083,20.083l-11.751,11.752l-27.16-27.16
		l4.676-4.676L332.345,242.33L332.345,242.33z M242.319,332.356v-14.152l4.68-4.68l27.159,27.159l-11.756,11.756L242.319,332.356z
		 M284.766,374.803l-11.757-11.756l11.756-11.756l11.756,11.756L284.766,374.803z M415.933,472.536l-13.856,9.34l-67.461-100.081
		l47.165-47.165l100.082,67.46l-9.34,13.857l-95.077-62.522l-24.036,24.035L415.933,472.536z"/>
	<path style="fill:#1D1D1F;" d="M450.131,98.569l-16.542-16.543h-9.521l-3.087-9.141l-13.559-9.732h-21.07l-13.559,9.732
		l-3.087,9.141h-21.67l-16.541,16.543v28.608h118.635V98.569z M435.131,112.178h-88.635v-7.395l7.756-7.756h26.224l4.987-14.77
		l5.717-4.103h11.418l5.717,4.103l4.987,14.77h14.074l7.756,7.756L435.131,112.178L435.131,112.178z"/>
	<path style="fill:#1D1D1F;" d="M141.406,376.04l-3.923-11.617l-15.554-11.165H97.495l-15.554,11.165l-3.923,11.617H66.057
		l-19.06,19.059v32.336h140.094v-32.336l-19.059-19.059H141.406z M172.092,412.434H61.997v-11.123l10.272-10.272h16.515
		l5.824-17.246l7.713-5.536h14.783l7.712,5.536l5.824,17.246h31.181l10.272,10.272V412.434z"/>
	<path style="fill:#1D1D1F;" d="M51.597,202.517c1.221-19.231,16.645-34.655,35.876-35.876l11.229-0.713l80.83,54.141l8.348-12.463
		l-79.358-53.154l0.599-9.45c0.034-0.536,0.083-1.069,0.139-1.599c2.095-18.448,17.232-33.029,35.924-34.255l9.274-0.613
		l53.144,79.353l12.463-8.347l-54.137-80.837l0.711-11.217c1.22-19.235,16.645-34.661,35.881-35.88l7.576-0.48l60.218,138.72
		l13.76-5.973L221.117,38.852l-0.019,0.008c-0.446-1.03-1.081-1.988-1.921-2.795c-24.553-23.572-56.884-36.356-90.911-36.046
		c-34.12,0.327-66.2,13.797-90.331,37.928c-0.003,0.003-0.006,0.006-0.009,0.01c-0.005,0.005-0.011,0.01-0.017,0.016
		c-0.018,0.018-0.036,0.038-0.054,0.056C13.775,62.15,0.333,94.196,0.006,128.279c-0.327,34.072,12.475,66.357,36.046,90.91
		c0.798,0.832,1.738,1.473,2.755,1.918l-0.003,0.007l145.058,62.969l5.973-13.76L51.116,210.106L51.597,202.517z M48.479,48.62
		c0.016-0.016,0.031-0.033,0.046-0.049c1.484-1.476,4.237-2.463,8.336-2.463c6.293,0,15.755,2.326,28.644,8.771
		c17.26,8.632,36.518,22.447,55.325,39.59c-24.129,3.004-43.295,22.138-46.349,46.251c-0.005,0.038-0.012,0.076-0.017,0.114
		C77.308,122.02,63.481,102.77,54.842,85.532C44.224,64.344,44.588,52.584,48.479,48.62z M129.557,15.246
		c23.787,0,47.585,7.275,67.571,21.86c-23.903,3.536-42.686,22.947-45.264,47.144c-20.12-18.457-40.912-33.417-59.65-42.788
		c-9.138-4.57-16.905-7.39-23.513-8.929C87.182,21.018,108.365,15.246,129.557,15.246z M32.491,68.768
		c1.544,6.602,4.369,14.359,8.943,23.484c9.378,18.711,24.348,39.491,42.814,59.614c-24.204,2.576-43.621,21.366-47.153,45.274
		C9.526,159.365,8.084,107.99,32.491,68.768z"/>
	
		<rect x="442.767" y="370.46" transform="matrix(-0.7071 0.7071 -0.7071 -0.7071 1087.0316 450.2437)" style="fill:#1D1D1F;" width="15" height="159.587"/>
</g>
<path style="fill:#FFFFFF;" d="M161.637,40.216c-4.019-1.449-8.19-2.603-12.398-3.431l2.894-14.718
	c4.951,0.973,9.861,2.332,14.592,4.038L161.637,40.216z M103.905,40.045l-5.003-14.141c5.074-1.795,10.343-3.19,15.661-4.144
	l2.65,14.764C112.693,37.335,108.215,38.52,103.905,40.045z M140.136,35.499c-2.512-0.219-5.071-0.331-7.605-0.331
	c-0.006,0-0.013,0-0.019,0c-2.058,0-4.134,0.073-6.176,0.218l-1.063-14.962c2.394-0.17,4.829-0.256,7.238-0.256
	c0.007,0,0.014,0,0.021,0c2.967,0,5.965,0.13,8.909,0.387L140.136,35.499z"/>
<g>
</g>
<g>
</g>
<g>
</g>
<g>
</g>
<g>
</g>
<g>
</g>
<g>
</g>
<g>
</g>
<g>
</g>
<g>
</g>
<g>
</g>
<g>
</g>
<g>
</g>
<g>
</g>
<g>
</g>
</svg>
