<svg height="512pt" viewBox="-109 0 512 512" width="512pt" xmlns="http://www.w3.org/2000/svg"><path d="m281.941406 127.847656h-43.242187v-88.707031l-17.800781-30.753906c-.308594-.527344-.871094-.855469-1.480469-.855469h-144.9375c-.609375 0-1.171875.324219-1.480469.851562l-17.933594 30.761719v88.703125h-43.242187c-2.371094 0-4.289063 1.917969-4.289063 4.289063v368.035156c0 2.371094 1.917969 4.296875 4.289063 4.296875h270.117187c2.371094 0 4.289063-1.925781 4.289063-4.296875v-368.035156c0-2.371094-1.917969-4.289063-4.289063-4.289063zm-74.851562 0h-120.414063v-88.707031h120.414063zm0 0" fill="#ebebf0"/><path d="m55.066406 39.140625 17.933594-30.757813c.308594-.527343.871094-.851562 1.480469-.851562h144.9375c.609375 0 1.171875.328125 1.480469.855469l17.800781 30.753906zm0 0" fill="#ffb52d"/><path d="m55.066406 39.140625h31.609375v98.753906h-31.609375zm0 0" fill="#ffc14f"/><path d="m207.089844 39.140625h31.609375v98.753906h-31.609375zm0 0" fill="#ffc14f"/><path d="m286.230469 132.136719v368.035156c0 2.367187-1.917969 4.296875-4.289063 4.296875h-270.117187c-2.371094 0-4.289063-1.929688-4.289063-4.296875v-368.035156c0-2.371094 1.917969-4.289063 4.289063-4.289063h270.117187c2.371094 0 4.289063 1.917969 4.289063 4.289063zm0 0" fill="#f29500"/><path d="m286.230469 132.136719v336.246093h-246.785157c-2.371093 0-4.289062-1.917968-4.289062-4.289062v-336.246094h246.785156c2.371094 0 4.289063 1.917969 4.289063 4.289063zm0 0" fill="#ffa90b"/><path d="m85.792969 170.332031c-24.273438 0-43.953125 40.160157-43.953125 72.273438 0 23.46875 10.511718 43.675781 25.640625 52.863281v154.601562c0 10.113282 8.199219 18.3125 18.3125 18.3125s18.3125-8.199218 18.3125-18.3125v-154.601562c15.128906-9.191406 25.640625-29.394531 25.640625-52.863281.003906-32.117188-19.675782-72.273438-43.953125-72.273438zm0 0" fill="#c0694e"/><path d="m251.929688 249.558594v10.605468c0 17.738282-10.515626 33.015626-25.648438 39.964844v149.941406c0 10.335938-8.558594 18.671876-18.972656 18.300782-9.925782-.351563-17.648438-8.808594-17.648438-18.742188v-149.5c-4.769531-2.199218-9.101562-5.214844-12.765625-8.878906-7.953125-7.953125-12.875-18.953125-12.875-31.085938v-10.605468zm0 0" fill="#c0694e"/><path d="m286.234375 185.410156c4.160156 0 7.53125-3.375 7.53125-7.535156v-45.738281c0-6.519531-5.304687-11.824219-11.824219-11.824219h-35.707031v-81.171875c0-3.210937-.492187-2.53125-18.816406-34.527344-1.648438-2.84375-4.714844-4.613281-8-4.613281h-144.9375c-3.277344 0-6.339844 1.757812-7.988281 4.589844-19.152344 32.902344-18.550782 31.378906-18.863282 33.394531-.195312 1.273437-.066406-2.695313-.09375 82.328125h-35.710937c-6.519531 0-11.824219 5.304688-11.824219 11.824219v368.039062c0 6.519531 5.304688 11.824219 11.824219 11.824219h270.117187c6.519532 0 11.824219-5.304688 11.824219-11.824219v-292.167969c0-4.160156-3.371094-7.53125-7.53125-7.53125-4.164063 0-7.535156 3.371094-7.535156 7.53125v288.925782h-263.632813v-361.554688h263.632813v42.496094c0 4.160156 3.375 7.535156 7.535156 7.535156zm-207.089844-65.097656h-16.546875v-73.636719h16.546875zm120.414063 0h-105.351563v-73.636719h62.835938c4.160156 0 7.53125-3.375 7.53125-7.535156s-3.371094-7.53125-7.53125-7.53125c-10.617188 0-77.535157 0-88.863281 0l9.644531-16.542969h138.238281l9.574219 16.542969c-13.457031 0-24.953125 0-38.464844 0-4.160156 0-7.53125 3.371094-7.53125 7.53125s3.371094 7.535156 7.53125 7.535156h12.386719zm31.609375 0h-16.542969v-73.636719h16.542969zm0 0"/><path d="m104.105469 425.171875c4.160156 0 7.535156-3.375 7.535156-7.53125v-118.246094c50.390625-37.445312 17.761719-136.59375-25.84375-136.59375-43.492187 0-76.371094 99.054688-25.84375 136.605469v150.664062c0 14.253907 11.589844 25.84375 25.84375 25.84375s25.84375-11.589843 25.84375-25.84375v-2.296874c0-4.167969-3.375-7.535157-7.535156-7.535157-4.15625 0-7.53125 3.367188-7.53125 7.535157v2.296874c0 5.949219-4.839844 10.777344-10.777344 10.777344-5.945313 0-10.777344-4.828125-10.777344-10.777344v-143.222656c7.117188 1.933594 14.496094 1.929688 21.554688-.011718v110.804687c0 4.15625 3.375 7.53125 7.53125 7.53125zm-54.738281-182.5625c0-38.394531 32.183593-95.265625 60.945312-44.476563 23.386719 41.320313 9.417969 82.8125-13.738281 92.835938-25.21875 10.863281-47.207031-16.84375-47.207031-48.359375zm0 0"/><path d="m207.96875 475.914062c14.253906 0 25.84375-11.589843 25.84375-25.84375v-145.382812c15.328125-8.929688 25.652344-25.539062 25.652344-44.523438v-89.832031c0-4.15625-3.375-7.53125-7.535156-7.53125-4.167969 0-7.53125 3.375-7.53125 7.53125v72.167969h-28.894532v-72.167969c0-4.160156-3.371094-7.53125-7.53125-7.53125s-7.53125 3.371094-7.53125 7.53125v72.167969h-28.890625v-72.167969c0-4.15625-3.375-7.53125-7.53125-7.53125-4.160156 0-7.535156 3.375-7.535156 7.53125v89.832031c0 18.972657 10.316406 35.59375 25.644531 44.523438v145.382812c0 14.253907 11.589844 25.84375 25.839844 25.84375zm10.777344-25.84375c0 5.949219-4.832032 10.777344-10.777344 10.777344-5.933594 0-10.777344-4.828125-10.777344-10.777344v-139.546874c6.894532 1.476562 14.296875 1.550781 21.554688 0zm-47.195313-192.503906h72.847657c-.203126 1.097656 1.808593 15.769532-10.585938 28.257813-4.160156 4.171875-9.300781 7.355469-15.066406 9.140625-12.699219 3.933594-26.8125.703125-36.617188-9.148438-12.15625-12.269531-10.417968-27.390625-10.578125-28.25zm0 0"/></svg>