<svg height="512" viewBox="0 0 64 64" width="512" xmlns="http://www.w3.org/2000/svg"><g id="Fill_Outline" data-name="Fill Outline"><path d="m19 36h42v18h-42z" fill="#e5c1f4"/><path d="m32.83 9.866h5a0 0 0 0 1 0 0v2a2 2 0 0 1 -2 2h-4a0 0 0 0 1 0 0v-3a1 1 0 0 1 1-1z" fill="#f48bbc" transform="matrix(.866 .5 -.5 .866 10.6 -15.825)"/><path d="m36.7 13.1-.866-.5a2.991 2.991 0 0 1 -1.408-3.277l-.326-.189a1 1 0 0 0 -1.366.366l-1.5 2.6 3.464 2a2 2 0 0 0 2.733-.732l.009-.017a2 2 0 0 1 -.74-.251z" fill="#f24193"/><path d="m29 38v-2h-10v18h42v-4h-20a12 12 0 0 1 -12-12z" fill="#cd76f2"/><path d="m22.479 35.993a9 9 0 1 0 -16.958 0 11 11 0 1 0 16.958 0z" fill="#f2ca04"/><path d="m17 33h-6l1-19h4z" fill="#e5c1f4"/><rect fill="#f2ca04" height="8" rx="2" width="8" x="10" y="6"/><circle cx="14" cy="42" fill="#f5af0b" r="5"/><path d="m18 51a11 11 0 0 1 -8.479-18.007 8.918 8.918 0 0 1 1.3-8.4 8.961 8.961 0 0 0 -5.3 11.4 11 11 0 0 0 16.9 14.074 10.961 10.961 0 0 1 -4.421.933z" fill="#f5af0b"/><path d="m14 25.388v-7.388a2 2 0 0 1 2-2h.105l-.105-2h-4l-1 19h6l-.2-3.8a4 4 0 0 1 -2.8-3.812z" fill="#cd76f2"/><path d="m12 8v-2a2 2 0 0 0 -2 2v4a2 2 0 0 0 2 2h4a2 2 0 0 0 2-2h-2a4 4 0 0 1 -4-4z" fill="#f5af0b"/><path d="m14 37a4.986 4.986 0 0 0 -4.687 3.313 4.947 4.947 0 0 1 1.687-.313 5 5 0 0 1 5 5 4.947 4.947 0 0 1 -.313 1.687 4.988 4.988 0 0 0 -1.687-9.687z" fill="#f28704"/><g fill="#230135"><path d="m14 48a6 6 0 1 0 -6-6 6.006 6.006 0 0 0 6 6zm0-10a4 4 0 1 1 -4 4 4 4 0 0 1 4-4z"/><path d="m24.381 37h26.619a1 1 0 0 0 0-2h-27.232a9.809 9.809 0 0 0 .232-2 10.058 10.058 0 0 0 -6.491-9.357l-.465-8.843a3 3 0 0 0 1.772-1.8h2.184a1 1 0 0 0 0-2h-2v-2h2a1 1 0 0 0 0-2h-2.184a3 3 0 0 0 -2.816-2h-4a3 3 0 0 0 -2.816 2h-2.184a1 1 0 0 0 0 2h2v2h-2a1 1 0 0 0 0 2h2.184a3 3 0 0 0 1.772 1.8l-.956 18.147a1 1 0 0 0 1 1.053h6a1 1 0 0 0 1-1.053l-.372-7.059a7.948 7.948 0 0 1 3.91 9.772 1 1 0 0 0 .172.97 10 10 0 1 1 -15.418 0 1 1 0 0 0 .172-.97 7.942 7.942 0 0 1 2.2-8.609 1 1 0 0 0 -1.334-1.49 9.935 9.935 0 0 0 -2.925 10.232 12.007 12.007 0 1 0 19.976 1.207zm-11.643-18h2.524l.158 3h-2.84zm.106-2 .105-2h2.1l.105 2zm-.369 7h3.05l.158 3h-3.366zm-.475-17h4a1 1 0 0 1 1 1v4a1 1 0 0 1 -1 1h-4a1 1 0 0 1 -1-1v-4a1 1 0 0 1 1-1zm.054 25 .158-3h3.576l.158 3z"/><path d="m49 29a2 2 0 0 1 2 2 1 1 0 0 0 2 0 4 4 0 0 0 -4-4 1 1 0 0 0 0 2z"/><path d="m49 25a6.006 6.006 0 0 1 6 6 1 1 0 0 0 2 0 8.009 8.009 0 0 0 -8-8 1 1 0 0 0 0 2z"/><path d="m49 21a10.011 10.011 0 0 1 10 10 1 1 0 0 0 2 0 12.013 12.013 0 0 0 -12-12 1 1 0 0 0 0 2z"/><path d="m30 40a1 1 0 0 0 -1 1v8a1 1 0 0 0 1 1h4a1 1 0 0 0 0-2h-3v-7a1 1 0 0 0 -1-1z"/><path d="m37 41v8a1 1 0 0 0 2 0v-8a1 1 0 0 0 -2 0z"/><path d="m47.063 40.649-2.063 5.503-2.063-5.5a1 1 0 1 0 -1.874.7l3 8a1 1 0 0 0 1.874 0l3-8a1 1 0 1 0 -1.874-.7z"/><path d="m56 42a1 1 0 0 0 0-2h-4a1 1 0 0 0 -1 1v8a1 1 0 0 0 1 1h4a1 1 0 0 0 0-2h-3v-2h3a1 1 0 0 0 0-2h-3v-2z"/><path d="m61 35h-6a1 1 0 0 0 0 2h5v16h-36a1 1 0 0 0 0 2h37a1 1 0 0 0 1-1v-18a1 1 0 0 0 -1-1z"/><path d="m25.5 18.027a3 3 0 0 0 4.1-1.1l2-3.464 2.6 1.5a3 3 0 0 0 4.1-1.1l1-1.732a1 1 0 0 0 -.366-1.366l-4.33-2.5a2 2 0 0 0 -2.738.735l-2.592 4.49a2.932 2.932 0 0 0 -.774-.66 3 3 0 0 0 -3 5.2zm11.562-6.027-.5.866a1 1 0 0 1 -1.366.366l-2.6-1.5 1.004-1.732zm-10.928 2.929a1 1 0 0 1 .868-.5 1 1 0 0 1 .864 1.5 1 1 0 1 1 -1.732-1z"/><path d="m31 21v6.184a2.966 2.966 0 0 0 -1-.184 3 3 0 1 0 3 3v-4h6v1.184a2.966 2.966 0 0 0 -1-.184 3 3 0 1 0 3 3v-9a1 1 0 0 0 -1-1h-8a1 1 0 0 0 -1 1zm-1 10a1 1 0 1 1 1-1 1 1 0 0 1 -1 1zm8 0a1 1 0 1 1 1-1 1 1 0 0 1 -1 1zm-5-9h6v2h-6z"/></g></g></svg>