<?xml version="1.0" encoding="iso-8859-1"?>
<!-- Generator: Adobe Illustrator 19.0.0, SVG Export Plug-In . SVG Version: 6.00 Build 0)  -->
<svg version="1.1" id="Capa_1" xmlns="http://www.w3.org/2000/svg" xmlns:xlink="http://www.w3.org/1999/xlink" x="0px" y="0px"
	 viewBox="0 0 512 512" style="enable-background:new 0 0 512 512;" xml:space="preserve">
<rect x="232.635" y="235.414" style="fill:#F4B77A;" width="46.722" height="198.341"/>
<path style="fill:#FEDBAB;" d="M259.133,273.239v160.521h-26.498V255.673h8.932C251.269,255.673,259.133,263.538,259.133,273.239z"
	/>
<rect x="219.869" y="315.096" style="fill:#F4B77A;" width="72.254" height="41.644"/>
<path style="fill:#FED196;" d="M261.284,350.223v6.512h-41.415v-24.078h23.849C253.42,332.657,261.284,340.522,261.284,350.223z"/>
<rect x="219.869" y="433.764" style="fill:#F4B77A;" width="72.254" height="36.784"/>
<path style="fill:#FED196;" d="M261.284,468.89v1.653h-41.415v-19.219h23.849C253.42,451.325,261.284,459.19,261.284,468.89z"/>
<rect x="219.869" y="200.282" style="fill:#F4B77A;" width="72.254" height="35.131"/>
<path style="fill:#FED196;" d="M261.284,235.419L261.284,235.419h-41.415v-17.566h23.849
	C253.42,217.853,261.284,225.718,261.284,235.419z"/>
<rect x="39.154" y="235.414" style="fill:#F4B77A;" width="46.722" height="198.341"/>
<path style="fill:#FEDBAB;" d="M65.649,273.239v160.521H39.151V255.673h8.932C57.785,255.673,65.649,263.538,65.649,273.239z"/>
<rect x="26.385" y="315.096" style="fill:#F4B77A;" width="72.254" height="41.644"/>
<path style="fill:#FED196;" d="M67.8,350.223v6.512H26.385v-24.078h23.849C59.936,332.657,67.8,340.522,67.8,350.223z"/>
<rect x="26.385" y="433.764" style="fill:#F4B77A;" width="72.254" height="36.784"/>
<path style="fill:#FED196;" d="M67.8,468.89v1.653H26.385v-19.219h23.849C59.936,451.325,67.8,459.19,67.8,468.89z"/>
<rect x="26.385" y="200.282" style="fill:#F4B77A;" width="72.254" height="35.131"/>
<path style="fill:#FED196;" d="M67.8,235.419L67.8,235.419H26.385v-17.566h23.849C59.936,217.853,67.8,225.718,67.8,235.419z"/>
<rect x="426.116" y="235.414" style="fill:#F4B77A;" width="46.722" height="198.341"/>
<path style="fill:#FEDBAB;" d="M452.618,273.239v160.521H426.12V255.673h8.932C444.753,255.673,452.618,263.538,452.618,273.239z"/>
<rect x="413.35" y="315.096" style="fill:#F4B77A;" width="72.254" height="41.644"/>
<path style="fill:#FED196;" d="M454.768,350.223v6.512h-41.415v-24.078h23.849C446.904,332.657,454.768,340.522,454.768,350.223z"/>
<rect x="413.35" y="433.764" style="fill:#F4B77A;" width="72.254" height="36.784"/>
<path style="fill:#FED196;" d="M454.768,468.89v1.653h-41.415v-19.219h23.849C446.904,451.325,454.768,459.19,454.768,468.89z"/>
<rect x="413.35" y="200.282" style="fill:#F4B77A;" width="72.254" height="35.131"/>
<path style="fill:#FED196;" d="M454.768,235.419L454.768,235.419h-41.415v-17.566h23.849
	C446.904,217.853,454.768,225.718,454.768,235.419z"/>
<rect x="8.546" y="470.548" style="fill:#F4B77A;" width="494.905" height="33.986"/>
<path style="fill:#FEDBAB;" d="M418.652,504.53L418.652,504.53H8.546v-16.988h393.116
	C411.046,487.542,418.652,495.147,418.652,504.53z"/>
<polygon style="fill:#586872;" points="503.452,166.47 503.452,200.457 8.546,200.457 8.546,166.47 8.806,166.47 255.999,8.858 
	503.193,166.47 "/>
<path style="fill:#70828F;" d="M459.557,200.457H52.442l156.514-99.795c28.695-18.296,65.394-18.296,94.089,0L459.557,200.457z"/>
<rect x="8.546" y="166.475" style="fill:#F4B77A;" width="494.905" height="33.986"/>
<path style="fill:#FEDBAB;" d="M418.671,200.457L418.671,200.457H8.546v-16.998h393.126
	C411.061,183.459,418.671,191.069,418.671,200.457z"/>
<g>
	<path style="fill:#020202;" d="M493.075,242.892v-34.966h17.846v-48.925h-5.552L255.999,0L6.631,159.001H1.079v48.925h17.84v34.966
		h12.76v64.731H18.918v56.579h12.76v62.085h-12.76v36.788H1.079V512h509.842v-48.925h-17.846v-36.788h-12.76v-62.085h12.76v-56.579
		h-12.76v-64.731H493.075z M478.138,227.955h-57.314v-20.029h57.314V227.955z M478.138,322.56v26.705h-57.314V322.56H478.138z
		 M405.887,307.623v56.579h12.76v62.085h-12.76v36.788H299.591v-36.788h-12.76v-62.085h12.76v-56.579h-12.76v-64.731h12.76v-34.966
		h106.296v34.966h12.76v64.731H405.887z M93.345,426.287v-62.085h12.76v-56.579h-12.76v-64.731h12.76v-34.966h106.296v34.966h12.76
		v64.731h-12.76v56.579h12.76v62.085h-12.76v36.788H106.106v-36.788L93.345,426.287L93.345,426.287z M33.855,349.265V322.56H91.17
		v26.705H33.855z M284.654,207.926v20.029h-57.314v-20.029H284.654z M284.654,322.56v26.705h-57.314V322.56H284.654z M240.1,364.202
		h31.793v62.085H240.1L240.1,364.202L240.1,364.202z M271.893,307.623h-31.793v-64.731h31.793V307.623z M227.339,441.224h57.314
		v21.852h-57.314V441.224z M255.999,17.714l221.585,141.287h-18.521l-37.603-23.977l-8.03,12.595l17.849,11.382H80.719
		l60.146-38.351l-8.03-12.595l-79.899,50.945H34.415L255.999,17.714z M495.983,192.989L495.983,192.989H16.015v-19.051h479.969
		V192.989 M91.17,207.926v20.029H33.855v-20.029H91.17z M46.615,242.892h31.793v64.731H46.615V242.892z M46.615,364.202h31.793
		v62.085H46.615V364.202z M33.855,441.224H91.17v21.852H33.855V441.224z M495.983,478.012v19.051H16.015v-19.051l0,0l0,0H495.983
		L495.983,478.012L495.983,478.012L495.983,478.012L495.983,478.012z M420.823,463.075v-21.852h57.314v21.852H420.823z
		 M465.377,426.287h-31.793v-62.085h31.793V426.287z M465.377,307.623h-31.793v-64.731h31.793V307.623z"/>
	
		<rect x="373.709" y="114.018" transform="matrix(-0.8432 -0.5376 0.5376 -0.8432 646.8307 431.6308)" style="fill:#020202;" width="25.305" height="14.937"/>
	<polygon style="fill:#020202;" points="255.999,47.238 286.187,66.488 294.217,53.892 255.999,29.524 221.158,51.739 
		229.189,64.334 	"/>
</g>
<g>
</g>
<g>
</g>
<g>
</g>
<g>
</g>
<g>
</g>
<g>
</g>
<g>
</g>
<g>
</g>
<g>
</g>
<g>
</g>
<g>
</g>
<g>
</g>
<g>
</g>
<g>
</g>
<g>
</g>
</svg>
