<?xml version="1.0" encoding="iso-8859-1"?>
<!-- Generator: Adobe Illustrator 19.0.0, SVG Export Plug-In . SVG Version: 6.00 Build 0)  -->
<svg version="1.1" id="Capa_1" xmlns="http://www.w3.org/2000/svg" xmlns:xlink="http://www.w3.org/1999/xlink" x="0px" y="0px"
	 viewBox="0 0 512 512" style="enable-background:new 0 0 512 512;" xml:space="preserve">
<path style="fill:#FFC20B;" d="M477.5,416.5h12.15c8.2,0,14.85,6.65,14.85,14.85v14.3c0,8.2-6.65,14.85-14.85,14.85h-54H417.5
	h-49.15H357.5h-22.58c12.51-12.55,22.99-27.34,30.86-43.76c0.84-0.15,1.69-0.24,2.57-0.24h18.15h49.15h10.85H477.5z"/>
<path style="fill:#FF9700;" d="M489.65,443.29h-54H417.5h-49.15H357.5h-7.75c-4.547,6.11-9.502,11.865-14.83,17.21h22.58h10.85
	h49.15h18.15h54c8.2,0,14.85-6.65,14.85-14.85v-14.3c0-0.491-0.027-0.976-0.073-1.455C503.695,437.412,497.359,443.29,489.65,443.29
	z"/>
<path style="fill:#FFC20B;" d="M417.5,284.5h18.15c8.2,0,14.85,6.65,14.85,14.85v14.3c0,8.2-6.65,14.85-14.85,14.85h-55.34
	c-3.16-15.42-10.6-30.19-20.57-44H417.5z"/>
<path style="fill:#FF9700;" d="M435.65,311.29h-55.34c-1.882-9.183-5.291-18.133-9.839-26.79H359.74
	c9.97,13.81,17.41,28.58,20.57,44h55.34c8.2,0,14.85-6.65,14.85-14.85v-14.3c0-0.491-0.027-0.976-0.073-1.455
	C449.695,305.412,443.359,311.29,435.65,311.29z"/>
<path style="fill:#FFC20B;" d="M450.5,328.5h18.15c8.2,0,14.85,6.65,14.85,14.85v14.3c0,8.2-6.65,14.85-14.85,14.85h-33H417.5
	h-37.78c1.5-9.01,2.28-18.29,2.28-27.75c0-5.49-0.59-10.91-1.69-16.25h55.34H450.5z"/>
<path style="fill:#FF9700;" d="M468.65,355.29h-33H417.5h-35.825c-0.36,5.828-1.017,11.572-1.955,17.21h37.78h18.15h33
	c8.2,0,14.85-6.65,14.85-14.85v-14.3c0-0.491-0.027-0.976-0.073-1.455C482.695,349.412,476.359,355.29,468.65,355.29z"/>
<path style="fill:#FFC20B;" d="M417.5,372.5h18.15c8.2,0,14.85,6.65,14.85,14.85v14.3c0,8.2-6.65,14.85-14.85,14.85H386.5h-18.15
	h-2.46c6.53-13.66,11.25-28.44,13.83-44H417.5z"/>
<g>
	<path style="fill:#FF9700;" d="M386.5,416.5h-18.15c-0.88,0-1.73,0.09-2.57,0.24c-7.87,16.42-18.35,31.21-30.86,43.76h22.58h10.85
		h17.051c4.856-5.988,9.381-12.319,13.433-18.9c3.28-5.328,6.321-10.899,9.039-16.562c0.089-0.183,0.194-0.402,0.308-0.655
		c1.231-2.588,2.382-5.226,3.494-7.883H386.5z"/>
	<path style="fill:#FF9700;" d="M359.74,284.5c9.97,13.81,17.41,28.58,20.57,44h44.323c-0.213-1.275-0.449-2.549-0.71-3.818
		c-0.24-1.171-0.5-2.339-0.781-3.508c-2.925-12.164-8.166-24.457-15.606-36.674H359.74z"/>
	<path style="fill:#FF9700;" d="M382,344.75c0,9.46-0.78,18.74-2.28,27.75h37.78h6.448c1.359-9.126,2.052-18.445,2.052-27.75
		c0-1.687-0.046-3.405-0.136-5.114c-0.196-3.684-0.61-7.416-1.231-11.136H380.31C381.41,333.84,382,339.26,382,344.75z"/>
	<path style="fill:#FF9700;" d="M417.5,372.5h-37.78c-2.58,15.56-7.3,30.34-13.83,44h2.46h18.15h25.175
		c2.136-5.102,4.069-10.304,5.731-15.569c2.601-8.242,4.64-16.763,6.057-25.311c0.173-1.037,0.331-2.078,0.486-3.12H417.5z"/>
	<path style="fill:#FF9700;" d="M435.65,399.29H386.5h-13.58c-2.035,5.904-4.374,11.654-7.03,17.21h2.46h18.15h49.15
		c8.2,0,14.85-6.65,14.85-14.85v-14.3c0-0.491-0.027-0.976-0.073-1.455C449.695,393.412,443.359,399.29,435.65,399.29z"/>
</g>
<path style="fill:#4D8157;" d="M406.891,340.646c-0.218-4.091-0.756-8.141-1.581-12.146c-0.198-0.964-0.412-1.925-0.642-2.884
	c-3.458-14.379-10.581-28.17-19.928-41.116c-1.112-1.542-2.257-3.073-3.43-4.591c-2.346-3.036-4.809-6.022-7.368-8.956
	c-1.28-1.467-2.583-2.92-3.909-4.359c-5.302-5.758-10.952-11.295-16.793-16.583c-2.921-2.644-5.889-5.226-8.886-7.742
	c-2.997-2.516-6.022-4.966-9.055-7.347c-3.034-2.381-6.076-4.692-9.107-6.93s-6.052-4.404-9.042-6.492l0.316-9.346H193.68v9.346
	c-23.92,16.71-49.79,38.32-67.59,63c-9.97,13.81-17.41,28.58-20.57,44c-1.1,5.34-1.69,10.76-1.69,16.25
	c0,9.46,0.78,18.74,2.28,27.75c2.58,15.56,7.3,30.34,13.83,44c0.03,0.08,0.07,0.16,0.11,0.24c7.87,16.42,18.35,31.21,30.86,43.76
	h0.01c13.08,13.12,28.37,23.8,45.23,31.35c13.757,6.167,28.561,10.226,44.048,11.841c0.251,0.027,0.503,0.051,0.754,0.076
	c0.87,0.086,1.742,0.167,2.616,0.237c0.543,0.045,1.087,0.084,1.632,0.122c0.596,0.042,1.191,0.082,1.789,0.116
	c0.828,0.048,1.658,0.087,2.49,0.122c0.329,0.013,0.658,0.027,0.987,0.038c1.098,0.038,2.2,0.062,3.304,0.075
	c0.048,0,0.096,0.003,0.144,0.003v-0.001c0.529,0.006,1.055,0.021,1.585,0.021c8.165,0,16.177-0.689,23.992-2
	c0.025-0.004,0.051-0.009,0.076-0.013c1.196-0.201,2.388-0.416,3.574-0.646c0.063-0.012,0.125-0.026,0.187-0.038
	c1.149-0.225,2.294-0.461,3.434-0.713c0.107-0.024,0.214-0.05,0.321-0.074c1.094-0.245,2.185-0.499,3.271-0.768
	c0.161-0.04,0.321-0.084,0.482-0.125c1.03-0.26,2.058-0.526,3.079-0.807c0.227-0.063,0.453-0.131,0.68-0.195
	c0.954-0.268,1.906-0.539,2.852-0.826c0.306-0.093,0.609-0.193,0.914-0.288c0.866-0.269,1.732-0.539,2.592-0.823
	c0.389-0.129,0.775-0.268,1.163-0.4c0.772-0.263,1.546-0.524,2.313-0.8c0.509-0.183,1.012-0.378,1.518-0.566
	c0.642-0.239,1.287-0.473,1.925-0.721c0.694-0.27,1.381-0.553,2.07-0.833c0.449-0.182,0.901-0.357,1.348-0.544
	c1.137-0.475,2.267-0.964,3.39-1.468c16.86-7.55,32.15-18.23,45.23-31.35h0.01c3.128-3.137,6.128-6.415,8.993-9.823
	c5.013-5.964,9.61-12.327,13.742-19.039c2.951-4.794,5.666-9.767,8.125-14.898c0.04-0.08,0.08-0.16,0.11-0.24
	c3.265-6.83,6.077-13.94,8.396-21.288c2.319-7.347,4.144-14.932,5.434-22.712c1.5-9.01,2.28-18.29,2.28-27.75
	C407,343.377,406.963,342.009,406.891,340.646z"/>
<path style="fill:#2F753A;" d="M293.907,498.791c-0.251-0.025-0.503-0.05-0.754-0.076c-15.487-1.616-30.291-5.674-44.048-11.841
	c-16.86-7.55-32.15-18.23-45.23-31.35h-0.01c-12.51-12.55-22.99-27.34-30.86-43.76c-0.04-0.08-0.08-0.16-0.11-0.24
	c-6.53-13.66-11.25-28.44-13.83-44c-1.5-9.01-2.28-18.29-2.28-27.75c0-5.49,0.59-10.91,1.69-16.25c3.16-15.42,10.6-30.19,20.57-44
	c17.8-24.68,43.67-46.29,67.59-63v-4.369H193.68v9.346c-23.92,16.71-49.79,38.32-67.59,63c-9.97,13.81-17.41,28.58-20.57,44
	c-1.1,5.34-1.69,10.76-1.69,16.25c0,9.46,0.78,18.74,2.28,27.75c2.58,15.56,7.3,30.34,13.83,44c0.03,0.08,0.07,0.16,0.11,0.24
	c7.87,16.42,18.35,31.21,30.86,43.76h0.01c13.08,13.12,28.37,23.8,45.23,31.35c13.757,6.167,28.561,10.226,44.048,11.841
	c0.251,0.027,0.503,0.051,0.754,0.076c0.87,0.086,1.742,0.167,2.616,0.237c0.543,0.045,1.087,0.084,1.632,0.122
	c0.596,0.042,1.191,0.082,1.789,0.116c0.828,0.048,1.658,0.087,2.49,0.122c0.329,0.013,0.658,0.027,0.987,0.038
	c1.098,0.038,2.2,0.062,3.304,0.075c0.048,0,0.096,0.003,0.144,0.003v-0.001c0.529,0.006,1.055,0.021,1.585,0.021
	c8.165,0,16.177-0.689,23.992-2c0.025-0.004,0.051-0.009,0.076-0.013c1.196-0.201,2.388-0.416,3.574-0.646
	c0.063-0.012,0.125-0.026,0.187-0.038c1.149-0.225,2.294-0.461,3.434-0.713c0.107-0.024,0.214-0.05,0.321-0.074
	c1.094-0.245,2.185-0.499,3.271-0.768c0.161-0.04,0.321-0.084,0.482-0.125c1.03-0.26,2.058-0.526,3.079-0.807
	c0.227-0.063,0.453-0.131,0.68-0.195c0.236-0.066,0.469-0.137,0.705-0.204C294.836,498.875,294.371,498.836,293.907,498.791z"/>
<path style="fill:#4D8157;" d="M316.77,114h-34.79l-0.22-0.02l1.61-15.07c0.34-3.16-2.14-5.91-5.31-5.91h-43.12
	c-3.17,0-5.65,2.75-5.31,5.91l1.61,15.07l-0.22,0.02h-34.79c-4.28,0-7.28,4.21-5.89,8.26l14.16,41.24v8.966h103.612l0.388-8.966
	l14.16-41.24C324.05,118.21,321.05,114,316.77,114z"/>
<path style="fill:#2F753A;" d="M283.13,96.654c-0.702-2.107-2.692-3.654-5.07-3.654h-43.12c-3.17,0-5.65,2.75-5.31,5.91l0.532,4.977
	l8.664,68.579h36.739L283.13,96.654z"/>
<g>
	<path style="fill:#8E6325;" d="M311,163.5c8.01,0,14.5,6.49,14.5,14.5c0,4-1.62,7.63-4.25,10.25c-2.62,2.63-6.25,4.25-10.25,4.25
		H202c-8.01,0-14.5-6.49-14.5-14.5c0-4,1.62-7.63,4.25-10.25c2.62-2.63,6.25-4.25,10.25-4.25h2.5h31.28h41.44h31.28H311z"/>
	<path style="fill:#8E6325;" d="M311,192.5c8.01,0,14.5,6.49,14.5,14.5c0,4-1.62,7.63-4.25,10.25c-2.62,2.63-6.25,4.25-10.25,4.25
		H202c-8.01,0-14.5-6.49-14.5-14.5c0-4,1.62-7.63,4.25-10.25c2.62-2.63,6.25-4.25,10.25-4.25H311z"/>
</g>
<g>
	<path style="fill:#823816;" d="M206.662,163.5H204.5H202c-4,0-7.63,1.62-10.25,4.25c-2.63,2.62-4.25,6.25-4.25,10.25
		c0,8.01,6.49,14.5,14.5,14.5h109c4,0,7.63-1.62,10.25-4.25c2.63-2.62,4.25-6.25,4.25-10.25H221.162
		C213.152,178,206.662,171.51,206.662,163.5z"/>
	<path style="fill:#823816;" d="M206.662,192.5H202c-4,0-7.63,1.62-10.25,4.25c-2.63,2.62-4.25,6.25-4.25,10.25
		c0,8.01,6.49,14.5,14.5,14.5h109c4,0,7.63-1.62,10.25-4.25c2.63-2.62,4.25-6.25,4.25-10.25H221.162
		C213.152,207,206.662,200.51,206.662,192.5z"/>
</g>
<path id="SVGCleanerId_0" style="fill:#FFC20B;" d="M417.5,460.5h18.15c8.2,0,14.85,6.65,14.85,14.85v14.3
	c0,8.2-6.65,14.85-14.85,14.85h-106.3c-7.45,0-13.6-5.49-14.67-12.65c16.86-7.55,32.15-18.23,45.23-31.35h0.01h22.58h10.85H417.5z"
	/>
<g>
	<path style="fill:#FFC20B;" d="M40.5,460.5h35h10.86h24.14h18.14c8.21,0,14.86,6.65,14.86,14.86v14.28
		c0,8.21-6.65,14.86-14.86,14.86H22.36c-8.21,0-14.86-6.65-14.86-14.86v-14.28c0-8.21,6.65-14.86,14.86-14.86H40.5z"/>
	<path style="fill:#FFC20B;" d="M139.5,416.5h35h18.14c8.21,0,14.86,6.65,14.86,14.86v14.28c0,8.21-6.65,14.86-14.86,14.86H151.1
		h-22.46H110.5H86.36c-8.21,0-14.86-6.65-14.86-14.86v-14.28c0-8.21,6.65-14.86,14.86-14.86h18.14h24.14H139.5z"/>
	<path style="fill:#FFC20B;" d="M40.5,372.5h14.86H75.5h35h18.14c8.21,0,14.86,6.65,14.86,14.86v14.28
		c0,8.21-6.65,14.86-14.86,14.86H104.5H86.36h-64c-8.21,0-14.86-6.65-14.86-14.86v-14.28c0-8.21,6.65-14.86,14.86-14.86H40.5z"/>
	<path style="fill:#FFC20B;" d="M73.5,328.5h35h20.14h14.86h18.14c8.21,0,14.86,6.65,14.86,14.86v14.28
		c0,8.21-6.65,14.86-14.86,14.86h-33H110.5h-35H55.36c-8.21,0-14.86-6.65-14.86-14.86v-14.28c0-8.21,6.65-14.86,14.86-14.86H73.5z"
		/>
	<path style="fill:#FFC20B;" d="M40.5,284.5h35h0.86h34.14h18.14c8.21,0,14.86,6.65,14.86,14.86v14.28
		c0,8.21-6.65,14.86-14.86,14.86H108.5h-35H55.36h-33c-8.21,0-14.86-6.65-14.86-14.86v-14.28c0-8.21,6.65-14.86,14.86-14.86H40.5z"
		/>
	<path style="fill:#FFC20B;" d="M129.5,240.5h35h4.28h13.86c8.21,0,14.86,6.65,14.86,14.86v14.28c0,8.21-6.65,14.86-14.86,14.86h-54
		H110.5H76.36c-8.21,0-14.86-6.65-14.86-14.86v-14.28c0-8.21,6.65-14.86,14.86-14.86H94.5h34.14L129.5,240.5L129.5,240.5z"/>
	<path style="fill:#FFC20B;" d="M43.36,196.5H75.5h35h18.14c8.21,0,14.86,6.65,14.86,14.86v14.28c0,8.21-6.65,14.86-14.86,14.86
		H94.5H76.36h-54c-8.21,0-14.86-6.65-14.86-14.86v-14.28c0-8.21,6.65-14.86,14.86-14.86H40.5H43.36z"/>
	<path style="fill:#FFC20B;" d="M61.5,152.5h35h35h18.14c8.21,0,14.86,6.65,14.86,14.86v14.28c0,8.21-6.65,14.86-14.86,14.86h-21
		H110.5h-35H43.36c-8.21,0-14.86-6.65-14.86-14.86v-14.28c0-8.21,6.65-14.86,14.86-14.86H61.5z"/>
</g>
<g>
	<path style="fill:#FF9700;" d="M44.36,483.5c-8.21,0-14.86-6.65-14.86-14.86v-8.14h-7.14c-8.21,0-14.86,6.65-14.86,14.86v14.28
		c0,8.21,6.65,14.86,14.86,14.86h106.28c8.21,0,14.86-6.65,14.86-14.86v-6.14L44.36,483.5L44.36,483.5z"/>
	<path style="fill:#FF9700;" d="M173.1,439.5h-22.46H132.5h-24.14c-8.21,0-14.86-6.65-14.86-14.86v-8.14h-7.14
		c-8.21,0-14.86,6.65-14.86,14.86v14.28c0,8.21,6.65,14.86,14.86,14.86h24.14h18.14h22.46h41.54c8.21,0,14.86-6.65,14.86-14.86
		v-6.14L173.1,439.5L173.1,439.5z"/>
	<path style="fill:#FF9700;" d="M126.5,395.5h-18.14h-64c-8.21,0-14.86-6.65-14.86-14.86v-8.14h-7.14
		c-8.21,0-14.86,6.65-14.86,14.86v14.28c0,8.21,6.65,14.86,14.86,14.86h64h18.14h24.14c8.21,0,14.86-6.65,14.86-14.86v-6.14
		L126.5,395.5L126.5,395.5z"/>
	<path style="fill:#FF9700;" d="M150.64,351.5H132.5h-35H77.36c-8.21,0-14.86-6.65-14.86-14.86v-8.14h-7.14
		c-8.21,0-14.86,6.65-14.86,14.86v14.28c0,8.21,6.65,14.86,14.86,14.86H75.5h35h18.14h33c8.21,0,14.86-6.65,14.86-14.86v-6.14
		L150.64,351.5L150.64,351.5z"/>
	<path style="fill:#FF9700;" d="M130.5,307.5h-35H77.36h-33c-8.21,0-14.86-6.65-14.86-14.86v-8.14h-7.14
		c-8.21,0-14.86,6.65-14.86,14.86v14.28c0,8.21,6.65,14.86,14.86,14.86h33H73.5h35h20.14c8.21,0,14.86-6.65,14.86-14.86v-6.14
		L130.5,307.5L130.5,307.5z"/>
	<path style="fill:#FF9700;" d="M150.64,263.5H132.5H98.36c-8.21,0-14.86-6.65-14.86-14.86v-8.14h-7.14
		c-8.21,0-14.86,6.65-14.86,14.86v14.28c0,8.21,6.65,14.86,14.86,14.86h34.14h18.14h54c8.21,0,14.86-6.65,14.86-14.86v-6.14H150.64z
		"/>
	<path style="fill:#FF9700;" d="M116.5,219.5H98.36h-54c-8.21,0-14.86-6.65-14.86-14.86v-8.14h-7.14c-8.21,0-14.86,6.65-14.86,14.86
		v14.28c0,8.21,6.65,14.86,14.86,14.86h54H94.5h34.14c8.21,0,14.86-6.65,14.86-14.86v-6.14H116.5z"/>
	<path style="fill:#FF9700;" d="M150.64,175.5H132.5h-35H65.36c-8.21,0-14.86-6.65-14.86-14.86v-8.14h-7.14
		c-8.21,0-14.86,6.65-14.86,14.86v14.28c0,8.21,6.65,14.86,14.86,14.86H75.5h35h18.14h21c8.21,0,14.86-6.65,14.86-14.86v-6.14
		H150.64z"/>
</g>
<g>
	<path id="SVGCleanerId_0_1_" style="fill:#FFC20B;" d="M417.5,460.5h18.15c8.2,0,14.85,6.65,14.85,14.85v14.3
		c0,8.2-6.65,14.85-14.85,14.85h-106.3c-7.45,0-13.6-5.49-14.67-12.65c16.86-7.55,32.15-18.23,45.23-31.35h0.01h22.58h10.85H417.5z"
		/>
</g>
<g>
	<path style="fill:#FF9700;" d="M367.808,479.5l5.569-5.587c3.493-3.505,6.885-7.21,10.08-11.011
		c0.661-0.787,1.295-1.602,1.944-2.402H382.5h-22.58h-0.01c-13.08,13.12-28.37,23.8-45.23,31.35c1.07,7.16,7.22,12.65,14.67,12.65
		h2.72c12.772-6.731,24.65-15.099,35.468-25H367.808z"/>
	<path style="fill:#FF9700;" d="M435.65,487.29h-106.3c-1.477,0-2.898-0.223-4.243-0.625c-3.404,1.86-6.878,3.596-10.427,5.185
		c1.07,7.16,7.22,12.65,14.67,12.65h106.3c8.2,0,14.85-6.65,14.85-14.85v-14.3c0-0.491-0.027-0.976-0.073-1.455
		C449.695,481.412,443.359,487.29,435.65,487.29z"/>
</g>
<path style="fill:#FFC20B;" d="M97.5,7.5c39.76,0,72,32.24,72,72s-32.24,72-72,72s-72-32.24-72-72S57.74,7.5,97.5,7.5z"/>
<path style="fill:#FFAA00;" d="M60,79.5c0-33.812,23.321-62.172,54.75-69.904C109.222,8.236,103.448,7.5,97.5,7.5
	c-39.76,0-72,32.24-72,72s32.24,72,72,72c5.948,0,11.722-0.736,17.25-2.096C83.321,141.672,60,113.312,60,79.5z"/>
<path d="M105.417,122.245v-5.307h12.784c9.134,0,16.565-7.432,16.565-16.565V89.688c0-9.134-7.431-16.565-16.565-16.565H77.632
	c-0.863,0-1.565-0.702-1.565-1.565V60.872c0-0.863,0.702-1.565,1.565-1.565h49.633c4.142,0,7.5-3.357,7.5-7.5s-3.358-7.5-7.5-7.5
	h-21.849V39c0-4.143-3.358-7.5-7.5-7.5s-7.5,3.357-7.5,7.5v5.307H77.632c-9.134,0-16.565,7.432-16.565,16.565v10.686
	c0,9.134,7.431,16.565,16.565,16.565H118.2c0.863,0,1.565,0.702,1.565,1.565v10.685c0,0.863-0.702,1.565-1.565,1.565H68.567
	c-4.142,0-7.5,3.357-7.5,7.5s3.358,7.5,7.5,7.5h21.85v5.307c0,4.143,3.358,7.5,7.5,7.5S105.417,126.388,105.417,122.245z"/>
<path d="M231.272,330.691h62.75c4.142,0,7.5-3.357,7.5-7.5s-3.358-7.5-7.5-7.5h-29.606V307c0-4.143-3.358-7.5-7.5-7.5
	s-7.5,3.357-7.5,7.5v8.691h-18.145c-10.456,0-18.961,8.506-18.961,18.961v13.51c0,10.455,8.506,18.961,18.961,18.961h51.289
	c2.185,0,3.961,1.777,3.961,3.961v13.509c0,2.184-1.777,3.961-3.961,3.961h-62.75c-4.142,0-7.5,3.357-7.5,7.5s3.358,7.5,7.5,7.5
	h29.606v8.691c0,4.143,3.358,7.5,7.5,7.5c4.142,0,7.5-3.357,7.5-7.5v-8.691h18.145c10.456,0,18.961-8.506,18.961-18.961v-13.509
	c0-10.455-8.506-18.961-18.961-18.961h-51.289c-2.185,0-3.961-1.777-3.961-3.961v-13.51
	C227.311,332.469,229.087,330.691,231.272,330.691z"/>
<path d="M489.645,409h-32.894c0.806-2.305,1.249-4.779,1.249-7.355v-14.289c0-2.577-0.443-5.05-1.249-7.355h11.894
	C480.972,380,491,369.972,491,357.645v-14.289C491,331.028,480.972,321,468.645,321h-11.894c0.806-2.305,1.249-4.779,1.249-7.355
	v-14.289C458,287.028,447.972,277,435.645,277h-47.214c-16.6-21.984-38.873-41.259-59.969-56.639
	C331.305,216.654,333,212.022,333,207c0-5.551-2.071-10.625-5.475-14.5c3.404-3.875,5.475-8.949,5.475-14.5
	c0-9.48-6.028-17.58-14.452-20.666l11.21-32.641c1.438-4.187,0.761-8.837-1.811-12.439s-6.75-5.754-11.177-5.754h-26.671
	l0.727-6.792c0.387-3.618-0.786-7.244-3.217-9.95s-5.913-4.258-9.551-4.258h-43.115c-3.638,0-7.119,1.552-9.55,4.257
	c-2.432,2.706-3.604,6.332-3.218,9.948l0.726,6.795h-26.67c-4.427,0-8.605,2.151-11.177,5.754s-3.249,8.253-1.811,12.439
	l11.21,32.641C186.028,160.42,180,168.52,180,178c0,5.551,2.071,10.625,5.475,14.5c-3.404,3.875-5.475,8.949-5.475,14.5
	c0,4.602,1.423,8.876,3.848,12.412c-6.196,4.48-12.138,9.029-17.746,13.588h-16.351c0.806-2.305,1.249-4.779,1.249-7.355v-14.289
	c0-2.578-0.444-5.052-1.25-7.358c12.278-0.057,22.25-10.061,22.25-22.353v-14.289C172,155.028,161.972,145,149.645,145h-7.159
	C163.313,130.651,177,106.648,177,79.5C177,35.663,141.336,0,97.5,0S18,35.663,18,79.5c0,27.148,13.687,51.151,34.514,65.5h-9.159
	C31.028,145,21,155.028,21,167.355v14.289c0,2.578,0.444,5.052,1.25,7.358C9.972,189.06,0,199.063,0,211.355v14.289
	C0,237.972,10.028,248,22.355,248h32.894c-0.806,2.305-1.249,4.779-1.249,7.355v14.289c0,2.577,0.443,5.05,1.249,7.355H22.355
	C10.028,277,0,287.028,0,299.355v14.289C0,325.972,10.028,336,22.355,336h11.894c-0.806,2.305-1.249,4.779-1.249,7.355v14.289
	c0,2.577,0.443,5.05,1.249,7.355H22.355C10.028,365,0,375.028,0,387.355v14.289C0,413.972,10.028,424,22.355,424h42.894
	c-0.806,2.305-1.249,4.779-1.249,7.355v14.289c0,2.577,0.443,5.05,1.249,7.355H22.355C10.028,453,0,463.028,0,475.355v14.289
	C0,501.972,10.028,512,22.355,512h106.29C140.972,512,151,501.972,151,489.645v-14.289c0-1.764-0.212-3.478-0.6-5.125
	C179.465,497.209,216.54,512,255.5,512c19.349,0,37.899-3.659,55.065-10.346c4.019,6.24,11.027,10.346,18.79,10.346h106.29
	C447.972,512,458,501.972,458,489.645v-14.289c0-2.577-0.443-5.05-1.249-7.355h32.894C501.972,468,512,457.972,512,445.645v-14.289
	C512,419.028,501.972,409,489.645,409z M443,387.355v14.289c0,4.056-3.299,7.355-7.355,7.355h-33.353
	c3.156-7.947,5.74-16.204,7.708-24.713V390c0,4.143,3.358,7.5,7.5,7.5s7.5-3.357,7.5-7.5v-10h10.645
	C439.701,380,443,383.3,443,387.355z M476,343.355v14.289c0,4.056-3.299,7.355-7.355,7.355l0,0h-55.313
	c0.765-6.64,1.168-13.396,1.168-20.25c0-2.938-0.163-5.854-0.462-8.75H443l0,0v10c0,4.143,3.358,7.5,7.5,7.5s7.5-3.357,7.5-7.5v-10
	h10.645C472.701,336,476,339.3,476,343.355z M410,292v10c0,4.143,3.358,7.5,7.5,7.5s7.5-3.357,7.5-7.5v-10h10.645
	c4.056,0,7.355,3.3,7.355,7.355v14.289c0,4.056-3.299,7.355-7.355,7.355h-24.448c-2.754-10.01-7.116-19.703-12.643-29L410,292
	L410,292z M311,171c3.86,0,7,3.141,7,7s-3.14,7-7,7H202c-3.86,0-7-3.141-7-7s3.14-7,7-7H311 M224.504,121.5l1.799,16.825
	c0.411,3.849,3.664,6.704,7.448,6.704c0.266,0,0.536-0.015,0.807-0.044c4.119-0.439,7.101-4.136,6.66-8.254l-3.873-36.231h38.311
	l-3.832,35.807c-0.44,4.118,2.541,7.814,6.66,8.255c4.121,0.448,7.815-2.54,8.255-6.659l1.755-16.402h26.501L303.146,156l0,0
	h-93.292l0,0l-11.848-34.5H224.504z M33,79.5C33,43.935,61.935,15,97.5,15S162,43.935,162,79.5S133.065,144,97.5,144
	S33,115.065,33,79.5z M36,167.355C36,163.3,39.299,160,43.355,160H54v10c0,4.143,3.358,7.5,7.5,7.5s7.5-3.357,7.5-7.5v-10h20v10
	c0,4.143,3.358,7.5,7.5,7.5s7.5-3.357,7.5-7.5v-10h20v10c0,4.143,3.358,7.5,7.5,7.5s7.5-3.357,7.5-7.5v-10h10.645
	c4.056,0,7.355,3.3,7.355,7.355v14.289c0,4.056-3.299,7.355-7.355,7.355l0,0H43.355c-4.056,0-7.355-3.3-7.355-7.355V167.355z
	 M15,225.645v-14.289C15,207.3,18.299,204,22.355,204H33v10c0,4.143,3.358,7.5,7.5,7.5s7.5-3.357,7.5-7.5v-10h20v10
	c0,4.143,3.358,7.5,7.5,7.5s7.5-3.357,7.5-7.5v-10h20v10c0,4.143,3.358,7.5,7.5,7.5s7.5-3.357,7.5-7.5v-10h10.645
	c4.056,0,7.355,3.3,7.355,7.355v14.289c0,4.056-3.299,7.355-7.355,7.355l0,0H22.355C18.299,233,15,229.7,15,225.645z M87,248v10
	c0,4.143,3.358,7.5,7.5,7.5s7.5-3.357,7.5-7.5v-10h20v10c0,4.143,3.358,7.5,7.5,7.5s7.5-3.357,7.5-7.5v-10h20v10
	c0,4.143,3.358,7.5,7.5,7.5s7.5-3.357,7.5-7.5v-10h10.645c4.056,0,7.355,3.3,7.355,7.355v14.289c0,4.056-3.299,7.355-7.355,7.355
	l0,0H76.355c-4.056,0-7.355-3.3-7.355-7.355v-14.289C69,251.3,72.299,248,76.355,248H87z M15,313.645v-14.289
	C15,295.3,18.299,292,22.355,292H33v10c0,4.143,3.358,7.5,7.5,7.5s7.5-3.357,7.5-7.5v-10h20v10c0,4.143,3.358,7.5,7.5,7.5
	s7.5-3.357,7.5-7.5v-10h20v10c0,4.143,3.358,7.5,7.5,7.5s7.5-3.357,7.5-7.5v-10h10.645c4.056,0,7.355,3.3,7.355,7.355v14.289
	c0,4.056-3.299,7.355-7.355,7.355H22.355l0,0C18.299,321,15,317.7,15,313.645z M66,336v10c0,4.143,3.358,7.5,7.5,7.5
	s7.5-3.357,7.5-7.5v-10h20v10c0,4.143,3.358,7.5,7.5,7.5s7.5-3.357,7.5-7.5v-10h20l0,0v10c0,4.143,3.358,7.5,7.5,7.5
	s7.5-3.357,7.5-7.5v-10h10.645c4.056,0,7.355,3.3,7.355,7.355v14.289c0,4.056-3.299,7.355-7.355,7.355l0,0H55.355
	c-4.056,0-7.355-3.3-7.355-7.355v-14.289C48,339.3,51.299,336,55.355,336H66z M15,401.645v-14.289C15,383.3,18.299,380,22.355,380
	H33v10c0,4.143,3.358,7.5,7.5,7.5s7.5-3.357,7.5-7.5v-10h20l0,0v10c0,4.143,3.358,7.5,7.5,7.5s7.5-3.357,7.5-7.5v-10h20v10
	c0,4.143,3.358,7.5,7.5,7.5s7.5-3.357,7.5-7.5v-10h10.645c4.056,0,7.355,3.3,7.355,7.355v14.289c0,4.056-3.299,7.355-7.355,7.355
	l0,0H22.355C18.299,409,15,405.7,15,401.645z M97,424v10c0,4.143,3.358,7.5,7.5,7.5s7.5-3.357,7.5-7.5v-10h20l0,0v10
	c0,4.143,3.358,7.5,7.5,7.5s7.5-3.357,7.5-7.5v-10h20v10c0,4.143,3.358,7.5,7.5,7.5s7.5-3.357,7.5-7.5v-10h10.645
	c4.056,0,7.355,3.3,7.355,7.355v14.289c0,4.056-3.299,7.355-7.355,7.355l0,0H86.355c-4.056,0-7.355-3.3-7.355-7.355v-14.289
	C79,427.3,82.299,424,86.355,424H97z M136,489.645c0,4.056-3.299,7.355-7.355,7.355H22.355c-4.056,0-7.355-3.3-7.355-7.355v-14.289
	C15,471.3,18.299,468,22.355,468H33v10c0,4.143,3.358,7.5,7.5,7.5s7.5-3.357,7.5-7.5v-10h20v10c0,4.143,3.358,7.5,7.5,7.5
	s7.5-3.357,7.5-7.5v-10l0,0h20v10c0,4.143,3.358,7.5,7.5,7.5s7.5-3.357,7.5-7.5v-10h10.645c4.056,0,7.355,3.3,7.355,7.355V489.645z
	 M170.967,468h21.678C204.972,468,215,457.972,215,445.645v-14.289C215,419.028,204.972,409,192.645,409h-42.894
	c0.806-2.305,1.249-4.779,1.249-7.355v-14.289c0-2.577-0.443-5.05-1.249-7.355h11.894C173.972,380,184,369.972,184,357.645v-14.289
	C184,331.028,173.972,321,161.645,321h-11.894c0.806-2.305,1.249-4.779,1.249-7.355v-14.289c0-2.577-0.443-5.05-1.249-7.355h32.894
	C194.972,292,205,281.972,205,269.645v-14.289c0-10.01-6.613-18.504-15.699-21.344c2.273-1.679,4.573-3.352,6.921-5.012l0,0h66.003
	c4.142,0,7.5-3.357,7.5-7.5s-3.358-7.5-7.5-7.5H202c-3.86,0-7-3.141-7-7s3.14-7,7-7h109c3.86,0,7,3.141,7,7s-3.14,7-7,7h-18.775
	c-4.142,0-7.5,3.357-7.5,7.5s3.358,7.5,7.5,7.5H311h3.779c22.319,15.776,46.747,36.261,63.614,59.488
	c0.187,0.297,0.391,0.582,0.617,0.849c9.173,12.81,16.023,26.441,18.94,40.569c0.011,0.058,0.021,0.116,0.034,0.173
	c0.987,4.837,1.517,9.731,1.517,14.671c0,83.951-64.598,152.25-144,152.25C224.829,497,195.427,486.81,170.967,468z M443,475.355
	v14.289c0,4.056-3.299,7.355-7.355,7.355h-106.29c-1.745,0-3.374-0.635-4.653-1.691c13.982-7.14,26.824-16.374,38.16-27.309H375v10
	c0,4.143,3.358,7.5,7.5,7.5s7.5-3.357,7.5-7.5v-10l0,0h20v10c0,4.143,3.358,7.5,7.5,7.5s7.5-3.357,7.5-7.5v-10h10.645
	C439.701,468,443,471.3,443,475.355z M497,445.645c0,4.056-3.299,7.355-7.355,7.355l0,0H376.599l0,0
	c7.212-8.914,13.557-18.627,18.886-29H404v10c0,4.143,3.358,7.5,7.5,7.5s7.5-3.357,7.5-7.5v-10h20l0,0v10c0,4.143,3.358,7.5,7.5,7.5
	s7.5-3.357,7.5-7.5v-10h16v10c0,4.143,3.358,7.5,7.5,7.5s7.5-3.357,7.5-7.5v-10h4.645c4.056,0,7.355,3.3,7.355,7.355V445.645z"/>
<g>
</g>
<g>
</g>
<g>
</g>
<g>
</g>
<g>
</g>
<g>
</g>
<g>
</g>
<g>
</g>
<g>
</g>
<g>
</g>
<g>
</g>
<g>
</g>
<g>
</g>
<g>
</g>
<g>
</g>
</svg>
