<svg height="512pt" viewBox="-34 0 512 512" width="512pt" xmlns="http://www.w3.org/2000/svg"><path d="m435.199219 170.667969v315.730469c-.027344 9.414062-7.652344 17.039062-17.066407 17.066406h-392.53125c-9.414062-.027344-17.039062-7.652344-17.066406-17.066406v-315.730469l102.398438-110.933594v-34.132813c.027344-9.414062 7.652344-17.039062 17.066406-17.066406h187.734375c9.414063.027344 17.039063 7.652344 17.066406 17.066406v34.132813zm0 0" fill="#f57c00"/><path d="m409.601562 170.667969v315.730469c-.027343 9.414062-7.652343 17.039062-17.066406 17.066406h-366.933594c-9.414062-.027344-17.039062-7.652344-17.066406-17.066406v-315.730469l102.398438-110.933594v-34.132813c.027344-9.414062 7.652344-17.039062 17.066406-17.066406h162.132812c9.414063.027344 17.039063 7.652344 17.066407 17.066406v34.132813zm0 0" fill="#ff9801"/><path d="m332.800781 25.601562v34.132813h-221.867187v-34.132813c.027344-9.414062 7.652344-17.039062 17.066406-17.066406h187.734375c9.414063.027344 17.039063 7.652344 17.066406 17.066406zm0 0" fill="#f57c00"/><path d="m273.066406 230.398438v213.335937c.027344 9.414063 7.652344 17.039063 17.066406 17.066406h145.066407v25.597657c-.027344 9.414062-7.652344 17.039062-17.066407 17.066406h-187.734374v-332.796875h204.800781v42.664062h-145.066407c-9.414062.027344-17.039062 7.652344-17.066406 17.066407zm0 0" fill="#d84315"/><path d="m273.066406 230.398438v213.335937c.027344 9.414063 7.652344 17.039063 17.066406 17.066406h119.46875v25.597657c-.027343 9.414062-7.652343 17.039062-17.066406 17.066406h-162.136718v-332.796875h179.203124v42.664062h-119.46875c-9.414062.027344-17.039062 7.652344-17.066406 17.066407zm0 0" fill="#ff5722"/><path d="m332.800781 59.734375-102.402343 110.933594h-221.863282l102.398438-110.933594h49.238281c-17.714844 1.125-33.066406 12.65625-39.082031 29.355469-2.539063 6.441406-2.136719 13.675781 1.109375 19.796875l.851562 1.449219 13.824219 23.382812.171875.253906c3.859375 6.625 11.117187 10.519532 18.773437 10.070313 17.722657-1.144531 33.09375-12.664063 39.167969-29.355469 2.539063-6.519531 2.070313-13.828125-1.28125-19.96875l-.339843-.511719-13.996094-23.722656h-.085938c-3.675781-7.054687-11.175781-11.273437-19.113281-10.75zm0 0" fill="#ff9801"/><path d="m194.988281 114.6875c-6.074219 16.691406-21.445312 28.210938-39.167969 29.355469-7.65625.449219-14.914062-3.445313-18.773437-10.070313l-.171875-.253906-13.824219-23.382812c4.164063 5.4375 10.742188 8.46875 17.578125 8.105468 17.726563-1.144531 33.09375-12.664062 39.167969-29.351562 2.308594-6.023438 2.125-12.71875-.511719-18.605469h.085938l13.996094 23.722656.339843.511719c3.351563 6.140625 3.820313 13.449219 1.28125 19.96875zm0 0" fill="#cfd8dc"/><path d="m179.796875 89.089844c-6.074219 16.6875-21.441406 28.207031-39.167969 29.351562-6.835937.363282-13.414062-2.667968-17.578125-8.105468l-.851562-1.449219c-3.246094-6.121094-3.648438-13.355469-1.109375-19.796875 6.015625-16.699219 21.367187-28.230469 39.082031-29.355469 7.9375-.523437 15.4375 3.695313 19.113281 10.75 2.636719 5.886719 2.820313 12.582031.511719 18.605469zm0 0" fill="#f5f5f5"/><path d="m435.199219 213.332031v247.46875h-145.066407c-9.414062-.027343-17.039062-7.652343-17.066406-17.066406v-213.335937c.027344-9.414063 7.652344-17.039063 17.066406-17.066407zm0 0" fill="#c81e1e"/><path d="m409.601562 213.332031v247.46875h-119.46875c-9.414062-.027343-17.039062-7.652343-17.066406-17.066406v-213.335937c.027344-9.414063 7.652344-17.039063 17.066406-17.066407zm0 0" fill="#f44335"/><path d="m230.398438 512h-204.796876c-14.132812-.015625-25.585937-11.46875-25.601562-25.601562v-315.730469c0-4.714844 3.820312-8.535157 8.535156-8.535157h221.863282c4.714843 0 8.535156 3.820313 8.535156 8.535157v332.796875c0 4.714844-3.820313 8.535156-8.535156 8.535156zm-213.332032-332.800781v307.199219c.007813 4.710937 3.824219 8.527343 8.535156 8.535156h196.265626v-315.734375zm0 0"/><path d="m418.132812 512h-187.734374c-4.710938 0-8.53125-3.820312-8.53125-8.535156v-332.796875c0-4.714844 3.820312-8.535157 8.53125-8.535157h204.800781c4.714843 0 8.535156 3.820313 8.535156 8.535157v315.730469c-.015625 14.132812-11.46875 25.585937-25.601563 25.601562zm-179.199218-17.066406h179.199218c4.710938-.007813 8.527344-3.824219 8.535157-8.535156v-307.199219h-187.734375zm0 0"/><path d="m435.203125 179.199219c-2.382813.003906-4.660156-.992188-6.273437-2.746094l-96.128907-104.140625-96.128906 104.140625c-3.195313 3.464844-8.597656 3.683594-12.058594.484375-3.464843-3.195312-3.683593-8.59375-.484375-12.058594l102.398438-110.933594c1.65625-1.679687 3.914062-2.625 6.273437-2.625 2.355469 0 4.617188.945313 6.269531 2.625l102.402344 110.933594c2.296875 2.492188 2.902344 6.105469 1.546875 9.207032-1.359375 3.105468-4.425781 5.113281-7.816406 5.113281zm0 0"/><path d="m8.535156 179.199219c-3.390625 0-6.457031-2.007813-7.816406-5.113281-1.355469-3.101563-.75-6.714844 1.546875-9.207032l102.402344-110.933594c3.195312-3.464843 8.59375-3.679687 12.058593-.484374 3.464844 3.195312 3.679688 8.597656.484376 12.058593l-102.402344 110.933594c-1.613282 1.753906-3.890625 2.75-6.273438 2.746094zm0 0"/><path d="m332.800781 68.265625h-221.867187c-4.714844 0-8.535156-3.820313-8.535156-8.53125 0-4.714844 3.820312-8.535156 8.535156-8.535156h221.867187c4.710938 0 8.53125 3.820312 8.53125 8.535156 0 4.710937-3.820312 8.53125-8.53125 8.53125zm0 0"/><path d="m332.800781 68.265625h-221.867187c-4.714844 0-8.535156-3.820313-8.535156-8.53125v-34.132813c.015624-14.132812 11.46875-25.585937 25.601562-25.601562h187.734375c14.132813.015625 25.582031 11.46875 25.597656 25.601562v34.132813c0 4.710937-3.820312 8.53125-8.53125 8.53125zm-213.335937-17.066406h204.800781v-25.597657c-.003906-4.710937-3.820313-8.527343-8.53125-8.535156h-187.734375c-4.710938.007813-8.527344 3.824219-8.535156 8.535156zm0 0"/><path d="m140.628906 126.960938c-9.558594.390624-18.695312-3.945313-24.433594-11.597657-5.703124-8.570312-6.90625-19.371093-3.226562-28.984375 7.191406-20.1875 25.820312-34.066406 47.222656-35.179687 9.558594-.390625 18.695313 3.945312 24.433594 11.597656 5.699219 8.570313 6.902344 19.363281 3.230469 28.976563v.007812c-7.191407 20.1875-25.824219 34.066406-47.226563 35.179688zm19.5625-58.695313c-14.046875 1.113281-26.160156 10.292969-31.035156 23.515625-1.875 4.417969-1.550781 9.460938.882812 13.601562 2.570313 3.15625 6.53125 4.84375 10.589844 4.511719 14.046875-1.113281 26.160156-10.292969 31.035156-23.515625 1.875-4.417968 1.546876-9.464844-.882812-13.605468-2.574219-3.152344-6.535156-4.839844-10.589844-4.507813zm0 0"/><path d="m180.652344 94.378906h-.085938c-4.707031-.023437-8.503906-3.851562-8.492187-8.554687s3.828125-8.511719 8.535156-8.511719c4.703125 0 8.519531 3.808594 8.53125 8.511719s-3.785156 8.53125-8.488281 8.554687zm0 0"/><path d="m155.820312 152.574219c-10.78125.417969-20.898437-5.179688-26.273437-14.53125-2.207031-4.03125-.878906-9.085938 3.023437-11.511719 3.855469-2.390625 8.910157-1.292969 11.421876 2.476562.136718.210938.4375.683594.554687.902344 2.398437 3.84375 6.757813 6.011719 11.273437 5.597656 14.054688-1.136718 26.179688-10.320312 31.082032-23.542968 1.695312-4.144532 1.519531-8.816406-.488282-12.816406-2.464843-4.007813-1.339843-9.242188 2.546876-11.886719 1.816406-1.234375 4.054687-1.695313 6.210937-1.277344 2.160156.414063 4.066406 1.671875 5.296875 3.492187l.339844.511719c4.804687 8.328125 5.640625 18.363281 2.285156 27.371094-7.230469 20.1875-25.863281 34.066406-47.273438 35.214844zm0 0"/><path d="m193.75 103.214844c-3.007812.003906-5.796875-1.578125-7.339844-4.164063l-14.386718-24.171875c-2.410157-4.050781-1.082032-9.289062 2.96875-11.699218 4.046874-2.410157 9.285156-1.082032 11.699218 2.964843l14.386719 24.171875c1.570313 2.636719 1.605469 5.914063.089844 8.582032-1.515625 2.667968-4.347657 4.316406-7.414063 4.316406zm0 0"/><path d="m137.09375 142.492188c-3.007812.003906-5.800781-1.582032-7.335938-4.171876l-14.933593-25.101562c-1.601563-2.625-1.671875-5.90625-.179688-8.589844 1.488281-2.6875 4.308594-4.367187 7.382813-4.394531 3.074218-.027344 5.921875 1.597656 7.460937 4.257813l14.933594 25.105468c1.570313 2.632813 1.601563 5.910156.085937 8.574219-1.511718 2.667969-4.34375 4.316406-7.410156 4.320313zm0 0"/><path d="m42.667969 418.132812c-4.714844 0-8.535157-3.820312-8.535157-8.53125v-204.800781c0-4.714843 3.820313-8.535156 8.535157-8.535156 4.710937 0 8.53125 3.820313 8.53125 8.535156v204.800781c0 4.710938-3.820313 8.53125-8.53125 8.53125zm0 0"/><path d="m42.667969 469.332031c-4.714844 0-8.535157-3.820312-8.535157-8.53125v-17.066406c0-4.714844 3.820313-8.535156 8.535157-8.535156 4.710937 0 8.53125 3.820312 8.53125 8.535156v17.066406c0 4.710938-3.820313 8.53125-8.53125 8.53125zm0 0"/><path d="m435.199219 469.332031h-145.066407c-14.132812-.015625-25.582031-11.464843-25.597656-25.597656v-213.335937c.015625-14.128907 11.464844-25.582032 25.597656-25.597657h145.066407c4.714843 0 8.535156 3.820313 8.535156 8.53125v247.46875c0 4.710938-3.820313 8.53125-8.535156 8.53125zm-145.066407-247.464843c-4.710937.003906-8.527343 3.824218-8.53125 8.53125v213.335937c.003907 4.710937 3.820313 8.527344 8.53125 8.53125h136.535157v-230.398437zm0 0"/></svg>