<?xml version="1.0" encoding="iso-8859-1"?>
<!-- Generator: Adobe Illustrator 19.0.0, SVG Export Plug-In . SVG Version: 6.00 Build 0)  -->
<svg version="1.1" id="Capa_1" xmlns="http://www.w3.org/2000/svg" xmlns:xlink="http://www.w3.org/1999/xlink" x="0px" y="0px"
	 viewBox="0 0 512 512" style="enable-background:new 0 0 512 512;" xml:space="preserve">
<path style="fill:#50BB65;" d="M42.667,128H460.8l0,0v341.333l0,0H68.267c-14.14,0-25.6-11.46-25.6-25.6V128L42.667,128z"/>
<polygon style="fill:#E6E6E6;" points="460.8,315.733 349.867,315.733 349.867,256 460.8,256 460.8,204.8 298.667,204.8 
	298.667,315.733 230.4,315.733 230.4,128 179.2,128 179.2,213.333 85.334,213.333 85.334,264.533 179.2,264.533 179.2,469.333 
	230.4,469.333 230.4,366.933 460.8,366.933 "/>
<circle style="fill:#29ABE2;" cx="401.067" cy="401.067" r="102.4"/>
<polygon style="fill:#DA4836;" points="375.851,426.283 452.267,452.267 426.283,375.851 349.867,349.867 "/>
<polygon style="fill:#FFFFFF;" points="375.851,426.283 452.267,452.267 426.283,375.851 "/>
<path style="fill:#DA4836;" d="M349.867,68.267c0,51.2-59.733,102.4-59.733,102.4s-59.733-51.2-59.733-102.4
	c0-32.99,26.743-59.733,59.733-59.733S349.867,35.277,349.867,68.267z"/>
<circle style="fill:#E6E6E6;" cx="290.134" cy="68.267" r="25.6"/>
<path style="fill:#009245;" d="M42.667,281.6V128c0-14.14,11.46-25.6,25.6-25.6h17.067v315.733H68.267
	c-14.14,0-25.6,11.46-25.6,25.6V281.6z"/>
<rect x="256" y="392.533" width="17.067" height="17.067"/>
<rect x="256" y="273.067" width="17.067" height="17.067"/>
<rect x="136.534" y="290.133" width="17.067" height="17.067"/>
<rect x="136.534" y="170.667" width="17.067" height="17.067"/>
<path d="M324.267,68.267c0-18.85-15.283-34.133-34.133-34.133S256,49.417,256,68.267s15.283,34.133,34.133,34.133
	S324.267,87.117,324.267,68.267z M273.067,68.267c0-9.429,7.637-17.067,17.067-17.067c9.429,0,17.067,7.637,17.067,17.067
	s-7.637,17.067-17.067,17.067C280.704,85.333,273.067,77.696,273.067,68.267z"/>
<path d="M469.334,313.813V128c0-4.71-3.823-8.533-8.533-8.533H343.04c9.378-15.488,14.66-33.109,15.36-51.2
	C358.4,30.566,327.834,0,290.134,0s-68.267,30.566-68.267,68.267c0.7,18.091,5.982,35.712,15.36,51.2H93.867V102.4
	c0-4.71-3.823-8.533-8.533-8.533H68.267c-18.85,0-34.133,15.283-34.133,34.133v315.733c0,18.85,15.283,34.133,34.133,34.133h252.937
	c42.342,44.177,112.486,45.67,156.663,3.319s45.67-112.486,3.319-156.663C477.5,320.674,473.541,317.09,469.334,313.813z
	 M290.134,17.067c28.262,0.026,51.174,22.938,51.2,51.2c0,37.786-36.907,77.005-51.2,90.786c-14.293-13.781-51.2-53.001-51.2-90.786
	C238.959,40.004,261.871,17.092,290.134,17.067z M238.934,136.533h9.114c10.65,14.839,22.903,28.459,36.54,40.61
	c3.191,2.731,7.902,2.731,11.093,0c13.636-12.151,25.89-25.771,36.54-40.61h120.047v59.733h-153.6c-4.71,0-8.533,3.823-8.533,8.533
	v102.4h-51.2V136.533z M93.867,136.533h76.8V204.8h-76.8V136.533z M51.2,128c0-9.429,7.637-17.067,17.067-17.067H76.8V409.6h-8.533
	c-5.99-0.009-11.887,1.57-17.067,4.582V128z M170.667,460.8h-102.4c-9.429,0-17.067-7.637-17.067-17.067
	c0-9.429,7.637-17.067,17.067-17.067h17.067c4.71,0,8.533-3.823,8.533-8.533V273.067h76.8V460.8z M221.867,366.933V460.8h-34.133
	V264.533c0-4.71-3.823-8.533-8.533-8.533H93.867v-34.133H179.2c4.71,0,8.533-3.823,8.533-8.533v-76.8h34.133v179.2
	c0,4.71,3.823,8.533,8.533,8.533h68.267c4.71,0,8.533-3.823,8.533-8.533v-102.4h145.067v34.133h-102.4
	c-4.71,0-8.533,3.823-8.533,8.533v51.738c-19.021,12.177-33.903,29.841-42.667,50.662H230.4
	C225.69,358.4,221.867,362.223,221.867,366.933z M452.267,264.533v38.221c-29.116-15.275-63.531-16.777-93.867-4.087v-34.133
	H452.267z M238.934,460.8v-85.333h54.298c-7.108,29.227-1.86,60.092,14.507,85.333H238.934z M401.067,494.933
	c-51.84,0-93.867-42.027-93.867-93.867s42.027-93.867,93.867-93.867s93.867,42.027,93.867,93.867
	C494.874,452.881,452.881,494.874,401.067,494.933z"/>
<path d="M436.054,378.138l13.705-13.704l-12.066-12.066l-13.696,13.713l-14.396-4.907v-36.907h-17.067v31.104l-39.919-13.577
	c-4.463-1.51-9.31,0.879-10.82,5.342c-0.606,1.775-0.606,3.703,0,5.478l13.577,39.919h-31.104V409.6h36.907l4.898,14.396
	L352.367,437.7l12.066,12.066l13.705-13.713l14.396,4.907v36.907H409.6v-31.104l39.919,13.577c4.463,1.51,9.31-0.879,10.82-5.342
	c0.606-1.775,0.606-3.703,0-5.478L446.763,409.6h31.104v-17.067H440.96L436.054,378.138z M382.575,419.55l-19.055-56.03
	l56.021,19.055l19.072,56.038L382.575,419.55z"/>
<rect x="392.534" y="392.533" width="17.067" height="17.067"/>
<path d="M17.067,452.267V341.333H0v110.933C0.043,485.239,26.761,511.957,59.734,512h25.6v-17.067h-25.6
	C36.182,494.908,17.093,475.819,17.067,452.267z"/>
<rect x="0" y="307.2" width="17.067" height="17.067"/>
<path d="M503.467,119.467c0-18.85-15.283-34.133-34.133-34.133h-42.667V102.4h42.667c9.429,0,17.067,7.637,17.067,17.067V204.8
	h17.067V119.467z"/>
<rect x="486.4" y="221.867" width="17.067" height="17.067"/>
<g>
</g>
<g>
</g>
<g>
</g>
<g>
</g>
<g>
</g>
<g>
</g>
<g>
</g>
<g>
</g>
<g>
</g>
<g>
</g>
<g>
</g>
<g>
</g>
<g>
</g>
<g>
</g>
<g>
</g>
</svg>
