<?xml version="1.0" encoding="iso-8859-1"?>
<!-- Generator: Adobe Illustrator 19.0.0, SVG Export Plug-In . SVG Version: 6.00 Build 0)  -->
<svg version="1.1" id="Capa_1" xmlns="http://www.w3.org/2000/svg" xmlns:xlink="http://www.w3.org/1999/xlink" x="0px" y="0px"
	 viewBox="0 0 512 512" style="enable-background:new 0 0 512 512;" xml:space="preserve">
<path style="fill:#42210B;" d="M234.667,341.333v136.533c0,14.14,11.46,25.6,25.6,25.6l0,0l0,0c14.14,0,25.6-11.46,25.6-25.6l0,0
	V341.333H234.667z"/>
<path style="fill:#E65848;" d="M256,8.533L256,8.533c63.625,0,115.2,51.575,115.2,115.2v226.133
	c0,18.85-15.283,34.133-34.133,34.133H174.933c-18.85,0-34.133-15.283-34.133-34.133V123.733C140.8,60.109,192.375,8.533,256,8.533z
	"/>
<path style="fill:#FDC536;" d="M174.933,170.667v68.267c0,9.429,7.637,17.067,17.067,17.067c9.429,0,17.067-7.637,17.067-17.067
	v-68.267c0-9.429,7.637-17.067,17.067-17.067c9.429,0,17.067,7.637,17.067,17.067v8.533c0,9.429,7.637,17.067,17.067,17.067
	c9.429,0,17.067-7.637,17.067-17.067v-8.533c0-9.429,7.637-17.067,17.067-17.067h76.8v-29.867c0-63.625-51.575-115.2-115.2-115.2
	s-115.2,51.575-115.2,115.2V153.6h17.067C167.296,153.6,174.933,161.237,174.933,170.667z"/>
<path d="M256,0c-68.301,0.077-123.657,55.433-123.733,123.733v226.133c0.026,23.552,19.115,42.641,42.667,42.667h51.2v85.333
	c0,18.85,15.283,34.133,34.133,34.133s34.133-15.283,34.133-34.133v-85.333h42.667c23.552-0.026,42.641-19.115,42.667-42.667
	V123.733C379.657,55.433,324.301,0.077,256,0z M277.333,477.867c0,9.429-7.637,17.067-17.067,17.067
	c-9.429,0-17.067-7.637-17.067-17.067v-85.333h34.133V477.867z M362.667,349.867c0,14.14-11.46,25.6-25.6,25.6H174.933
	c-14.14,0-25.6-11.46-25.6-25.6V162.133h8.533c4.71,0,8.533,3.823,8.533,8.533v68.267c0,14.14,11.46,25.6,25.6,25.6
	c14.14,0,25.6-11.46,25.6-25.6v-68.267c0-4.71,3.823-8.533,8.533-8.533s8.533,3.823,8.533,8.533v8.533c0,14.14,11.46,25.6,25.6,25.6
	s25.6-11.46,25.6-25.6v-8.533c0-4.71,3.823-8.533,8.533-8.533h68.267V349.867z M294.4,145.067c-14.14,0-25.6,11.46-25.6,25.6v8.533
	c0,4.71-3.823,8.533-8.533,8.533c-4.71,0-8.533-3.823-8.533-8.533v-8.533c0-14.14-11.46-25.6-25.6-25.6s-25.6,11.46-25.6,25.6
	v68.267c0,4.71-3.823,8.533-8.533,8.533c-4.71,0-8.533-3.823-8.533-8.533v-68.267c0-14.14-11.46-25.6-25.6-25.6h-8.533v-21.333
	c0-58.914,47.753-106.667,106.667-106.667s106.667,47.753,106.667,106.667v21.333H294.4z"/>
<g>
</g>
<g>
</g>
<g>
</g>
<g>
</g>
<g>
</g>
<g>
</g>
<g>
</g>
<g>
</g>
<g>
</g>
<g>
</g>
<g>
</g>
<g>
</g>
<g>
</g>
<g>
</g>
<g>
</g>
</svg>
