<svg id="Layer_35" enable-background="new 0 0 64 64" height="512" viewBox="0 0 64 64" width="512" xmlns="http://www.w3.org/2000/svg"><path d="m40 2h-32c-2.21 0-4 1.79-4 4v16h40v-8-8c0-2.21-1.79-4-4-4z" fill="#ccd1d9"/><path d="m34 6h-20c-1.1 0-2 .9-2 2v8c0 1.1.9 2 2 2h20c1.1 0 2-.9 2-2v-8c0-1.1-.9-2-2-2z" fill="#e6e9ed"/><path d="m42 52h-36c-.73 0-1.41.2-2 .54v-30.54h14 12 14v6 16 8.54c-.59-.34-1.27-.54-2-.54z" fill="#fcd770"/><path d="m30 22h-12c0-2.21 1.79-4 4-4h2 2c2.21 0 4 1.79 4 4z" fill="#fc6e51"/><circle cx="24" cy="14" fill="#f0d0b4" r="4"/><path d="m46 56v6h-6v-3c0-.55-.45-1-1-1h-30c-.55 0-1 .45-1 1v3h-6v-6c0-1.48.8-2.77 2-3.46.59-.34 1.27-.54 2-.54h36c.73 0 1.41.2 2 .54 1.2.69 2 1.98 2 3.46z" fill="#d3a06c"/><path d="m62 28v16h-18v-16h7 4z" fill="#aab2bd"/><path d="m58 32v2c0 1.1-.9 2-2 2h-6c-1.1 0-2-.9-2-2v-2z" fill="#fcd770"/><path d="m51 14h4v14h-4z" fill="#d3a06c"/><path d="m62 14h-2-5-4-7c0-2.6.84-5.12 2.4-7.2l3.6-4.8h6l3.6 4.8c1.56 2.08 2.4 4.6 2.4 7.2z" fill="#e6e9ed"/><circle cx="60" cy="20" fill="#ff826e" r="2"/><path d="m50 37h6c1.654 0 3-1.346 3-3v-3h-12v3c0 1.654 1.346 3 3 3zm-1-4h8v1c0 .552-.448 1-1 1h-6c-.552 0-1-.448-1-1z"/><path d="m63 15v-1c0-2.795-.924-5.565-2.601-7.8l-3.899-5.2h-7l-3.899 5.2c-.213.283-.413.575-.601.875v-1.075c0-2.757-2.243-5-5-5h-32c-2.757 0-5 2.243-5 5v46.026c-1.207.913-2 2.347-2 3.974v7h8v-4h30v4h8v-7c0-1.627-.793-3.061-2-3.974v-7.026h18v-18h-7v-12h3v2.184c-1.161.414-2 1.514-2 2.816 0 1.654 1.346 3 3 3s3-1.346 3-3c0-1.302-.839-2.402-2-2.816v-2.184zm-3 6c-.552 0-1-.449-1-1s.448-1 1-1 1 .449 1 1-.448 1-1 1zm-12.8-13.6 3.3-4.4h5l3.3 4.4c1.219 1.624 1.967 3.582 2.153 5.6h-15.906c.186-2.019.934-3.976 2.153-5.6zm2.8 7.6v12h-5v-12zm-42-12h32c1.654 0 3 1.346 3 3v8 1 6h-12.101c-.152-.743-.482-1.416-.924-2h4.025c1.654 0 3-1.346 3-3v-8c0-1.654-1.346-3-3-3h-20c-1.654 0-3 1.346-3 3v8c0 1.654 1.346 3 3 3h4.026c-.442.584-.773 1.257-.924 2h-12.102v-15c0-1.654 1.346-3 3-3zm13 11c0-1.654 1.346-3 3-3s3 1.346 3 3-1.346 3-3 3-3-1.346-3-3zm6.974 3c.635-.838 1.026-1.87 1.026-3 0-2.757-2.243-5-5-5s-5 2.243-5 5c0 1.13.391 2.162 1.026 3h-6.026c-.552 0-1-.449-1-1v-8c0-.551.448-1 1-1h20c.552 0 1 .449 1 1v8c0 .551-.448 1-1 1zm-5.974 2h4c1.302 0 2.402.839 2.816 2h-9.631c.413-1.161 1.513-2 2.815-2zm23 42h-4v-2c0-1.103-.897-2-2-2h-30c-1.103 0-2 .897-2 2v2h-4v-5c0-1.654 1.346-3 3-3h36c1.654 0 3 1.346 3 3zm-3-10h-36c-.342 0-.677.035-1 .101v-28.101h38v28.101c-.323-.066-.658-.101-1-.101zm19-8h-16v-14h16zm-7-16h-2v-12h2z"/><path d="m7 47h2v2h-2z"/><path d="m7 43h2v2h-2z"/><path d="m7 39h2v2h-2z"/><path d="m39 47h2v2h-2z"/><path d="m39 43h2v2h-2z"/><path d="m39 39h2v2h-2z"/></svg>