<svg height="496pt" viewBox="0 0 496 496" width="496pt" xmlns="http://www.w3.org/2000/svg"><path d="m440 424h-384v-288h-16c-17.671875 0-32-14.328125-32-32s14.328125-32 32-32h416c17.671875 0 32 14.328125 32 32s-14.328125 32-32 32h-16zm0 0" fill="#d1a339"/><path d="m8 104c0 17.671875 14.328125 32 32 32h16v247.359375c29.65625 10.695313 62.039062 16.640625 96 16.640625 141.382812 0 256-102.078125 256-228 0-35.878906-9.328125-69.800781-25.902344-100h-342.097656c-17.671875 0-32 14.328125-32 32zm0 0" fill="#f0d365"/><path d="m488 104v352c0 17.671875-14.328125 32-32 32h-16v-352h16c17.671875 0 32-14.328125 32-32zm0 0" fill="#f0d365"/><path d="m8 104v352c0 17.671875 14.328125 32 32 32h16v-352h-16c-17.671875 0-32-14.328125-32-32zm0 0" fill="#d1a339"/><path d="m384 72c0-35.34375-28.65625-64-64-64s-64 28.65625-64 64c0 15.367188 6.105469 30.105469 16.96875 40.96875 20.261719 20.261719 34.328125 45.886719 40.550781 73.863281l6.480469 29.167969 6.480469-29.160156c6.214843-27.976563 20.28125-53.601563 40.550781-73.863282 10.863281-10.871093 16.96875-25.609374 16.96875-40.976562zm0 0" fill="#e4725f"/><path d="m352 72c0 17.671875-14.328125 32-32 32s-32-14.328125-32-32 14.328125-32 32-32 32 14.328125 32 32zm0 0" fill="#fff"/><g fill="#7ecb92"><path d="m408 328c0-17.671875-10.746094-32-24-32s-24 14.328125-24 32 10.746094 32 24 32 24-14.328125 24-32zm0 0"/><path d="m336 360c0 13.253906-10.746094 24-24 24s-24-10.746094-24-24 10.746094-24 24-24 24 10.746094 24 24zm0 0"/><path d="m208 216c0-17.671875-10.746094-32-24-32s-24 14.328125-24 32 10.746094 32 24 32 24-14.328125 24-32zm0 0"/><path d="m136 248c0 13.253906-10.746094 24-24 24s-24-10.746094-24-24 10.746094-24 24-24 24 10.746094 24 24zm0 0"/></g><path d="m56 416h384v16h-384zm0 0"/><path d="m56 496h-16c-22.054688 0-40-17.945312-40-40v-352c0-22.054688 17.945312-40 40-40h216v16h-216c-13.230469 0-24 10.769531-24 24s10.769531 24 24 24h16c4.414062 0 8 3.574219 8 8v352c0 4.425781-3.585938 8-8 8zm-40-360.015625v320.015625c0 13.230469 10.769531 24 24 24h8v-336h-8c-9 0-17.3125-2.984375-24-8.015625zm0 0"/><path d="m456 496h-16c-4.414062 0-8-3.574219-8-8v-352c0-4.425781 3.585938-8 8-8h16c13.230469 0 24-10.769531 24-24s-10.769531-24-24-24h-72v-16h72c22.054688 0 40 17.945312 40 40v352c0 22.054688-17.945312 40-40 40zm-8-16h8c13.230469 0 24-10.769531 24-24v-320.015625c-6.6875 5.03125-15 8.015625-24 8.015625h-8zm0 0"/><path d="m320 224c-3.753906 0-7-2.601562-7.808594-6.265625l-6.480468-29.167969c-5.894532-26.535156-19.175782-50.726562-38.398438-69.941406-12.457031-12.457031-19.3125-29.015625-19.3125-46.625 0-39.703125 32.304688-72 72-72s72 32.296875 72 72c0 17.609375-6.855469 34.167969-19.3125 46.625-19.222656 19.214844-32.496094 43.40625-38.398438 69.941406l-6.480468 29.167969c-.808594 3.664063-4.054688 6.265625-7.808594 6.265625zm0-208c-30.878906 0-56 25.128906-56 56 0 13.335938 5.191406 25.871094 14.625 35.3125 20.039062 20.039062 34.269531 44.925781 41.375 72.273438 7.105469-27.355469 21.335938-52.234376 41.375-72.273438 9.433594-9.441406 14.625-21.976562 14.625-35.3125 0-30.871094-25.121094-56-56-56zm0 0"/><path d="m320 112c-22.054688 0-40-17.945312-40-40s17.945312-40 40-40 40 17.945312 40 40-17.945312 40-40 40zm0-64c-13.230469 0-24 10.769531-24 24s10.769531 24 24 24 24-10.769531 24-24-10.769531-24-24-24zm0 0"/><path d="m384 368c-17.648438 0-32-17.945312-32-40s14.351562-40 32-40 32 17.945312 32 40-14.351562 40-32 40zm0-64c-8.671875 0-16 10.992188-16 24s7.328125 24 16 24 16-10.992188 16-24-7.328125-24-16-24zm0 0"/><path d="m376 336h16v88h-16zm0 0"/><path d="m312 392c-17.648438 0-32-14.351562-32-32s14.351562-32 32-32 32 14.351562 32 32-14.351562 32-32 32zm0-48c-8.824219 0-16 7.175781-16 16s7.175781 16 16 16 16-7.175781 16-16-7.175781-16-16-16zm0 0"/><path d="m304 360h16v64h-16zm0 0"/><path d="m184 256c-17.648438 0-32-17.945312-32-40s14.351562-40 32-40 32 17.945312 32 40-14.351562 40-32 40zm0-64c-8.671875 0-16 10.992188-16 24s7.328125 24 16 24 16-10.992188 16-24-7.328125-24-16-24zm0 0"/><path d="m176 224h16v88h-16zm0 0"/><path d="m112 280c-17.648438 0-32-14.351562-32-32s14.351562-32 32-32 32 14.351562 32 32-14.351562 32-32 32zm0-48c-8.824219 0-16 7.175781-16 16s7.175781 16 16 16 16-7.175781 16-16-7.175781-16-16-16zm0 0"/><path d="m104 248h16v64h-16zm0 0"/><path d="m282.339844 274.34375 64-64 11.3125 11.3125-64 64zm0 0"/><path d="m282.339844 221.65625 11.3125-11.3125 64 64-11.3125 11.3125zm0 0"/><path d="m82.339844 162.34375 64.003906-64 11.3125 11.3125-64 64zm0 0"/><path d="m82.339844 109.65625 11.316406-11.3125 64 64-11.3125 11.3125zm0 0"/><path d="m114.339844 394.34375 64-64.003906 11.3125 11.316406-64 64zm0 0"/><path d="m114.339844 341.65625 11.3125-11.316406 64 64.003906-11.3125 11.3125zm0 0"/></svg>