<svg height="496pt" viewBox="0 0 496 496" width="496pt" xmlns="http://www.w3.org/2000/svg"><path d="m488 248c0 132.546875-107.453125 240-240 240s-240-107.453125-240-240 107.453125-240 240-240 240 107.453125 240 240zm0 0" fill="#00a99d"/><path d="m440 248c0 106.039062-85.960938 192-192 192s-192-85.960938-192-192 85.960938-192 192-192 192 85.960938 192 192zm0 0" fill="#999"/><path d="m416 248c0-105.8125-80.589844-191.59375-180-191.59375s-180 85.78125-180 191.59375 80.589844 191.59375 180 191.59375 180-85.78125 180-191.59375zm0 0" fill="#ccc"/><path d="m344 434.601562v53.398438h-192v-53.398438" fill="#f7931e"/><path d="m152 434.601562h168v53.398438h-168zm0 0" fill="#f9a94b"/><path d="m320 440h-144c-30.929688 0-56-25.070312-56-56v-168c0-26.511719 21.488281-48 48-48h160c26.511719 0 48 21.488281 48 48v168c0 30.929688-25.070312 56-56 56zm0 0" fill="#8b5310"/><path d="m352 384v-168c0-26.511719-21.488281-48-48-48h-136c-26.511719 0-48 21.488281-48 48v168c0 30.929688 25.070312 56 56 56h120c30.929688 0 56-25.070312 56-56zm0 0" fill="#b96e16"/><path d="m120 216h256v176h-256zm0 0" fill="#998675"/><path d="m120 216h232v176h-232zm0 0" fill="#c7b299"/><path d="m217.046875 344c-14.359375 0-26.96875-9.542969-30.855469-23.367188-5.671875-20.144531-.136718-41.824218 14.472656-56.632812l23.671876 24 23.664062-24 23.671875 24 23.671875-24c14.609375 14.816406 20.152344 36.496094 14.472656 56.632812-3.894531 13.824219-16.503906 23.367188-30.863281 23.367188zm0 0" fill="#b2151b"/><path d="m271.671875 312-23.671875-24-23.671875 24-23.671875-24c-7.894531 8.007812-13.039062 18.039062-15.296875 28.734375.273437 1.304687.457031 2.609375.824219 3.898437 3.894531 13.824219 16.503906 23.367188 30.863281 23.367188h61.90625c14.359375 0 26.96875-9.542969 30.855469-23.367188.359375-1.289062.550781-2.601562.824218-3.898437-2.257812-10.695313-7.402343-20.726563-15.296874-28.734375zm0 0" fill="#ed1c24"/><path d="m168 168v-48h160v48" fill="#b96e16"/><path d="m168 120h136v48h-136zm0 0" fill="#f7931e"/><path d="m136 72h224v48h-224zm0 0" fill="#f7931e"/><path d="m136 72h200v48h-200zm0 0" fill="#f9a94b"/><path d="m320 448h-144c-35.289062 0-64-28.710938-64-64v-168c0-30.878906 25.128906-56 56-56h160c30.871094 0 56 25.121094 56 56v168c0 35.289062-28.710938 64-64 64zm-152-272c-22.054688 0-40 17.945312-40 40v168c0 26.472656 21.527344 48 48 48h144c26.472656 0 48-21.527344 48-48v-168c0-22.054688-17.945312-40-40-40zm0 0"/><path d="m344 496h-192c-4.425781 0-8-3.585938-8-8v-53.390625h16v45.390625h176v-45.390625h16v53.390625c0 4.414062-3.574219 8-8 8zm0 0"/><path d="m336 168h-16v-40h-144v40h-16v-48c0-4.414062 3.574219-8 8-8h160c4.425781 0 8 3.585938 8 8zm0 0"/><path d="m360 128h-224c-4.425781 0-8-3.585938-8-8v-48c0-4.414062 3.574219-8 8-8h224c4.425781 0 8 3.585938 8 8v48c0 4.414062-3.574219 8-8 8zm-216-16h208v-32h-208zm0 0"/><path d="m120 384h256v16h-256zm0 0"/><path d="m120 208h256v16h-256zm0 0"/><path d="m278.953125 352h-61.90625c-17.847656 0-33.710937-12-38.558594-29.191406-6.449219-22.898438-.128906-47.585938 16.488281-64.425782 1.496094-1.527343 3.542969-2.382812 5.6875-2.382812 2.144532 0 4.191407.855469 5.695313 2.382812l17.96875 18.226563 17.976563-18.226563c3-3.046874 8.390624-3.046874 11.390624 0l17.976563 18.226563 17.96875-18.226563c3-3.046874 8.390625-3.046874 11.390625 0 16.609375 16.839844 22.929688 41.527344 16.488281 64.425782-4.855469 17.191406-20.710937 29.191406-38.566406 29.191406zm-77.816406-76.128906c-8.59375 12.207031-11.394531 27.890625-7.242188 42.601562 2.90625 10.320313 12.425781 17.527344 23.152344 17.527344h61.90625c10.726563 0 20.246094-7.207031 23.160156-17.535156 4.152344-14.710938 1.351563-30.386719-7.242187-42.59375l-17.503906 17.746094c-3 3.046874-8.390626 3.046874-11.390626 0l-17.976562-18.226563-17.976562 18.226563c-1.503907 1.527343-3.550782 2.382812-5.695313 2.382812s-4.191406-.855469-5.695313-2.382812zm0 0"/><path d="m371.816406 462.929688-8-13.859376c71.664063-41.375 116.183594-118.414062 116.183594-201.070312 0-127.929688-104.078125-232-232-232s-232 104.070312-232 232c0 82.65625 44.519531 159.695312 116.183594 201.070312l-8 13.859376c-76.597656-44.226563-124.183594-126.578126-124.183594-214.929688 0-136.742188 111.246094-248 248-248s248 111.257812 248 248c0 88.351562-47.585938 170.703125-124.183594 214.929688zm0 0"/><path d="m176 464h16v24h-16zm0 0"/><path d="m208 464h16v24h-16zm0 0"/><path d="m240 464h16v24h-16zm0 0"/><path d="m272 464h16v24h-16zm0 0"/><path d="m304 464h16v24h-16zm0 0"/><path d="m85.535156 364.671875c-24.558594-34.144531-37.535156-74.488281-37.535156-116.671875 0-53.296875 20.71875-103.433594 58.335938-141.175781l11.328124 11.296875c-34.601562 34.71875-53.664062 80.847656-53.664062 129.878906 0 38.808594 11.9375 75.921875 34.519531 107.328125zm0 0"/><path d="m410.464844 364.671875-12.984375-9.34375c22.582031-31.40625 34.519531-68.519531 34.519531-107.328125 0-49.03125-19.0625-95.160156-53.664062-129.878906l11.328124-11.296875c37.617188 37.742187 58.335938 87.878906 58.335938 141.175781 0 42.183594-12.976562 82.527344-37.535156 116.671875zm0 0"/></svg>