<svg height="503pt" viewBox="-33 0 503 503.93992" width="503pt" xmlns="http://www.w3.org/2000/svg"><path d="m378.175781 67.480469s-20.480469 34.160156-79.90625 28.453125c-3.527343-.335938-7.21875-.839844-11.078125-1.425782h-136.984375c-11.960937 2.128907-24.164062 2.609376-36.257812 1.425782-40.203125-4.195313-54.726563-28.453125-54.726563-28.453125 23.503906-47.003907 51.117188-56.992188 65.554688-58.753907 3.3125-.480468 6.675781-.480468 9.988281 0h167.867187s41.96875-8.394531 75.542969 58.753907zm0 0" fill="#bb193b"/><path d="m352.996094 67.480469s-14.523438 24.257812-54.726563 28.453125c-12.09375 1.183594-24.296875.703125-36.261719-1.425782h-136.980468c-3.859375.585938-7.554688 1.089844-11.078125 1.425782-40.203125-4.195313-54.726563-28.453125-54.726563-28.453125 23.503906-47.003907 51.117188-56.992188 65.554688-58.753907h152.675781c3.3125-.480468 6.675781-.480468 9.988281 0 14.4375 1.761719 42.050782 11.75 65.554688 58.753907zm0 0" fill="#ef314c"/><path d="m269.058594 8.726562s0 41.96875-50.359375 41.96875-50.359375-41.96875-50.359375-41.96875zm0 0" fill="#4527a0"/><path d="m218.699219 159.808594c50.359375 0 50.359375-8.394532 50.359375-8.394532 33.574218-92.328124 33.574218-142.6875 33.574218-142.6875h-33.574218s0 41.96875-50.359375 41.96875-50.359375-41.96875-50.359375-41.96875h-33.574219s0 50.359376 33.574219 142.6875c0 0 0 8.394532 50.359375 8.394532zm0 0" fill="#673ab7"/><path d="m302.632812 8.726562s0 50.359376-33.574218 142.6875c0 0 0 8.394532-50.359375 8.394532-4.53125 0-8.644531-.082032-12.339844-.167969 37.519531-1.34375 37.519531-8.226563 37.519531-8.226563 33.574219-92.328124 33.574219-142.6875 33.574219-142.6875zm0 0" fill="#4527a0"/><path d="m269.058594 151.414062s159.476562 8.394532 159.476562 302.164063c0 0-33.574218 41.96875-209.835937 41.96875s-209.835938-41.96875-209.835938-41.96875c0-293.769531 159.476563-302.164063 159.476563-302.164063zm0 0" fill="#894b9d"/><path d="m428.535156 453.578125s-33.574218 41.96875-209.835937 41.96875c-3.105469 0-6.128907 0-9.066407-.085937h-7.046874c-162.246094-2.515626-193.722657-41.882813-193.722657-41.882813 0-293.769531 159.476563-302.164063 159.476563-302.164063h100.71875s159.476562 8.394532 159.476562 302.164063zm0 0" fill="#6a1b9a"/><path d="m403.355469 453.578125s-31.476563 39.367187-193.722657 41.882813h-7.046874c-162.246094-2.515626-193.722657-41.882813-193.722657-41.882813 0-293.769531 159.476563-302.164063 159.476563-302.164063h75.539062s73.191406 3.863282 120.363282 97.699219h.082031c9.234375 18.703125 16.601562 38.269531 21.992187 58.421875 12.117188 47.710938 17.847656 96.824219 17.039063 146.042969zm0 0" fill="#9d27b0"/><path d="m406.042969 289.488281c-4.21875 8.171875-11.210938 14.570313-19.726563 18.046875-5.390625-20.152344-12.757812-39.71875-21.992187-58.421875 8.054687 2.570313 16.765625 2.121094 24.511719-1.257812 6.785156 13.417969 12.539062 27.335937 17.207031 41.632812zm0 0" fill="#f57c00"/><path d="m386.316406 307.535156c-8.949218 2.921875-18.660156 2.445313-27.277344-1.34375-11.585937-4.839844-22.171874-11.785156-31.226562-20.480468 0 0 0 41.964843-50.359375 41.964843s-58.753906-58.753906-58.753906-58.753906-8.394531 58.753906-58.753907 58.753906c-50.359374 0-50.359374-41.964843-50.359374-41.964843-9.054688 8.695312-19.640626 15.640624-31.226563 20.480468-8.433594 4.097656-18.164063 4.636719-27 1.496094s-16.042969-9.699219-20-18.199219c4.117187-12.628906 9.082031-24.96875 14.855469-36.933593.839844-1.59375 1.59375-3.1875 2.347656-4.699219 18.886719 8.8125 40.792969-4.53125 52.542969-13.597657 2.960937-2.273437 5.792969-4.710937 8.480469-7.300781 0 0 0 41.964844 50.359374 41.964844 50.359376 0 58.753907-58.753906 58.753907-58.753906s8.394531 58.753906 58.753906 58.753906 50.359375-41.964844 50.359375-41.964844c2.6875 2.589844 5.519531 5.027344 8.480469 7.300781 8.316406 6.636719 17.792969 11.675782 27.949219 14.855469h.082031c9.234375 18.703125 16.601562 38.269531 21.992187 58.421875zm0 0" fill="#ff9801"/><path d="m218.699219 168.203125c-38.203125 0-56.507813-4.578125-58.558594-14.773437-33.382813-92.113282-33.769531-142.59375-33.769531-144.703126 0-4.636718 3.757812-8.394531 8.394531-8.394531h33.574219c4.632812 0 8.390625 3.757813 8.390625 8.394531.042969 3.390626 1.609375 33.574219 41.96875 33.574219s41.925781-30.183593 41.96875-33.625c.054687-4.605469 3.789062-8.316406 8.390625-8.34375h33.574218c4.636719 0 8.394532 3.757813 8.394532 8.394531 0 2.109376-.386719 52.589844-33.769532 144.703126-2.050781 10.195312-20.351562 14.773437-58.558593 14.773437zm-43.015625-21.160156c2.664062 1.203125 12.566406 4.371093 43.015625 4.371093s40.351562-3.167968 43.015625-4.371093c16.128906-41.777344 26.890625-85.433594 32.023437-129.921875h-17.125c-3.433593 17.871094-18.171875 41.964844-57.914062 41.964844-39.742188 0-54.484375-24.09375-57.914063-41.964844h-17.125c5.132813 44.488281 15.894532 88.144531 32.023438 129.921875zm84.992187 4.078125-.007812.203125zm-83.953125 0 .007813.203125zm0 0"/><path d="m218.699219 503.941406c-178.246094 0-214.917969-43.277344-216.394531-45.121094-1.1875-1.488281-1.835938-3.335937-1.835938-5.242187 0-298.300781 160.589844-310.183594 167.425781-310.542969 3.023438-.207031 5.921875 1.234375 7.582031 3.765625 1.664063 2.53125 1.835938 5.761719.449219 8.453125s-4.117187 4.425782-7.144531 4.542969c-6.128906.367187-150.285156 12.289063-151.515625 290.210937 9.054687 7.441407 54.441406 37.144532 201.433594 37.144532 146.589843 0 192.125-29.542969 201.433593-37.175782-1.230468-277.921874-145.382812-289.8125-151.546874-290.179687-4.617188-.277344-8.140626-4.234375-7.886719-8.851563.097656-2.226562 1.085937-4.316406 2.742187-5.804687s3.839844-2.246094 6.0625-2.105469c6.835938.359375 167.425782 12.242188 167.425782 310.542969 0 1.90625-.648438 3.753906-1.835938 5.242187-1.476562 1.84375-38.148438 45.121094-216.394531 45.121094zm0 0"/><path d="m269.058594 17.121094h-100.71875c-4.636719 0-8.394532-3.757813-8.394532-8.394532 0-4.636718 3.757813-8.394531 8.394532-8.394531h100.71875c4.636718 0 8.394531 3.757813 8.394531 8.394531 0 4.636719-3.757813 8.394532-8.394531 8.394532zm0 0"/><path d="m125.988281 105.015625c-53.347656 0-73.035156-31.679687-73.960937-33.21875-1.472656-2.460937-1.589844-5.503906-.3125-8.070313 36.015625-72.03125 82.722656-63.6445308 84.699218-63.226562 4.550782.886719 7.519532 5.292969 6.636719 9.84375-.886719 4.550781-5.292969 7.523438-9.84375 6.636719-1.605469-.300781-34.792969-5.179688-64.105469 49.664062 7.292969 8.308594 30.203126 27.847657 79.730469 19.589844 2.980469-.546875 6.03125.554687 7.96875 2.886719 1.941407 2.332031 2.472657 5.527344 1.390625 8.359375-1.078125 2.835937-3.605468 4.867187-6.605468 5.3125-8.457032 1.441406-17.019532 2.1875-25.597657 2.222656zm0 0"/><path d="m311.414062 105.015625c-8.582031-.035156-17.144531-.78125-25.601562-2.226563-3-.445312-5.527344-2.476562-6.609375-5.3125-1.082031-2.832031-.546875-6.03125 1.390625-8.359374 1.941406-2.332032 4.988281-3.4375 7.972656-2.886719 49.492188 8.265625 72.394532-11.238281 79.722656-19.59375-29.386718-54.988281-62.664062-49.882813-64.117187-49.660157-4.535156.792969-8.867187-2.199218-9.734375-6.722656-.863281-4.496094 2.058594-8.847656 6.546875-9.753906 1.984375-.4101562 48.683594-8.800781 84.699219 63.230469 1.28125 2.566406 1.164062 5.609375-.3125 8.070312-.925782 1.535157-20.625 33.214844-73.957032 33.214844zm0 0"/><path d="m159.945312 336.070312c-34.566406 0-50.210937-18.214843-55.96875-34.722656-11.269531 8.296875-29.277343 18.539063-47.382812 16.179688-14.050781-2.207032-26.164062-11.085938-32.492188-23.820313-1.601562-2.597656-1.667968-5.859375-.171874-8.515625 1.492187-2.660156 4.3125-4.300781 7.363281-4.28125 3.050781.015625 5.851562 1.6875 7.316406 4.363282 3.785156 8.160156 11.292969 13.980468 20.144531 15.605468 17.402344 2.265625 38.253906-14.472656 44.894532-21.101562 2.398437-2.402344 6.011718-3.121094 9.148437-1.824219 3.136719 1.300781 5.183594 4.363281 5.179687 7.757813.042969 3.390624 1.609376 33.574218 41.96875 33.574218 42.589844 0 50.148438-49.445312 50.445313-51.550781.65625-4.589844 4.90625-7.777344 9.496094-7.121094 4.589843.65625 7.777343 4.910157 7.121093 9.5-3.257812 22.808594-21.472656 65.957031-67.0625 65.957031zm0 0"/><path d="m277.453125 336.070312c-45.589844 0-63.804687-43.148437-67.0625-65.957031-.660156-4.589843 2.523437-8.847656 7.113281-9.507812 4.585938-.660157 8.84375 2.523437 9.503906 7.113281.308594 2.105469 8.078126 51.566406 50.445313 51.566406 40.359375 0 41.925781-30.183594 41.96875-33.628906.039063-3.371094 2.09375-6.394531 5.210937-7.675781 3.121094-1.285157 6.707032-.582031 9.109376 1.789062 6.671874 6.632813 27.664062 23.371094 44.925781 21.105469 8.839843-1.632812 16.339843-7.445312 20.121093-15.601562 1.464844-2.675782 4.265626-4.347657 7.316407-4.363282 3.050781-.019531 5.871093 1.621094 7.363281 4.28125 1.496094 2.65625 1.429688 5.917969-.171875 8.515625-6.328125 12.734375-18.441406 21.613281-32.492187 23.820313-18.089844 2.363281-36.105469-7.882813-47.382813-16.175782-5.753906 16.503907-21.402344 34.71875-55.96875 34.71875zm0 0"/><path d="m159.945312 277.316406c-34.558593 0-50.210937-18.214844-55.96875-34.714844-13.671874 10.054688-37.265624 22.972657-58.957031 12.863282-4.203125-1.960938-6.019531-6.953125-4.058593-11.15625 1.960937-4.199219 6.957031-6.015625 11.15625-4.058594 21.378906 10.003906 51.238281-18.933594 51.535156-19.226562 2.402344-2.398438 6.011718-3.117188 9.144531-1.816407 3.136719 1.296875 5.179687 4.355469 5.179687 7.75.042969 3.386719 1.609376 33.574219 41.96875 33.574219 42.589844 0 50.148438-49.445312 50.445313-51.550781.425781-2.96875 2.398437-5.484375 5.183594-6.601563 2.78125-1.117187 5.949219-.664062 8.308593 1.1875 2.359376 1.851563 3.550782 4.824219 3.125 7.792969-3.257812 22.808594-21.472656 65.957031-67.0625 65.957031zm0 0"/><path d="m277.453125 277.316406c-45.589844 0-63.804687-43.148437-67.0625-65.957031-.65625-4.589844 2.53125-8.84375 7.121094-9.5 4.589843-.65625 8.839843 2.53125 9.496093 7.121094.308594 2.089843 8.078126 51.550781 50.445313 51.550781 40.359375 0 41.925781-30.1875 41.96875-33.628906.039063-3.371094 2.09375-6.394532 5.210937-7.675782 3.121094-1.285156 6.707032-.582031 9.109376 1.789063 8.234374 8.1875 33.539062 27.609375 51.539062 19.234375 4.203125-1.957031 9.195312-.140625 11.15625 4.058594 1.960938 4.203125.144531 9.195312-4.058594 11.15625-21.679687 10.089844-45.292968-2.8125-58.957031-12.863282-5.753906 16.5-21.410156 34.714844-55.96875 34.714844zm0 0"/><path d="m218.699219 168.203125c-4.636719 0-8.394531-3.757813-8.394531-8.394531v-41.96875c0-4.632813 3.757812-8.390625 8.394531-8.390625s8.394531 3.757812 8.394531 8.390625v41.96875c0 4.636718-3.757812 8.394531-8.394531 8.394531zm0 0"/><path d="m218.699219 168.203125c-2.226563 0-4.363281-.882813-5.933594-2.460937l-25.179687-25.179688c-3.183594-3.292969-3.136719-8.527344.101562-11.765625s8.472656-3.285156 11.765625-.101563l19.246094 19.246094 19.246093-19.246094c3.292969-3.183593 8.527344-3.136718 11.765626.101563 3.238281 3.238281 3.285156 8.472656.101562 11.765625l-25.179688 25.179688c-1.570312 1.578124-3.707031 2.460937-5.933593 2.460937zm0 0"/></svg>