<svg height="512" viewBox="0 0 512 512" width="512" xmlns="http://www.w3.org/2000/svg"><g id="filled_outline" data-name="filled outline"><path d="m266.534 321.252 189.466-265.252-175.352 91.851z" fill="#fbb540"/><path d="m168.745 397.455-112.745-173.455 64 18.286 97.264 69.714z" fill="#fd9226"/><path d="m138.387 27.242a61.356 61.356 0 0 1 61.357 61.358v20.464a0 0 0 0 1 0 0h-122.713a0 0 0 0 1 0 0v-20.464a61.356 61.356 0 0 1 61.356-61.356z" fill="#428dc5" transform="matrix(.842 -.54 .54 .842 -14.895 85.484)"/><path d="m360 368v-72.2a42 42 0 0 0 -2.8-15.08l-22.72-59.08a233.85 233.85 0 0 0 -40.73-68.26l-.03-.04a54 54 0 0 0 -54.1-17.25l-16.56 4.14-9.85 2.46-5.21 1.31-.8.3-53.86 20.2-9.34 3.5-24 40 33.88 39.53 7.3 8.52a84.925 84.925 0 0 1 11.5 17.32l3.32 6.63 15.34 30.69.66 1.31-8 40a120 120 0 0 0 -24 72v24h168v-40h48v-21.515a6 6 0 0 0 -1.757-4.242zm-72-56-8.78-31.61-4.55-16.39a47.533 47.533 0 0 0 -.8-47.54l13.09 21.81 25.04 41.73 16 80z" fill="#f6bb92"/><path d="m24 448h464v40.343h-464z" fill="#8f563b"/><path d="m24 472h464v16.343h-464z" fill="#744630"/><path d="m208 304-7.69 3.07-32.31 4.93-16.38-12.47-15.62-19.53-16.81-21.01a38.01 38.01 0 0 1 -4.32-40.74l5.13-10.25 2.96-5.93 5.04-10.07 16-24 48 80z" fill="#f6bb92"/><path d="m336 448h-176v-24a120 120 0 0 1 24-72h33.35a82.384 82.384 0 0 0 70.65-40l8.64 10.36 31.36 37.64 3.64 48z" fill="#fd8ea9"/><path d="m336 448h-160v-24a120 120 0 0 1 24-72h17.35a82.384 82.384 0 0 0 70.65-40l8.64 10.36 31.36 37.64 3.64 48z" fill="#f388a2"/><path d="m458.343 87.6-33.943-33.943 22.627-22.628a24 24 0 0 1 33.942 0 24 24 0 0 1 0 33.942z" fill="#c3c3c3"/><path d="m43.3 195.508a16 16 0 0 1 16 16v24a0 0 0 0 1 0 0h-32a0 0 0 0 1 0 0v-24a16 16 0 0 1 16-16z" fill="#c3c3c3" transform="matrix(.564 -.826 .826 .564 -159.083 129.729)"/><path d="m440.006 280a8 8 0 0 1 -3.584-15.157l11.578-5.787v-27.056h-24v24a8 8 0 0 1 -4.422 7.155l-16 8a8 8 0 0 1 -7.156-14.31l11.578-5.789v-27.056a8 8 0 0 1 8-8h40a8 8 0 0 1 8 8v40a8 8 0 0 1 -4.422 7.155l-16 8a7.973 7.973 0 0 1 -3.572.845z" fill="#6cbae5"/><path d="m440.006 280a8 8 0 0 1 -3.584-15.157l11.578-5.787v-27.056h-24v24a8 8 0 0 1 -4.422 7.155l-16 8a8 8 0 0 1 -7.156-14.31l11.578-5.789v-27.056a8 8 0 0 1 8-8h40a8 8 0 0 1 8 8v40a8 8 0 0 1 -4.422 7.155l-16 8a7.973 7.973 0 0 1 -3.572.845z" fill="#6cbae5"/><path d="m272 88a8 8 0 0 1 -5.7-13.608l9.075-9.231-8.775-25.594a8 8 0 0 1 4.972-10.162l37.828-12.972a8 8 0 0 1 10.162 4.972l12.978 37.838a8 8 0 0 1 -1.862 8.2l-12.54 12.757a8 8 0 1 1 -11.41-11.217l9.074-9.23-8.775-25.594-22.7 7.783 7.784 22.7a8 8 0 0 1 -1.862 8.2l-12.544 12.766a7.977 7.977 0 0 1 -5.705 2.392z" fill="#f55648"/><path d="m40.006 368a8 8 0 0 1 -3.584-15.157l11.578-5.787v-19.056a8 8 0 0 1 4.422-7.155l16-8a8 8 0 1 1 7.156 14.31l-11.578 5.789v19.056a8 8 0 0 1 -4.422 7.155l-16 8a7.973 7.973 0 0 1 -3.572.845z" fill="#f55648"/><path d="m328 408h120v40h-120z" fill="#a8a8a8"/><path d="m56 408h120v40h-120z" fill="#a8a8a8"/><path d="m328 432h120v16h-120z" fill="#878787"/><path d="m56 432h120v16h-120z" fill="#878787"/><path d="m201.17 300.75a23.45 23.45 0 0 1 -.86 6.32 31.993 31.993 0 0 1 -45.175-3.436l-3.515-4.1-28.66-97.46 5.04-10.074 12-18 22.56 33.84a258.843 258.843 0 0 1 32.55 69.18l5.04 16.8a24.286 24.286 0 0 1 1.02 6.93z" fill="#e8b18b"/><path d="m196.129 163.094a32 32 0 0 1 -44.211-9.664l-21.592-33.671 13.982-37.477 44.211 9.664 17.273 26.937a32 32 0 0 1 -9.663 44.211z" fill="#f6bb92"/><path d="m199.33 176.95a32 32 0 0 1 -44.21-9.67l-1.78-2.78 53.86-20.2.8-.3 5.21-1.31a32.01 32.01 0 0 1 -13.88 34.26z" fill="#e8b18b"/><path d="m210.22 135.05-43.707 28.028a29 29 0 0 1 -40.066-8.758l-15.136-23.6a54.96 54.96 0 0 1 16.6-75.933 54.959 54.959 0 0 1 75.933 16.6l15.136 23.6a29 29 0 0 1 -8.76 40.063z" fill="#70400e"/><rect fill="#6cbae5" height="48" rx="10" transform="matrix(.842 -.54 .54 .842 -2.824 131.07)" width="32" x="206.19" y="46.353"/><rect fill="#6cbae5" height="48" rx="10" transform="matrix(.842 -.54 .54 .842 -61.885 78.285)" width="32" x="86.609" y="120.717"/><path d="m255.81 223.62a8.008 8.008 0 0 1 -10.73-3.58l-37.88-75.74.8-.3 15.06-3.77 36.33 72.65a8.017 8.017 0 0 1 -3.58 10.74z" fill="#de9a9e"/><path d="m274.67 264 4.55 16.39-3.7 1.85q-6.42 3.21-12.96 6.13a324.028 324.028 0 0 1 -71.22 22.32l-15.34-30.69-3.32-6.63a84.925 84.925 0 0 0 -11.5-17.32l-7.3-8.52 62.12-15.53 32.68-21.79 15.32-10.21 9.87 16.46a47.533 47.533 0 0 1 .8 47.54z" fill="#fd8ea9"/><path d="m258.02 272 4.54 16.37a324.028 324.028 0 0 1 -71.22 22.32l-15.34-30.69-3.32-6.63a84.925 84.925 0 0 0 -11.5-17.32l-7.3-8.52 62.12-15.53 32.68-21.79 8.54 14.25a47.533 47.533 0 0 1 .8 47.54z" fill="#f388a2"/><path d="m128 192 33.981 115.536a24.08 24.08 0 0 0 27.06 16.957 24.08 24.08 0 0 0 19.106-30.671l-5.042-16.8a258.718 258.718 0 0 0 -32.543-69.175l-26.562-39.847-28.892-43.338a2.74 2.74 0 0 0 -4.88.654l-11.037 33.111a14 14 0 0 0 4.882 15.627z" fill="#f6bb92"/><path d="m196.131 163.1a32.007 32.007 0 0 1 -44.21-9.66l-21.6-33.68 3.27-8.77 10.72-28.7 44.21 9.66 17.27 26.94a32.005 32.005 0 0 1 -9.66 44.21z" fill="#f6bb92"/><path d="m488 440h-32v-32a8 8 0 0 0 -8-8h-64v-13.51a13.918 13.918 0 0 0 -4.1-9.907l-11.9-11.9v-68.883a49.831 49.831 0 0 0 -3.333-17.952l-20.055-52.141 100.221-140.307 7.853 7.853a8 8 0 0 0 11.314 0l22.628-22.628a32 32 0 1 0 -45.256-45.254l-22.627 22.629a8 8 0 0 0 0 11.314l4.706 4.707-137.551 72.049a61.653 61.653 0 0 0 -48.218-7.741l-12.055 3.016a36.134 36.134 0 0 0 5.278-29.066 18.2 18.2 0 0 0 3.511-1.75l10.1-6.477a18 18 0 0 0 5.435-24.868l-15.115-23.571a18.021 18.021 0 0 0 -24.87-5.435l-5.229 3.353a69.352 69.352 0 0 0 -117.319 72.905l-7.136 4.579a18.024 18.024 0 0 0 -5.435 24.875l15.134 23.592a18.136 18.136 0 0 0 2.969 3.5 21.984 21.984 0 0 0 6.322 7.475l18.586 13.938-10.145 20.284a45.964 45.964 0 0 0 -4.455 14.5l-29.609-8.456 1.8-2.637a8 8 0 0 0 -2.095-11.118l-19.817-13.535a24 24 0 1 0 -27.07 39.638l19.818 13.535a8 8 0 0 0 11.115-2.094l1.224-1.792 94.665 145.64a7.948 7.948 0 0 0 3.017 2.734q-1.176 4.412-2.028 8.906h-98.278a8 8 0 0 0 -8 8v32h-24a8 8 0 0 0 -8 8v40.343a8 8 0 0 0 8 8h464a8 8 0 0 0 8-8v-40.343a8 8 0 0 0 -8-8zm-435.769-216.286c-.04.058-.08.115-.118.174l-3.413 4.994-13.21-9.024a8 8 0 0 1 9.024-13.212l13.212 9.023zm387.769 192.286v24h-104v-24zm12.686-379.313a16 16 0 1 1 22.627 22.626l-16.97 16.971-22.627-22.627zm-22.7 41.973-92.45 129.426a241.105 241.105 0 0 0 -37.6-59.782c-.046-.058-.094-.115-.142-.17-.254-.3-.517-.583-.776-.874zm-188.426 65.192a45.743 45.743 0 0 1 45.98 14.571c.045.056.09.11.137.164a225.254 225.254 0 0 1 39.334 65.913l1.071 2.786c.021.058.044.115.066.172l21.585 56.13a33.893 33.893 0 0 1 2.267 12.212v72.2a8 8 0 0 0 2.343 5.657l13.657 13.656v12.687h-32v-40c0-.25-.014-.5-.037-.745-.007-.083-.022-.165-.032-.248-.021-.164-.043-.328-.073-.49-.006-.028-.007-.058-.013-.086l-16-80a7.993 7.993 0 0 0 -.985-2.546l-7.3-12.164c-.025-.042-.049-.084-.075-.126l-40.626-67.709a7.992 7.992 0 0 0 -10.592-2.951c-.066.032-.137.071-.208.11s-.118.059-.175.094-.106.073-.161.107-.1.058-.163.1l-7.459 4.973-25.377-50.755zm-65.56 256.148h-5.384a112.241 112.241 0 0 1 17.476-40h29.261a90.917 90.917 0 0 0 71.247-34.79l31.4 37.69v77.1h-136v-32a8 8 0 0 0 -8-8zm91.677-139.885a7.991 7.991 0 0 0 -.715 6.025l2.784 10.023a316.151 316.151 0 0 1 -52.878 20.266 32.2 32.2 0 0 0 -1.058-4.906l-9.793-32.644a156.163 156.163 0 0 0 -5.294-14.814l17.217-4.3a7.983 7.983 0 0 0 2.5-1.1l41.018-27.346 5.565 9.275-.01-.008a39.633 39.633 0 0 1 .664 39.529zm-55.366 57.585a32.058 32.058 0 0 0 2.115-4.025 331.984 331.984 0 0 0 59.674-21.839l2.012 7.244v.007l3.229 11.628a74.791 74.791 0 0 1 -61.988 33.285h-23.595l2.651-13.256a32.085 32.085 0 0 0 15.902-13.044zm74.756-38.958-3.851-13.868a55.28 55.28 0 0 0 3.853-10.874l8.071 13.451zm17.048 3.663.312.519 9.55 47.749-18.729-22.473-2.677-9.639zm-65.429-75.147-25.97 17.314-19.016 4.758c-2.254-4.153-4.674-8.22-7.3-12.165l-33.16-49.738c0-.187-.011-.373-.026-.561a39.783 39.783 0 0 0 17.107 8.368 40.408 40.408 0 0 0 8.622.936 40.084 40.084 0 0 0 34.37-19.67zm-99.467-88.453 10.159-27.229 34.2 7.475 15.48 24.149a23.848 23.848 0 0 1 3.775 11.845c0 .072.007.144.012.216a24.182 24.182 0 0 1 -.543 6.019 24 24 0 0 1 -43.65 7.831zm68.409-57.425a1.964 1.964 0 0 1 .876-1.256l10.1-6.478a2 2 0 0 1 2.764.6l15.114 23.571a2 2 0 0 1 -.6 2.762l-10.1 6.478a2 2 0 0 1 -2.762-.6l-15.12-23.57a1.969 1.969 0 0 1 -.272-1.507zm-14.044 9.525a44.679 44.679 0 0 1 3.362 4.555l12.6 19.641c.017.027.035.054.054.082l3.186 4.968a19.84 19.84 0 0 1 2.7 15.057 20.073 20.073 0 0 1 -.909 2.952 40.837 40.837 0 0 0 -2.053-3.6l-17.271-26.933a8 8 0 0 0 -5.026-3.5l-44.211-9.663a8 8 0 0 0 -9.2 5.018l-13.986 37.48a7.991 7.991 0 0 0 -.344 4.345l-3.83-5.745a7.994 7.994 0 0 0 -6.753-3.55 46.963 46.963 0 0 1 81.681-41.107zm-72.967-30.46a53.33 53.33 0 0 1 61.083 2.437 63.043 63.043 0 0 0 -85.583 44.286 53.4 53.4 0 0 1 24.5-46.723zm-26.049 106.555-6.253-9.746a2.007 2.007 0 0 1 .605-2.771l10.101-6.483a1.926 1.926 0 0 1 .766-.288 1.992 1.992 0 0 1 1.148.182zm14.305 20.655a6 6 0 0 1 -2.092-6.7l7.636-22.908 58.662 87.992a139.929 139.929 0 0 1 17.611 37.437l9.793 32.644a15.9 15.9 0 0 1 .2 8.544c-.032.107-.069.212-.1.321a16.2 16.2 0 0 1 -1.86 4.257 15.869 15.869 0 0 1 -11 7.359 16.092 16.092 0 0 1 -18.07-11.325l-33.978-115.534c-.009-.031-.025-.058-.034-.089a8.181 8.181 0 0 0 -.4-1.037c-.029-.062-.061-.121-.091-.181a8.106 8.106 0 0 0 -.579-1 8.121 8.121 0 0 0 -.744-.908c-.042-.044-.082-.088-.124-.131a7.868 7.868 0 0 0 -.863-.763c-.015-.011-.027-.025-.041-.036zm36.264 110.962-19.7-24.625a29.869 29.869 0 0 1 -6.353-15.183l-.006-.053a29.8 29.8 0 0 1 2.945-16.926l4.038-8.071zm-70.776-41.051 29.821 8.517a45.864 45.864 0 0 0 8.761 17.905l48.81 61.012a8 8 0 0 0 6.247 3c.061 0 .122-.007.183-.009a32.129 32.129 0 0 0 11.582 4.381l-3.262 16.308a127.962 127.962 0 0 0 -13.979 24.52zm-10.361 178.434h104v24h-104zm416 64.343h-448v-24.343h448z"/><path d="m436.422 264.845a8 8 0 1 0 7.156 14.31l16-8a8 8 0 0 0 4.422-7.155v-40a8 8 0 0 0 -8-8h-40a8 8 0 0 0 -8 8v27.056l-11.578 5.789a8 8 0 0 0 7.156 14.31l16-8a8 8 0 0 0 4.422-7.155v-24h24v27.056z"/><path d="m306.824 80.3a8 8 0 0 0 11.314-.1l12.54-12.757a8 8 0 0 0 1.862-8.2l-12.973-37.838a8 8 0 0 0 -10.167-4.972l-37.833 12.972a8 8 0 0 0 -4.967 10.162l8.775 25.594-9.075 9.231a8 8 0 1 0 11.41 11.216l12.541-12.756a8 8 0 0 0 1.862-8.2l-7.784-22.7 22.7-7.783 8.771 25.587-9.074 9.23a8 8 0 0 0 .098 11.314z"/><path d="m40.006 368a7.973 7.973 0 0 0 3.572-.847l16-8a8 8 0 0 0 4.422-7.153v-19.056l11.578-5.789a8 8 0 1 0 -7.156-14.31l-16 8a8 8 0 0 0 -4.422 7.155v19.056l-11.578 5.789a8 8 0 0 0 3.584 15.155z"/></g></svg>