<?xml version="1.0" encoding="iso-8859-1"?>
<!-- Generator: Adobe Illustrator 19.0.0, SVG Export Plug-In . SVG Version: 6.00 Build 0)  -->
<svg version="1.1" id="Layer_1" xmlns="http://www.w3.org/2000/svg" xmlns:xlink="http://www.w3.org/1999/xlink" x="0px" y="0px"
	 viewBox="0 0 504.026 504.026" style="enable-background:new 0 0 504.026 504.026;" xml:space="preserve">
<g transform="translate(1 1)">
	<g>
		<path style="fill:#FFE100;" d="M351.525,166.869c-5.036,0-8.393-3.357-8.393-8.393v-25.18c0-5.036,3.357-8.393,8.393-8.393
			s8.393,3.357,8.393,8.393v25.18C359.918,163.511,356.561,166.869,351.525,166.869z"/>
		<path style="fill:#FFE100;" d="M376.705,141.689h-50.361c-5.036,0-8.393-3.357-8.393-8.393c0-5.036,3.357-8.393,8.393-8.393
			h50.361c5.036,0,8.393,3.357,8.393,8.393C385.098,138.331,381.741,141.689,376.705,141.689z"/>
		<path style="fill:#FFE100;" d="M49.361,108.115c-5.036,0-8.393-3.357-8.393-8.393v-25.18c0-5.036,3.357-8.393,8.393-8.393
			s8.393,3.357,8.393,8.393v25.18C57.754,104.757,54.397,108.115,49.361,108.115z"/>
		<path style="fill:#FFE100;" d="M150.082,108.115c-5.036,0-8.393-3.357-8.393-8.393v-25.18c0-5.036,3.357-8.393,8.393-8.393
			s8.393,3.357,8.393,8.393v25.18C158.475,104.757,155.118,108.115,150.082,108.115z"/>
		<path style="fill:#FFE100;" d="M40.967,7.393L22.502,40.967c-6.715,13.43,1.679,31.895,15.948,33.574c0.839,0,1.679,0,2.518,0
			c0.839,0,1.679,0,2.518,0c15.108-1.679,23.502-19.305,15.948-33.574L40.967,7.393z"/>
		<path style="fill:#FFE100;" d="M141.689,7.393l-18.466,33.574c-6.715,13.43,1.679,31.895,15.948,33.574c0.839,0,1.679,0,2.518,0
			c0.839,0,1.679,0,2.518,0c15.108-1.679,23.502-19.305,15.948-33.574L141.689,7.393z"/>
	</g>
	<g>
		<polygon style="fill:#FDCC00;" points="24.18,175.262 57.754,175.262 57.754,99.721 24.18,99.721 		"/>
		<polygon style="fill:#FDCC00;" points="124.902,175.262 158.475,175.262 158.475,99.721 124.902,99.721 		"/>
	</g>
	<g>
		<path style="fill:#63D3FD;" d="M74.541,242.41c0-9.233-7.554-16.787-16.787-16.787c0-16.787,8.393-33.574,8.393-50.361H15.787
			c0,16.787,8.393,33.574,8.393,50.361c-9.233,0-16.787,7.554-16.787,16.787s7.554,16.787,16.787,16.787v50.361
			c-8.393,0-16.787,16.787-16.787,25.18h67.148c0-8.393-8.393-25.18-16.787-25.18v-50.361
			C66.987,259.197,74.541,251.643,74.541,242.41"/>
		<path style="fill:#63D3FD;" d="M175.262,242.41c0-9.233-7.554-16.787-16.787-16.787c0-16.787,8.393-33.574,8.393-50.361h-50.361
			c0,16.787,8.393,33.574,8.393,50.361c-9.233,0-16.787,7.554-16.787,16.787s7.554,16.787,16.787,16.787v50.361
			c-8.393,0-16.787,16.787-16.787,25.18h67.148c0-8.393-8.393-25.18-16.787-25.18v-50.361
			C167.708,259.197,175.262,251.643,175.262,242.41"/>
	</g>
	<g>
		<polygon style="fill:#FFE100;" points="494.213,292.77 192.049,292.77 216.39,334.738 469.872,334.738 		"/>
		<path style="fill:#FFE100;" d="M477.426,292.77c0-73.862-60.433-134.295-134.295-134.295S208.836,218.908,208.836,292.77H477.426z
			"/>
	</g>
	<g>
		<polygon style="fill:#FFA800;" points="469.033,292.77 444.692,334.738 469.872,334.738 494.213,292.77 		"/>
		<path style="fill:#FFA800;" d="M343.131,158.475c-4.197,0-8.393,0-12.59,0.839c68.826,5.875,121.705,63.79,121.705,133.456h25.18
			C477.426,218.908,417.833,158.475,343.131,158.475"/>
	</g>
	<path style="fill:#FFE100;" d="M461.479,494.213H40.128c-17.626,0-32.734-14.269-32.734-32.734V334.738h486.82v126.741
		C494.213,479.944,479.944,494.213,461.479,494.213"/>
	<path style="fill:#FFA800;" d="M469.033,334.738v126.741c0,18.466-14.269,32.734-32.734,32.734h25.18
		c18.466,0,32.734-14.269,32.734-32.734V334.738H469.033z"/>
	<path style="fill:#FFFFFF;" d="M32.574,334.738v126.741c0,18.466,15.108,32.734,32.734,32.734h-25.18
		c-17.626,0-32.734-14.269-32.734-32.734V334.738H32.574z"/>
	<path d="M469.872,343.131H216.39c-3.357,0-5.875-1.679-7.554-4.197l-24.341-41.967c-1.679-2.518-1.679-5.875,0-8.393
		s5.036-4.197,7.554-4.197h302.164c3.357,0,5.875,1.679,7.554,4.197c1.679,2.518,1.679,5.875,0,8.393l-24.341,41.967
		C475.747,341.452,473.229,343.131,469.872,343.131z M221.426,326.344h243.41l15.108-25.18H207.157L221.426,326.344z"/>
	<path d="M343.131,166.869c-5.036,0-8.393-3.357-8.393-8.393v-25.18c0-5.036,3.357-8.393,8.393-8.393
		c5.036,0,8.393,3.357,8.393,8.393v25.18C351.525,163.511,348.167,166.869,343.131,166.869z"/>
	<path d="M368.311,141.689h-50.361c-5.036,0-8.393-3.357-8.393-8.393c0-5.036,3.357-8.393,8.393-8.393h50.361
		c5.036,0,8.393,3.357,8.393,8.393C376.705,138.331,373.348,141.689,368.311,141.689z"/>
	<path d="M477.426,301.164h-268.59c-5.036,0-8.393-3.357-8.393-8.393c0-78.898,63.79-142.689,142.689-142.689
		S485.82,213.872,485.82,292.77C485.82,297.807,482.462,301.164,477.426,301.164z M218.069,284.377h250.964
		c-4.197-65.469-58.754-117.508-125.902-117.508S222.266,218.908,218.069,284.377z"/>
	<path d="M276.823,225.623c-2.518,0-5.036-0.839-6.715-2.518c-3.357-3.357-2.518-8.393,0.839-11.751
		c20.144-17.626,45.325-27.698,72.184-27.698c5.036,0,8.393,3.357,8.393,8.393s-3.357,8.393-8.393,8.393
		c-22.662,0-44.485,8.393-61.272,23.502C281.02,224.784,278.502,225.623,276.823,225.623z"/>
	<path d="M74.541,343.131H7.393c-5.036,0-8.393-3.357-8.393-8.393c0-9.233,6.715-25.18,16.787-31.056v-37.77
		C5.715,262.554-1,253.321-1,242.41s6.715-20.144,15.948-23.502c-0.839-5.036-1.679-10.911-3.357-15.948
		c-1.679-9.233-4.197-18.466-4.197-27.698c0-5.036,3.357-8.393,8.393-8.393h50.361c5.036,0,8.393,3.357,8.393,8.393
		c0,9.233-2.518,18.466-4.197,26.859c-1.679,5.875-2.518,10.911-3.357,15.948c9.233,4.197,15.948,13.43,15.948,24.341
		s-6.715,20.144-16.787,23.502v37.77c10.072,5.875,16.787,21.823,16.787,31.056C82.934,339.774,79.577,343.131,74.541,343.131z
		 M18.305,326.344H63.63c-1.679-4.197-5.036-7.554-6.715-8.393c-4.197,0-7.554-3.357-7.554-8.393v-50.361
		c0-5.036,3.357-8.393,8.393-8.393s8.393-3.357,8.393-8.393c0-5.036-3.357-8.393-8.393-8.393s-8.393-3.357-8.393-8.393
		c0-9.233,2.518-18.466,4.197-26.859c1.679-5.036,2.518-10.072,3.357-15.108H25.02c0.839,5.036,1.679,10.072,3.357,15.108
		c2.518,8.393,4.197,17.626,4.197,26.859c0,5.036-3.357,8.393-8.393,8.393s-8.393,3.357-8.393,8.393
		c0,5.036,3.357,8.393,8.393,8.393s8.393,3.357,8.393,8.393v50.361c0,5.036-3.357,8.393-8.393,8.393
		C22.502,318.79,19.984,322.148,18.305,326.344z"/>
	<path d="M40.967,82.934c-0.839,0-1.679,0-3.357,0c-9.233-0.839-17.626-6.715-21.823-15.948c-5.036-9.233-5.036-20.984,0-30.216
		L34.252,3.197c3.357-5.036,11.751-5.036,15.108,0l18.466,33.574c5.036,9.233,5.036,20.984,0,30.216
		c-5.875,9.233-14.269,15.108-23.502,15.948C43.485,82.934,42.646,82.934,40.967,82.934z M40.967,25.02L30.056,45.164
		c-1.679,4.197-1.679,9.233,0,14.269c2.518,3.357,5.875,5.875,10.072,6.715c0.839,0,1.679,0,2.518,0
		c4.197,0,7.554-2.518,9.233-6.715c2.518-4.197,2.518-10.072,0-14.269L40.967,25.02z"/>
	<path d="M57.754,183.656H24.18c-5.036,0-8.393-3.357-8.393-8.393V99.721c0-5.036,3.357-8.393,8.393-8.393h33.574
		c5.036,0,8.393,3.357,8.393,8.393v75.541C66.148,180.298,62.79,183.656,57.754,183.656z M32.574,166.869h16.787v-58.754H32.574
		V166.869z"/>
	<path d="M40.967,108.115c-5.036,0-8.393-3.357-8.393-8.393v-25.18c0-5.036,3.357-8.393,8.393-8.393s8.393,3.357,8.393,8.393v25.18
		C49.361,104.757,46.003,108.115,40.967,108.115z"/>
	<path d="M175.262,343.131h-67.148c-5.036,0-8.393-3.357-8.393-8.393c0-9.233,6.715-25.18,16.787-31.056v-37.77
		c-10.072-3.357-16.787-12.59-16.787-23.502s6.715-20.144,15.948-23.502c-0.839-5.036-1.679-10.911-3.357-15.948
		c-2.518-8.393-4.197-17.626-4.197-26.859c0-5.036,3.357-8.393,8.393-8.393h50.361c5.036,0,8.393,3.357,8.393,8.393
		c0,9.233-2.518,18.466-4.197,26.859c-1.679,5.875-2.518,10.911-3.357,15.948c9.233,3.357,15.948,12.59,15.948,23.502
		s-6.715,20.144-16.787,23.502v37.77c10.072,5.875,16.787,21.823,16.787,31.056C183.656,339.774,180.298,343.131,175.262,343.131z
		 M119.026,326.344h45.325c-1.679-4.197-5.036-7.554-6.715-8.393c-5.036,0-7.554-3.357-7.554-8.393v-50.361
		c0-5.036,3.357-8.393,8.393-8.393s8.393-3.357,8.393-8.393c0-5.036-3.357-8.393-8.393-8.393s-8.393-3.357-8.393-8.393
		c0-9.233,2.518-18.466,4.197-26.859c1.679-5.036,2.518-10.072,3.357-15.108h-31.895c0.839,5.036,1.679,10.072,3.357,15.108
		c2.518,8.393,4.197,17.626,4.197,26.859c0,5.036-3.357,8.393-8.393,8.393s-8.393,3.357-8.393,8.393
		c0,5.036,3.357,8.393,8.393,8.393s8.393,3.357,8.393,8.393v50.361c0,5.036-3.357,8.393-8.393,8.393
		C123.223,318.79,120.705,322.148,119.026,326.344z"/>
	<path d="M141.689,82.934c-0.839,0-2.518,0-3.357,0c-9.233-0.839-17.626-6.715-22.662-15.108c-5.036-9.233-5.036-20.984,0-30.216
		l18.466-33.574c3.357-5.036,11.751-5.036,15.108,0l18.466,33.574c5.036,9.233,5.036,20.984,0,30.216s-12.59,14.269-22.662,15.948
		C144.207,82.934,143.367,82.934,141.689,82.934z M141.689,25.02l-10.911,20.144c-2.518,4.197-2.518,10.072,0,14.269
		c2.518,3.357,5.875,5.875,10.072,6.715c0.839,0,1.679,0,2.518,0c4.197,0,7.554-2.518,9.233-6.715
		c2.518-4.197,2.518-10.072,0-14.269L141.689,25.02z"/>
	<path d="M158.475,183.656h-33.574c-5.036,0-8.393-3.357-8.393-8.393V99.721c0-5.036,3.357-8.393,8.393-8.393h33.574
		c5.036,0,8.393,3.357,8.393,8.393v75.541C166.869,180.298,163.511,183.656,158.475,183.656z M133.295,166.869h16.787v-58.754
		h-16.787V166.869z"/>
	<path d="M141.689,108.115c-5.036,0-8.393-3.357-8.393-8.393v-25.18c0-5.036,3.357-8.393,8.393-8.393
		c5.036,0,8.393,3.357,8.393,8.393v25.18C150.082,104.757,146.725,108.115,141.689,108.115z"/>
	<path d="M461.479,502.607H40.128C17.466,502.607-1,484.141-1,461.479V334.738c0-5.036,3.357-8.393,8.393-8.393h486.82
		c5.036,0,8.393,3.357,8.393,8.393v126.741C502.607,484.141,484.141,502.607,461.479,502.607z M15.787,343.131v118.348
		c0,13.43,10.911,24.341,24.341,24.341h421.351c13.43,0,24.341-10.911,24.341-24.341V343.131H15.787z"/>
	<path d="M49.361,427.066H7.393c-5.036,0-8.393-3.357-8.393-8.393s3.357-8.393,8.393-8.393h41.967c5.036,0,8.393,3.357,8.393,8.393
		S54.397,427.066,49.361,427.066z"/>
	<path d="M74.541,460.639H7.393c-5.036,0-8.393-3.357-8.393-8.393c0-5.036,3.357-8.393,8.393-8.393h67.148
		c5.036,0,8.393,3.357,8.393,8.393C82.934,457.282,79.577,460.639,74.541,460.639z"/>
	<path d="M494.213,410.279h-41.967c-5.036,0-8.393-3.357-8.393-8.393c0-5.036,3.357-8.393,8.393-8.393h41.967
		c5.036,0,8.393,3.357,8.393,8.393C502.607,406.921,499.249,410.279,494.213,410.279z"/>
	<path d="M494.213,376.705h-67.148c-5.036,0-8.393-3.357-8.393-8.393s3.357-8.393,8.393-8.393h67.148
		c5.036,0,8.393,3.357,8.393,8.393S499.249,376.705,494.213,376.705z"/>
</g>
<g>
</g>
<g>
</g>
<g>
</g>
<g>
</g>
<g>
</g>
<g>
</g>
<g>
</g>
<g>
</g>
<g>
</g>
<g>
</g>
<g>
</g>
<g>
</g>
<g>
</g>
<g>
</g>
<g>
</g>
</svg>
