<?xml version="1.0" encoding="iso-8859-1"?>
<!-- Generator: Adobe Illustrator 19.0.0, SVG Export Plug-In . SVG Version: 6.00 Build 0)  -->
<svg version="1.1" id="Layer_1" xmlns="http://www.w3.org/2000/svg" xmlns:xlink="http://www.w3.org/1999/xlink" x="0px" y="0px"
	 viewBox="0 0 512 512" style="enable-background:new 0 0 512 512;" xml:space="preserve">
<path style="fill:#0184B8;" d="M205.732,141.384l-24.107-62.968c-2.074-5.416-8.515-9.847-14.313-9.847h-47.6
	c-5.799,0-10.544,4.745-10.544,10.544v62.272L205.732,141.384L205.732,141.384z"/>
<path style="opacity:0.1;enable-background:new    ;" d="M136.859,141.384V79.112c0-5.799,4.745-10.544,10.544-10.544h-27.692
	c-5.799,0-10.544,4.745-10.544,10.544v62.272H136.859z"/>
<path style="fill:#FBD33B;" d="M371.813,184.335c-0.303-0.636-0.709-1.296-1.252-1.979l-26.01-32.72
	c-3.608-4.54-11.305-8.253-17.105-8.253H102.512c-5.799,0-11.635,4.618-12.97,10.261l-6.787,28.705
	c-0.333,1.411-0.355,2.758-0.109,3.985L371.813,184.335L371.813,184.335z"/>
<path style="fill:#FFF0C0;" d="M126.816,267.59c5.799,0,13.059,4.024,16.132,8.941l0.462,0.739
	c3.074,4.917,10.332,8.941,16.132,8.941h125.563c5.799,0,12.61-4.271,15.137-9.49l25.731-53.18c2.526-5.22,9.337-9.491,15.137-9.491
	h95.772l-25.931-22.155c-4.867-4.159-14.086-7.561-20.488-7.561H70.194c-6.402,0-12.531,5.161-13.62,11.469L44.173,267.59
	L126.816,267.59L126.816,267.59z"/>
<path style="opacity:0.1;enable-background:new    ;" d="M63.378,267.59l12.401-71.786c1.089-6.307,7.219-11.469,13.62-11.469
	H70.194c-6.402,0-12.531,5.161-13.62,11.469L44.173,267.59H63.378z"/>
<path style="fill:#0184B8;" d="M496.933,214.051H341.11c-5.799,0-12.61,4.271-15.137,9.491l-25.731,53.18
	c-2.526,5.22-9.337,9.49-15.137,9.49H159.543c-5.799,0-13.059-4.023-16.132-8.941l-0.462-0.739
	c-3.074-4.917-10.332-8.941-16.132-8.941H19.876c-5.799,0-9.292,4.577-7.763,10.171l31.726,116.026h387.848l71.694-170.021
	C505.634,218.423,502.733,214.051,496.933,214.051z"/>
<path style="opacity:0.1;enable-background:new    ;" d="M43.839,393.787h25.992L38.106,277.761
	c-1.529-5.594,1.963-10.171,7.763-10.171H19.876c-5.799,0-9.292,4.577-7.763,10.171L43.839,393.787z"/>
<polygon style="fill:#FBD33B;" points="303.483,270.024 483.876,270.024 493.961,246.105 315.056,246.105 "/>
<polygon style="opacity:0.1;enable-background:new    ;" points="315.056,246.105 303.483,270.024 336.506,270.024 348.079,246.105 
	"/>
<g>
	<circle style="fill:#FFFFFF;" cx="80.156" cy="329.274" r="16.542"/>
	<circle style="fill:#FFFFFF;" cx="143.92" cy="329.274" r="16.542"/>
	<circle style="fill:#FFFFFF;" cx="207.684" cy="329.274" r="16.542"/>
	<circle style="fill:#FFFFFF;" cx="271.459" cy="329.274" r="16.542"/>
	<circle style="fill:#FFFFFF;" cx="335.224" cy="329.274" r="16.542"/>
	<circle style="fill:#FFFFFF;" cx="398.988" cy="329.274" r="16.542"/>
</g>
<path d="M80.157,353.674c-13.453,0-24.397-10.945-24.397-24.398c0-13.454,10.944-24.398,24.397-24.398s24.398,10.945,24.398,24.398
	C104.554,342.728,93.609,353.674,80.157,353.674z M80.157,320.589c-4.79,0-8.686,3.897-8.686,8.687s3.896,8.687,8.686,8.687
	s8.687-3.897,8.687-8.687C88.844,324.485,84.947,320.589,80.157,320.589z"/>
<path d="M143.923,353.674c-13.454,0-24.399-10.945-24.399-24.398c0-13.454,10.945-24.398,24.399-24.398
	c13.453,0,24.398,10.945,24.398,24.398C168.321,342.728,157.376,353.674,143.923,353.674z M143.923,320.589
	c-4.791,0-8.688,3.897-8.688,8.687s3.897,8.687,8.688,8.687c4.79,0,8.687-3.897,8.687-8.687
	C152.61,324.485,148.713,320.589,143.923,320.589z"/>
<path d="M207.689,353.674c-13.453,0-24.398-10.945-24.398-24.398c0-13.454,10.945-24.398,24.398-24.398
	c13.454,0,24.398,10.945,24.398,24.398C232.087,342.728,221.142,353.674,207.689,353.674z M207.689,320.589
	c-4.79,0-8.687,3.897-8.687,8.687s3.897,8.687,8.687,8.687c4.791,0,8.687-3.897,8.687-8.687
	C216.377,324.485,212.479,320.589,207.689,320.589z"/>
<path d="M271.456,353.674c-13.453,0-24.398-10.945-24.398-24.398c0-13.454,10.945-24.398,24.398-24.398s24.398,10.945,24.398,24.398
	C295.854,342.728,284.909,353.674,271.456,353.674z M271.456,320.589c-4.79,0-8.687,3.897-8.687,8.687s3.897,8.687,8.687,8.687
	s8.687-3.897,8.687-8.687C280.143,324.485,276.246,320.589,271.456,320.589z"/>
<path d="M335.223,353.674c-13.454,0-24.398-10.945-24.398-24.398c0-13.454,10.945-24.398,24.398-24.398
	c13.453,0,24.398,10.945,24.398,24.398C359.619,342.728,348.675,353.674,335.223,353.674z M335.223,320.589
	c-4.791,0-8.687,3.897-8.687,8.687s3.897,8.687,8.687,8.687c4.79,0,8.687-3.897,8.687-8.687
	C343.908,324.485,340.012,320.589,335.223,320.589z"/>
<path d="M398.988,353.674c-13.453,0-24.398-10.945-24.398-24.398c0-13.454,10.945-24.398,24.398-24.398s24.398,10.945,24.398,24.398
	C423.386,342.728,412.442,353.674,398.988,353.674z M398.988,320.589c-4.79,0-8.687,3.897-8.687,8.687s3.897,8.687,8.687,8.687
	s8.687-3.897,8.687-8.687C407.675,324.485,403.779,320.589,398.988,320.589z"/>
<path style="fill:#91CFE5;" d="M287.502,239.161c0,1.74-1.423,3.163-3.163,3.163H85.872c-1.74,0-3.163-1.423-3.163-3.163v-23.111
	c0-1.74,1.423-3.163,3.163-3.163h198.467c1.74,0,3.163,1.423,3.163,3.163L287.502,239.161L287.502,239.161z"/>
<path style="opacity:0.1;enable-background:new    ;" d="M96.791,239.161v-23.111c0-1.74,1.423-3.163,3.164-3.163H85.872
	c-1.74,0-3.163,1.423-3.163,3.163v23.111c0,1.74,1.423,3.163,3.163,3.163h14.082C98.215,242.324,96.791,240.9,96.791,239.161z"/>
<path style="opacity:0.1;enable-background:new    ;" d="M115.936,184.335c-0.245-1.226-0.224-2.574,0.109-3.985l6.787-28.705
	c1.334-5.644,7.171-10.261,12.97-10.261h-33.29c-5.799,0-11.635,4.618-12.97,10.261l-6.787,28.705
	c-0.333,1.411-0.355,2.758-0.109,3.985H115.936z"/>
<path d="M129.984,433.882c-6.89-2.432-12.643-7.307-16.202-13.725c-1.385-2.497-4.015-4.046-6.87-4.046s-5.485,1.549-6.871,4.046
	c-5.272,9.511-15.293,15.42-26.149,15.42c-10.855,0-20.875-5.908-26.149-15.419c-2.103-3.796-6.887-5.166-10.679-3.06
	c-3.794,2.103-5.165,6.884-3.06,10.679c8.041,14.503,23.325,23.512,39.888,23.512c12.63,0,24.517-5.238,33.014-14.156
	c4.921,5.174,11.016,9.154,17.845,11.566c4.09,1.443,8.577-0.701,10.022-4.792C136.221,439.813,134.075,435.326,129.984,433.882z"/>
<path d="M440.909,417.095c-3.795-2.105-8.576-0.734-10.679,3.06c-5.274,9.511-15.294,15.419-26.151,15.419
	c-10.855,0-20.874-5.908-26.147-15.419c-1.385-2.497-4.015-4.046-6.871-4.046c-2.856,0-5.486,1.549-6.87,4.047
	c-2.915,5.258-7.283,9.475-12.634,12.196c-4.205,2.139-8.751,3.224-13.513,3.224c-10.856,0-20.875-5.908-26.148-15.418
	c-1.385-2.497-4.015-4.047-6.87-4.047l0,0c-2.855,0-5.485,1.549-6.87,4.046c-5.275,9.511-15.295,15.42-26.152,15.42
	c-10.855,0-20.873-5.908-26.147-15.419c-1.385-2.497-4.015-4.046-6.871-4.046c-2.855,0-5.485,1.549-6.87,4.047
	c-5.273,9.51-15.292,15.418-26.148,15.418c-10.856,0-20.875-5.908-26.149-15.42c-1.385-2.497-4.015-4.046-6.87-4.046
	c-2.855,0-5.485,1.549-6.87,4.046c-3.212,5.793-8.324,10.416-14.392,13.019c-3.987,1.709-5.834,6.328-4.125,10.316
	c1.709,3.987,6.33,5.833,10.316,4.125c5.685-2.437,10.817-6.036,15.065-10.495c8.499,8.924,20.389,14.166,33.025,14.166
	c12.632,0,24.521-5.24,33.019-14.161c8.498,8.921,20.386,14.161,33.016,14.161c12.631,0,24.521-5.24,33.021-14.161
	c8.498,8.921,20.386,14.161,33.019,14.161c7.159,0,14.295-1.705,20.635-4.93c4.665-2.372,8.84-5.489,12.39-9.223
	c8.497,8.916,20.382,14.153,33.01,14.153c16.564,0,31.85-9.01,39.89-23.512C446.074,423.981,444.703,419.2,440.909,417.095z"/>
<path d="M295.357,239.161v-23.111c0-6.076-4.943-11.018-11.018-11.018H85.872c-6.076,0-11.018,4.943-11.018,11.018v23.111
	c0,6.076,4.943,11.018,11.018,11.018h198.467C290.415,250.179,295.357,245.236,295.357,239.161z M103.703,234.468H90.565v-13.727
	h13.137v13.727H103.703z M132.608,234.468h-13.195v-13.727h13.195V234.468z M161.513,234.468h-13.194v-13.727h13.195v13.727H161.513
	z M190.418,234.468h-13.195v-13.727h13.195V234.468z M219.324,234.468h-13.195v-13.727h13.195L219.324,234.468L219.324,234.468z
	 M248.228,234.468h-13.194v-13.727h13.194V234.468z M279.647,234.468h-15.708v-13.727h15.708V234.468z"/>
<path d="M463.181,319.101c0.997,0.42,2.031,0.619,3.049,0.619c3.065,0,5.976-1.805,7.242-4.805l37.148-88.097
	c2.115-5.016,1.787-10.212-0.898-14.257s-7.345-6.366-12.788-6.366H439.78l-23.726-20.271c-6.301-5.385-17.303-9.444-25.591-9.444
	h-14.539l-25.224-31.73c-5.084-6.396-15.081-11.221-23.254-11.221H211.136l-22.175-57.922c-3.251-8.49-12.558-14.894-21.65-14.894
	h-47.6c-10.146,0-18.399,8.254-18.399,18.399v54.473c-8.956,0.577-17.344,7.498-19.413,16.253l-6.299,26.642h-5.406
	c-10.236,0-19.618,7.901-21.361,17.987l-11.275,65.267H19.876c-5.234,0-9.926,2.215-12.874,6.077
	c-2.947,3.863-3.847,8.973-2.466,14.021l27.309,99.877c-5.597,7.53-14.472,12.073-23.99,12.073c-4.338,0-7.855,3.517-7.855,7.855
	s3.517,7.855,7.855,7.855c12.631,0,24.521-5.24,33.02-14.161c8.498,8.921,20.387,14.161,33.019,14.161
	c12.632,0,24.521-5.24,33.019-14.161c8.498,8.921,20.386,14.161,33.018,14.161c12.632,0,24.521-5.24,33.019-14.161
	c8.498,8.921,20.387,14.161,33.019,14.161c12.632,0,24.521-5.24,33.019-14.161c8.498,8.921,20.385,14.161,33.016,14.161
	s24.521-5.24,33.021-14.161c8.498,8.921,20.386,14.161,33.019,14.161s24.52-5.24,33.018-14.161
	c8.498,8.921,20.386,14.161,33.018,14.161c12.633,0,24.522-5.24,33.021-14.161c8.498,8.921,20.386,14.161,33.018,14.161
	c4.338,0,7.855-3.517,7.855-7.855s-3.517-7.855-7.855-7.855c-9.511,0-18.379-4.536-23.977-12.056l16.289-38.627
	c1.685-3.997-0.189-8.604-4.186-10.29c-3.998-1.687-8.605,0.189-10.29,4.185c0,0-17.511,40.984-17.724,41.368
	c-5.274,9.511-15.294,15.419-26.151,15.419c-10.855,0-20.874-5.908-26.147-15.419c-1.385-2.497-4.015-4.046-6.871-4.046
	c-2.856,0-5.486,1.55-6.87,4.047c-5.272,9.51-15.292,15.418-26.148,15.418c-10.856,0-20.875-5.908-26.148-15.418
	c-1.385-2.497-4.015-4.047-6.87-4.047l0,0c-2.855,0-5.485,1.549-6.87,4.046c-5.275,9.511-15.295,15.419-26.152,15.419
	c-10.855,0-20.873-5.908-26.147-15.419c-1.385-2.497-4.015-4.046-6.871-4.046c-2.855,0-5.485,1.55-6.87,4.047
	c-5.272,9.51-15.292,15.418-26.148,15.418s-20.875-5.908-26.149-15.419c-1.385-2.497-4.015-4.046-6.87-4.046
	c-2.855,0-5.486,1.55-6.87,4.046c-5.272,9.511-15.293,15.419-26.149,15.419c-10.856,0-20.875-5.908-26.148-15.419
	c-1.385-2.497-4.015-4.046-6.87-4.046c-2.855,0-5.485,1.549-6.87,4.046c-5.274,9.511-15.293,15.419-26.149,15.419
	c-10.855,0-20.875-5.908-26.149-15.419c-0.245-0.443-28.055-100.675-28.055-100.675c-0.024-0.089-0.042-0.167-0.053-0.235
	c0.068-0.005,0.148-0.009,0.24-0.009h106.941c3.066,0,7.846,2.649,9.471,5.251l0.462,0.739c4.501,7.202,14.3,12.632,22.793,12.632
	h80.139c4.338,0,7.855-3.517,7.855-7.855c0-4.338-3.517-7.855-7.855-7.855h-80.139c-3.066,0-7.846-2.649-9.471-5.249l-0.462-0.739
	c-4.502-7.202-14.3-12.633-22.793-12.633H53.501l10.813-62.593c0.44-2.545,3.296-4.951,5.879-4.951h96.172
	c4.338,0,7.855-3.517,7.855-7.855s-3.517-7.855-7.855-7.855H91.743l5.444-23.028c0.493-2.087,3.181-4.214,5.325-4.214h224.934
	c3.284,0,8.431,2.431,10.7,4.994h-82.753c-4.338,0-7.855,3.517-7.855,7.855c0,4.338,3.517,7.855,7.855,7.855h95.265l5.196,6.537
	h-157.02c-4.338,0-7.855,3.517-7.855,7.855s3.517,7.855,7.855,7.855h191.629c4.493,0,11.969,2.759,15.385,5.678l9.747,8.328H341.11
	c-8.819,0-18.366,5.986-22.208,13.925l-25.731,53.18c-1.212,2.505-5.282,5.057-8.066,5.057h-11.908
	c-4.338,0-7.855,3.517-7.855,7.855c0,4.338,3.517,7.855,7.855,7.855h11.908c8.819,0,18.366-5.986,22.208-13.925l1.095-2.263h163.63
	l-13.043,30.931C457.309,312.808,459.184,317.415,463.181,319.101z M117.021,79.112c0-1.458,1.232-2.689,2.689-2.689h47.6
	c2.546,0,6.067,2.423,6.978,4.8l4.931,12.88H117.02V79.112H117.021z M117.021,133.528v-23.714h68.213l9.079,23.714H117.021z
	 M333.044,226.963c1.212-2.505,5.282-5.057,8.066-5.057h154.531l-6.892,16.344H327.583L333.044,226.963z M316.011,262.168
	l3.972-8.208h162.142l-3.461,8.208H316.011z"/>
<g>
</g>
<g>
</g>
<g>
</g>
<g>
</g>
<g>
</g>
<g>
</g>
<g>
</g>
<g>
</g>
<g>
</g>
<g>
</g>
<g>
</g>
<g>
</g>
<g>
</g>
<g>
</g>
<g>
</g>
</svg>
