<?xml version="1.0" encoding="iso-8859-1"?>
<!-- Generator: Adobe Illustrator 19.0.0, SVG Export Plug-In . SVG Version: 6.00 Build 0)  -->
<svg version="1.1" id="Capa_1" xmlns="http://www.w3.org/2000/svg" xmlns:xlink="http://www.w3.org/1999/xlink" x="0px" y="0px"
	 viewBox="0 0 512 512" style="enable-background:new 0 0 512 512;" xml:space="preserve">
<circle style="fill:#FFE477;" cx="123.9" cy="256.01" r="116"/>
<g>
	<circle style="fill:#FFB655;" cx="150.54" cy="256.01" r="91.26"/>
	<circle style="fill:#FFB655;" cx="123.9" cy="256.01" r="91.26"/>
	<path style="fill:#FFB655;" d="M34.548,256.013c0-59.557,44.887-108.622,102.675-115.231c-4.372-0.5-8.816-0.766-13.322-0.766
		c-64.063,0-115.997,51.934-115.997,115.997S59.838,372.01,123.901,372.01c4.506,0,8.95-0.266,13.322-0.766
		C79.435,364.635,34.548,315.57,34.548,256.013z"/>
</g>
<path style="fill:#FF7956;" d="M59.287,256.013c0-45.875,33.851-83.838,77.936-90.287c-4.349-0.636-8.796-0.971-13.322-0.971
	c-50.4,0-91.258,40.858-91.258,91.258s40.858,91.258,91.258,91.258c4.526,0,8.973-0.335,13.322-0.971
	C93.138,339.852,59.287,301.888,59.287,256.013z"/>
<circle style="fill:#FFE477;" cx="389.11" cy="256.01" r="116"/>
<g>
	<circle style="fill:#FFB655;" cx="415.75" cy="256.01" r="91.26"/>
	<circle style="fill:#FFB655;" cx="389.11" cy="256.01" r="91.26"/>
	<path style="fill:#FFB655;" d="M299.758,256.013c0-59.557,44.887-108.622,102.675-115.231c-4.372-0.5-8.816-0.766-13.322-0.766
		c-64.063,0-115.997,51.934-115.997,115.997S325.048,372.01,389.111,372.01c4.506,0,8.95-0.266,13.322-0.766
		C344.645,364.635,299.758,315.57,299.758,256.013z"/>
</g>
<path style="fill:#FF7956;" d="M324.497,256.013c0-45.875,33.851-83.838,77.936-90.287c-4.349-0.636-8.796-0.971-13.322-0.971
	c-50.4,0-91.258,40.858-91.258,91.258s40.858,91.258,91.258,91.258c4.526,0,8.973-0.335,13.322-0.971
	C358.348,339.852,324.497,301.888,324.497,256.013z"/>
<g>
	<path style="fill:#A4E276;" d="M317.742,440.043c-61.993,22.811-132.484,7.831-179.913-39.596l-31.82,31.82
		c41.425,41.425,96.774,63.251,152.882,63.251c28.563,0,57.322-5.68,84.536-17.292l12.605,18.739l39.433-80.612l-89.524,6.147
		L317.742,440.043z"/>
	<path style="fill:#A4E276;" d="M199.645,71.956c61.992-22.812,132.485-7.832,179.914,39.597l31.82-31.82
		C348.866,17.22,254.623-0.657,173.954,33.764l-12.599-18.729l-39.433,80.612l89.524-6.147L199.645,71.956z"/>
</g>
<g>
	<path style="fill:#64C37D;" d="M278.813,449.328c26.278,3.094,53.327,0.136,78.929-9.284l-11.801-17.542l48.134-3.305l1.39-2.842
		l-89.524,6.147l11.801,17.542C305.033,444.72,291.964,447.782,278.813,449.328z"/>
	<path style="fill:#64C37D;" d="M350.78,489.158l5.252,7.808l5.232-10.696C357.786,487.323,354.29,488.286,350.78,489.158z"/>
	<path style="fill:#64C37D;" d="M146.009,432.268l13.503-13.503c-7.633-5.439-14.901-11.535-21.683-18.317l-31.82,31.82
		c41.425,41.425,96.774,63.251,152.882,63.251c6.647,0,13.305-0.321,19.951-0.939C229.761,490.016,182.487,468.745,146.009,432.268z
		"/>
	<path style="fill:#64C37D;" d="M196.131,25.711c-7.481,2.263-14.885,4.94-22.178,8.052l-12.599-18.729l-39.433,80.612l41.39-2.842
		L196.131,25.711z"/>
	<path style="fill:#64C37D;" d="M213.953,33.764c20.875-8.907,42.66-14.304,64.569-16.339c-23.893-2.218-48.212-0.472-71.921,5.41
		L213.953,33.764z"/>
	<path style="fill:#64C37D;" d="M278.575,62.671c37.352,4.398,73.143,21.04,100.984,48.881l18.317-18.317
		C363.073,68.435,320.4,57.755,278.575,62.671z"/>
</g>
<path d="M246.967,256c0-68.089-55.395-123.483-123.484-123.483C55.395,132.517,0,187.911,0,256s55.395,123.483,123.483,123.483
	C191.573,379.483,246.967,324.089,246.967,256z M15,256c0-59.818,48.666-108.483,108.483-108.483
	c59.818,0,108.484,48.665,108.484,108.483s-48.666,108.483-108.484,108.483C63.666,364.483,15,315.818,15,256z"/>
<path d="M222.231,256c0-54.45-44.298-98.748-98.748-98.748S24.736,201.55,24.736,256s44.298,98.748,98.748,98.748
	S222.231,310.45,222.231,256z M39.736,256c0-46.179,37.569-83.748,83.748-83.748s83.748,37.569,83.748,83.748
	s-37.569,83.748-83.748,83.748S39.736,302.179,39.736,256z"/>
<path d="M45.631,256c0,19.054,6.956,37.392,19.586,51.635l11.224-9.951c-10.195-11.498-15.81-26.301-15.81-41.684L45.631,256
	L45.631,256z"/>
<g>
	<path style="fill:#FFFFFF;" d="M174.999,292.019l12.284,8.607c8.625-12.308,13.467-26.766,14.002-41.811l-14.99-0.533
		C185.863,270.424,181.957,282.09,174.999,292.019z"/>
	<path style="fill:#FFFFFF;" d="M193.215,221.346c-2.461-4.943-5.462-9.64-8.919-13.959l-11.711,9.373
		c2.792,3.489,5.216,7.281,7.203,11.271L193.215,221.346z"/>
	<path style="fill:#FFFFFF;" d="M185.989,249.347l14.918-1.568c-0.58-5.51-1.75-10.961-3.481-16.204l-14.244,4.703
		C184.577,240.504,185.521,244.901,185.989,249.347z"/>
</g>
<path d="M388.517,132.517c-68.089,0-123.484,55.395-123.484,123.483s55.395,123.483,123.484,123.483
	C456.605,379.483,512,324.089,512,256S456.605,132.517,388.517,132.517z M388.517,364.483c-59.818,0-108.484-48.665-108.484-108.483
	s48.666-108.483,108.484-108.483C448.334,147.517,497,196.182,497,256S448.334,364.483,388.517,364.483z"/>
<path d="M306.023,436.06c-57.242,17.276-120.25,1.725-162.891-40.916l-5.303-5.303l-42.426,42.427l5.303,5.304
	c21.104,21.104,45.799,37.521,73.401,48.799c27.039,11.047,55.564,16.648,84.784,16.648c28.144,0,55.607-5.223,81.727-15.531
	l16.443,24.444l50.85-103.949l-115.443,7.926L306.023,436.06z M383.021,424.727L355.004,482l-8.815-13.105l-5.705,2.434
	c-25.957,11.075-53.408,16.69-81.593,16.69c-53.283,0-103.481-19.775-142.183-55.844l21.232-21.233
	c48.947,44.977,119.697,59.212,182.391,36.141l8.965-3.299l-9.882-14.689L383.021,424.727z"/>
<path d="M211.364,75.939c57.241-17.277,120.25-1.726,162.892,40.917l5.303,5.303l42.426-42.427l-5.303-5.304
	c-31.683-31.683-71.722-52.913-115.79-61.396C259,4.969,216.218,8.942,176.764,24.504L160.326,0.068l-50.849,103.949l115.443-7.926
	L211.364,75.939z M134.367,87.273L162.383,30l8.81,13.096l5.705-2.434C253.28,8.068,340.281,23.526,400.679,79.825l-21.232,21.233
	c-33.379-30.671-76.891-47.043-121.079-47.043c-20.611,0-41.371,3.563-61.313,10.902l-8.964,3.299l9.882,14.689L134.367,87.273z"/>
<path d="M388.517,157.252c-54.45,0-98.748,44.298-98.748,98.748s44.298,98.748,98.748,98.748S487.264,310.45,487.264,256
	S442.966,157.252,388.517,157.252z M388.517,339.748c-46.179,0-83.748-37.569-83.748-83.748s37.569-83.748,83.748-83.748
	s83.748,37.569,83.748,83.748S434.695,339.748,388.517,339.748z"/>
<path d="M310.665,256c0,19.054,6.956,37.392,19.585,51.635l11.224-9.951c-10.195-11.497-15.809-26.301-15.809-41.684L310.665,256
	L310.665,256z"/>
<g>
	<path style="fill:#FFFFFF;" d="M451.329,258.282c-0.433,12.142-4.339,23.808-11.296,33.736l12.284,8.607
		c8.625-12.308,13.467-26.766,14.002-41.811L451.329,258.282z"/>
	<path style="fill:#FFFFFF;" d="M451.022,249.347l14.918-1.568c-0.58-5.51-1.75-10.961-3.481-16.204l-14.244,4.703
		C449.61,240.504,450.555,244.901,451.022,249.347z"/>
	<path style="fill:#FFFFFF;" d="M458.248,221.346c-2.461-4.943-5.462-9.64-8.919-13.959l-11.711,9.373
		c2.792,3.489,5.216,7.281,7.203,11.271L458.248,221.346z"/>
</g>
<path d="M409.789,209.208v-11.174h-15v11.174h-11.272v-11.174h-15v11.174h-17.173v15h10.165v63.584h-10.165v15h17.173v11.174h15
	v-11.174h11.272v11.174h15v-11.174h3.712l12.041-12.041v-30.21L421.001,256l4.541-4.541v-30.21l-12.041-12.041H409.789z
	 M410.542,284.538l-3.254,3.254h-30.78V263.5h30.78l3.254,3.254V284.538z M410.542,245.246l-3.254,3.254h-30.78v-24.292h30.78
	l3.254,3.254V245.246z"/>
<polygon points="130.983,315.333 130.983,301.969 150.218,301.969 150.218,248.5 111.749,248.5 111.749,225.031 150.218,225.031 
	150.218,210.031 130.983,210.031 130.983,196.667 115.983,196.667 115.983,210.031 96.749,210.031 96.749,263.5 135.218,263.5 
	135.218,286.969 96.749,286.969 96.749,301.969 115.983,301.969 115.983,315.333 "/>
<g>
	<path style="fill:#FFFFFF;" d="M263.766,466.44l0.41,14.994c5.169-0.142,10.397-0.485,15.538-1.022l-1.558-14.918
		C273.395,465.991,268.553,466.31,263.766,466.44z"/>
	<path style="fill:#FFFFFF;" d="M141.461,443.803c32.863,23.661,71.708,36.682,112.332,37.651l0.358-14.996
		c-37.589-0.897-73.526-12.94-103.926-34.829L141.461,443.803z"/>
	<path style="fill:#FFFFFF;" d="M287.688,464.25l2.323,14.818c5.117-0.802,10.259-1.814,15.285-3.008l-3.466-14.594
		C297.181,462.571,292.422,463.507,287.688,464.25z"/>
	<path style="fill:#FFFFFF;" d="M358.974,57.247c-4.479-2.581-9.119-5.021-13.794-7.249l-6.455,13.541
		c4.324,2.061,8.616,4.316,12.757,6.704L358.974,57.247z"/>
	<path style="fill:#FFFFFF;" d="M380.576,71.648c-4.107-3.142-8.392-6.162-12.735-8.978l-8.16,12.586
		c4.018,2.605,7.982,5.399,11.783,8.306L380.576,71.648z"/>
	<path style="fill:#FFFFFF;" d="M258.637,45.488c24.658,0,48.649,4.759,71.309,14.144l5.739-13.859
		c-24.488-10.142-50.411-15.284-77.048-15.284c-9.807,0-19.711,0.729-29.439,2.164l2.19,14.84
		C240.394,46.162,249.562,45.488,258.637,45.488z"/>
</g>
<g>
</g>
<g>
</g>
<g>
</g>
<g>
</g>
<g>
</g>
<g>
</g>
<g>
</g>
<g>
</g>
<g>
</g>
<g>
</g>
<g>
</g>
<g>
</g>
<g>
</g>
<g>
</g>
<g>
</g>
</svg>
