<svg height="511pt" viewBox="-54 0 511 511.9998" width="511pt" xmlns="http://www.w3.org/2000/svg"><path d="m273.671875 201.058594h-100.894531c-10.011719 0-18.128906 8.113281-18.128906 18.128906s8.117187 18.132812 18.128906 18.132812h100.894531c10.011719 0 18.128906-8.117187 18.128906-18.132812s-8.117187-18.128906-18.128906-18.128906zm0 0" fill="#40c6c2"/><path d="m273.671875 201.058594h-25c10.011719 0 18.128906 8.113281 18.128906 18.128906s-8.117187 18.132812-18.128906 18.132812h25c10.011719 0 18.128906-8.117187 18.128906-18.132812s-8.117187-18.128906-18.128906-18.128906zm0 0" fill="#1f9b92"/><path d="m195.96875 384.875.011719.007812c-17.429688-34.023437-13.492188-40.421874-5.113281-53.628906h-.007813c4.007813-6.304687 6.339844-13.777344 6.339844-21.796875 0-22.472656-18.21875-40.691406-40.691407-40.691406h-98.09375c-22.472656 0-40.691406 18.21875-40.691406 40.691406 0 8.019531 2.332032 15.492188 6.339844 21.796875h-.007812c8.378906 13.207032 12.316406 19.601563-5.113282 53.628906l.011719-.007812c-6.984375 13.605469-10.953125 29.015625-10.953125 45.359375 0 54.929687 44.53125 74.265625 99.460938 74.265625 54.933593 0 99.464843-19.335938 99.464843-74.265625-.003906-16.34375-3.972656-31.753906-10.957031-45.359375zm0 0" fill="#c47f6a"/><path d="m195.96875 384.875.011719.007812c-17.433594-34.023437-13.496094-40.421874-5.117188-53.628906h-.003906c4.007813-6.304687 6.335937-13.777344 6.335937-21.796875 0-22.472656-18.214843-40.691406-40.6875-40.691406h-26.847656c22.472656 0 40.691406 18.21875 40.691406 40.691406 0 8.019531-2.332031 15.492188-6.339843 21.796875h.007812c-8.378906 13.207032-12.316406 19.601563 5.113281 53.628906l-.011718-.007812c6.988281 13.605469 10.953125 29.015625 10.953125 45.359375 0 50.378906-37.457031 70.8125-86.039063 73.851563 4.390625.277343 8.871094.414062 13.421875.414062 54.933594 0 99.464844-19.335938 99.464844-74.265625 0-16.34375-3.96875-31.753906-10.953125-45.359375zm0 0" fill="#93544c"/><path d="m86.128906 114.382812v175.789063c0 6.894531 5.589844 12.484375 12.480469 12.484375h17.699219c6.894531 0 12.480468-5.589844 12.480468-12.484375v-175.789063zm0 0" fill="#4a4a68"/><path d="m90.691406 29.328125-20.082031 49.585937c-1.472656 3.636719-1.148437 7.753907.875 11.117188l14.644531 24.351562h42.660156l14.644532-24.351562c2.023437-3.363281 2.347656-7.480469.875-11.117188l-20.078125-49.585937c-.636719-1.574219-2.164063-2.601563-3.859375-2.601563h-25.824219c-1.695313 0-3.222656 1.027344-3.855469 2.601563zm0 0" fill="#c47f6a"/><path d="m144.308594 78.914062-20.078125-49.585937c-.636719-1.574219-2.164063-2.601563-3.859375-2.601563h-19.421875c1.695312 0 3.21875 1.027344 3.859375 2.601563l20.078125 49.585937c1.472656 3.636719 1.148437 7.753907-.875 11.117188l-14.644531 24.351562h19.421874l14.648438-24.351562c2.019531-3.363281 2.34375-7.480469.871094-11.117188zm0 0" fill="#93544c"/><path d="m134.304688 368.199219c0 14.828125-12.019532 26.847656-26.84375 26.847656-14.828126 0-26.847657-12.019531-26.847657-26.847656 0-14.824219 12.019531-26.84375 26.847657-26.84375 14.824218 0 26.84375 12.019531 26.84375 26.84375zm0 0" fill="#723935"/><path d="m337.734375 37.453125-79.226563 21.226563-7.886718-29.429688 79.226562-21.226562c8.125-2.179688 16.480469 2.644531 18.65625 10.769531 2.179688 8.128906-2.644531 16.480469-10.769531 18.660156zm0 0" fill="#ba7b8f"/><path d="m272.253906 39.226562c-3.402344-12.699218-16.457031-20.238281-29.160156-16.835937-12.699219 3.402344-20.238281 16.460937-16.835938 29.160156 3.40625 12.703125 16.460938 20.238281 29.160157 16.835938 12.703125-3.402344 20.242187-16.457031 16.835937-29.160157zm0 0" fill="#4a4a68"/><path d="m375.589844 134.347656c0 9.730469-7.886719 17.621094-17.617188 17.621094-9.734375 0-17.621094-7.890625-17.621094-17.621094 0-9.730468 7.886719-17.617187 17.621094-17.617187 9.730469 0 17.617188 7.886719 17.617188 17.617187zm0 0" fill="#ffaf5c"/><path d="m378.917969 478.539062h-41.894531c-7.167969 0-12.980469 5.808594-12.980469 12.980469 0 7.167969 5.8125 12.976563 12.980469 12.976563h41.894531c7.167969 0 12.980469-5.808594 12.980469-12.976563 0-7.171875-5.8125-12.980469-12.980469-12.980469zm0 0" fill="#7393d8"/><path d="m265.308594 244.820312h8.363281c14.132813 0 25.632813-11.5 25.632813-25.632812s-11.5-25.632812-25.632813-25.632812h-100.890625c-14.136719 0-25.632812 11.5-25.632812 25.632812s11.496093 25.632812 25.632812 25.632812h8.363281l-2.839843 21.664063c-6.550782-3.335937-13.960938-5.214844-21.804688-5.214844h-20.210938v-144.804687l13.574219-22.566406c3.21875-5.355469 3.742188-12.007813 1.398438-17.800782l-20.078125-49.582031c-1.792969-4.429687-6.035156-7.289063-10.8125-7.289063h-25.824219c-4.773437 0-9.019531 2.859376-10.808594 7.285157l-20.078125 49.585937c-2.34375 5.789063-1.820312 12.445313 1.398438 17.800782l13.570312 22.566406v144.804687h-20.21875c-2.941406 0-5.894531.265625-8.765625.792969-4.070312.746094-6.769531 4.65625-6.019531 8.730469.664062 3.617187 3.816406 6.144531 7.367188 6.144531.449218 0 .90625-.039062 1.363281-.121094 1.976562-.363281 4.015625-.550781 6.054687-.550781h20.21875v13.90625c0 11.019531 8.964844 19.980469 19.980469 19.980469h17.699219c11.015625 0 19.980468-8.960938 19.980468-19.980469v-13.90625h20.210938c18.308594 0 33.199219 14.890625 33.199219 33.191406 0 6.3125-1.785157 12.453125-5.167969 17.761719-.050781.085938-.101562.167969-.152344.253906-9.761718 15.425782-13.570312 24.625 4.757813 60.492188.050781.113281.101562.226562.160156.335937 6.71875 13.089844 10.121094 27.195313 10.121094 41.9375 0 .808594-.007813 1.617188-.027344 2.410157-.097656 4.140624 3.175781 7.578124 7.316406 7.675781.0625.003906.125.003906.1875.003906 4.058594 0 7.394531-3.242187 7.492188-7.320313.023437-.90625.03125-1.839843.03125-2.769531 0-17.019531-3.902344-33.316406-11.601563-48.449219-.050781-.109374-.105468-.222656-.160156-.332031-4.722656-9.210937-7.871094-16.394531-9.644531-22.078125h72.191406l19.160156 146.09375c.496094 3.777344 3.71875 6.527344 7.425781 6.527344.328126 0 .65625-.023438.988282-.066406 4.105468-.539063 6.996094-4.304688 6.460937-8.410156zm-144.019532-43.800781h-27.660156v-32.066406h27.660156zm0-47.066406h-27.660156v-32.070313h27.660156zm-27.660156 62.066406h27.660156v32.066407h-27.660156zm-16.0625-134.292969 19.234375-47.5h21.320313l19.234375 47.5c.585937 1.445313.457031 3.105469-.347657 4.4375l-12.457031 20.71875h-34.179687l-12.460938-20.71875c-.800781-1.332031-.929687-2.992187-.34375-4.4375zm38.742188 213.429688h-17.695313c-2.746093 0-4.980469-2.238281-4.980469-4.984375v-21.25c0-.050781 0-.101563 0-.152344 0-.054687 0-.105469 0-.15625v-5.527343h27.660157v27.085937c-.003907 2.746094-2.234375 4.984375-4.984375 4.984375zm45.839844-75.96875c0-5.863281 4.769531-10.632812 10.632812-10.632812h100.890625c5.859375 0 10.632813 4.769531 10.632813 10.632812s-4.773438 10.632812-10.632813 10.632812h-16.921875c-.007812 0-.011719 0-.019531 0h-67c-.015625 0-.035157 0-.050781 0h-16.898438c-5.863281 0-10.632812-4.769531-10.632812-10.632812zm30.035156 125.191406c.949218-2.617187 2.613281-5.324218 5.011718-9.105468.050782-.078126.101563-.160157.148438-.246094 4.8125-7.664063 7.355469-16.496094 7.355469-25.570313 0-12.511719-4.792969-23.921875-12.640625-32.5l4.210937-32.136719h53.90625l13.058594 99.558594zm0 0"/><path d="m203.636719 455.433594c-3.761719-1.742188-8.21875-.109375-9.960938 3.644531-14.539062 31.339844-54.910156 37.917969-86.214843 37.917969-28.316407 0-50.601563-5.152344-66.242188-15.320313-17.308594-11.25-25.71875-28.074219-25.71875-51.441406 0-14.742187 3.40625-28.851563 10.125-41.929687.054688-.109376.105469-.21875.15625-.328126 18.324219-35.863281 14.527344-45.070312 4.769531-60.484374-.050781-.085938-.105469-.175782-.160156-.261719-3.378906-5.320313-5.167969-11.464844-5.167969-17.773438 0-7.125 2.222656-13.914062 6.429688-19.632812 2.453125-3.339844 1.734375-8.03125-1.601563-10.488281-3.335937-2.449219-8.03125-1.734376-10.484375 1.601562-6.113281 8.3125-9.34375 18.175781-9.34375 28.519531 0 9.054688 2.535156 17.878907 7.335938 25.542969.050781.09375.105468.183594.164062.273438 4.09375 6.449218 6.054688 9.773437 5.957032 14.839843-.128907 6.523438-3.648438 16.191407-11.414063 31.347657-.054687.109374-.105469.214843-.15625.324218-7.703125 15.128906-11.609375 31.425782-11.609375 48.449219 0 52.726563 37.984375 81.765625 106.960938 81.765625 14.957031 0 28.492187-1.378906 40.511718-4.089844 1.085938 2.121094 3.164063 3.695313 5.707032 4.027344.332031.042969.660156.0625.980468.0625 3.710938 0 6.9375-2.753906 7.429688-6.527344l.21875-1.683594c21.460937-7.648437 36.703125-20.5625 44.976562-38.394531 1.742188-3.757812.109375-8.214843-3.648437-9.960937zm0 0"/><path d="m107.460938 333.851562c-18.9375 0-34.347657 15.410157-34.347657 34.347657s15.410157 34.347656 34.347657 34.347656 34.347656-15.410156 34.347656-34.347656-15.410156-34.347657-34.347656-34.347657zm0 53.691407c-10.667969 0-19.347657-8.675781-19.347657-19.34375s8.679688-19.347657 19.347657-19.347657c10.667968 0 19.347656 8.679688 19.347656 19.347657s-8.679688 19.34375-19.347656 19.34375zm0 0"/><path d="m87.398438 432.683594c-4.140626 0-7.5 3.355468-7.5 7.5 0 4.140625 3.359374 7.5 7.5 7.5h40.121093c4.144531 0 7.5-3.359375 7.5-7.5 0-4.144532-3.355469-7.5-7.5-7.5zm0 0"/><path d="m388.957031 211.808594c1.324219 2.601562 3.957031 4.101562 6.691407 4.101562 1.140624 0 2.304687-.261718 3.394531-.816406 3.691406-1.878906 5.160156-6.394531 3.28125-10.085938l-26.808594-52.699218c4.671875-4.5625 7.574219-10.929688 7.574219-17.957032 0-13.855468-11.269532-25.121093-25.117188-25.121093-1.429687 0-2.828125.121093-4.191406.347656l-30.738281-60.425781 16.625-4.457032c9.375-2.507812 16.082031-10.707031 16.789062-20.265624l12.921875-3.464844c4-1.070313 6.375-5.183594 5.300782-9.183594-1.070313-4.003906-5.183594-6.382812-9.183594-5.304688l-12.917969 3.460938c-5.289063-7.753906-15.097656-11.722656-24.671875-9.164062l-63.726562 17.082031c-7.070313-3.835938-15.210938-4.804688-23.019532-2.710938-16.675781 4.46875-26.605468 21.671875-22.136718 38.34375 3.742187 13.972657 16.425781 23.210938 30.25 23.210938 2.671874 0 5.390624-.34375 8.09375-1.070313 8.035156-2.152344 14.503906-7.261718 18.550781-13.84375l32.316406-8.664062 32.183594 63.277344c-4.667969 4.5625-7.566407 10.925781-7.566407 17.953124 0 11.238282 7.417969 20.777344 17.617188 23.976563v312.710937h-13.445312c-11.292969 0-20.480469 9.1875-20.480469 20.480469s9.1875 20.480469 20.480469 20.480469h41.894531c11.292969 0 20.480469-9.1875 20.480469-20.480469s-9.191407-20.480469-20.480469-20.480469h-13.445313v-305.394531zm-57.167969-196.542969c1.992188-.535156 4.078126-.261719 5.871094.773437 1.785156 1.03125 3.0625 2.695313 3.589844 4.667969.179688.675781.273438 1.363281.273438 2.039063 0 3.488281-2.355469 6.554687-5.734376 7.457031l-25.277343 6.777344c-.1875.042969-.371094.09375-.558594.148437l-29.375 7.875c-.03125-2.554687-.375-5.144531-1.066406-7.722656-.683594-2.554688-1.667969-4.972656-2.925781-7.222656zm-78.300781 45.875c-8.6875 2.320313-17.648437-2.851563-19.976562-11.535156-2.328125-8.6875 2.847656-17.648438 11.53125-19.976563 8.84375-2.363281 17.683593 2.96875 19.976562 11.535156 2.328125 8.6875-2.84375 17.648438-11.53125 19.976563zm130.910157 430.378906c0 3.019531-2.460938 5.476563-5.480469 5.476563h-41.890625c-3.023438 0-5.480469-2.457032-5.480469-5.476563 0-3.023437 2.457031-5.480469 5.480469-5.480469h20.867187.078125.074219 20.871094c3.019531-.003906 5.480469 2.457032 5.480469 5.480469zm-31.085938-366.152343c.023438-.011719.046875-.023438.070312-.035157.027344-.011719.054688-.027343.082032-.042969 1.355468-.675781 2.886718-1.058593 4.507812-1.058593 5.578125 0 10.117188 4.539062 10.117188 10.117187 0 3.851563-2.160156 7.207032-5.335938 8.917969-.066406.03125-.136718.0625-.203125.097656-.070312.035157-.140625.074219-.207031.113281-1.324219.636719-2.808594.992188-4.371094.992188-5.582031 0-10.121094-4.539062-10.121094-10.117188 0-3.902343 2.21875-7.296874 5.460938-8.984374zm0 0"/></svg>