<svg height="512" viewBox="0 0 64 64" width="512" xmlns="http://www.w3.org/2000/svg"><g id="Calendar"><path d="m59 7h-54a2 2 0 0 0 -2 2v8h58v-8a2 2 0 0 0 -2-2z" fill="#2488ff"/><path d="m61 17v42a2.006 2.006 0 0 1 -2 2h-54a2.006 2.006 0 0 1 -2-2v-42z" fill="#ffeb99"/><path d="m47 13h2a2 2 0 0 0 2-2v-6a2 2 0 0 0 -2-2h-2a2 2 0 0 0 -2 2v6a2 2 0 0 0 2 2z" fill="#ffcd00"/><path d="m15 13h2a2 2 0 0 0 2-2v-6a2 2 0 0 0 -2-2h-2a2 2 0 0 0 -2 2v6a2 2 0 0 0 2 2z" fill="#ffcd00"/><path d="m20 37h4v4h-4z" fill="#d80027"/><path d="m10 37h4v4h-4z" fill="#d80027"/><path d="m30 27h4v4h-4z" fill="#d80027"/><path d="m20 27h4v4h-4z" fill="#d80027"/><path d="m10 27h4v4h-4z" fill="#d80027"/><path d="m30 47h4v4h-4z" fill="#d80027"/><path d="m40 47h4v4h-4z" fill="#d80027"/><path d="m20 47h4v4h-4z" fill="#d80027"/><path d="m50 47h4v4h-4z" fill="#d80027"/><path d="m10 47h4v4h-4z" fill="#d80027"/><path d="m42 41h10a2 2 0 0 0 2-2v-10a2 2 0 0 0 -2-2h-10a2 2 0 0 0 -2 2v10a2 2 0 0 0 2 2z" fill="#ffa733"/><path d="m52 27v9a2 2 0 0 1 -2 2h-10v1a2 2 0 0 0 2 2h10a2 2 0 0 0 2-2v-10a2 2 0 0 0 -2-2z" fill="#ff9811"/><path d="m47 32 2 1v-6h-4v6z" fill="#8b5e3c"/><path d="m30 37h4v4h-4z" fill="#d80027"/><path d="m38 61h21a2 2 0 0 0 2-2v-23c0 13.818-10.287 25-23 25z" fill="#ffe477"/><g fill="#231f20"><path d="m59 6h-7v-1a3 3 0 0 0 -3-3h-2a3 3 0 0 0 -3 3v1h-24v-1a3 3 0 0 0 -3-3h-2a3 3 0 0 0 -3 3v1h-7a3 3 0 0 0 -3 3v50a3 3 0 0 0 3 3h54a3 3 0 0 0 3-3v-50a3 3 0 0 0 -3-3zm-13-1a1 1 0 0 1 1-1h2a1 1 0 0 1 1 1v6a1 1 0 0 1 -1 1h-2a1 1 0 0 1 -1-1zm-32 0a1 1 0 0 1 1-1h2a1 1 0 0 1 1 1v6a1 1 0 0 1 -1 1h-2a1 1 0 0 1 -1-1zm-10 4a1 1 0 0 1 1-1h7v3a3 3 0 0 0 3 3h2a3 3 0 0 0 3-3v-3h24v3a3 3 0 0 0 3 3h2a3 3 0 0 0 3-3v-3h7a1 1 0 0 1 1 1v7h-56zm56 50a1 1 0 0 1 -1 1h-54a1 1 0 0 1 -1-1v-41h56z"/><path d="m20 42h4a1 1 0 0 0 1-1v-4a1 1 0 0 0 -1-1h-4a1 1 0 0 0 -1 1v4a1 1 0 0 0 1 1zm1-4h2v2h-2z"/><path d="m10 42h4a1 1 0 0 0 1-1v-4a1 1 0 0 0 -1-1h-4a1 1 0 0 0 -1 1v4a1 1 0 0 0 1 1zm1-4h2v2h-2z"/><path d="m30 32h4a1 1 0 0 0 1-1v-4a1 1 0 0 0 -1-1h-4a1 1 0 0 0 -1 1v4a1 1 0 0 0 1 1zm1-4h2v2h-2z"/><path d="m20 32h4a1 1 0 0 0 1-1v-4a1 1 0 0 0 -1-1h-4a1 1 0 0 0 -1 1v4a1 1 0 0 0 1 1zm1-4h2v2h-2z"/><path d="m10 32h4a1 1 0 0 0 1-1v-4a1 1 0 0 0 -1-1h-4a1 1 0 0 0 -1 1v4a1 1 0 0 0 1 1zm1-4h2v2h-2z"/><path d="m30 52h4a1 1 0 0 0 1-1v-4a1 1 0 0 0 -1-1h-4a1 1 0 0 0 -1 1v4a1 1 0 0 0 1 1zm1-4h2v2h-2z"/><path d="m40 52h4a1 1 0 0 0 1-1v-4a1 1 0 0 0 -1-1h-4a1 1 0 0 0 -1 1v4a1 1 0 0 0 1 1zm1-4h2v2h-2z"/><path d="m20 52h4a1 1 0 0 0 1-1v-4a1 1 0 0 0 -1-1h-4a1 1 0 0 0 -1 1v4a1 1 0 0 0 1 1zm1-4h2v2h-2z"/><path d="m54 46h-4a1 1 0 0 0 -1 1v4a1 1 0 0 0 1 1h4a1 1 0 0 0 1-1v-4a1 1 0 0 0 -1-1zm-1 4h-2v-2h2z"/><path d="m10 52h4a1 1 0 0 0 1-1v-4a1 1 0 0 0 -1-1h-4a1 1 0 0 0 -1 1v4a1 1 0 0 0 1 1zm1-4h2v2h-2z"/><path d="m42 42h10a3 3 0 0 0 3-3v-10a3 3 0 0 0 -3-3h-10a3 3 0 0 0 -3 3v10a3 3 0 0 0 3 3zm6-14v3.382l-.553-.277a1 1 0 0 0 -.894 0l-.553.277v-3.382zm-7 1a1 1 0 0 1 1-1h2v5a1 1 0 0 0 1.447.9l1.553-.782 1.553.777a1 1 0 0 0 1.447-.895v-5h2a1 1 0 0 1 1 1v10a1 1 0 0 1 -1 1h-10a1 1 0 0 1 -1-1z"/><path d="m30 42h4a1 1 0 0 0 1-1v-4a1 1 0 0 0 -1-1h-4a1 1 0 0 0 -1 1v4a1 1 0 0 0 1 1zm1-4h2v2h-2z"/></g></g></svg>