<svg height="512" viewBox="0 0 60 60" width="512" xmlns="http://www.w3.org/2000/svg"><g id="026---Bus-Times" fill="none"><g id="Icons" transform="translate(1 1)"><path id="Shape" d="m6 58h-4c-1.1045695 0-2-.8954305-2-2v-7h8v7c0 1.1045695-.8954305 2-2 2z" fill="#3f51b5"/><path id="Shape" d="m32 58h4c1.1045695 0 2-.8954305 2-2v-7h-8v7c0 1.1045695.8954305 2 2 2z" fill="#283593"/><path id="Shape" d="m32 58h1c1.1045695 0 2-.8954305 2-2v-7h-5v7c0 1.1045695.8954305 2 2 2z" fill="#3f51b5"/><path id="Shape" d="m38 29.14v19.86h-38v-41.4c-.01744108-1.05622907.52191776-2.04378751 1.42-2.6 4.8976194-2.89585632 10.4038232-4.60798436 16.08-5h1.5c5.0181937.16237444 9.9553602 1.31086877 14.53 3.38-4.1981904 3.42530102-6.2228344 8.8484199-5.2964758 14.1868982.9263586 5.3384782 4.6597159 9.7624408 9.7664758 11.5731018z" fill="#f57c00"/><path id="Shape" d="m35 27.69v21.31h-35v-41.4c-.01744108-1.05622907.52191776-2.04378751 1.42-2.6 4.8976194-2.89585632 10.4038232-4.60798436 16.08-5 5.2291554.39064849 10.3184688 1.87247669 14.94 4.35-3.2466803 3.21892477-4.8480777 7.7428116-4.349606 12.2874718.4984717 4.5446601 3.0423861 8.613877 6.909606 11.0525282z" fill="#ff9801"/><rect id="Rectangle-path" fill="#b0d3f0" height="6" rx="2" width="8" x="4" y="38"/><rect id="Rectangle-path" fill="#02a9f4" height="6" rx="2" width="8" x="4" y="38"/><rect id="Rectangle-path" fill="#b0d3f0" height="6" rx="2" transform="matrix(-1 0 0 -1 60 82)" width="8" x="26" y="38"/><rect id="Rectangle-path" fill="#02a9f4" height="6" rx="2" transform="matrix(-1 0 0 -1 60 82)" width="8" x="26" y="38"/><path id="Shape" d="m34 27v4.1c-.0533326 1.0653337-.933333 1.9013341-2 1.9h-26c-1.070356.0010843-1.9518345-.8407277-2-1.91v-18.18c.0481655-1.0692723.929644-1.9110843 2-1.91h22.55c-.3671991 1.3015312-.5522923 2.6476637-.55 4 0 4.7213595 2.2229124 9.1671843 6 12z" fill="#0377bc"/><path id="Shape" d="m31 24v7.1c.0224582 1.0197452-.7805305 1.8673443-1.8 1.9h-23.4c-1.02346569-.0326476-1.8280471-.8863979-1.8-1.91v-18.18c-.0280471-1.0236021.77653431-1.8773524 1.8-1.91h22.75c-.3671991 1.3015312-.5522923 2.6476637-.55 4-.0058042 3.2464924 1.0474612 6.4062886 3 9z" fill="#02a9f4"/><path id="Shape" d="m19 4h5c.5522847 0 1 .44771525 1 1v2c0 .55228475-.4477153 1-1 1h-10c-.5522847 0-1-.44771525-1-1v-2c0-.55228475.4477153-1 1-1z" fill="#f5f5f5"/><path id="Shape" d="m58 15c0 8.2842712-6.7157288 15-15 15-.4911845.0038259-.9821316-.0228923-1.47-.08h-.06c-7.644292-.7926733-13.4528736-7.2347198-13.4528736-14.92s5.8085816-14.12732669 13.4528736-14.92h.06c.4878684-.05710769.9788155-.0838259 1.47-.08 8.2842712 0 15 6.71572875 15 15z" fill="#cfd8dc"/><path id="Shape" d="m55 15c-.0009055 7.6911917-5.8189225 14.1354985-13.47 14.92h-.06c-7.644292-.7926733-13.4528736-7.2347198-13.4528736-14.92s5.8085816-14.12732669 13.4528736-14.92h.06c7.6510775.7845015 13.4690945 7.22880833 13.47 14.92z" fill="#f5f5f5"/><circle id="Oval" cx="43" cy="15" fill="#3f51b5" r="2"/></g><g id="Layer_10" fill="#000" transform="translate(0 -1)"><path id="Shape" d="m57.86 9c-2.1211433-3.6765325-5.6162306-6.35957108-9.7160204-7.4585998-4.0997897-1.09902873-8.4682726-.52397375-12.1439796 1.5985998l-.08.07c-.5258104.30328287-1.0333513.63719132-1.52 1-4.5537919-1.97107465-9.4401859-3.06033329-14.4-3.21-.4 0-9.94.06-18.11 5.19-1.17879873.73192346-1.89408255 2.02246199-1.89 3.41v48.4c0 1.6568542 1.34314575 3 3 3h4c1.65685425 0 3-1.3431458 3-3v-6h20v6c0 1.6568542 1.3431458 3 3 3h4c1.6568542 0 3-1.3431458 3-3v-25.53c13.73 3.53 24.92-11.22 17.86-23.47zm-49.86 49c0 .5522847-.44771525 1-1 1h-4c-.55228475 0-1-.4477153-1-1v-6h6zm30 0c0 .5522847-.4477153 1-1 1h-4c-.5522847 0-1-.4477153-1-1v-6h6zm0-8h-36v-40.4c.00781643-.70664079.38796873-1.35670122 1-1.71 7.62-4.82 16.91-4.89 17-4.89 4.3594224.15445145 8.6593621 1.06112637 12.71 2.68-.9677596.96926152-1.8078781 2.05805506-2.5 3.24l-.07.08v.08c-.5400557.9263093-.985629 1.9045603-1.33 2.92h-21.81c-1.62233408-.0007302-2.95133014 1.288396-3 2.91v18.18c.04866986 1.621604 1.37766592 2.9107302 3 2.91h26c1.6223341.0007302 2.9513301-1.288396 3-2.91v-2.23h.11c.6077111.3504861 1.2392614.6579074 1.89.92zm-7.86-25c.0308881.0451606.0642733.0885614.1.13.986459 1.6578967 2.2595676 3.127389 3.76 4.34v3.62c-.046703.5168638-.4810348.9121057-1 .91h-26c-.5189652.0021057-.95329702-.3931362-1-.91v-18.18c.04670298-.5168638.4810348-.9121057 1-.91h21.29c-.7227955 3.7698726-.0661993 7.6739583 1.85 11zm21.71 3.59-.48-.83c-.2761424-.4804877-.8895123-.6461424-1.37-.37s-.6461424.8895123-.37 1.37l.48.82c-1.5972993.7945944-3.3317496 1.2765747-5.11 1.42v-1c0-.5522847-.4477153-1-1-1s-1 .4477153-1 1v1c-1.7749225-.1277551-3.5092157-.5927222-5.11-1.37l.48-.82c.2761424-.4804877.1104877-1.0938576-.37-1.37s-1.0938576-.1104877-1.37.37l-.48.83c-1.4706538-1.0005176-2.7394824-2.2693462-3.74-3.74l.83-.48c.4804877-.2761424.6461424-.8895123.37-1.37s-.8895123-.6461424-1.37-.37l-.82.48c-.7834283-1.6161975-1.2485505-3.3680446-1.37-5.16h.95c.5522847 0 1-.4477153 1-1s-.4477153-1-1-1h-.95c.1277551-1.7749225.5927222-3.5092157 1.37-5.11l.82.48c.4804877.2761424 1.0938576.1104877 1.37-.37s.1104877-1.09385763-.37-1.37l-.83-.48c1.0005176-1.4706538 2.2693462-2.73948237 3.74-3.74l.48.83c.2761424.48048773.8895123.64614237 1.37.37s.6461424-.88951227.37-1.37l-.48-.82c3.8527869-1.89563623 8.3672131-1.89563623 12.22 0l-.48.82c-.1786328.31082106-.1778752.69333103.0019873 1.0034421s.5115047.50070999.87.5.6893799-.19262104.8680127-.5034421l.48-.83c1.4706538 1.00051763 2.7394824 2.2693462 3.74 3.74l-.83.48c-.4804877.27614237-.6461424.8895123-.37 1.37s.8895123.6461424 1.37.37l.82-.48c.7945944 1.5972993 1.2765747 3.3317496 1.42 5.11h-1c-.5522847 0-1 .4477153-1 1s.4477153 1 1 1h1c-.1277551 1.7749225-.5927222 3.5092157-1.37 5.11l-.82-.48c-.4804877-.2761424-1.0938576-.1104877-1.37.37s-.1104877 1.0938576.37 1.37l.83.48c-1.0152772 1.4752711-2.3013764 2.7444034-3.79 3.74z"/><path id="Shape" d="m46.7 18.29c.3630432-.7656108.3853937-1.6490423.0615295-2.4320317-.3238642-.7829893-.9637369-1.3925085-1.7615295-1.6779683v-7.18c0-.55228475-.4477153-1-1-1s-1 .44771525-1 1v7.18c-1.083668.3400621-1.8823794 1.2629413-2.063414 2.3841929s.2866517 2.2486004 1.2082345 2.9124256 2.1390266.7502922 3.1451795.2233815l4 4c.2536586.2536586.623374.3527235.969878.259878.3465041-.0928454.6171546-.3634959.71-.71.0928455-.346504-.0062194-.7162194-.259878-.969878zm-3.7-1.29c-.0018977-.4526117.300449-.8500661.7371503-.969032s.8988609.0702222 1.1267893.4612587c.2279283.3910366.1647891.8864122-.1539396 1.2077733-.2848091.2871614-.714552.3744903-1.0888524.2212679s-.6194518-.5168238-.6211476-.9212679z"/><path id="Shape" d="m11 39h-4c-1.65685425 0-3 1.3431458-3 3v2c0 1.6568542 1.34314575 3 3 3h4c1.6568542 0 3-1.3431458 3-3v-2c0-1.6568542-1.3431458-3-3-3zm1 5c0 .5522847-.4477153 1-1 1h-4c-.55228475 0-1-.4477153-1-1v-2c0-.5522847.44771525-1 1-1h4c.5522847 0 1 .4477153 1 1z"/><path id="Shape" d="m33 39h-4c-1.6568542 0-3 1.3431458-3 3v2c0 1.6568542 1.3431458 3 3 3h4c1.6568542 0 3-1.3431458 3-3v-2c0-1.6568542-1.3431458-3-3-3zm1 5c0 .5522847-.4477153 1-1 1h-4c-.5522847 0-1-.4477153-1-1v-2c0-.5522847.4477153-1 1-1h4c.5522847 0 1 .4477153 1 1z"/><path id="Shape" d="m23 43h-6c-.5522847 0-1 .4477153-1 1s.4477153 1 1 1h6c.5522847 0 1-.4477153 1-1s-.4477153-1-1-1z"/><path id="Shape" d="m15 11h10c1.1045695 0 2-.8954305 2-2v-2c0-1.1045695-.8954305-2-2-2h-10c-1.1045695 0-2 .8954305-2 2v2c0 1.1045695.8954305 2 2 2zm0-4h10v2h-10z"/></g></g></svg>