<?xml version="1.0" encoding="iso-8859-1"?>
<!-- Generator: Adobe Illustrator 19.0.0, SVG Export Plug-In . SVG Version: 6.00 Build 0)  -->
<svg version="1.1" id="Capa_1" xmlns="http://www.w3.org/2000/svg" xmlns:xlink="http://www.w3.org/1999/xlink" x="0px" y="0px"
	 viewBox="0 0 511.878 511.878" style="enable-background:new 0 0 511.878 511.878;" xml:space="preserve">
<path style="fill:#5D9CEC;" d="M123.97,223.947l-15.996,15.996H51.987l-15.996-15.996c15.996-7.998,15.996-47.989,15.996-47.989
	v-7.998h55.987v7.998C107.974,175.958,107.974,215.949,123.97,223.947z"/>
<g style="opacity:0.3;">
	<polygon style="fill:#FFFFFF;" points="70.342,239.943 89.627,167.96 81.348,167.96 62.063,239.943 	"/>
</g>
<g style="opacity:0.3;">
	<polygon style="fill:#FFFFFF;" points="78.614,239.943 97.906,167.96 93.767,167.96 74.482,239.943 	"/>
</g>
<path style="fill:#5D9CEC;" d="M227.946,223.947l-15.996,15.996h-55.987l-15.997-15.996c15.997-7.998,15.997-47.989,15.997-47.989
	v-7.998h55.987v7.998C211.95,175.958,211.95,215.949,227.946,223.947z"/>
<g style="opacity:0.3;">
	<polygon style="fill:#FFFFFF;" points="174.318,239.943 193.602,167.96 185.323,167.96 166.039,239.943 	"/>
</g>
<g style="opacity:0.3;">
	<polygon style="fill:#FFFFFF;" points="182.589,239.943 201.881,167.96 197.742,167.96 178.458,239.943 	"/>
</g>
<path style="fill:#5D9CEC;" d="M331.921,223.947l-15.996,15.996h-55.987l-15.996-15.996c15.996-7.998,15.996-47.989,15.996-47.989
	v-7.998h55.987v7.998C315.925,175.958,315.925,215.949,331.921,223.947z"/>
<g style="opacity:0.3;">
	<polygon style="fill:#FFFFFF;" points="278.293,239.943 297.585,167.96 289.298,167.96 270.014,239.943 	"/>
</g>
<g style="opacity:0.3;">
	<polygon style="fill:#FFFFFF;" points="286.573,239.943 305.857,167.96 301.725,167.96 282.433,239.943 	"/>
</g>
<path style="fill:#5D9CEC;" d="M435.896,223.947L419.9,239.943h-55.986l-15.996-15.996c15.996-7.998,15.996-47.989,15.996-47.989
	v-7.998H419.9v7.998C419.9,175.958,419.9,215.949,435.896,223.947z"/>
<g style="opacity:0.3;">
	<polygon style="fill:#FFFFFF;" points="382.269,239.943 401.561,167.96 393.274,167.96 373.99,239.943 	"/>
</g>
<g style="opacity:0.3;">
	<polygon style="fill:#FFFFFF;" points="390.548,239.943 409.833,167.96 405.701,167.96 386.408,239.943 	"/>
</g>
<path style="fill:#CCD1D9;" d="M371.912,311.925c8.881,0,15.996,7.202,15.996,15.996c0,8.881-7.115,15.997-15.996,15.997
	c-8.795,0-15.996-7.116-15.996-15.997C355.916,319.127,363.117,311.925,371.912,311.925z"/>
<path style="fill:#656D78;" d="M387.908,327.921c0-8.794-7.115-15.996-15.996-15.996c-8.795,0-15.996,7.202-15.996,15.996
	c0,8.881,7.201,15.997,15.996,15.997C380.793,343.918,387.908,336.802,387.908,327.921z M402.865,335.763
	c-3.436,13.919-15.996,24.151-30.953,24.151s-27.595-10.318-31.031-24.229c-0.641-2.484-0.961-5.046-0.961-7.765
	c0-17.597,14.316-31.992,31.992-31.992s31.992,14.396,31.992,31.992C403.904,330.64,403.584,333.28,402.865,335.763z"/>
<path style="fill:#CCD1D9;" d="M75.982,311.925c8.873,0,15.996,7.202,15.996,15.996c0,8.881-7.123,15.997-15.996,15.997
	c-8.803,0-15.996-7.116-15.996-15.997C59.986,319.127,67.179,311.925,75.982,311.925z"/>
<g style="opacity:0.5;">
	<path style="fill:#FFFFFF;" d="M67.984,327.921c0-7.412,5.131-13.637,12.005-15.426c-1.281-0.336-2.617-0.57-4.007-0.57
		c-8.803,0-15.996,7.202-15.996,15.996c0,8.881,7.193,15.997,15.996,15.997c1.39,0,2.726-0.234,4.007-0.562
		C73.115,341.583,67.984,335.405,67.984,327.921z"/>
</g>
<g style="opacity:0.2;">
	<path d="M83.988,327.921c0,7.413-5.132,13.638-12.005,15.427c1.281,0.336,2.616,0.57,4.007,0.57
		c8.803,0,15.996-7.202,15.996-15.997c0-8.88-7.193-15.996-15.996-15.996c-1.391,0-2.726,0.234-4.007,0.562
		C78.856,314.261,83.988,320.439,83.988,327.921z"/>
</g>
<path style="fill:#656D78;" d="M75.982,295.929c17.675,0,31.992,14.396,31.992,31.992c0,2.641-0.32,5.28-0.961,7.765
	c-3.437,13.91-16.074,24.229-31.031,24.229c-14.958,0-27.595-10.318-31.032-24.229c-0.64-2.484-0.96-5.046-0.96-7.765
	C43.989,310.325,58.306,295.929,75.982,295.929z M91.978,327.921c0-8.794-7.123-15.996-15.996-15.996
	c-8.803,0-15.996,7.202-15.996,15.996c0,8.881,7.193,15.997,15.996,15.997C84.855,343.918,91.978,336.802,91.978,327.921z"/>
<g style="opacity:0.2;">
	<path style="fill:#FFFFFF;" d="M52.948,335.686c-0.64-2.484-0.96-5.046-0.96-7.765c0-16.23,12.224-29.594,27.994-31.586
		c-1.328-0.172-2.632-0.406-3.999-0.406c-17.676,0-31.993,14.396-31.993,31.992c0,2.719,0.32,5.28,0.96,7.765
		c3.437,13.91,16.075,24.229,31.032,24.229c1.359,0,2.679-0.18,3.999-0.344C66.82,357.915,56.072,348.332,52.948,335.686z"/>
</g>
<g style="opacity:0.2;">
	<path d="M99.015,320.158c0.641,2.484,0.961,5.046,0.961,7.764c0,16.23-12.231,29.595-27.993,31.587
		c1.32,0.172,2.624,0.406,3.999,0.406c17.675,0,31.992-14.396,31.992-31.993c0-2.718-0.32-5.279-0.961-7.764
		c-3.436-13.91-16.074-24.229-31.031-24.229c-1.367,0-2.679,0.18-3.999,0.344C85.136,297.929,95.891,307.513,99.015,320.158z"/>
</g>
<g style="opacity:0.5;">
	<path style="fill:#FFFFFF;" d="M363.914,327.921c0-7.412,5.14-13.637,12.013-15.426c-1.288-0.336-2.624-0.57-4.015-0.57
		c-8.795,0-15.996,7.202-15.996,15.996c0,8.881,7.201,15.997,15.996,15.997c1.391,0,2.727-0.234,4.015-0.562
		C369.053,341.583,363.914,335.405,363.914,327.921z"/>
</g>
<g style="opacity:0.2;">
	<path d="M379.925,327.921c0,7.413-5.139,13.638-12.013,15.427c1.281,0.336,2.616,0.57,4.015,0.57
		c8.795,0,15.996-7.202,15.996-15.997c0-8.88-7.201-15.996-15.996-15.996c-1.398,0-2.733,0.234-4.015,0.562
		C374.787,314.261,379.925,320.439,379.925,327.921z"/>
</g>
<g style="opacity:0.2;">
	<path style="fill:#FFFFFF;" d="M348.878,335.686c-0.641-2.484-0.961-5.046-0.961-7.765c0-16.23,12.231-29.594,27.993-31.586
		c-1.327-0.172-2.624-0.406-3.999-0.406c-17.676,0-31.992,14.396-31.992,31.992c0,2.719,0.32,5.28,0.961,7.765
		c3.437,13.91,16.074,24.229,31.031,24.229c1.359,0,2.68-0.18,3.999-0.344C362.757,357.915,352.002,348.332,348.878,335.686z"/>
</g>
<g style="opacity:0.2;">
	<path d="M394.945,320.158c0.641,2.484,0.961,5.046,0.961,7.764c0,16.23-12.231,29.595-27.993,31.587
		c1.328,0.172,2.624,0.406,3.999,0.406c17.676,0,31.992-14.396,31.992-31.993c0-2.718-0.32-5.279-0.961-7.764
		c-3.436-13.91-16.074-24.229-31.031-24.229c-1.359,0-2.679,0.18-3.999,0.344C381.066,297.929,391.821,307.513,394.945,320.158z"/>
</g>
<g>
	<polygon style="fill:#FFCE54;" points="195.954,239.943 195.954,287.931 195.954,335.919 147.964,335.919 147.964,239.943 
		155.963,239.943 	"/>
	<polygon style="fill:#FFCE54;" points="267.936,290.173 267.936,327.921 267.936,335.919 195.954,335.919 195.954,287.931 
		267.936,287.931 	"/>
	<path style="fill:#FFCE54;" d="M403.904,327.921c0-17.597-14.316-31.992-31.992-31.992s-31.992,14.396-31.992,31.992
		c0,2.719,0.32,5.28,0.961,7.765l-0.961,0.233h-71.983v-7.998v-37.748v-2.242h167.96v47.755v0.233h-32.234l-0.797-0.156
		C403.584,333.28,403.904,330.64,403.904,327.921z"/>
	<polygon style="fill:#FFCE54;" points="211.95,239.943 235.944,239.943 259.938,239.943 315.925,239.943 339.919,239.943 
		363.914,239.943 411.902,239.943 435.896,239.943 435.896,287.931 267.936,287.931 195.954,287.931 195.954,239.943 	"/>
	<path style="fill:#FFCE54;" d="M479.488,239.865c2.555,15.113,4.397,27.993,4.397,32.07v63.984h-47.989v-0.233v-47.755v-47.988
		h43.029L479.488,239.865z"/>
</g>
<g style="opacity:0.2;">
	<path d="M479.488,239.865l-0.562,0.078h-7.42c2.546,15.082,4.382,27.923,4.382,31.992v63.984h7.998v-63.984
		C483.885,267.858,482.043,254.978,479.488,239.865z"/>
</g>
<g>
	<path style="fill:#5D9CEC;" d="M475.09,215.793c1.594,7.998,3.116,16.316,4.397,24.072l-0.562,0.078h-43.029v-23.994h37.992
		L475.09,215.793z"/>
	<path style="fill:#5D9CEC;" d="M451.893,167.96c2.718,0,6.959,0.32,11.521,1.281l4.476,14.715
		c2.241,7.678,4.796,19.355,7.201,31.836l-1.202,0.156h-37.992v-47.989L451.893,167.96L451.893,167.96z"/>
</g>
<g>
	<path style="fill:#ED5565;" d="M435.896,215.949v23.994h-23.994l15.996-15.996c-15.996-7.998-15.996-47.989-15.996-47.989v-7.998
		h23.994V215.949z"/>
	<path style="fill:#ED5565;" d="M339.919,167.96v71.983h-23.994l15.996-15.996c-15.996-7.998-15.996-47.989-15.996-47.989v-7.998
		H339.919z"/>
	<path style="fill:#ED5565;" d="M363.914,167.96v7.998c0,0,0,39.991-15.996,47.989l15.996,15.996h-23.995V167.96H363.914z"/>
</g>
<polygon style="fill:#CCD1D9;" points="283.933,159.961 283.933,167.96 259.938,167.96 235.944,167.96 211.95,167.96 
	155.963,167.96 155.963,167.319 155.963,151.963 267.936,151.963 "/>
<g style="opacity:0.7;">
	<polygon style="fill:#FFFFFF;" points="267.936,151.963 155.963,151.963 155.963,159.961 267.936,159.961 283.933,167.96 
		283.933,159.961 	"/>
</g>
<g>
	<path style="fill:#ED5565;" d="M259.938,167.96v7.998c0,0,0,39.991-15.996,47.989l15.996,15.996h-23.994V167.96H259.938z"/>
	<path style="fill:#ED5565;" d="M235.944,167.96v71.983H211.95l15.996-15.996c-15.996-7.998-15.996-47.989-15.996-47.989v-7.998
		H235.944z"/>
	<path style="fill:#ED5565;" d="M155.963,167.96v7.998c0,0,0,39.991-15.997,47.989l15.997,15.996h-7.999h-15.996V167.96H155.963z"/>
	<path style="fill:#ED5565;" d="M131.968,167.96v71.983h-23.994l15.996-15.996c-15.996-7.998-15.996-47.989-15.996-47.989v-7.998
		H131.968z"/>
</g>
<g style="opacity:0.3;">
	<path style="fill:#FFFFFF;" d="M115.972,175.958v-7.998h-7.998v7.998c0,0,0,39.991,15.996,47.989l-15.996,15.996h7.998
		l15.996-15.996C115.972,215.949,115.972,175.958,115.972,175.958z"/>
</g>
<g style="opacity:0.3;">
	<path style="fill:#FFFFFF;" d="M219.948,175.958v-7.998h-7.998v7.998c0,0,0,39.991,15.996,47.989l-15.996,15.996h7.998
		l15.996-15.996C219.948,215.949,219.948,175.958,219.948,175.958z"/>
</g>
<g style="opacity:0.3;">
	<path style="fill:#FFFFFF;" d="M323.923,175.958v-7.998h-7.998v7.998c0,0,0,39.991,15.996,47.989l-15.996,15.996h7.998
		l15.996-15.996C323.923,215.949,323.923,175.958,323.923,175.958z"/>
</g>
<g style="opacity:0.3;">
	<path style="fill:#FFFFFF;" d="M419.9,175.958v-7.998h-7.998v7.998c0,0,0,39.991,15.996,47.989l-15.996,15.996h7.998l15.996-15.996
		C419.9,215.949,419.9,175.958,419.9,175.958z"/>
</g>
<path style="fill:#ED5565;" d="M51.987,167.96v7.998c0,0,0,39.991-15.996,47.989l15.996,15.996H27.993V167.96H51.987z"/>
<g style="opacity:0.2;">
	<path d="M51.987,175.958v-7.998h-7.998v7.998c0,0,0,39.991-15.996,47.989l15.996,15.996h7.998l-15.996-15.996
		C51.987,215.949,51.987,175.958,51.987,175.958z"/>
</g>
<g style="opacity:0.2;">
	<path d="M155.963,175.958v-7.998h-7.999v7.998c0,0,0,39.991-15.996,47.989l15.996,15.996h7.999l-15.997-15.996
		C155.963,215.949,155.963,175.958,155.963,175.958z"/>
</g>
<g style="opacity:0.2;">
	<path d="M259.938,175.958v-7.998h-7.998v7.998c0,0,0,39.991-15.996,47.989l15.996,15.996h7.998l-15.996-15.996
		C259.938,215.949,259.938,175.958,259.938,175.958z"/>
</g>
<g style="opacity:0.2;">
	<path d="M363.914,175.958v-7.998h-7.998v7.998c0,0,0,39.991-15.996,47.989l15.996,15.996h7.998l-15.996-15.996
		C363.914,215.949,363.914,175.958,363.914,175.958z"/>
</g>
<path style="fill:#FFCE54;" d="M43.989,327.921c0,2.719,0.32,5.28,0.96,7.765l-0.96,0.233H19.995
	c-8.802,0-15.996-7.115-15.996-15.996V185.315c0-9.592,7.756-17.355,17.355-17.355h6.639v71.983h23.994h55.987h23.994h15.996v95.977
	h-39.99l-0.961-0.233c0.641-2.484,0.961-5.124,0.961-7.765c0-17.597-14.317-31.992-31.992-31.992
	C58.306,295.929,43.989,310.325,43.989,327.921z"/>
<g style="opacity:0.5;">
	<path style="fill:#FFFFFF;" d="M11.997,319.923V185.315c0-9.123,7.045-16.512,15.997-17.215v-0.141h-6.639
		c-9.6,0-17.355,7.764-17.355,17.355v134.608c0,8.881,7.194,15.996,15.996,15.996h7.999
		C19.19,335.919,11.997,328.804,11.997,319.923z"/>
</g>
<path style="fill:#656D78;" d="M483.885,183.956c0,0,15.996,71.983,15.996,87.979v63.984h-15.996v-63.984
	c0-4.077-1.843-16.957-4.397-32.07c-1.281-7.756-2.804-16.074-4.397-24.072c-2.405-12.481-4.96-24.159-7.201-31.836l-4.476-14.715
	C472.044,170.92,481.644,175.083,483.885,183.956z"/>
<g style="opacity:0.2;">
	<path d="M483.885,183.956c-2.241-8.873-11.841-13.036-20.472-14.715l0.82,2.702c5.482,2.391,10.177,6.163,11.653,12.013
		c0,0,15.996,71.983,15.996,87.979v63.984h7.998v-63.984C499.881,255.939,483.885,183.956,483.885,183.956z"/>
</g>
<g style="opacity:0.2;">
	<rect x="139.969" y="239.939" width="7.998" height="95.98"/>
</g>
<g style="opacity:0.2;">
	<rect x="187.959" y="239.939" width="7.998" height="95.98"/>
</g>
<g style="opacity:0.2;">
	<rect x="259.939" y="287.929" width="7.998" height="47.988"/>
</g>
<g style="opacity:0.2;">
	<rect x="427.899" y="239.939" width="7.998" height="95.98"/>
</g>
<g style="opacity:0.5;">
	<rect x="147.969" y="239.939" style="fill:#FFFFFF;" width="7.999" height="95.98"/>
</g>
<g style="opacity:0.5;">
	<rect x="195.949" y="239.939" style="fill:#FFFFFF;" width="7.998" height="95.98"/>
</g>
<g style="opacity:0.5;">
	<rect x="435.899" y="239.939" style="fill:#FFFFFF;" width="7.999" height="95.98"/>
</g>
<g style="opacity:0.5;">
	<rect x="267.939" y="288.169" style="fill:#FFFFFF;" width="7.998" height="47.746"/>
</g>
<g>
	<path style="fill:#3A3847;" d="M371.912,347.918c-11.028,0-19.995-8.967-19.995-19.996c0-11.028,8.967-19.995,19.995-19.995
		c11.029,0,19.995,8.967,19.995,19.995C391.907,338.951,382.941,347.918,371.912,347.918z M371.912,315.925
		c-6.615,0-11.997,5.381-11.997,11.996c0,6.616,5.382,11.998,11.997,11.998s11.997-5.382,11.997-11.998
		C383.909,321.306,378.527,315.925,371.912,315.925z"/>
	<path style="fill:#3A3847;" d="M371.912,363.914c-19.847,0-35.991-16.145-35.991-35.992s16.145-35.991,35.991-35.991
		s35.992,16.145,35.992,35.991C407.904,347.769,391.758,363.914,371.912,363.914z M371.912,299.928
		c-15.434,0-27.993,12.56-27.993,27.993c0,15.435,12.56,27.994,27.993,27.994s27.993-12.56,27.993-27.994
		C399.905,312.488,387.345,299.928,371.912,299.928z"/>
	<path style="fill:#3A3847;" d="M75.982,347.918c-11.021,0-19.996-8.967-19.996-19.996c0-11.028,8.975-19.995,19.996-19.995
		c11.028,0,19.995,8.967,19.995,19.995C95.977,338.951,87.01,347.918,75.982,347.918z M75.982,315.925
		c-6.616,0-11.997,5.381-11.997,11.996c0,6.616,5.381,11.998,11.997,11.998c6.615,0,11.997-5.382,11.997-11.998
		C87.979,321.306,82.597,315.925,75.982,315.925z"/>
	<path style="fill:#3A3847;" d="M75.982,363.914c-19.847,0-35.992-16.145-35.992-35.992s16.145-35.991,35.992-35.991
		s35.991,16.145,35.991,35.991C111.973,347.769,95.829,363.914,75.982,363.914z M75.982,299.928
		c-15.434,0-27.994,12.56-27.994,27.993c0,15.435,12.56,27.994,27.994,27.994s27.993-12.56,27.993-27.994
		C103.975,312.488,91.416,299.928,75.982,299.928z"/>
	<path style="fill:#3A3847;" d="M331.921,339.919H115.972c-2.21,0-3.999-1.789-3.999-4c0-2.21,1.789-3.998,3.999-3.998h215.949
		c2.21,0,3.999,1.788,3.999,3.998C335.92,338.13,334.131,339.919,331.921,339.919z"/>
	<path style="fill:#3A3847;" d="M499.881,339.919h-88.229c-2.21,0-3.998-1.789-3.998-4c0-2.21,1.788-3.998,3.998-3.998h88.229
		c2.21,0,3.999,1.788,3.999,3.998C503.88,338.13,502.091,339.919,499.881,339.919z"/>
	<path style="fill:#3A3847;" d="M499.881,339.919c-2.21,0-3.999-1.789-3.999-4v-63.984c0-2.211,1.789-3.999,3.999-3.999
		s3.999,1.788,3.999,3.999v63.984C503.88,338.13,502.091,339.919,499.881,339.919z"/>
	<path style="fill:#3A3847;" d="M499.881,275.934c-2.21,0-3.999-1.788-3.999-3.999c0-15.379-15.738-86.394-15.902-87.112
		c-0.477-2.155,0.883-4.288,3.038-4.772c2.18-0.46,4.296,0.891,4.772,3.039c0.656,2.953,16.09,72.6,16.09,88.846
		C503.88,274.146,502.091,275.934,499.881,275.934z"/>
	<path style="fill:#3A3847;" d="M451.893,171.959H21.331c-2.21,0-3.999-1.788-3.999-3.999c0-2.21,1.789-3.999,3.999-3.999h430.562
		c2.21,0,3.999,1.789,3.999,3.999S454.103,171.959,451.893,171.959z"/>
	<path style="fill:#3A3847;" d="M155.963,163.297c-2.21,0-3.999-1.789-3.999-4v-7.334c0-2.21,1.789-3.999,3.999-3.999
		s3.999,1.789,3.999,3.999v7.334C159.962,161.508,158.173,163.297,155.963,163.297z"/>
	<path style="fill:#3A3847;" d="M267.936,155.962H155.963c-2.21,0-3.999-1.789-3.999-3.999c0-2.21,1.789-3.999,3.999-3.999h111.973
		c2.211,0,3.999,1.789,3.999,3.999C271.935,154.174,270.147,155.962,267.936,155.962z"/>
	<path style="fill:#3A3847;" d="M283.933,163.96c-0.602,0-1.211-0.133-1.789-0.422l-15.996-7.998
		c-1.977-0.992-2.781-3.39-1.789-5.366c0.992-1.968,3.39-2.773,5.366-1.789l15.996,7.998c1.976,0.992,2.772,3.39,1.788,5.366
		C286.807,163.148,285.393,163.96,283.933,163.96z"/>
	<path style="fill:#3A3847;" d="M355.916,155.962h-39.99c-2.211,0-3.999-1.789-3.999-3.999c0-2.21,1.788-3.999,3.999-3.999h39.99
		c2.211,0,3.999,1.789,3.999,3.999C359.915,154.174,358.127,155.962,355.916,155.962z"/>
	<path style="fill:#3A3847;" d="M123.97,155.962H83.98c-2.21,0-3.999-1.789-3.999-3.999c0-2.21,1.789-3.999,3.999-3.999h39.99
		c2.21,0,3.999,1.789,3.999,3.999C127.969,154.174,126.181,155.962,123.97,155.962z"/>
	<path style="fill:#3A3847;" d="M507.879,195.953c-0.602,0-1.21-0.133-1.788-0.422l-15.996-7.998
		c-1.977-0.992-2.773-3.39-1.789-5.366c0.992-1.977,3.397-2.781,5.365-1.789l15.997,7.998c1.976,0.992,2.772,3.39,1.788,5.366
		C510.753,195.141,509.34,195.953,507.879,195.953z"/>
	<path style="fill:#3A3847;" d="M507.879,219.948c-2.21,0-3.999-1.789-3.999-3.999v-23.995c0-2.21,1.789-3.999,3.999-3.999
		c2.211,0,3.999,1.789,3.999,3.999v23.995C511.878,218.159,510.09,219.948,507.879,219.948z"/>
	<path style="fill:#3A3847;" d="M195.954,243.942h-47.989c-2.21,0-3.999-1.789-3.999-3.999c0-2.211,1.789-3.999,3.999-3.999h47.989
		c2.21,0,3.999,1.788,3.999,3.999C199.953,242.153,198.164,243.942,195.954,243.942z"/>
	<path style="fill:#3A3847;" d="M195.954,331.921c-2.211,0-3.999-1.789-3.999-4v-87.979c0-2.211,1.788-3.999,3.999-3.999
		c2.21,0,3.999,1.788,3.999,3.999v87.979C199.953,330.132,198.164,331.921,195.954,331.921z"/>
	<path style="fill:#3A3847;" d="M147.964,331.921c-2.21,0-3.999-1.789-3.999-4v-87.979c0-2.211,1.789-3.999,3.999-3.999
		c2.211,0,4,1.788,4,3.999v87.979C151.964,330.132,150.175,331.921,147.964,331.921z"/>
	<path style="fill:#3A3847;" d="M427.898,291.93H203.952c-2.211,0-3.999-1.788-3.999-3.999c0-2.21,1.788-3.999,3.999-3.999h223.946
		c2.211,0,4,1.789,4,3.999C431.898,290.142,430.109,291.93,427.898,291.93z"/>
	<path style="fill:#3A3847;" d="M267.936,331.921c-2.21,0-3.999-1.789-3.999-4v-37.787c0-2.211,1.789-3.999,3.999-3.999
		c2.211,0,3.999,1.788,3.999,3.999v37.787C271.935,330.132,270.147,331.921,267.936,331.921z"/>
	<path style="fill:#3A3847;" d="M307.927,315.925h-15.996c-2.211,0-4-1.789-4-4c0-2.21,1.789-3.999,4-3.999h15.996
		c2.21,0,3.999,1.789,3.999,3.999C311.926,314.136,310.137,315.925,307.927,315.925z"/>
	<path style="fill:#3A3847;" d="M243.942,315.925h-15.996c-2.21,0-3.999-1.789-3.999-4c0-2.21,1.789-3.999,3.999-3.999h15.996
		c2.21,0,3.999,1.789,3.999,3.999C247.941,314.136,246.152,315.925,243.942,315.925z"/>
	<path style="fill:#3A3847;" d="M435.896,331.671c-2.21,0-3.998-1.789-3.998-4V175.958c0-2.21,1.788-3.999,3.998-3.999
		c2.211,0,4,1.789,4,3.999v151.714C439.896,329.882,438.107,331.671,435.896,331.671z"/>
	<path style="fill:#3A3847;" d="M478.918,243.942h-43.021c-2.21,0-3.998-1.789-3.998-3.999c0-2.211,1.788-3.999,3.998-3.999h43.021
		c2.211,0,3.999,1.788,3.999,3.999C482.917,242.153,481.128,243.942,478.918,243.942z"/>
	<path style="fill:#3A3847;" d="M473.857,219.948h-37.961c-2.21,0-3.998-1.789-3.998-3.999c0-2.211,1.788-4,3.998-4h37.961
		c2.21,0,3.998,1.789,3.998,4C477.855,218.159,476.067,219.948,473.857,219.948z"/>
	<path style="fill:#3A3847;" d="M483.885,187.955c-1.796,0-3.429-1.21-3.882-3.031c-2.555-10.255-19.503-12.966-28.11-12.966
		c-2.211,0-3.999-1.788-3.999-3.999c0-2.21,1.788-3.999,3.999-3.999c3.187,0,31.258,0.531,35.874,19.027
		c0.531,2.14-0.773,4.312-2.913,4.851C484.526,187.916,484.206,187.955,483.885,187.955z"/>
	<path style="fill:#3A3847;" d="M483.885,331.921c-2.21,0-3.999-1.789-3.999-4v-55.986c0-9.123-9.545-64.852-15.84-86.878
		c-0.609-2.124,0.617-4.343,2.741-4.944c2.132-0.656,4.343,0.617,4.944,2.742c6.592,23.064,16.152,79.371,16.152,89.08v55.986
		C487.884,330.132,486.095,331.921,483.885,331.921z"/>
	<path style="fill:#3A3847;" d="M451.893,299.928c-2.211,0-3.999-1.788-3.999-3.999v-7.834c0-2.21,1.788-3.999,3.999-3.999
		c2.21,0,3.999,1.789,3.999,3.999v7.834C455.892,298.14,454.103,299.928,451.893,299.928z"/>
	<path style="fill:#3A3847;" d="M179.957,259.938h-15.996c-2.21,0-3.999-1.788-3.999-3.999c0-2.21,1.789-3.999,3.999-3.999h15.996
		c2.21,0,4,1.789,4,3.999C183.957,258.15,182.168,259.938,179.957,259.938z"/>
	<path style="fill:#3A3847;" d="M427.898,243.942H203.952c-2.211,0-3.999-1.789-3.999-3.999c0-2.211,1.788-3.999,3.999-3.999
		h223.946c2.211,0,4,1.788,4,3.999C431.898,242.153,430.109,243.942,427.898,243.942z"/>
	<path style="fill:#3A3847;" d="M139.966,243.942H27.993c-2.21,0-4-1.789-4-3.999c0-2.211,1.789-3.999,4-3.999h111.973
		c2.211,0,3.999,1.788,3.999,3.999C143.965,242.153,142.177,243.942,139.966,243.942z"/>
	<path style="fill:#3A3847;" d="M339.919,235.944c-2.211,0-3.999-1.789-3.999-3.999v-55.987c0-2.21,1.788-3.999,3.999-3.999
		c2.21,0,3.999,1.789,3.999,3.999v55.987C343.918,234.155,342.129,235.944,339.919,235.944z"/>
	<path style="fill:#3A3847;" d="M235.944,235.944c-2.21,0-3.999-1.789-3.999-3.999v-55.987c0-2.21,1.789-3.999,3.999-3.999
		s3.999,1.789,3.999,3.999v55.987C239.943,234.155,238.154,235.944,235.944,235.944z"/>
	<path style="fill:#3A3847;" d="M131.968,235.944c-2.21,0-3.999-1.789-3.999-3.999v-55.987c0-2.21,1.789-3.999,3.999-3.999
		c2.211,0,3.999,1.789,3.999,3.999v55.987C135.967,234.155,134.179,235.944,131.968,235.944z"/>
	<path style="fill:#3A3847;" d="M27.993,235.944c-2.21,0-4-1.789-4-3.999v-55.987c0-2.21,1.789-3.999,4-3.999
		s3.999,1.789,3.999,3.999v55.987C31.992,234.155,30.204,235.944,27.993,235.944z"/>
	<path style="fill:#3A3847;" d="M3.999,323.923c-2.21,0-3.999-1.789-3.999-4V185.292c0-2.21,1.789-3.999,3.999-3.999
		c2.211,0,3.999,1.789,3.999,3.999v134.632C7.998,322.134,6.21,323.923,3.999,323.923z"/>
	<path style="fill:#3A3847;" d="M35.991,339.919H19.995c-2.21,0-3.999-1.789-3.999-4c0-2.21,1.789-3.998,3.999-3.998h15.997
		c2.21,0,3.999,1.788,3.999,3.998C39.99,338.13,38.202,339.919,35.991,339.919z"/>
	<path style="fill:#3A3847;" d="M123.962,227.946c-0.602,0-1.21-0.133-1.781-0.422c-17.699-8.85-18.207-47.224-18.207-51.566
		c0-2.21,1.789-3.999,3.999-3.999c2.203,0,3.999,1.789,3.999,3.999c0.008,10.436,2.492,38.765,13.786,44.412
		c1.976,0.992,2.772,3.39,1.788,5.366C126.845,227.133,125.431,227.946,123.962,227.946z"/>
	<path style="fill:#3A3847;" d="M115.972,235.944c-1.023,0-2.046-0.391-2.827-1.172c-1.562-1.562-1.562-4.093,0-5.655l7.998-7.998
		c1.562-1.562,4.093-1.562,5.655,0c1.562,1.562,1.562,4.093,0,5.655l-7.998,7.998C118.019,235.553,116.996,235.944,115.972,235.944z
		"/>
	<path style="fill:#3A3847;" d="M227.938,227.946c-0.602,0-1.211-0.133-1.781-0.422c-17.699-8.85-18.207-47.224-18.207-51.566
		c0-2.21,1.789-3.999,3.999-3.999c2.202,0,3.999,1.789,3.999,3.999c0.008,10.436,2.491,38.765,13.786,44.412
		c1.976,0.992,2.773,3.39,1.789,5.366C230.82,227.133,229.406,227.946,227.938,227.946z"/>
	<path style="fill:#3A3847;" d="M219.948,235.944c-1.023,0-2.046-0.391-2.828-1.172c-1.562-1.562-1.562-4.093,0-5.655l7.999-7.998
		c1.562-1.562,4.093-1.562,5.654,0c1.562,1.562,1.562,4.093,0,5.655l-7.998,7.998C221.994,235.553,220.971,235.944,219.948,235.944z
		"/>
	<path style="fill:#3A3847;" d="M331.921,227.946c-0.602,0-1.211-0.133-1.789-0.422c-17.699-8.85-18.206-47.224-18.206-51.566
		c0-2.21,1.788-3.999,3.999-3.999c2.21,0,3.999,1.789,3.999,3.999c0.008,10.436,2.499,38.765,13.785,44.412
		c1.977,0.992,2.773,3.39,1.789,5.366C334.795,227.133,333.382,227.946,331.921,227.946z"/>
	<path style="fill:#3A3847;" d="M323.923,235.944c-1.023,0-2.047-0.391-2.828-1.172c-1.562-1.562-1.562-4.093,0-5.655l7.998-7.998
		c1.562-1.562,4.094-1.562,5.655,0c1.562,1.562,1.562,4.093,0,5.655l-7.998,7.998C325.969,235.553,324.947,235.944,323.923,235.944z
		"/>
	<path style="fill:#3A3847;" d="M427.898,227.946c-0.601,0-1.21-0.133-1.788-0.422c-17.699-8.85-18.206-47.224-18.206-51.566
		c0-2.21,1.788-3.999,3.998-3.999c2.211,0,4,1.789,4,3.999c0.008,10.436,2.499,38.765,13.785,44.412
		c1.977,0.992,2.773,3.39,1.789,5.366C430.773,227.133,429.359,227.946,427.898,227.946z"/>
	<path style="fill:#3A3847;" d="M419.9,235.944c-1.022,0-2.046-0.391-2.827-1.172c-1.562-1.562-1.562-4.093,0-5.655l7.998-7.998
		c1.562-1.562,4.093-1.562,5.655,0s1.562,4.093,0,5.655l-7.998,7.998C421.947,235.553,420.923,235.944,419.9,235.944z"/>
	<path style="fill:#3A3847;" d="M347.918,227.946c-1.461,0-2.875-0.812-3.577-2.211c-0.984-1.976-0.188-4.374,1.788-5.366
		c11.287-5.647,13.778-33.976,13.786-44.412c0-2.21,1.788-3.999,3.999-3.999l0,0c2.211,0,3.999,1.789,3.999,3.999
		c0,4.343-0.508,42.717-18.206,51.566C349.128,227.813,348.519,227.946,347.918,227.946z"/>
	<path style="fill:#3A3847;" d="M355.916,235.944c-1.023,0-2.047-0.391-2.827-1.172l-7.999-7.998c-1.562-1.562-1.562-4.093,0-5.655
		s4.094-1.562,5.655,0l7.998,7.998c1.562,1.562,1.562,4.093,0,5.655C357.962,235.553,356.939,235.944,355.916,235.944z"/>
	<path style="fill:#3A3847;" d="M243.942,227.946c-1.468,0-2.874-0.812-3.577-2.211c-0.992-1.976-0.188-4.374,1.789-5.366
		c11.287-5.647,13.778-33.976,13.786-44.412c0-2.21,1.789-3.999,3.999-3.999l0,0c2.211,0,3.999,1.789,3.999,3.999
		c0,4.343-0.516,42.717-18.206,51.566C245.153,227.813,244.543,227.946,243.942,227.946z"/>
	<path style="fill:#3A3847;" d="M251.94,235.944c-1.023,0-2.046-0.391-2.827-1.172l-7.998-7.998c-1.562-1.562-1.562-4.093,0-5.655
		s4.093-1.562,5.655,0l7.998,7.998c1.562,1.562,1.562,4.093,0,5.655C253.987,235.553,252.963,235.944,251.94,235.944z"/>
	<path style="fill:#3A3847;" d="M139.966,227.946c-1.468,0-2.874-0.812-3.577-2.211c-0.992-1.976-0.188-4.374,1.789-5.366
		c11.286-5.647,13.778-33.976,13.786-44.412c0-2.21,1.789-3.999,3.999-3.999l0,0c2.21,0,3.999,1.789,3.999,3.999
		c0,4.343-0.516,42.717-18.207,51.566C141.177,227.813,140.568,227.946,139.966,227.946z"/>
	<path style="fill:#3A3847;" d="M147.964,235.944c-1.023,0-2.046-0.391-2.827-1.172l-7.998-7.998c-1.562-1.562-1.562-4.093,0-5.655
		s4.093-1.562,5.655,0l7.999,7.998c1.562,1.562,1.562,4.093,0,5.655C150.011,235.553,148.988,235.944,147.964,235.944z"/>
	<path style="fill:#3A3847;" d="M35.999,227.946c-1.468,0-2.882-0.812-3.585-2.211c-0.984-1.976-0.188-4.374,1.789-5.366
		c11.294-5.647,13.778-33.976,13.786-44.412c0-2.21,1.796-3.999,3.999-3.999l0,0c2.21,0,3.999,1.789,3.999,3.999
		c0,4.343-0.507,42.717-18.207,51.566C37.21,227.813,36.6,227.946,35.999,227.946z"/>
	<path style="fill:#3A3847;" d="M43.989,235.944c-1.023,0-2.046-0.391-2.828-1.172l-7.998-7.998c-1.562-1.562-1.562-4.093,0-5.655
		c1.562-1.562,4.093-1.562,5.655,0l7.998,7.998c1.562,1.562,1.562,4.093,0,5.655C46.036,235.553,45.012,235.944,43.989,235.944z"/>
	<path style="fill:#3A3847;" d="M19.995,339.919C8.974,339.919,0,330.952,0,319.923c0-2.21,1.789-3.998,3.999-3.998
		c2.211,0,3.999,1.788,3.999,3.998c0,6.616,5.382,11.998,11.997,11.998c2.211,0,3.999,1.788,3.999,3.998
		C23.994,338.13,22.206,339.919,19.995,339.919z"/>
	<path style="fill:#3A3847;" d="M3.999,189.291c-2.21,0-3.999-1.789-3.999-3.999c0-11.763,9.568-21.331,21.331-21.331
		c2.21,0,3.999,1.789,3.999,3.999c0,2.211-1.789,3.999-3.999,3.999c-7.35,0-13.333,5.983-13.333,13.333
		C7.998,187.502,6.21,189.291,3.999,189.291z"/>
</g>
<g>
</g>
<g>
</g>
<g>
</g>
<g>
</g>
<g>
</g>
<g>
</g>
<g>
</g>
<g>
</g>
<g>
</g>
<g>
</g>
<g>
</g>
<g>
</g>
<g>
</g>
<g>
</g>
<g>
</g>
</svg>
