<svg height="512pt" viewBox="0 -67 512.00313 512" width="512pt" xmlns="http://www.w3.org/2000/svg"><path d="m444.503906 37.5-15 22.5 15 22.5h30v-45zm0 0" fill="#fe0000"/><path d="m414.503906 37.5h30v45h-30zm0 0" fill="#ff4815"/><path d="m365.859375 7.5h-30v60l45-30v-15c0-8.25-6.75-15-15-15zm0 0" fill="#ffd175"/><path d="m335.859375 7.5h-283.355469c-8.25 0-15 6.75-15 15v15l313.355469 60v-75c0-8.25-6.75-15-15-15zm0 0" fill="#ffe1a3"/><path d="m380.859375 142.5h-44.453125l15-105h29.453125zm0 0" fill="#90420c"/><path d="m350.859375 142.5h-44.453125l15-105h29.453125zm0 0" fill="#bde8ff"/><path d="m320.859375 142.5h-74.453125l30-105h44.453125zm0 0" fill="#def3ff"/><path d="m276.40625 142.5h-44.453125l15-105h29.453125zm0 0" fill="#90420c"/><path d="m245.859375 142.5h-44.453125l15-105h29.453125zm0 0" fill="#bde8ff"/><path d="m215.859375 142.5h-74.453125l30-105h44.453125zm0 0" fill="#def3ff"/><path d="m171.953125 142.5h-44.449219l15-105h29.449219zm0 0" fill="#90420c"/><path d="m141.953125 142.5h-44.449219l15-105h29.449219zm0 0" fill="#bde8ff"/><path d="m111.953125 142.5h-74.449219l30-105h44.449219zm0 0" fill="#def3ff"/><path d="m38.050781 37.5h29.453125v105h-29.453125zm0 0" fill="#90420c"/><path d="m504.503906 127.5-20.410156 30-105 30 95.410156-60zm0 0" fill="#ffe1a3"/><path d="m474.503906 127.5-20.410156 30-198.089844 30-248.5-30v-30zm0 0" fill="#fff0d1"/><path d="m454.09375 157.5-60.8125 60h30c11 0 25.070312-7.4375 31.25-16.539062l29.5625-43.460938zm0 0" fill="#fe0000"/><path d="m454.09375 157.5-29.5625 43.460938c-6.179688 9.101562-20.25 16.539062-31.25 16.539062h-385.777344v-60zm0 0" fill="#ff4815"/><path d="m474.503906 248.144531c-5.863281 11.273438-17.636718 18.972657-31.21875 18.972657-13.578125 0-25.351562-7.699219-31.210937-18.96875-5.863281 11.269531-17.636719 18.96875-31.214844 18.96875-13.582031 0-25.351563-7.699219-31.214844-18.96875-5.859375 11.269531-17.632812 18.96875-31.214843 18.96875-13.578126 0-25.351563-7.699219-31.210938-18.96875-5.863281 11.269531-17.636719 18.96875-31.214844 18.96875-13.582031 0-25.355468-7.699219-31.214844-18.96875-5.859374 11.269531-17.636718 18.96875-31.214843 18.96875s-25.351563-7.699219-31.214844-18.96875c-5.859375 11.269531-17.632813 18.96875-31.210937 18.96875-13.582032 0-25.355469-7.699219-31.214844-18.96875-5.863282 11.269531-17.636719 18.96875-31.214844 18.96875s-25.351562-7.699219-31.214844-18.96875c-5.632812 10.832031-16.949218 18.234374-30 18.234374v103.117188h467l15-60.675781zm0 0" fill="#6a90ff"/><path d="m474.503906 248.144531v121.355469h30v-103.117188c-13.050781 0-24.371094-7.398437-30-18.238281zm0 0" fill="#4e76e8"/><path d="m7.503906 225h415.78125c13.441406 0 29.890625-8.703125 37.449219-19.816406l29.570313-43.472656c.019531-.03125 20.398437-29.992188 20.398437-29.992188 1.5625-2.296875 1.730469-5.269531.429687-7.726562-1.300781-2.457032-3.851562-3.992188-6.628906-3.992188h-22.5v-82.5c0-4.140625-3.359375-7.5-7.5-7.5h-60c-4.144531 0-7.5 3.359375-7.5 7.5v45c0 4.144531 3.355469 7.5 7.5 7.5h52.5v30h-78.644531v-97.5c0-12.40625-10.09375-22.5-22.5-22.5h-313.355469c-12.40625 0-22.5 10.09375-22.5 22.5v97.5h-22.5c-4.144531 0-7.49999975 3.359375-7.49999975 7.5v90c0 4.144531 3.35546875 7.5 7.49999975 7.5zm414.5-150v-30h45v30zm-63.644531 45v-75h15v75zm-74.453125 0v-75h59.453125v75zm-30 0v-75h15v75zm-74.453125 0v-75h59.453125v75zm-30 0v-75h15v75zm-74.449219 0v-75h59.449219v75zm-22.5-105h313.355469c4.132813 0 7.5 3.367188 7.5 7.5v7.5h-328.355469v-7.5c0-4.132812 3.363282-7.5 7.5-7.5zm-7.5 30h15v75h-15zm445.328125 90-10.203125 15h-412.625c-4.144531 0-7.5 3.359375-7.5 7.5 0 4.144531 3.355469 7.5 7.5 7.5h402.421875l-21.589843 31.746094c-4.804688 7.0625-16.511719 13.253906-25.050782 13.253906h-408.28125v-45h22.5c4.140625 0 7.5-3.355469 7.5-7.5 0-4.140625-3.359375-7.5-7.5-7.5h-22.5v-15zm0 0"/><path d="m504.503906 258.882812c-9.851562 0-18.796875-5.441406-23.347656-14.195312-1.289062-2.484375-3.851562-4.042969-6.652344-4.042969-2.800781 0-5.363281 1.558594-6.652344 4.039063-4.792968 9.210937-14.207031 14.933594-24.566406 14.933594-10.355468 0-19.769531-5.71875-24.558594-14.929688-1.292968-2.480469-3.855468-4.039062-6.652343-4.039062-2.800781 0-5.363281 1.558593-6.65625 4.039062-4.789063 9.210938-14.199219 14.929688-24.558594 14.929688-10.363281 0-19.769531-5.71875-24.558594-14.929688-1.292969-2.480469-3.859375-4.039062-6.65625-4.039062s-5.363281 1.558593-6.652343 4.039062c-4.792969 9.210938-14.203126 14.929688-24.5625 14.929688-10.359376 0-19.769532-5.71875-24.5625-14.929688-1.289063-2.480469-3.851563-4.039062-6.652344-4.039062-2.796875 0-5.363282 1.558593-6.652344 4.039062-4.789062 9.210938-14.199219 14.929688-24.558594 14.929688-10.363281 0-19.773437-5.71875-24.5625-14.929688-1.292968-2.480469-3.855468-4.039062-6.65625-4.039062-2.796875 0-5.359375 1.558593-6.652344 4.039062-4.789062 9.210938-14.199218 14.929688-24.558593 14.929688s-19.773438-5.71875-24.5625-14.929688c-1.289063-2.480469-3.855469-4.039062-6.652344-4.039062-2.800781 0-5.363281 1.558593-6.65625 4.039062-4.789063 9.210938-14.199219 14.929688-24.558594 14.929688s-19.773437-5.71875-24.5625-14.929688c-1.289062-2.480469-3.855469-4.039062-6.652343-4.039062-2.796876 0-5.363282 1.558593-6.65625 4.039062-4.789063 9.210938-14.199219 14.929688-24.558594 14.929688s-19.773438-5.71875-24.5625-14.925782c-1.289063-2.484375-3.855469-4.039062-6.652344-4.039062s-5.363281 1.554687-6.652344 4.039062c-4.554687 8.753906-13.5 14.191406-23.347656 14.191406-4.140625 0-7.5 3.359376-7.5 7.5v103.117188c0 4.144531 3.359375 7.5 7.5 7.5h497c4.144531 0 7.5-3.355469 7.5-7.5v-103.117188c.003906-4.144531-3.355469-7.5-7.496094-7.5zm-7.5 103.117188h-482v-88.796875c8.632813-1.582031 16.476563-5.863281 22.464844-12.1875 7.953125 8.574219 19.183594 13.601563 31.25 13.601563 12.046875 0 23.261719-5.011719 31.210938-13.566407 7.953124 8.554688 19.167968 13.566407 31.214843 13.566407s23.261719-5.015626 31.214844-13.566407c7.953125 8.554688 19.164063 13.566407 31.214844 13.566407 12.046875 0 23.261719-5.011719 31.210937-13.566407 7.953125 8.554688 19.167969 13.566407 31.214844 13.566407 12.050781 0 23.265625-5.011719 31.214844-13.566407 7.953125 8.554688 19.167968 13.566407 31.214844 13.566407 12.046874 0 23.261718-5.011719 31.214843-13.566407 7.949219 8.554688 19.164063 13.566407 31.214844 13.566407 12.046875 0 23.261719-5.011719 31.210937-13.566407 7.953126 8.554688 19.167969 13.566407 31.214844 13.566407 12.066406 0 23.296875-5.027344 31.25-13.605469 5.984375 6.328125 13.832032 10.609375 22.46875 12.191406zm0 0"/></svg>