<?xml version="1.0" encoding="iso-8859-1"?>
<!-- Generator: Adobe Illustrator 19.0.0, SVG Export Plug-In . SVG Version: 6.00 Build 0)  -->
<svg version="1.1" id="Capa_1" xmlns="http://www.w3.org/2000/svg" xmlns:xlink="http://www.w3.org/1999/xlink" x="0px" y="0px"
	 viewBox="0 0 512.003 512.003" style="enable-background:new 0 0 512.003 512.003;" xml:space="preserve">
<polygon style="fill:#B28A67;" points="144.383,168.123 144.383,391.001 184.383,391.001 184.383,220.77 "/>
<path style="fill:#FFC66C;" d="M10.001,448.001l34.08-26.051c90.27-69.003,215.569-69.003,305.84,0l34.08,26.051H10.001z"/>
<path style="fill:#D8FB93;" d="M188.67,194.325l84.878,84.878c1.077-28.255-9.162-56.861-30.733-78.432s-50.177-31.81-78.432-30.733
	L188.67,194.325z"/>
<path style="fill:#A0E557;" d="M318.765,169.961c-19.218-20.741-46.686-33.728-77.191-33.728s-57.973,12.987-77.191,33.728H318.765z
	"/>
<g>
	<path style="fill:#D8FB93;" d="M164.383,169.961c-19.218-20.741-46.686-33.728-77.191-33.728s-57.973,12.987-77.191,33.728H164.383
		z"/>
	<path style="fill:#D8FB93;" d="M273.625,60.797c-28.255-1.077-56.861,9.162-78.432,30.733s-31.81,50.177-30.733,78.432
		L273.625,60.797z"/>
</g>
<g>
	<path style="fill:#A0E557;" d="M164.383,10.001c-20.741,19.218-33.728,52.264-33.728,82.769s12.987,57.973,33.728,77.191V10.001z"
		/>
	<path style="fill:#A0E557;" d="M140.097,194.325l-84.878,84.878c-1.077-28.255,9.162-56.861,30.733-78.432
		s50.177-31.81,78.432-30.733"/>
</g>
<g>
	<circle style="fill:#62CD4D;" cx="182.24" cy="192.54" r="22.06"/>
	<circle style="fill:#62CD4D;" cx="206.45" cy="230.73" r="22.06"/>
</g>
<circle style="fill:#FFB954;" cx="412.81" cy="256" r="36"/>
<path d="M494.93,484.741c-9.665,9.666-25.393,9.666-35.058,0c-8.459-8.46-19.708-13.119-31.671-13.119
	c-11.963,0-23.211,4.659-31.671,13.119c-9.665,9.666-25.393,9.666-35.058,0c-8.459-8.46-19.708-13.119-31.671-13.119
	c-11.964,0-23.212,4.659-31.671,13.119c-9.665,9.666-25.393,9.666-35.058,0c-17.464-17.463-45.879-17.463-63.343,0
	c-4.682,4.682-10.907,7.261-17.529,7.261c-6.621,0-12.846-2.579-17.528-7.261c-8.46-8.459-19.708-13.119-31.671-13.119
	s-23.211,4.659-31.671,13.119c-4.682,4.682-10.907,7.261-17.528,7.261c-6.622,0-12.847-2.579-17.529-7.261
	c-8.46-8.459-19.708-13.119-31.671-13.119s-23.212,4.66-31.672,13.119c-3.905,3.905-3.905,10.237,0,14.143
	c3.905,3.905,10.237,3.905,14.143,0c9.665-9.666,25.392-9.666,35.058,0c8.459,8.46,19.708,13.119,31.671,13.119
	s23.211-4.659,31.671-13.119c9.665-9.666,25.393-9.666,35.058,0c8.459,8.46,19.708,13.119,31.671,13.119
	c11.964,0,23.212-4.659,31.671-13.119c9.665-9.666,25.393-9.666,35.058,0c17.464,17.463,45.879,17.463,63.343,0
	c4.682-4.682,10.907-7.261,17.529-7.261c6.621,0,12.846,2.579,17.528,7.261c8.46,8.459,19.708,13.119,31.671,13.119
	s23.211-4.659,31.671-13.119c4.682-4.682,10.907-7.261,17.528-7.261c6.622,0,12.847,2.579,17.529,7.261
	c8.46,8.459,19.708,13.119,31.671,13.119s23.211-4.659,31.671-13.119c3.905-3.905,3.905-10.237,0-14.143
	C505.167,480.836,498.835,480.836,494.93,484.741z"/>
<path d="M38.008,414.005l-34.08,26.051c-3.406,2.604-4.773,7.089-3.399,11.15C1.904,455.268,5.714,458,10.001,458h317.667h56.333
	h118c5.523,0,10-4.477,10-10s-4.477-10-10-10H387.386l-31.392-23.996c-46.051-35.201-101.03-53.808-158.993-53.808
	c-0.874,0-1.745,0.018-2.618,0.026V260.43c3.727,1.519,7.797,2.364,12.063,2.364c10.239,0,19.365-4.83,25.239-12.324l34.69,35.702
	c1.919,1.975,4.521,3.032,7.174,3.032c1.203,0,2.416-0.217,3.581-0.665c3.736-1.434,6.257-4.957,6.41-8.955
	c1.219-31.973-11.048-63.277-33.654-85.884c-5.126-5.126-10.702-9.713-16.627-13.738h85.506c3.976,0,7.573-2.354,9.164-5.998
	c1.591-3.643,0.873-7.882-1.829-10.798c-21.747-23.471-52.555-36.932-84.526-36.932c-7.168,0-14.277,0.682-21.24,1.997
	l60.362-60.362c2.811-2.811,3.69-7.021,2.239-10.721c-1.451-3.701-4.957-6.191-8.929-6.343
	c-31.974-1.219-63.277,11.048-85.884,33.654c-5.125,5.125-9.713,10.702-13.739,16.628V10.001c0-3.976-2.355-7.573-5.998-9.164
	c-3.642-1.592-7.883-0.874-10.798,1.829c-22.435,20.788-36.932,56.156-36.932,90.105c0,14.149,2.641,28.069,7.615,41.078
	c-13.009-4.974-26.929-7.615-41.078-7.615c-31.971,0-62.779,13.461-84.526,36.931c-2.702,2.917-3.42,7.156-1.829,10.799
	c1.591,3.643,5.188,5.998,9.164,5.998h85.505c-5.925,4.026-11.501,8.614-16.626,13.739c-22.606,22.607-34.873,53.911-33.654,85.883
	c0.151,3.973,2.642,7.478,6.342,8.929c1.185,0.464,2.422,0.69,3.648,0.69c2.604,0,5.162-1.019,7.073-2.929l72.094-72.093v153.518
	C99.699,376.188,67.074,391.787,38.008,414.005z M343.848,429.894L354.453,438h-26.785H39.55l10.604-8.106
	C136.616,363.803,257.387,363.803,343.848,429.894z M154.383,256.001h20v20h-20V256.001z M194.306,192.543
	c0,6.652-5.412,12.063-12.063,12.063s-12.063-5.412-12.063-12.063c0-5.904,4.266-10.821,9.875-11.855
	c2.735,0.339,5.449,0.799,8.135,1.372C191.836,184.138,194.306,188.054,194.306,192.543z M154.383,208.385
	c4.269,7.477,11.453,13.082,20,15.244v12.372h-20V208.385z M154.383,296.001h20v20h-20V296.001z M206.447,242.794
	c-6.652,0-12.063-5.412-12.063-12.063s5.412-12.063,12.063-12.063s12.063,5.412,12.063,12.063S213.099,242.794,206.447,242.794z
	 M260.627,251.555l-22.186-22.833c-0.892-14.345-11.255-26.158-24.897-29.254c0.494-2.232,0.762-4.547,0.762-6.925
	c0-0.263-0.014-0.523-0.02-0.785c7.818,4.29,15.06,9.686,21.458,16.084C247.885,219.983,256.417,235.161,260.627,251.555z
	 M290.771,159.961h-98.394c14.729-8.878,31.754-13.728,49.197-13.728C259.018,146.233,276.043,151.083,290.771,159.961z
	 M202.265,98.601c12.335-12.336,27.8-20.944,44.495-25.081l-69.576,69.576C181.321,126.403,189.93,110.935,202.265,98.601z
	 M154.383,39.535v102.432c-8.878-14.729-13.728-31.754-13.728-49.197C140.655,74.507,145.799,55.358,154.383,39.535z
	 M87.192,146.233c17.443,0,34.468,4.85,49.197,13.728H37.996C52.724,151.083,69.749,146.233,87.192,146.233z M133.026,187.253
	l-65.084,65.083c4.137-16.692,12.746-32.161,25.08-44.495c11.558-11.557,25.871-19.836,41.361-24.236v2.522
	C133.908,186.46,133.451,186.829,133.026,187.253z M154.383,336.001h20v25.159c-6.722,0.57-13.392,1.388-20,2.464V336.001z"/>
<path d="M412.806,302.001c25.364,0,46-20.636,46-46s-20.636-46-46-46s-46,20.636-46,46
	C366.806,281.365,387.442,302.001,412.806,302.001z M412.806,230.001c14.336,0,26,11.664,26,26c0,14.336-11.664,26-26,26
	s-26-11.664-26-26C386.806,241.664,398.47,230.001,412.806,230.001z"/>
<path d="M475.878,256.001c0,5.523,4.477,10,10,10h16.11c5.523,0,10-4.477,10-10s-4.477-10-10-10h-16.11
	C480.355,246.001,475.878,250.478,475.878,256.001z"/>
<path d="M313.624,256.001c0,5.523,4.477,10,10,10h16.11c5.523,0,10-4.477,10-10s-4.477-10-10-10h-16.11
	C318.101,246.001,313.624,250.478,313.624,256.001z"/>
<path d="M402.806,329.073v16.11c0,5.523,4.477,10,10,10s10-4.477,10-10v-16.11c0-5.523-4.477-10-10-10
	S402.806,323.55,402.806,329.073z"/>
<path d="M412.806,192.929c5.523,0,10-4.477,10-10v-16.11c0-5.523-4.477-10-10-10s-10,4.477-10,10v16.11
	C402.806,188.451,407.283,192.929,412.806,192.929z"/>
<path d="M457.404,300.6c-3.905,3.905-3.905,10.237,0,14.142l11.392,11.392c1.953,1.953,4.512,2.929,7.071,2.929
	s5.119-0.977,7.071-2.929c3.905-3.905,3.905-10.237,0-14.142L471.546,300.6C467.641,296.694,461.31,296.695,457.404,300.6z"/>
<path d="M354.065,211.402c1.953,1.953,4.512,2.929,7.071,2.929s5.119-0.976,7.071-2.929c3.905-3.905,3.905-10.237,0-14.143
	l-11.392-11.392c-3.905-3.905-10.237-3.905-14.143,0c-3.905,3.905-3.905,10.237,0,14.143L354.065,211.402z"/>
<path d="M354.065,300.599l-11.392,11.392c-3.905,3.905-3.905,10.237,0,14.143c1.953,1.953,4.512,2.929,7.071,2.929
	s5.119-0.976,7.071-2.929l11.392-11.392c3.905-3.905,3.905-10.237,0-14.143C364.302,296.694,357.97,296.694,354.065,300.599z"/>
<path d="M464.476,214.331c2.559,0,5.119-0.977,7.071-2.929l11.392-11.392c3.905-3.905,3.906-10.237,0-14.142s-10.237-3.905-14.142,0
	l-11.392,11.392c-3.905,3.905-3.906,10.237,0,14.142C459.357,213.355,461.916,214.331,464.476,214.331z"/>
<g>
</g>
<g>
</g>
<g>
</g>
<g>
</g>
<g>
</g>
<g>
</g>
<g>
</g>
<g>
</g>
<g>
</g>
<g>
</g>
<g>
</g>
<g>
</g>
<g>
</g>
<g>
</g>
<g>
</g>
</svg>
