<svg height="512pt" viewBox="0 0 512.00011 512" width="512pt" xmlns="http://www.w3.org/2000/svg"><path d="m381.5 181.453125c-102 9-138.800781-10.46875-150-14-22.328125-11.1875-42.378906-23.917969-49.207031-38.628906 8.277343-15.050781 47.488281-18.371094 104.207031-18.371094 32 0 85 9 95 71zm0 0" fill="#4caf50"/><path d="m349.1875 183.484375c9.96875-.351563 20.714844-1.003906 32.316406-2.03125-10-62-63-71-95-71-8.394531 0-16.390625.078125-23.972656.25 30.125 2.398437 73.449219 22.597656 86.65625 72.78125zm0 0" fill="#43a047"/><path d="m313.699219 20.8125c-43.953125 76.917969-75.953125 93.457031-83.988281 99.671875-18.972657 10.339844-37.917969 18.304687-51.738282 15.894531-6.609375-13.3125 9.554688-43.402344 38.386719-83.113281 17.960937-24.738281 48.351563-55.949219 97.339844-32.453125zm0 0" fill="#4caf50"/><path d="m265.710938 14.339844c1.515624.355468 3.046874.761718 4.605468 1.230468 7.175782 2.160157 10.363282 10.574219 6.488282 16.988282-40.386719 66.898437-69.484376 82.039062-77.09375 87.925781-7.816407 4.261719-15.628907 8.117187-23.078126 11.007813.195313 1.816406.628907 3.453124 1.339844 4.890624 13.820313 2.40625 32.765625-5.554687 51.738282-15.898437 8.035156-6.214844 40.035156-22.753906 83.988281-99.667969-18.554688-8.902344-34.4375-9.949218-47.988281-6.476562zm0 0" fill="#43a047"/><path d="m293.535156 300.703125c-73.726562-59.277344-85.785156-95.800781-90.988281-105.320313-7.71875-21.746093-12.929687-43.0625-8.070313-57.234374 15.152344-4.726563 44.167969 17.375 81.195313 54.449218 23.070313 23.101563 50.878906 60.394532 17.863281 108.105469zm0 0" fill="#4caf50"/><path d="m275.671875 192.597656c-37.027344-37.078125-66.042969-59.175781-81.191406-54.449218-.925781 2.691406-1.480469 5.640624-1.730469 8.800781 14.558594 9.351562 32.519531 25.222656 52.921875 45.652343 20.21875 20.246094 44.078125 51.394532 27.433594 90.90625 6.226562 5.5 13.007812 11.230469 20.429687 17.195313 33.015625-47.710937 5.207032-85.003906-17.863281-108.105469zm0 0" fill="#43a047"/><path d="m7.5 176.453125c102 9 138.800781-10.46875 150-14 22.332031-11.1875 42.378906-23.917969 49.210938-38.628906-8.28125-15.050781-47.492188-18.371094-104.210938-18.371094-32 0-85 9-95 71zm0 0" fill="#4caf50"/><path d="m75.300781 15.820312c43.957031 76.917969 75.953125 93.457032 83.992188 99.671876 18.972656 10.34375 37.914062 18.304687 51.738281 15.894531 6.605469-13.3125-9.558594-43.402344-38.386719-83.113281-17.964843-24.738282-48.355469-55.953126-97.34375-32.453126zm0 0" fill="#4caf50"/><path d="m172.644531 48.273438c-15.652343-21.554688-40.746093-48.023438-79.351562-38.929688 22.230469 5.695312 38.191406 23.5625 49.351562 38.929688 25.726563 35.433593 41.347657 63.199218 39.726563 78.226562 10.632812 4.132812 20.53125 6.304688 28.660156 4.886719 6.605469-13.3125-9.554688-43.402344-38.386719-83.113281zm0 0" fill="#43a047"/><path d="m95.46875 295.703125c73.722656-59.277344 85.78125-95.800781 90.988281-105.320313 7.714844-21.746093 12.929688-43.0625 8.066407-57.234374-15.148438-4.726563-44.164063 17.375-81.191407 54.449218-23.070312 23.101563-50.878906 60.394532-17.863281 108.105469zm0 0" fill="#4caf50"/><path d="m194.523438 133.148438c-6.800782-2.125-16.40625 1.175781-28.269532 8.796874 1.058594 13.484376-3.546875 30.816407-9.796875 48.4375-4.683593 8.558594-14.917969 38.96875-70.558593 88.125 2.34375 5.570313 5.492187 11.304688 9.570312 17.195313 73.722656-59.277344 85.785156-95.800781 90.988281-105.320313 7.714844-21.75 12.929688-43.0625 8.066407-57.234374zm0 0" fill="#43a047"/><path d="m236.011719 447.601562s-57.15625-149.097656-14.976563-293.027343l-27.46875-14.453125s-74.8125 148.144531-19.066406 307.480468zm0 0" fill="#8d6e63"/><path d="m221.035156 154.574219-15.75-8.285157c-55.507812 201.847657.226563 301.3125.226563 301.3125h30.5s-57.15625-149.097656-14.976563-293.027343zm0 0" fill="#795548"/><path d="m227.0625 112.183594c0 19.328125-15.671875 35-35 35-19.332031 0-35-15.671875-35-35 0-19.332032 15.667969-35 35-35 19.328125 0 35 15.667968 35 35zm0 0" fill="#fdd835"/><path d="m192.0625 77.183594c-5.371094 0-10.453125 1.210937-15 3.371094 11.824219 5.617187 20 17.667968 20 31.628906 0 13.960937-8.175781 26.007812-20 31.625 4.546875 2.160156 9.628906 3.375 15 3.375 19.328125 0 35-15.671875 35-35 0-19.332032-15.671875-35-35-35zm0 0" fill="#fbc02d"/><path d="m189.609375 162.90625c0 19.332031-15.667969 35-35 35-19.328125 0-35-15.667969-35-35 0-19.328125 15.671875-35 35-35 19.332031 0 35 15.671875 35 35zm0 0" fill="#fdd835"/><path d="m154.609375 127.90625c-5.367187 0-10.453125 1.214844-15 3.375 11.824219 5.617188 20 17.664062 20 31.625s-8.175781 26.011719-20 31.628906c4.546875 2.160156 9.632813 3.371094 15 3.371094 19.332031 0 35-15.667969 35-35 0-19.328125-15.667969-35-35-35zm0 0" fill="#fbc02d"/><path d="m259.296875 162.90625c0 19.332031-15.671875 35-35 35-19.332031 0-35-15.667969-35-35 0-19.328125 15.667969-35 35-35 19.328125 0 35 15.671875 35 35zm0 0" fill="#fdd835"/><path d="m224.296875 127.90625c-5.371094 0-10.453125 1.214844-15 3.375 11.824219 5.617188 20 17.664062 20 31.625s-8.175781 26.011719-20 31.628906c4.546875 2.160156 9.628906 3.371094 15 3.371094 19.328125 0 35-15.667969 35-35 0-19.328125-15.671875-35-35-35zm0 0" fill="#fbc02d"/><path d="m504.5 504.5h-497v-19.039062c0-22.621094 18.339844-40.960938 40.960938-40.960938h415.082031c22.617187 0 40.957031 18.339844 40.957031 40.960938zm0 0" fill="#ffcc80"/><path d="m271 504.5s136.605469-26.792969 136.605469-97.644531c0-45.414063-22.597657-55.96875-38.824219-57.695313-9.242188-.980468-16.1875-8.902344-16.1875-18.199218 0-11.375 10.253906-20.03125 21.457031-18.058594 41.882813 7.375 130.449219 40.792968 130.449219 191.597656zm0 0" fill="#71f6fc"/><path d="m374.050781 312.902344c-5.34375-.9375-10.472656.542968-14.378906 3.585937 72.414063 1.078125 172.328125 166.511719 72.414063 188.011719h72.414062c0-150.804688-88.570312-184.222656-130.449219-191.597656zm0 0" fill="#3be3eb"/><path d="m451.222656 200.515625-48.027344 10.578125c-4.035156.886719-6.589843 4.871094-5.71875 8.90625l10.011719 46.339844h-8.121093c-4.144532 0-7.5 3.355468-7.5 7.5 0 4.140625 3.355468 7.5 7.5 7.5h17.414062c4.78125 0 8.335938-4.417969 7.328125-9.085938l-10.394531-48.117187 33.378906-7.355469 8.460938 39.15625-8 .152344c-4.140626.082031-7.433594 3.503906-7.351563 7.644531.078125 4.140625 3.496094 7.433594 7.644531 7.355469l17.105469-.332032c4.71875-.089843 8.183594-4.46875 7.1875-9.082031l-11.972656-55.421875c-.882813-4.066406-4.90625-6.632812-8.945313-5.738281zm0 0"/><path d="m369.304688 94.570312 15.503906 7.933594c4.253906 2.175782 9.4375-.136718 10.664062-4.75l12.660156-47.574218 33.0625 8.65625-10.300781 38.710937-7.191406-3.507813c-3.726563-1.8125-8.210937-.265624-10.027344 3.457032-1.8125 3.726562-.269531 8.214844 3.457031 10.027344l15.382813 7.5c4.234375 2.0625 9.316406-.25 10.53125-4.8125l14.582031-54.796876c1.070313-4.011718-1.328125-8.128906-5.347656-9.183593l-47.574219-12.453125c-4-1.042969-8.085937 1.332031-9.148437 5.324218l-12.191406 45.8125-7.226563-3.695312c-3.691406-1.890625-8.207031-.429688-10.09375 3.257812s-.429687 8.207032 3.257813 10.09375zm0 0"/><path d="m488.691406 389.957031c-1.851562-3.707031-6.355468-5.210937-10.0625-3.359375-3.707031 1.851563-5.207031 6.355469-3.355468 10.0625 13.566406 27.15625 20.839843 60.886719 21.652343 100.339844h-173.503906c40.992187-15.390625 91.683594-43.796875 91.683594-90.144531 0-52.472657-28.527344-63.34375-45.535157-65.152344-5.402343-.570313-9.476562-5.1875-9.476562-10.738281 0-6.707032 6.035156-11.832032 12.660156-10.671875 24.589844 4.328125 59.527344 16.632812 86.3125 50.660156 2.5625 3.257813 7.28125 3.816406 10.53125 1.257813 3.257813-2.5625 3.816406-7.277344 1.257813-10.53125-29.71875-37.753907-68.339844-51.378907-95.503907-56.160157-15.808593-2.78125-30.257812 9.425781-30.257812 25.445313 0 13.238281 9.839844 24.269531 22.890625 25.65625 21.316406 2.265625 32.121094 19.167968 32.121094 50.234375 0 11.21875-4.113281 21.257812-10.695313 30.144531h-149.179687c-19.984375-59.640625-31.550781-136.082031-25.660157-205.621094 16.828126 23.796875 41.714844 48.996094 74.261719 75.167969 3.394531 2.730469 8.390625 1.996094 10.863281-1.578125 15.984376-23.089844 20.386719-46.570312 13.09375-69.792969-6.386718-20.335937-20.457031-36.394531-30.886718-46.941406 12.464844 1.703125 25.988281 2.703125 40.449218 2.992187.050782.003907.105469.003907.152344.003907 4.074219 0 7.414063-3.261719 7.496094-7.351563.082031-4.140625-3.207031-7.566406-7.347656-7.648437-21.175782-.421875-40.136719-2.421875-56.496094-5.953125.417969-2.394532.640625-4.855469.640625-7.367188 0-18.238281-11.554687-33.835937-27.726563-39.847656 1.652344-1.152344 3.585938-2.53125 5.789063-4.199219 11.476563-.605469 25.128906-.898437 41.640625-.898437 33.375 0 74.457031 10.085937 85.976562 56.710937-6.257812.476563-12.390624.847657-18.316406 1.113281-4.136718.1875-7.339844 3.691407-7.152344 7.828126.179688 4.023437 3.5 7.164062 7.484376 7.164062.113281 0 .230468-.003906.34375-.007812 8.753906-.394532 17.945312-1.011719 27.320312-1.839844 4.339844-.382813 7.441406-4.371094 6.746094-8.664063-8.039063-49.851562-44.40625-77.304687-102.402344-77.304687-8.640625 0-16.523438.078125-23.742188.242187 15.019532-14.917969 34.789063-39.015625 57.453126-78.671875 2.15625-3.777344.660156-8.601562-3.269532-10.484375-23.851562-11.433593-46.355468-12.042969-66.894531-1.804687-18.5 9.222656-31.550781 25.316406-39.757813 36.625-5.332031 7.347656-9.992187 14.023437-14.144531 20.261718-4.984375-7.695312-10.835937-16.171874-17.4375-25.265624-8.207031-11.304688-21.257812-27.398438-39.753906-36.617188-20.539063-10.238281-43.046875-9.628906-66.894531 1.808594-3.929688 1.886718-5.425782 6.710937-3.269532 10.484375 22.65625 39.644531 42.425782 63.738281 57.445313 78.660156-7.222656-.164063-15.101563-.242187-23.734375-.242187-57.996094 0-94.363281 27.453124-102.4023438 77.304687-.6953122 4.308594 2.4218748 8.285156 6.7460938 8.667969 17.96875 1.585937 34.890625 2.378906 50.703125 2.378906 17.988281 0 34.539063-1.027344 49.550781-3.078125-10.429687 10.542969-24.496094 26.601563-30.886718 46.941406-7.292969 23.222657-2.886719 46.703125 13.09375 69.792969 2.492187 3.601562 7.492187 4.289062 10.867187 1.578125 20.179687-16.226563 37.480469-32.136719 51.699219-47.535156-9.703125 61.425781-6.988282 123.78125 11.257812 182.988281h-35.128906c-4.140625 0-7.5 3.359375-7.5 7.5 0 4.144531 3.359375 7.5 7.5 7.5h246.964844c-11.59375 9.660156-25.621094 17.417969-38.546875 23.320312-30.363281 13.863282-61.234375 20.644532-66.179688 21.679688h-255.238281v-11.539062c0-18.449219 15.011719-33.460938 33.460938-33.460938h47.539062c4.144531 0 7.5-3.355469 7.5-7.5s-3.355469-7.5-7.5-7.5h-47.539062c-26.722657 0-48.460938 21.738281-48.460938 48.460938v19.039062c0 4.144531 3.359375 7.5 7.5 7.5h497c4.144531 0 7.5-3.355469 7.5-7.5 0-45.042969-7.84375-83.582031-23.308594-114.542969zm-361.578125-227.046875c0-15.164062 12.335938-27.5 27.5-27.5 12.671875 0 25.546875 9.40625 27.308594 24.246094-.160156 2.09375-.171875 4.273438 0 6.507812-1.617187 13.636719-13.246094 24.246094-27.308594 24.246094-15.164062 0-27.5-12.335937-27.5-27.5zm64.949219-78.226562c18.621094 0 31.753906 18.160156 26.261719 35.691406-.023438.074219-.046875.148438-.070313.222656-.027344.085938-.054687.167969-.082031.253906-11.855469 1.71875-22.136719 8.34375-28.71875 17.746094-5.507813-7.871094-13.613281-13.796875-23.0625-16.527344-6.90625-17.789062 6.273437-37.386718 25.671875-37.386718zm-2.609375 102.539062c3.609375 5.15625 8.335937 9.480469 13.824219 12.617188-.835938 5.292968-1.605469 10.859375-2.289063 16.710937-9.988281.839844-18.972656.753907-26.253906.328125 1.761719-7.023437 3.621094-13.734375 5.519531-20.097656 3.542969-2.6875 6.648438-5.914062 9.199219-9.558594zm-26.691406 100.710938c11.664062.871094 23.71875.710937 35.585937-.546875.539063 14.714843 1.6875 28.894531 3.242188 42.332031-15.679688.835938-29.636719.679688-40.273438.25-.253906-14.46875.289063-28.519531 1.445313-42.035156zm22.792969-55.742188c4.351562 0 9.023437-.140625 13.945312-.480468-1.117188 13.804687-1.558594 27.394531-1.472656 40.625-13.019532 1.472656-24.65625 1.328124-33.726563.671874 1.753907-14.546874 4.167969-28.378906 6.972657-41.320312 4.195312.296875 9 .503906 14.28125.503906zm-23.679688 112.808594c13.566406.511719 27.699219.417969 41.640625-.363281 2.929687 20.570312 6.695313 39.046875 10.425781 54.582031-17.5625 1.226562-33.210937 1.148438-44.890625.722656-3.894531-18.722656-6.171875-37.105468-7.175781-54.941406zm129.851562-55.445312c-35.15625-29.066407-60.179687-56.558594-74.46875-81.824219.132813-.945313.273438-1.890625.417969-2.835938 2.15625.339844 4.367188.515625 6.621094.515625 14.484375 0 27.300781-7.285156 34.976563-18.382812 3.5 3.355468 7.171874 6.957031 11.089843 10.875 22.152344 22.183594 44.015625 52.359375 21.363281 91.652344zm-39.929687-126.644532c0 15.164063-12.335937 27.5-27.5 27.5-14.0625 0-25.691406-10.609375-27.308594-24.246094.160157-2.09375.171875-4.273437 0-6.507812 1.609375-13.585938 13.199219-24.246094 27.308594-24.246094 15.164063 0 27.5 12.335938 27.5 27.5zm51.160156-138.539062c-31.117187 52.625-55.605469 74-68.601562 83.613281-1.464844-14.882813-10.640625-27.535156-23.46875-33.898437 3.460937-5.105469 7.28125-10.53125 11.542969-16.40625 17.0625-23.503907 41.441406-47.914063 80.527343-33.308594zm-216.914062-4.988282c39.074219-14.609374 63.460937 9.792969 80.53125 33.296876 4.824219 6.648437 9.230469 12.945312 13.171875 18.824218-13.722656 4.160156-24.527344 15.089844-28.519532 28.882813-13.628906-10.714844-36.613281-32.695313-65.183593-81.003907zm-69.519531 150.292969c11.519531-46.625 52.601562-56.714843 85.976562-56.714843 16.460938 0 30.105469.292968 41.617188.894531 2.234374 1.691406 4.191406 3.085937 5.859374 4.246093.117188.84375.261719 1.683594.429688 2.515626-21.46875 2.117187-38.296875 20.277343-38.296875 42.292968 0 1.472656.078125 2.929688.226563 4.367188-26.476563 4.40625-58.628907 5.210937-95.8125 2.398437zm80.75 114.878907c-21.105469-36.617188-5.347657-65.1875 24.460937-94.742188 7.800781 9.515625 19.644531 15.597656 32.878906 15.597656 2.664063 0 5.269531-.246094 7.800781-.71875-1.730468 6.402344-3.320312 12.820313-4.773437 19.25-14.605469 19.1875-34.882813 39.542969-60.367187 60.613282zm75.265624 130.503906c15.109376.414062 30.421876.050781 45.15625-1.074219 2.5 9.3125 4.847657 17.078125 6.75 23.015625h-45.589843c-2.371094-7.347656-4.46875-14.664062-6.316407-21.941406zm0 0"/></svg>