<?xml version="1.0" encoding="iso-8859-1"?>
<!-- Generator: Adobe Illustrator 19.0.0, SVG Export Plug-In . SVG Version: 6.00 Build 0)  -->
<svg version="1.1" id="Layer_1" xmlns="http://www.w3.org/2000/svg" xmlns:xlink="http://www.w3.org/1999/xlink" x="0px" y="0px"
	 viewBox="0 0 512 512" style="enable-background:new 0 0 512 512;" xml:space="preserve">
<path style="fill:#FF3F62;" d="M129.342,310.808c-10.965-8.904-45.116-24.517-62.976-22.416c-0.13,0.01-6.937,0.825-10.984,8.768
	c-9.621,15.879-13.771,48.877-12.191,61.887c2.073,17.07,17.591,29.227,34.661,27.154c12.202-1.482,21.89-9.836,25.668-20.714
	c10.988,2.221,22.806-1.578,30.363-10.884C144.724,341.255,142.69,321.647,129.342,310.808z"/>
<path style="fill:#FF0C38;" d="M72.295,349.885c-1.516-12.482,2.246-43.35,11.049-59.86c-6.315-1.489-12.225-2.192-16.978-1.633
	c-0.13,0.01-6.937,0.825-10.984,8.768c-9.621,15.879-13.771,48.877-12.191,61.887c2.073,17.07,17.591,29.227,34.661,27.154
	c7.542-0.916,14.119-4.463,18.938-9.603C84.109,373.93,73.945,363.467,72.295,349.885z"/>
<path style="fill:#FF3F62;" d="M382.516,310.808c10.965-8.904,45.116-24.517,62.976-22.416c0.13,0.01,6.937,0.825,10.984,8.768
	c9.621,15.879,13.771,48.877,12.191,61.887c-2.073,17.07-17.591,29.227-34.661,27.154c-12.202-1.482-21.89-9.836-25.668-20.714
	c-10.988,2.221-22.806-1.578-30.363-10.884C367.134,341.255,369.168,321.647,382.516,310.808z"/>
<path style="fill:#FF0C38;" d="M410.516,328.761c8.763-7.116,32.33-18.509,50.561-21.728c-1.362-3.69-2.894-7.055-4.601-9.874
	c-4.046-7.943-10.854-8.758-10.984-8.768c-17.86-2.101-52.011,13.511-62.976,22.416c-13.348,10.84-15.382,30.448-4.542,43.796
	c6.101,7.512,14.978,11.43,23.954,11.495C396.017,353.458,399.193,337.956,410.516,328.761z"/>
<path style="fill:#3E3D42;" d="M255.929,412.608c-66.529,0-125.589-31.946-162.697-81.33c-4.967-6.61-15.431-1.879-13.841,6.235
	c16.213,82.704,89.084,145.103,176.537,145.103s160.324-62.399,176.537-145.103c1.591-8.114-8.874-12.845-13.841-6.235
	C381.518,380.663,322.458,412.608,255.929,412.608z"/>
<g>
	<path style="fill:#2D2D30;" d="M189.013,401.324l-0.493,11.844c-0.854,20.49,4.11,40.711,14.356,58.478l2.107,3.653
		c16.153,4.761,33.251,7.318,50.947,7.318s34.794-2.557,50.947-7.318l2.107-3.653c10.246-17.766,15.209-37.987,14.356-58.477
		l-0.493-11.844c-20.958,7.301-43.469,11.285-66.916,11.285S209.97,408.625,189.013,401.324z"/>
	<path style="fill:#2D2D30;" d="M152.502,384.37c-9.129-5.404-17.793-11.506-25.932-18.224c-1.985,5.597-3.454,11.307-4.39,17.131
		c-2.426,15.097-1.039,29.401,2.46,42.427c16.092,17.174,35.517,31.183,57.24,41.009c-11.649-12.8-35.724-44.08-30.055-78.829
		C152.017,386.708,152.247,385.537,152.502,384.37z"/>
</g>
<path style="fill:#57565C;" d="M289.397,199.051h-66.935l-8.964,215.157c-0.655,15.725,3.172,31.313,11.034,44.947l23.528,40.798
	c3.495,6.061,12.243,6.061,15.738,0l23.528-40.798c7.863-13.634,11.689-29.222,11.034-44.947L289.397,199.051z"/>
<path style="fill:#3E3D42;" d="M250.894,414.208l8.964-215.157h-37.396l-8.964,215.157c-0.655,15.725,3.172,31.313,11.034,44.947
	l23.528,40.798c3.495,6.061,12.243,6.061,15.738,0l10.829-18.778l-12.699-22.02C254.066,445.522,250.239,429.934,250.894,414.208z"
	/>
<path style="fill:#FFE477;" d="M263.798,499.954l23.528-40.798c7.076-12.269,10.87-26.122,11.084-40.232
	c-11.313-15.483-21.851-27.23-29.601-35.139c-7.079-7.224-18.682-7.224-25.761,0c-7.75,7.909-18.288,19.656-29.601,35.139
	c0.214,14.11,4.009,27.962,11.084,40.232l23.528,40.798C251.555,506.015,260.303,506.015,263.798,499.954z"/>
<path style="fill:#FFD422;" d="M250.894,414.208l1.478-35.486c-3.424,0.687-6.688,2.372-9.324,5.062
	c-7.75,7.909-18.288,19.656-29.601,35.139c0.214,14.11,4.009,27.962,11.084,40.232l23.528,40.798c3.495,6.061,12.243,6.061,15.738,0
	l10.829-18.778l-12.699-22.02C254.066,445.521,250.239,429.934,250.894,414.208z"/>
<path style="fill:#FF3F62;" d="M243.049,424.968c-6.136,6.262-14.024,14.94-22.656,25.964c1.226,2.806,2.6,5.554,4.14,8.224
	l23.528,40.798c3.495,6.061,12.243,6.061,15.738,0l23.528-40.798c1.54-2.67,2.914-5.418,4.14-8.224
	c-8.633-11.024-16.52-19.702-22.656-25.964C261.731,417.743,250.128,417.743,243.049,424.968z"/>
<path style="fill:#FF0C38;" d="M250.866,420.279c-2.868,0.838-5.571,2.396-7.818,4.689c-6.136,6.262-14.024,14.94-22.656,25.964
	c1.226,2.806,2.6,5.554,4.14,8.224l23.528,40.798c3.495,6.061,12.243,6.061,15.738,0l10.829-18.778l-12.699-22.02
	C255.079,447.279,251.296,433.92,250.866,420.279z"/>
<path style="fill:#3E3D42;" d="M292.776,280.149l-1.585-38.039c-15.519,15.624-38.09,29.915-67.606,42.749
	c-1.618,0.704-3.202,1.416-4.787,2.128l-1.409,33.832c5.761-2.865,11.803-5.684,18.16-8.448
	C257.999,302.608,277.083,291.853,292.776,280.149z"/>
<path style="fill:#E0E0E2;" d="M255.929,7.5c-26.083,0-47.228,21.145-47.228,47.228s21.145,47.228,47.228,47.228
	s47.228-21.145,47.228-47.228S282.012,7.5,255.929,7.5z M255.929,76.956c-12.256,0-22.228-9.972-22.228-22.228
	S243.673,32.5,255.929,32.5s22.228,9.972,22.228,22.228S268.185,76.956,255.929,76.956z"/>
<path style="fill:#FFC477;" d="M283.741,54.385c-6.263-5.42-15.737-4.737-21.158,1.528c-5.421,6.264-4.737,15.737,1.527,21.158
	c0.571,0.494,56.989,50.01,48.866,103.195c-4.175,27.332-25.047,51.808-62.14,73.01l13.495,26.801
	c46.323-26.205,72.631-58.156,78.301-95.281C353.229,115.417,286.583,56.845,283.741,54.385z"/>
<path style="fill:#FFA733;" d="M312.977,180.266c-1.613,10.56-5.73,20.691-12.3,30.374h34.294c3.735-8.312,6.3-16.927,7.662-25.844
	c2.847-18.641,0.114-36.5-5.456-52.702H305.01C311.611,146.808,315.561,163.35,312.977,180.266z"/>
<path style="fill:#57565C;" d="M218.533,149.28l16.199-56.17c6.132-21.263,36.261-21.263,42.394,0l16.199,56.17H218.533z"/>
<path style="fill:#CC7400;" d="M385.266,143.683H126.593c-15.226,0-27.684,12.458-27.684,27.684l0,0
	c0,15.226,12.458,27.684,27.684,27.684h258.673c15.226,0,27.684-12.458,27.684-27.684l0,0
	C412.95,156.141,400.492,143.683,385.266,143.683z"/>
<path style="fill:#AA6100;" d="M126.593,171.367h258.673c10.191,0,19.136,5.585,23.941,13.842c2.374-4.079,3.743-8.807,3.743-13.842
	c0-15.226-12.458-27.684-27.684-27.684H126.593c-15.226,0-27.684,12.458-27.684,27.684c0,5.035,1.369,9.763,3.743,13.842
	C107.457,176.952,116.401,171.367,126.593,171.367z"/>
<path style="fill:#78B9EB;" d="M297.056,132.094h-82.254c-15.922,0-28.948,13.027-28.948,28.948v20.65
	c0,15.922,13.027,28.948,28.948,28.948h82.254c15.922,0,28.948-13.027,28.948-28.948v-20.65
	C326.004,145.121,312.978,132.094,297.056,132.094z"/>
<path style="fill:#5AAAE7;" d="M297.056,132.094h-82.254c-15.922,0-28.948,13.027-28.948,28.948v10.325h140.151v-10.325
	C326.004,145.121,312.978,132.094,297.056,132.094z"/>
<path style="fill:#E0E0E2;" d="M255.929,127.933c-23.988,0-43.434,19.446-43.434,43.434s19.446,43.434,43.434,43.434
	s43.434-19.446,43.434-43.434C299.363,147.379,279.917,127.933,255.929,127.933z M255.929,189.801
	c-10.165,0-18.434-8.27-18.434-18.434c0-10.165,8.27-18.435,18.434-18.435c10.165,0,18.434,8.27,18.434,18.435
	C274.363,181.532,266.094,189.801,255.929,189.801z"/>
<path style="fill:#FFC477;" d="M170.003,494.004c5.496-6.18,5.007-15.633-1.136-21.17c-0.435-0.392-43.425-39.741-36.049-84.958
	c5.673-34.779,39.273-65.773,99.865-92.12c39.103-17.003,68.013-37.013,86.53-59.813l-23.226-18.968
	c-15.313,18.98-40.466,36.137-75.267,51.27c-70.671,30.73-110.22,69.43-117.546,115.025c-9.882,61.498,43.414,109.89,45.687,111.92
	C151.718,497.741,162.596,502.333,170.003,494.004z"/>
<path d="M255.929,197.301c14.3,0,25.934-11.634,25.934-25.934s-11.634-25.935-25.934-25.935s-25.934,11.634-25.934,25.935
	S241.629,197.301,255.929,197.301z M255.929,160.433c6.029,0,10.934,4.905,10.934,10.935s-4.905,10.934-10.934,10.934
	s-10.934-4.905-10.934-10.934S249.9,160.433,255.929,160.433z"/>
<path d="M368.776,433.054c-2.454,2.126-4.996,4.207-7.556,6.184c-3.278,2.532-3.902,7.256-1.351,10.52
	c4.226,5.408,9.155,2.405,10.52,1.351c2.782-2.148,5.544-4.409,8.21-6.719c3.13-2.712,3.469-7.449,0.756-10.58
	C376.644,430.68,371.907,430.342,368.776,433.054z"/>
<path d="M463.028,293.503c-4.774-9.14-12.909-12.197-16.766-12.572c-20.81-2.375-56.635,14.44-68.474,24.054
	c-8.011,6.505-13.009,15.741-14.073,26.006c-1.065,10.265,1.932,20.33,8.438,28.34c1.289,1.588,2.689,3.055,4.186,4.402
	c-20.982,16.373-45.164,28.378-71.112,35.108l-5.584-134.027c16.393-13.053,24.547-23.088,25.415-24.18
	c8.697-10.71,15.3-22.155,19.681-34.083h40.527c19.4,0,35.184-15.784,35.184-35.184s-15.784-35.184-35.184-35.184h-38.931
	c-8.013-27.584-24.408-51.068-37.691-66.745c1.33-4.771,2.013-9.703,2.013-14.71C310.657,24.551,286.106,0,255.929,0
	s-54.728,24.551-54.728,54.728c0,18.264,8.833,34.911,23.777,45.138l-7.132,24.728h-3.044c-10.496,0-19.964,4.465-26.621,11.589
	h-61.589c-19.4,0-35.184,15.784-35.184,35.184s15.784,35.184,35.184,35.184h43.336c4.142,0,7.5-3.358,7.5-7.5s-3.358-7.5-7.5-7.5
	h-43.336c-11.129,0-20.184-9.055-20.184-20.184s9.055-20.184,20.184-20.184h53.127c-0.883,3.138-1.366,6.443-1.366,9.859v20.649
	c0,19.882,16.005,36.087,35.806,36.432l-1.902,45.659c-30.362,13.6-54.923,28.827-73.614,45.59
	c-1.395-1.572-2.917-3.041-4.574-4.387c-11.838-9.613-47.665-26.426-68.474-24.054c-3.856,0.375-11.991,3.433-16.765,12.572
	c-10.208,17.083-14.904,51.469-13.084,66.449c1.244,10.245,6.403,19.391,14.527,25.755c6.868,5.38,15.159,8.227,23.748,8.227
	c1.571,0,3.152-0.095,4.736-0.288c3.989-0.485,7.879-1.594,11.508-3.263c1.117,2.106,4.226,5.827,4.226,5.827
	c-1.298,58.572,47.15,102.588,49.373,104.574c3.054,2.727,20.23,10.549,31.742-1.796c6.574-7.05,7.321-17.434,3.087-25.504
	c17.133,7.757,35.399,12.898,54.212,15.205l8.657,15.012c2.997,5.196,8.368,8.299,14.366,8.299c5.999,0,11.369-3.103,14.366-8.299
	l8.65-15c26.499-3.237,51.501-11.912,74.36-25.84c3.538-2.155,4.658-6.77,2.502-10.307c-2.154-3.538-6.769-4.658-10.307-2.502
	c-17.703,10.787-36.803,18.152-56.946,21.988l5.269-9.137c8.542-14.813,12.7-31.663,12.037-48.745
	c76.07-19.158,119.275-78.225,119.248-78.088c-6.183,31.537-21.11,60.688-43.167,84.302c-2.827,3.027-2.601,7.705,0.361,10.601
	c4.462,4.361,9.124,1.22,10.601-0.361c11.372-12.175,20.977-25.718,28.675-40.239c3.635,1.673,47.418,16.628,54.535-30.421
	C478.369,345.031,473.235,310.586,463.028,293.503z M206.631,398.844c-21.686-5.608-42.041-14.823-60.664-27.494
	c10.001-20.374,31.474-39.301,64.166-56.555L206.631,398.844z M221.023,421.291c10.857-14.623,20.82-25.56,27.382-32.258
	c2.001-2.042,4.673-3.167,7.523-3.167s5.522,1.125,7.523,3.167c6.563,6.697,16.525,17.635,27.382,32.258
	c-0.233,4.884-0.928,9.717-2.09,14.438c-4.801-5.652-9.678-11.01-14.578-16.011c-4.846-4.945-11.323-7.669-18.237-7.669
	c-6.915,0-13.392,2.724-18.237,7.668c-4.901,5.001-9.778,10.359-14.578,16.011C221.951,431.009,221.257,426.175,221.023,421.291z
	 M290.102,396.164c-6.229-7.422-11.743-13.351-15.935-17.629c-4.846-4.945-11.323-7.669-18.237-7.669
	c-6.915,0-13.392,2.724-18.237,7.669c-4.192,4.278-9.706,10.206-15.935,17.629l3.706-88.954c3.305-1.537,6.7-3.061,10.193-4.569
	c19.994-8.631,36.375-18.147,49.422-27.085L290.102,396.164z M405.45,171.367c0,11.129-9.055,20.184-20.184,20.184h-53.127
	c0.883-3.138,1.366-6.443,1.366-9.859v-20.649c0-3.417-0.483-6.721-1.366-9.859h53.127
	C396.395,151.183,405.45,160.238,405.45,171.367z M323.677,136.183c-3.499-3.744-7.771-6.756-12.565-8.767
	C296.047,95.012,269.29,71.634,269.019,71.4c-1.515-1.311-2.429-3.133-2.573-5.131c-0.144-1.998,0.498-3.933,1.81-5.448
	c1.311-1.515,3.133-2.429,5.131-2.573c1.999-0.144,3.932,0.498,5.447,1.809c1.63,1.411,37.642,32.959,51.809,76.126L323.677,136.183
	L323.677,136.183z M255.929,135.433c19.814,0,35.934,16.12,35.934,35.935c0,19.814-16.12,35.934-35.934,35.934
	s-35.934-16.12-35.934-35.934C219.995,151.553,236.115,135.433,255.929,135.433z M235.786,218.14
	c6.182,2.673,12.991,4.161,20.143,4.161c7.194,0,14.039-1.508,20.25-4.21v0.049h6.506l0.062,1.491
	c-9.607,8.905-28.241,24.127-55.187,37.218l1.613-38.709L235.786,218.14L235.786,218.14z M295.695,203.14
	c6.98-8.718,11.168-19.763,11.168-31.773c0-12.011-4.188-23.056-11.168-31.773c0,0,22.809,0.656,22.809,21.449v20.649
	C318.504,203,295.695,203.14,295.695,203.14z M256.911,51.005c-8.316,8.328-5.316,17.327-5.249,17.815
	c-6.046-1.834-10.462-7.455-10.462-14.093c0-8.121,6.607-14.728,14.728-14.728c4.085,0,7.858,1.716,10.566,4.505
	C262.823,45.784,259.733,48.18,256.911,51.005z M216.201,54.728c0-21.906,17.822-39.728,39.728-39.728s39.728,17.822,39.728,39.728
	c0,0.196-6.58-5.643-7.008-6.014c-1.354-1.172-2.83-2.142-4.379-2.949C280.403,33.573,268.931,25,255.929,25
	c-16.392,0-29.728,13.336-29.728,29.728c0,8.849,3.891,16.803,10.047,22.253c-2.501,2.211-4.59,4.859-6.211,7.871
	C221.285,77.367,216.201,66.517,216.201,54.728z M241.939,95.188c1.658-5.751,5.472-8.326,8.378-9.473
	c4.164-1.643,9.053-1.315,12.893,0.809c1.525,1.5,3.412,3.419,5.541,5.708c0.473,0.916,9.649,32.361,9.649,32.361h-2.329
	c-6.182-2.673-12.991-4.161-20.143-4.161c-7.194,0-14.039,1.508-20.25,4.21v-0.049h-2.221L241.939,95.188z M193.354,181.692v-20.649
	c0-21.542,22.809-21.449,22.809-21.449c-6.98,8.718-11.168,19.763-11.168,31.773s4.188,23.055,11.168,31.773
	C216.163,203.14,193.354,202.167,193.354,181.692z M67.243,295.841c0.029-0.003,0.057-0.007,0.086-0.01
	c-0.238,0.04-0.379,0.039-0.4,0.041C67.034,295.863,67.139,295.853,67.243,295.841z M76.949,378.756
	c-12.938,1.576-25.089-7.638-26.312-20.613c-4.708-49.976,16.193-62.204,16.714-62.315c15.238-1.704,47.278,12.693,57.263,20.801
	c1.207,0.98,2.298,2.064,3.275,3.236c-6.465,6.906-11.99,14.054-16.59,21.435c-4.251-4.654-8.302-9.511-12.071-14.527
	c-4.363-5.807-11.753-7.722-18.39-4.767c-6.672,2.972-10.211,9.783-8.807,16.949c2.561,13.062,6.498,25.741,11.743,37.899
	C81.618,377.82,79.313,378.469,76.949,378.756z M86.718,335.87c0.064-0.104,11.211,13.229,17.113,19.377
	c-2.431,5.418-4.382,10.955-5.874,16.602C92.93,360.386,86.734,335.844,86.718,335.87z M163.845,478.405
	c3.059,2.757,3.307,7.52,0.553,10.616c-4.201,4.725-10.518,0.592-10.542,0.575c-2.148-1.918-52.515-47.653-43.278-105.136
	c6.932-43.135,44.989-79.918,113.114-109.329c50.203-21.673,80.442-56.418,81.53-57.924c7.193-1.654,13.578-5.437,18.454-10.655
	h4.904c-3.729,8.547-8.825,16.824-15.251,24.733c-0.26,0.327-26.648,32.991-83.619,57.585
	c-63.059,27.222-98.149,60.126-104.294,97.798c-3.997,24.502,5.397,47.24,15.896,63.95l0.44,0.693
	C152.221,467.764,163.615,478.197,163.845,478.405z M152.886,440.914c-19.957-32.914-12.29-53.933-12.061-54.98
	c20.058,13.112,41.917,22.582,65.174,28.219c-0.663,17.083,3.494,33.935,12.037,48.749l5.25,9.104
	C197.832,467.12,173.773,456.513,152.886,440.914z M255.929,497c-0.417,0-0.994-0.138-1.372-0.792c0,0-24.799-43.094-25.393-44.259
	c6.291-7.81,12.75-15.107,19.241-21.731c2.001-2.042,4.673-3.167,7.523-3.167s5.522,1.125,7.523,3.167
	c6.492,6.624,12.95,13.921,19.241,21.731c-0.594,1.166-25.393,44.259-25.393,44.259C256.923,496.862,256.347,497,255.929,497z
	 M461.221,358.143c-0.533,6.291-3.917,11.863-8.887,15.756c-4.97,3.894-11.158,5.617-17.425,4.857
	c-2.402-0.292-4.687-0.928-6.834-1.892c5.231-12.132,9.187-24.829,11.751-37.908c1.405-7.167-2.134-13.978-8.807-16.949
	c-6.636-2.955-14.026-1.04-18.39,4.767c-7.4,9.848-15.663,18.906-24.638,27.106c-1.541-1.155-2.957-2.478-4.195-4.003
	c-3.98-4.9-5.813-11.058-5.162-17.337s3.708-11.929,8.609-15.909c9.985-8.109,42.024-22.511,57.263-20.802
	C445.029,295.939,464.762,316.333,461.221,358.143z"/>
<g>
</g>
<g>
</g>
<g>
</g>
<g>
</g>
<g>
</g>
<g>
</g>
<g>
</g>
<g>
</g>
<g>
</g>
<g>
</g>
<g>
</g>
<g>
</g>
<g>
</g>
<g>
</g>
<g>
</g>
</svg>
