<?xml version="1.0" encoding="iso-8859-1"?>
<!-- Generator: Adobe Illustrator 19.0.0, SVG Export Plug-In . SVG Version: 6.00 Build 0)  -->
<svg version="1.1" id="Layer_1" xmlns="http://www.w3.org/2000/svg" xmlns:xlink="http://www.w3.org/1999/xlink" x="0px" y="0px"
	 viewBox="0 0 511.999 511.999" style="enable-background:new 0 0 511.999 511.999;" xml:space="preserve">
<path style="fill:#C6C5CA;" d="M486.587,284.49l-29.16-50.507c-1.599-2.77-4.554-4.476-7.752-4.476
	c-3.198,0-6.153,1.706-7.752,4.476l-29.428,50.97c-6.211,12,0.44,13.428,7.752,13.428h20.204
	c-29.849,60.468-88.578,104.115-158.178,112.936V155.853h-51.38l0.034,255.564c-69.47-8.525-128.199-51.736-158.356-111.785h19.556
	c0.006,0,0.011,0,0.018,0c8.18,0,13.095-4.125,7.467-13.89l-29.16-50.507c-1.599-2.77-4.554-4.476-7.752-4.476
	s-6.153,1.706-7.752,4.476l-29.428,50.97c-6.457,11.326,1.351,13.64,7.752,13.428H52.12
	C63.632,402.153,150.6,481.848,256.196,481.848c106.026,0,193.278-80.344,204.219-183.468H479.1c0.006-0.001,0.011-0.001,0.018,0
	C486.967,298.38,492.172,294.35,486.587,284.49z"/>
<g>
	<path style="fill:#ACABB1;" d="M230.894,155.853l0.015,255.564c-57.224-7.022-107.143-37.593-139.825-81.71h-0.794
		c27.948,55.653,80.447,96.821,143.286,109.34c12.652,1.854,14.747-8.935,15.016-14.248l-0.87-268.947h-16.829V155.853z"/>
	<rect x="230.895" y="178.942" style="fill:#ACABB1;" width="51.379" height="23.015"/>
</g>
<path style="fill:#E0E0E2;" d="M255.524,464.88c-72.323-0.313-135.397-26.976-171.526-76.699
	c36.444,56.115,99.544,93.353,171.453,93.664c69.183,0.299,130.513-33.65,167.949-85.913
	C386.354,441.451,325.147,465.182,255.524,464.88z"/>
<path style="fill:#C6C5CA;" d="M256.013,137.908c-35.887,0-65.083-29.196-65.083-65.083s29.195-65.083,65.083-65.083
	s65.083,29.196,65.083,65.083S291.9,137.908,256.013,137.908z M256.013,43.899c-15.949,0-28.926,12.975-28.926,28.926
	s12.975,28.926,28.926,28.926c15.949,0,28.926-12.975,28.926-28.926S271.962,43.899,256.013,43.899z"/>
<path style="fill:#ACABB1;" d="M206.794,72.825c0-33.201,24.994-60.655,57.151-64.582c-2.602-0.318-5.245-0.501-7.932-0.501
	c-35.887,0-65.083,29.196-65.083,65.083c0,35.887,29.196,65.083,65.083,65.083c2.687,0,5.33-0.183,7.932-0.501
	C231.788,133.48,206.794,106.025,206.794,72.825z"/>
<path style="fill:#FF728B;" d="M310.856,178.988H201.169c-11.355,0-20.645-9.29-20.645-20.645v-4.98
	c0-11.355,9.29-20.645,20.645-20.645h109.687c11.355,0,20.645,9.29,20.645,20.645v4.98
	C331.501,169.698,322.211,178.988,310.856,178.988z"/>
<g>
	<path style="fill:#FF3F62;" d="M230.191,155.853L230.191,155.853c0-12.725,10.41-23.135,23.135-23.135h-49.667
		c-12.725,0-23.135,10.41-23.135,23.135l0,0c0,12.725,10.41,23.135,23.135,23.135h49.667
		C240.602,178.988,230.191,168.577,230.191,155.853z"/>
	<path style="fill:#FF3F62;" d="M301.926,178.987h8.93c11.355,0,20.645-9.29,20.645-20.645v-4.98
		c0-11.355-9.29-20.645-20.645-20.645H278.48C288.429,143.951,299.154,159.996,301.926,178.987z"/>
</g>
<g>
	<path style="fill:#E0E0E2;" d="M291.618,450.066c-3.647,0-6.894-2.589-7.598-6.303c-0.796-4.201,1.965-8.252,6.167-9.048
		c20.456-3.874,39.393-10.057,56.285-18.377c3.836-1.89,8.477-0.312,10.366,3.524c1.89,3.836,0.312,8.476-3.524,10.366
		C335.167,439.167,292.095,450.066,291.618,450.066z"/>
	<path style="fill:#E0E0E2;" d="M365.58,414.822c-2.488-3.478-1.465-8.355,2.078-10.75c3.181-2.151,6.296-4.418,9.256-6.738
		c3.365-2.636,8.231-2.046,10.869,1.319c2.637,3.366,2.046,8.232-1.319,10.869c-3.244,2.541-6.653,5.023-10.134,7.376
		C375.001,417.798,369.561,420.387,365.58,414.822z"/>
</g>
<path d="M190.484,71.462c0.362,0.051,7.378,1.363,8.737-6.598c0.271-1.592,0.517-3.208,0.875-4.782
	c0.949-4.169-1.662-8.318-5.831-9.267c-4.168-0.951-8.319,1.662-9.267,5.831c-0.455,2.001-0.83,4.044-1.114,6.078
	C183.296,66.959,186.25,70.871,190.484,71.462z"/>
<path d="M493.292,280.619l-29.16-50.507c-2.973-5.148-8.513-8.346-14.457-8.346c-5.945,0-11.485,3.199-14.457,8.347l-29.428,50.97
	c-0.06,0.103-0.117,0.206-0.171,0.312c-1.42,2.745-5.743,11.097-1.516,18.045c4.066,6.683,12.53,6.683,16.143,6.683h7.304
	c-29.336,51.041-79.558,86.235-137.536,96.213v-36.056c0-4.276-3.466-7.742-7.742-7.742s-7.742,3.466-7.742,7.742v45.037
	c0,2.222,0.956,4.339,2.624,5.809c1.667,1.469,3.885,2.152,6.091,1.871c71.003-8.999,132.365-52.808,164.147-117.189
	c1.184-2.4,1.046-5.241-0.366-7.514c-1.413-2.273-3.899-3.655-6.576-3.655c0,0-21.547-0.019-22.05-0.047
	c0.215-0.531,30.227-52.737,30.227-52.737c0.43-0.746,1.664-0.745,2.094,0c0,0,29.984,52.126,30.175,52.659
	c-0.452,0.072-20.482,0.126-20.482,0.126c-3.96,0-7.282,2.988-7.699,6.925c-10.678,100.645-95.162,176.542-196.52,176.542
	c-6.547,0-13.022-0.325-19.416-0.949c-11.323-14.452-23.192-34.358-27.084-57.553c6.664,1.479,13.431,2.655,20.288,3.497
	c2.202,0.269,4.413-0.417,6.074-1.887c1.661-1.47,2.612-3.581,2.612-5.799l-0.03-224.686h35.892v156.153
	c0,4.276,3.466,7.742,7.742,7.742s7.742-3.466,7.742-7.742v-64.151c30.133-30.563,44.76-62.14,43.493-94.15
	c-0.111-2.812-0.348-5.57-0.687-8.28c4.01-4.896,6.422-11.151,6.422-17.959v-4.98c0-15.279-12.137-27.773-27.275-28.359
	c-0.732-1.034-1.47-2.047-2.212-3.04c12.043-13.159,19.082-30.549,19.082-49.14C328.838,32.669,296.169,0,256.013,0
	c-25.332,0-48.467,12.886-61.887,34.469c-2.258,3.631-1.145,8.406,2.487,10.663c3.631,2.259,8.405,1.144,10.663-2.487
	c10.574-17.009,28.794-27.162,48.737-27.162c31.618,0,57.341,25.723,57.341,57.341c0,13.894-4.996,26.938-13.617,37.09
	c-5.639-6.127-10.958-10.953-15.003-14.337c4.967-6.258,7.945-14.162,7.945-22.753c0-20.219-16.449-36.668-36.668-36.668
	s-36.668,16.449-36.668,36.668c0,20.218,16.449,36.667,36.668,36.667c5.915,0,11.502-1.416,16.455-3.914
	c3.636,2.919,9.43,7.927,15.686,14.72c-2.614,1.768-5.394,3.336-8.326,4.679h-47.723c-0.167-0.095-0.334-0.191-0.511-0.275
	c-16.664-7.879-28.61-23.348-31.959-41.376c-0.78-4.203-4.819-6.979-9.026-6.198c-4.203,0.78-6.979,4.822-6.198,9.026
	c2.77,14.911,10.166,28.438,20.824,38.823h-4.065c-15.653,0-28.387,12.734-28.387,28.387v4.98c0,15.653,12.734,28.387,28.387,28.387
	h21.987l0.019,134.587c-18.87,23.542-28.987,48.161-30.166,73.59c-44.892-15.086-83.126-45.962-107.43-87.532h6.568
	c10.007,0,14.216-4.699,15.835-7.5c1.99-3.444,3.317-9.363-1.663-18.003l-29.16-50.507c-2.973-5.148-8.513-8.346-14.457-8.346
	c-5.945,0-11.485,3.199-14.457,8.347L18.797,282.37c-3.999,7.014-4.53,13.051-1.577,17.942c2.882,4.774,8.623,7.283,16.174,7.062
	h11.921c7.139,49.069,31.253,94.15,68.385,127.566c32.255,29.026,72.277,47.299,114.851,52.845
	c11.562,13.724,21.708,21.8,22.688,22.567c1.416,1.109,3.097,1.646,4.765,1.646c2.296,0,4.568-1.018,6.095-2.964
	c2.638-3.361,2.051-8.226-1.307-10.868c-0.139-0.109-3.953-3.158-9.461-8.635c1.62,0.037,3.241,0.056,4.865,0.056
	c52.959,0,103.731-19.555,142.963-55.064c37.213-33.682,61.226-79.059,68.106-128.404h11.837c0.004,0,0.01,0,0.018,0
	c9.876,0,14.085-4.692,15.715-7.488C496.839,295.196,498.203,289.289,493.292,280.619z M290.017,255.766v-69.036h20.84
	c2.486,0,4.897-0.323,7.196-0.926C318.798,209.114,309.389,232.537,290.017,255.766z M234.829,72.825
	c0-11.681,9.503-21.184,21.184-21.184c11.681,0,21.184,9.503,21.184,21.184c0,11.68-9.503,21.183-21.184,21.183
	C244.332,94.009,234.829,84.506,234.829,72.825z M188.266,158.343v-4.98c0-7.115,5.788-12.903,12.903-12.903h102.38
	c5.363,8.694,9.947,18.67,12.469,29.701c-1.582,0.694-3.326,1.085-5.161,1.085H201.169
	C194.054,171.246,188.266,165.458,188.266,158.343z M223.178,348.451l0.007,54.021c-4.991-0.838-9.921-1.876-14.79-3.081
	C208.502,382.107,213.442,365.09,223.178,348.451z M59.815,298.769c-0.44-3.916-3.752-6.878-7.693-6.878
	c0,0-20.326,0.004-20.79-0.038c0.202-0.475,30.323-52.746,30.323-52.746c0.43-0.747,1.664-0.745,2.094,0
	c0,0,30.01,52.131,30.212,52.663c-0.47,0.07-21.388,0.122-21.388,0.122c-2.686,0-5.18,1.391-6.589,3.678s-1.535,5.14-0.329,7.539
	c26.443,52.657,72.775,91.335,127.833,108.209c2.351,22.75,11.438,42.656,21.743,58.541
	C133.38,452.638,69.477,384.811,59.815,298.769z"/>
<g>
</g>
<g>
</g>
<g>
</g>
<g>
</g>
<g>
</g>
<g>
</g>
<g>
</g>
<g>
</g>
<g>
</g>
<g>
</g>
<g>
</g>
<g>
</g>
<g>
</g>
<g>
</g>
<g>
</g>
</svg>
