<svg id="_x33_0" enable-background="new 0 0 64 64" height="512" viewBox="0 0 64 64" width="512" xmlns="http://www.w3.org/2000/svg"><g><g><g fill="#fcd770"><path d="m19.78 52.87-.08.68c0 .02 0 .03-.01.05-.15 1.3-.8 2.43-1.74 3.21-.04.04-.07.08-.12.1-1.7-.94-3.12-2.33-4.1-3.99h-.01c-.7-1.18-1.19-2.51-1.4-3.92-.03-.2-.06-.4-.08-.6l-1.24-12.4 8 6c-1.61.53-2.67 2.05-2.67 3.71 0 .14 0 .29.02.43.14 1.28.53 2.48 1.13 3.56.59 1.08 1.39 2.04 2.35 2.83h.02c-.03.11-.06.22-.07.34z"/><path d="m22.75 57.67c.66-.96 1.09-2 1.21-3.06l1.04.39 5.64 5.64-8.47-2.23c.21-.24.4-.49.58-.74z"/><path d="m53 36-1.24 12.4c-.46 4.57-3.7 8.37-8.15 9.54l-10.25 2.7 5.64-5.64 2.48-.93c1.7-.63 3.14-1.72 4.21-3.09 1.07-1.38 1.76-3.04 1.96-4.84.02-.14.02-.29.02-.43 0-.9-.3-1.75-1.69-3.22-.29-.21-.62-.37-.98-.49l.98-.74z"/><path d="m37.73 52.52c-.55-1.26-.97-2.58-1.26-3.93-.31-1.45-.47-2.93-.47-4.42v-8.17h-4-1-3v8.17c0 1.91-.26 3.79-.76 5.62-.51 1.82-1.26 3.57-2.24 5.21l5.64 5.64 1.36 1.36 1.36-1.36 5.64-5.64c-.48-.8-.9-1.63-1.27-2.48z"/><path d="m32 25h-4v7h4 1 3v-7z"/><path d="m40 21v4h-4-4-4-4v-4h8z"/><path d="m33.96 7.28c-.12.42-.51.72-.96.72h-2c-.45 0-.84-.3-.96-.72-2.32.68-4.14 2.52-4.78 4.85-.17.59-.26 1.22-.26 1.87 0 .86.15 1.68.44 2.44.99 2.67 3.55 4.56 6.56 4.56 3.87 0 7-3.13 7-7 0-3.19-2.13-5.87-5.04-6.72zm-1.96 9.72c-1.66 0-3-1.34-3-3s1.34-3 3-3 3 1.34 3 3-1.34 3-3 3z"/></g><path d="m30 2v2 3c0 .1.01.19.04.28.12.42.51.72.96.72h2c.45 0 .84-.3.96-.72.03-.09.04-.18.04-.28v-1-4z" fill="#ecc19c"/><path d="m45.98 41.26c-.07-1.2-.35-2.34-.81-3.39-.69-1.57-1.78-2.92-3.13-3.93-1.19-.89-2.59-1.51-4.12-1.78-.56-.11-1.15-.16-1.74-.16h-.18-3-1-4-1.3c-1.06 0-2.08-.22-3-.61-1.15-.49-2.16-1.25-2.94-2.2-.56-.67-1.01-1.45-1.31-2.3-.29-.81-.45-1.68-.45-2.59 0-.42.04-.84.1-1.25.25-1.52.95-2.91 1.98-4.01.69-.74 1.53-1.35 2.49-1.77l.5-.22 1.37-.61c-.29-.76-.44-1.58-.44-2.44 0-.65.09-1.28.26-1.87h-.01l-3.3 1.48c-.51.23-.99.48-1.45.77-1.21.76-2.25 1.71-3.09 2.82-.91 1.19-1.59 2.55-1.99 4.01-.28.99-.42 2.03-.42 3.09 0 .59.04 1.16.12 1.73.32 2.08 1.18 3.98 2.43 5.56 1.01 1.26 2.27 2.31 3.71 3.07 1.43.75 3.04 1.22 4.75 1.31.23.02.46.03.69.03h1.3 3 1 4 .18c1.29 0 2.49.42 3.45 1.15 1.07.77 1.85 1.91 2.18 3.23.13.46.19.94.19 1.44 0 1.14-.33 2.24-.95 3.17-.41.65-.97 1.22-1.64 1.67l-1.28.84h-.01l-1.65 1.09c.29 1.35.71 2.67 1.26 3.93l3.9-2.54c.46-.31.88-.65 1.28-1.02 1.41-1.32 2.4-3.03 2.83-4.91.13-.51.2-1.03.24-1.56-.29-.21-.62-.37-.98-.49z" fill="#ecc19c"/><path d="m23.38 51.62c-.38-.38-.92-.62-1.5-.62-.95 0-1.77.64-2.03 1.53-.03.11-.06.22-.07.34l-.08.68c0 .02 0 .03-.01.05-.15 1.3-.8 2.43-1.74 3.21-.04.04-.07.08-.12.1-.79.64-1.77 1.03-2.83 1.08-.09.01-.18.01-.27.01h-.07c-.93 0-1.83-.47-2.3-1.24-.09-.15-.16-.3-.22-.47-.26-.78-.15-1.56.24-2.19.18-.31.44-.58.76-.79l.58-.39c-.7-1.18-1.19-2.51-1.4-3.92l-1.4.98c-1.16.77-2.02 1.87-2.49 3.13-.6 1.57-.6 3.39.17 5.13.12.26.25.51.41.75 1.07 1.71 2.96 2.78 5 2.97.23.03.46.04.69.04h.03c1.46 0 2.93-.4 4.25-1.08v-.01c1.23-.63 2.34-1.5 3.19-2.5.21-.24.4-.49.58-.74.66-.96 1.09-2 1.21-3.06.03-.2.04-.41.04-.61v-.88c0-.58-.24-1.12-.62-1.5z" fill="#ecc19c"/></g><g><path d="m32 18c2.206 0 4-1.794 4-4s-1.794-4-4-4-4 1.794-4 4 1.794 4 4 4zm0-6c1.103 0 2 .897 2 2s-.897 2-2 2-2-.897-2-2 .897-2 2-2z"/><path d="m46.729 39.453c-1.026-4.597-4.959-8.055-9.729-8.413v-5.04h4v-6h-3.726c1.667-1.467 2.726-3.61 2.726-6 0-3.261-2.027-6.178-5-7.39v-5.61h-6v5.61c-2.151.877-3.809 2.637-4.557 4.79l-2.903 1.3c-4.58 2.035-7.54 6.59-7.54 11.602 0 7.002 5.696 12.698 12.698 12.698h.302v7.169c0 3.038-.7 6.027-2.02 8.748-.105-1.624-1.445-2.917-3.096-2.917-.882 0-1.676.377-2.247.975-1.277-1.35-2.086-3.066-2.295-4.942-.15-1.355.68-2.653 1.974-3.084l1.81-.604-11.348-8.511 1.467 14.666c.001.009.003.018.004.028l-.883.623c-3.078 2.052-4.204 6.046-2.677 9.497 1.169 2.644 3.921 4.352 7.045 4.352 2.919 0 5.807-1.416 7.773-3.464l7.62 2.005 1.873 1.873 1.873-1.872 9.996-2.63c4.82-1.269 8.391-5.453 8.887-10.411l1.467-14.666zm-.072 6.58c-.36 3.236-2.478 5.957-5.526 7.1l-1.675.628c-.158-.289-.309-.582-.452-.878l3.179-2.067c2.141-1.427 3.659-3.512 4.367-5.91.105.359.15.739.107 1.127zm-28.213-24.429-1.811-.906c.28-.78.645-1.526 1.093-2.217l1.814.907c-.468.681-.837 1.425-1.096 2.216zm-.396 2.038c-.016.22-.048.437-.048.66 0 .443.044.875.108 1.3l-2.063-.413c-.024-.293-.045-.587-.045-.887 0-.548.044-1.09.126-1.621zm.675 4.123c.184.421.403.823.648 1.207l-1.605 1.204c-.578-.875-1.027-1.84-1.329-2.868zm1.277-3.463c0-2.644 1.562-5.046 3.978-6.121l.962-.428c.456.854 1.065 1.611 1.786 2.246h-3.726v6h4v5h-.302c-3.694.001-6.698-3.003-6.698-6.697zm22.965 18.074 1.718.573c.076.025.145.063.218.095-.007.053-.012.107-.02.161l-2.134.427c.113-.408.183-.828.218-1.256zm-4.682 6.221 2.481.757-2.552 1.659c-.235-.647-.432-1.307-.6-1.974zm4.351-.763-2.229-.681c.468-.37.882-.793 1.233-1.261l2.623-.525c-.397.908-.946 1.741-1.627 2.467zm-3.775-2.013-1.668 1.099c-.126-.908-.191-1.827-.191-2.751v-7.086c2.266.391 4 2.358 4 4.734 0 1.614-.802 3.112-2.141 4.004zm-1.31-10.683.915-1.83c.758.203 1.474.504 2.138.89l-1.207 1.609c-.572-.307-1.192-.536-1.846-.669zm-1.365-2.138c.065 0 .129.008.194.009l-.996 1.991h-2.764l1-2zm-7.184-2v-5h2v5zm-2.61 1.984-.966 1.932c-.913-.109-1.788-.335-2.616-.66l1.252-1.669c.738.237 1.52.369 2.33.397zm1.228 2.016 1-2h2.764l-1 2zm5.382 2h2v7.169c0 3.734.949 7.404 2.751 10.666l-4.751 4.751zm9.972 5.271c.01-.151.028-.301.028-.454 0-.342-.034-.676-.083-1.005l1.766-1.324c.116.425.197.865.248 1.314zm.932-4.699-1.622 1.216c-.331-.664-.761-1.271-1.281-1.79l1.21-1.614c.674.632 1.243 1.372 1.693 2.188zm-8.904-6.572h-2v-5h2zm4-9v2h-14v-2zm-5.999-15h-2.001v-1.382l2.001 1.001zm-.001-4v1.382l-2.001-1v-.382zm-3.326 5.486c.354.316.815.514 1.326.514h2c.511 0 .973-.198 1.326-.514 2.189.927 3.674 3.096 3.674 5.514 0 3.309-2.691 6-6 6s-6-2.691-6-6c0-2.418 1.485-4.587 3.674-5.514zm-5.442 7.394-.037.017-1.832-1.375 1.655-.741c-.002.074-.018.145-.018.219 0 .648.086 1.276.232 1.88zm-3.756-.273 1.702 1.277c-.458.279-.883.597-1.276.95l-1.901-.951c.45-.467.942-.895 1.475-1.276zm-1.456 16.128 1.613-1.21c.473.461 1 .863 1.567 1.208l-1.204 1.605c-.721-.456-1.385-.993-1.976-1.603zm9.98 12.434v-7.169h2v22.586l-4.751-4.751c1.802-3.262 2.751-6.932 2.751-10.666zm-7.116 7.831c.616 0 1.116.5 1.116 1.116v.884c0 .607-.141 1.22-.386 1.819l-1.876-2.502.038-.33c.065-.563.542-.987 1.108-.987zm-12.752 2.314 1.927.482c-.093.511-.066 1.048.076 1.58l-1.724 1.15c-.409-1.073-.491-2.176-.279-3.212zm6.745 2.492c-.386.117-.791.194-1.22.194-.721 0-1.366-.424-1.569-1.03-.201-.6-.03-1.216.399-1.633.672.928 1.471 1.762 2.39 2.469zm-3.689 1.271c.435.378.967.651 1.563.797l-.487 1.949c-1.1-.262-2.077-.814-2.808-1.591zm3.618.823c.534-.096 1.035-.28 1.511-.508l.487 1.948c-.811.338-1.662.557-2.515.628zm1.365-17.022c-1.28 1.031-2.005 2.676-1.816 4.375.288 2.588 1.5 4.929 3.415 6.665l-.06.523c-.095.854-.464 1.609-1.004 2.209-2.509-1.648-4.17-4.337-4.471-7.35l-1.014-10.135zm-5.674 8.922.191-.135c.195.668.43 1.322.735 1.941-.15.113-.29.233-.417.364l-2.113-.528c.407-.63.934-1.196 1.604-1.642zm8.12 8.545-.555-2.219c.391-.41.74-.861 1.003-1.372l1.423 1.897c-.524.628-1.161 1.202-1.871 1.694zm4.214-1.529c.345-.564.62-1.151.817-1.754l2.672 2.672zm26.934-9.515c-.413 4.132-3.389 7.619-7.405 8.676l-6.679 1.758 2.874-2.874 2.279-.855c3.758-1.41 6.368-4.763 6.812-8.752.189-1.699-.536-3.344-1.815-4.375l4.949-3.712z"/></g></g></svg>