<svg height="374.239pt" viewBox="0 0 374.239 374.239" width="374.239pt" xmlns="http://www.w3.org/2000/svg"><path d="m6.234375 311.667969c0-10.597657 8.101563-18.703125 18.699219-18.703125 10.59375 0 18.699218 8.105468 18.699218 18.703125" fill="#fa6900"/><path d="m342.832031 261.800781c0-6.859375 5.609375-12.46875 12.46875-12.46875 6.855469 0 12.464844 5.609375 12.464844 12.46875" fill="#ba4e00"/><path d="m168.300781 367.765625c0-10.59375 8.101563-18.699219 18.699219-18.699219s18.699219 8.101563 18.699219 18.699219" fill="#fa6900"/><path d="m130.898438 305.433594c0-10.597656-8.101563-18.699219-18.699219-18.699219-10.597657 0-18.699219 8.101563-18.699219 18.699219" fill="#f38630"/><path d="m6.234375 268.035156c0-6.859375 5.609375-12.46875 12.464844-12.46875 6.859375 0 12.46875 5.609375 12.46875 12.46875" fill="#ba4e00"/><path d="m68.566406 367.765625c0-17.453125-13.714844-31.164063-31.167968-31.164063-17.453126 0-31.164063 13.710938-31.164063 31.164063" fill="#ba4e00"/><path d="m143.367188 367.765625c0-10.59375-8.105469-18.699219-18.699219-18.699219-10.597657 0-18.703125 8.101563-18.703125 18.699219" fill="#ba4e00"/><path d="m268.035156 317.898438c0-10.59375 8.101563-18.699219 18.699219-18.699219 10.59375 0 18.699219 8.101562 18.699219 18.699219" fill="#f38630"/><path d="m305.433594 317.898438c0-10.59375 8.101562-18.699219 18.699218-18.699219 10.597657 0 18.699219 8.101562 18.699219 18.699219" fill="#ba4e00"/><path d="m261.800781 367.765625c0-10.59375 8.101563-18.699219 18.699219-18.699219s18.699219 8.101563 18.699219 18.699219c0-10.59375 8.101562-18.699219 18.699219-18.699219 10.597656 0 18.703124 8.101563 18.703124 18.699219" fill="#ba4e00"/><path d="m236.867188 367.765625c0-6.855469 5.609374-12.464844 12.464843-12.464844 6.859375 0 12.46875 5.609375 12.46875 12.464844" fill="#f38630"/><path d="m261.800781 367.765625c0-10.59375 8.101563-18.699219 18.699219-18.699219s18.699219 8.101563 18.699219 18.699219" fill="#fa6900"/><path d="m367.765625 336.601562c-17.453125 0-31.164063 13.710938-31.164063 31.164063h31.164063zm0 0" fill="#f38630"/><path d="m187 31.167969c-6.855469 0-12.46875 5.609375-12.46875 12.464843 0 1.871094.625 3.117188 1.246094 4.988282 2.496094-6.234375 9.976562-9.351563 16.207031-6.234375 3.117187 1.246093 4.988281 3.742187 6.234375 6.234375 2.492188-6.234375 0-13.714844-6.234375-16.207032-1.867187-.625-3.113281-1.246093-4.984375-1.246093zm0 0" fill="#ba4e00"/><path d="m269.902344 186.375-18.074219 21.820312c-1.871094 2.492188-1.871094 6.230469.621094 8.726563 1.246093.621094 2.496093 1.246094 3.742187 1.246094h5.609375c0 32.410156-20.570312 60.460937-51.113281 71.058593l-8.726562-158.328124h26.804687c4.363281 4.988281 10.59375 6.859374 17.449219 6.234374 9.976562-1.871093 16.832031-11.84375 14.960937-21.816406-1.246093-9.351562-8.726562-15.585937-18.074219-15.585937-4.988281 0-10.597656 2.496093-13.714843 6.234375h-28.671875l-.625-27.425782c19.324218-6.855468 29.296875-28.675781 21.816406-47.996093-6.855469-19.324219-28.671875-29.296875-47.996094-21.816407-19.320312 7.476563-29.296875 28.671876-21.816406 47.996094 3.738281 9.972656 11.84375 18.074219 21.816406 21.816406l-.621094 27.425782h-28.675781c-4.363281-4.988282-10.597656-6.855469-17.453125-6.234375-9.972656 1.871093-16.828125 11.84375-14.960937 21.820312 1.871093 8.726563 9.351562 15.582031 18.699219 15.582031 4.988281 0 10.597656-2.492187 13.714843-6.234374h26.804688l-8.726563 158.328124c-29.921875-10.597656-50.492187-38.648437-50.492187-71.058593h5.613281c3.113281 0 6.230469-2.496094 6.230469-6.234375 0-1.246094-.621094-2.492188-1.246094-3.738282l-18.074219-21.820312c-1.871094-2.492188-5.613281-3.113281-8.726562-.621094l-.625.621094-18.078125 21.820312c-1.867188 2.492188-1.867188 6.230469.625 8.726563 1.246093.621094 2.492187 1.246094 3.738281 1.246094h5.613281c0 46.75 32.410157 87.265625 77.914063 97.238281l16.832031 21.195312c1.867187 2.492188 6.230469 3.117188 8.726563 1.246094.621093 0 .621093-.625 1.246093-1.246094l16.828125-21.195312c45.503906-9.972656 77.917969-50.488281 77.917969-97.238281h5.609375c3.117188 0 6.234375-2.496094 6.234375-6.234375 0-1.246094-.625-2.492188-1.246094-3.738282l-18.078125-21.820312c-1.871094-2.492188-5.609375-3.113281-8.726562-.621094-.625 0-.625 0-.625.621094zm-82.902344-130.273438c-6.855469 0-12.46875-5.613281-12.46875-12.46875 0-6.855468 5.613281-12.464843 12.46875-12.464843s12.464844 5.609375 12.464844 12.464843c0 6.855469-5.609375 12.46875-12.464844 12.46875zm99.734375 162.066407h5.609375c3.117188 0 6.234375-2.496094 6.234375-6.234375 0-1.246094-.625-2.492188-1.246094-3.738282l-18.078125-21.820312c-1.871094-2.492188-5.609375-3.113281-8.726562-.621094l-.621094.621094-18.078125 21.820312c-1.871094 2.492188-1.871094 6.230469.625 8.726563 1.246094.621094 2.492187 1.246094 3.738281 1.246094h5.609375m-149.601562 0h5.613281c3.113281 0 6.230469-2.496094 6.230469-6.234375 0-1.246094-.621094-2.492188-1.246094-3.738282l-18.074219-21.820312c-1.871094-2.492188-5.613281-3.113281-8.726562-.621094l-.625.621094-18.078125 21.820312c-1.867188 2.492188-1.867188 6.230469.625 8.726563 1.246093.621094 2.492187 1.246094 3.738281 1.246094h5.613281" fill="#fa6900"/><path d="m196.972656 55.476562 20.570313 9.972657c2.492187-3.117188 4.363281-6.855469 5.609375-11.21875l-20.570313-9.972657c-1.246093-.625-1.867187-.625-3.117187-.625 0 3.738282-1.867188 7.480469-4.984375 9.972657.621093.625 1.246093 1.246093 2.492187 1.871093zm0 0" fill="#ba4e00"/><g fill="#69d2e7"><path d="m43.632812 24.933594c0 10.328125-8.371093 18.699218-18.699218 18.699218s-18.699219-8.371093-18.699219-18.699218 8.371094-18.699219 18.699219-18.699219 18.699218 8.371094 18.699218 18.699219zm0 0"/><path d="m324.132812 93.5c0 10.328125-8.371093 18.699219-18.699218 18.699219s-18.699219-8.371094-18.699219-18.699219 8.371094-18.699219 18.699219-18.699219 18.699218 8.371094 18.699218 18.699219zm0 0"/><path d="m81.035156 81.035156c0 6.882813-5.582031 12.464844-12.46875 12.464844-6.886718 0-12.46875-5.582031-12.46875-12.464844 0-6.886718 5.582032-12.46875 12.46875-12.46875 6.886719 0 12.46875 5.582032 12.46875 12.46875zm0 0"/><path d="m43.632812 130.898438c0 10.328124-8.371093 18.703124-18.699218 18.703124s-18.699219-8.375-18.699219-18.703124c0-10.324219 8.371094-18.699219 18.699219-18.699219s18.699218 8.375 18.699218 18.699219zm0 0"/><path d="m367.765625 18.699219c0 6.886719-5.582031 12.46875-12.464844 12.46875-6.886719 0-12.46875-5.582031-12.46875-12.46875 0-6.882813 5.582031-12.464844 12.46875-12.464844 6.882813 0 12.464844 5.582031 12.464844 12.464844zm0 0"/><path d="m305.433594 31.167969c0 3.441406-2.792969 6.230469-6.234375 6.230469-3.441407 0-6.234375-2.789063-6.234375-6.230469 0-3.441407 2.792968-6.234375 6.234375-6.234375 3.441406 0 6.234375 2.792968 6.234375 6.234375zm0 0"/></g><path d="m255.566406 24.933594c-3.738281 0-6.234375-2.492188-6.234375-6.234375 0-3.738281 2.496094-6.230469 6.234375-6.230469 3.738282 0 6.234375-2.496094 6.234375-6.234375h-19.949219c-6.855468 7.480469-6.230468 19.324219 1.25 26.179687 3.113282 3.117188 8.101563 4.988282 12.464844 4.988282 3.738282 0 6.234375 2.492187 6.234375 6.230468 0 3.742188-2.496093 6.234376-6.234375 6.234376h-29.917968l-23.6875-11.84375c-3.117188-1.246094-6.859376 0-8.105469 2.492187-1.246094 3.117187 0 6.859375 2.492187 8.105469l24.933594 12.46875c1.246094 1.246094 1.871094 1.246094 3.117188 1.246094h31.167968c10.597656 0 18.699219-8.105469 18.699219-18.703126 0-10.59375-8.101563-18.699218-18.699219-18.699218zm0 0" fill="#f38630"/><path d="m105.964844 367.765625c0-10.59375-8.101563-18.699219-18.699219-18.699219-10.59375 0-18.699219 8.101563-18.699219 18.699219" fill="#fa6900"/><path d="m292.964844 224.398438h12.46875c3.738281 0 6.234375-2.492188 6.234375-6.230469 0-1.246094-.625-3.117188-1.246094-3.742188l-31.167969-37.398437c-2.492187-2.492188-6.234375-3.117188-9.351562-.625 0 0-.621094 0-.621094.625l-31.167969 37.398437c-2.492187 2.496094-1.871093 6.859375.625 8.726563 1.246094 1.246094 2.492188 1.246094 3.738281 1.246094h12.464844c-2.492187 24.3125-16.828125 45.503906-38.644531 55.476562l-7.480469-142.742188h18.078125c10.59375 9.347657 26.179688 8.101563 34.90625-2.492187 9.347657-10.597656 8.101563-26.183594-2.496093-34.910156-9.347657-8.101563-23.683594-8.101563-33.035157 0h-19.945312l-.625-16.828125c8.726562-4.363282 15.582031-11.84375 19.945312-20.570313h29.921875c10.59375 0 18.699219-8.105469 18.699219-18.699219 0-10.597656-8.101563-18.699218-18.699219-18.699218-3.742187 0-6.234375-2.496094-6.234375-6.234375s2.492188-6.234375 6.234375-6.234375c3.738282 0 6.230469-2.492188 6.230469-6.230469 0-3.742187-2.492187-6.234375-6.230469-6.234375-10.597656 0-18.699218 8.105469-18.699218 18.699219 0 10.597656 8.101562 18.699219 18.699218 18.699219 3.738282 0 6.234375 2.496093 6.234375 6.234374 0 3.738282-2.496093 6.234376-6.234375 6.234376h-25.554687c.621093-1.871094.621093-4.363282.621093-6.234376 0-24.308593-19.324218-43.632812-43.632812-43.632812-24.3125 0-43.632812 19.324219-43.632812 43.632812 0 16.832032 9.347656 31.789063 24.308593 39.269532l-.621093 16.832031h-19.949219c-10.59375-9.351563-26.179688-8.105469-34.90625 2.492187-9.347657 10.597657-8.101563 26.179688 2.496093 34.90625 9.347657 8.105469 23.683594 8.105469 33.035157 0h18.078125l-7.480469 142.746094c-21.820313-10.597656-36.777344-31.792968-38.648437-55.476562h12.46875c3.738281 0 6.230468-2.496094 6.230468-6.234375 0-1.246094-.621094-3.117188-1.246094-3.738281l-31.164062-37.402344c-2.496094-2.492188-6.234375-3.117188-9.351562-.625 0 0-.625 0-.625.625l-31.164063 37.402344c-2.496094 2.492187-1.871094 6.855468.621094 8.726562 1.246093 1.246094 2.496093 1.246094 3.742187 1.246094h12.464844c1.246094 21.191406 8.726562 41.136718 21.195312 57.96875-9.351562 3.738281-15.585937 13.089844-15.585937 23.0625 0 3.738281 2.496094 6.234375 6.234375 6.234375s6.234375-2.496094 6.234375-6.234375c0-6.855469 5.609375-12.46875 11.84375-12.46875 13.710937 13.714844 31.164063 23.066406 49.867187 28.050781l18.699219 23.066406c-10.597656 3.113281-18.078125 12.464844-18.078125 23.683594 0 3.742187 2.496094 6.234375 6.234375 6.234375s6.234375-2.492188 6.234375-6.234375c0-6.855469 5.609375-12.464844 12.464844-12.464844s12.46875 5.609375 12.46875 12.464844c0 3.742187 2.492188 6.234375 6.230469 6.234375 3.742187 0 6.234375-2.492188 6.234375-6.234375 0-11.21875-7.480469-20.570313-18.078125-23.683594l18.703125-23.066406c44.878906-11.21875 77.914062-50.488281 80.40625-96.617187zm-89.136719 87.269531-16.828125 21.191406-16.832031-21.191406c-.621094-1.246094-1.867188-1.871094-3.738281-2.496094-43.007813-9.347656-72.929688-47.371094-72.929688-91.003906 0-3.742188-2.496094-6.234375-6.234375-6.234375h-5.609375l18.074219-21.195313 18.078125 21.195313h-5.609375c-3.742188 0-6.234375 2.492187-6.234375 6.234375 0 34.90625 22.441406 66.074219 55.476562 76.667969 3.117188 1.246093 6.855469-.621094 8.105469-3.738282 0-.625 0-1.246094.621094-1.871094l8.726562-158.328124c0-3.738282-2.492187-6.230469-5.609375-6.855469 0 0 0 0-.625 0h-26.800781c-1.871094 0-3.738281.625-4.363281 1.871093-3.738282 3.738282-6.855469 4.984376-10.597656 4.984376-6.855469 0-12.464844-5.609376-12.464844-12.464844 0-6.855469 5.609375-12.46875 12.464844-12.46875 3.742187 0 6.859374 1.246094 9.351562 4.363281 1.246094 1.246094 3.117188 1.871094 4.363281 1.871094h28.671875c3.117188 0 6.234375-2.492188 6.234375-6.234375l.625-27.425782c0-2.492187-1.246093-4.984374-4.363281-6.230468-16.207031-6.234375-24.3125-23.6875-18.703125-39.894532 5.613281-16.207031 23.6875-24.3125 39.894531-18.699218 13.089844 4.984375 21.195313 16.828125 21.195313 29.917968v2.492188l-12.46875-6.230469c-2.492188-9.976562-12.464844-16.832031-22.4375-14.335937-9.976563 2.492187-16.832031 12.464844-14.339844 22.4375 2.496094 9.972656 12.46875 16.832031 22.441406 14.335937 5.609375-1.246093 9.972657-4.363281 12.464844-9.347656l11.222656 5.609375c-3.742187 6.855469-9.351562 11.84375-16.832031 14.960938-2.492188.621093-4.363281 3.117187-4.363281 6.230468l.625 27.429688c0 3.117187 3.117187 6.230468 6.230469 6.230468h28.675781c1.871093 0 3.738281-.621093 4.363281-1.867187 2.492188-2.496094 5.609375-4.363281 9.351562-4.363281 6.855469 0 12.464844 5.609375 12.464844 12.464844 0 6.859374-5.609375 12.46875-12.464844 12.46875-3.742187 0-6.859374-1.246094-9.351562-4.363282-1.246094-1.246094-3.117188-1.871094-4.363281-1.871094h-26.804688c-3.738281 0-6.230469 2.492188-6.230469 6.234376v.621093l8.726563 158.328125c0 3.738282 3.117187 6.234375 6.855469 5.609375.625 0 1.246094 0 1.871094-.621093 31.789062-11.84375 54.230468-43.011719 54.230468-77.917969 0-3.738281-2.496094-6.230469-6.234375-6.230469h-5.609375l18.074219-21.195312 18.078125 21.195312h-5.609375c-3.742187 0-6.234375 2.492188-6.234375 6.230469 0 43.632812-29.921875 81.65625-72.929688 91.007812-1.246093.621094-2.492187 1.242188-3.742187 2.492188zm-10.59375-268.035157c0 3.738282-2.496094 6.234376-6.234375 6.234376s-6.234375-2.496094-6.234375-6.234376c0-3.738281 2.496094-6.234374 6.234375-6.234374s6.234375 2.496093 6.234375 6.234374zm0 0"/><path d="m367.765625 330.367188c-13.710937 0-26.179687 7.480468-33.035156 19.324218-9.972657-9.351562-25.558594-9.351562-34.90625.621094-.625.625-.625.625-1.246094 1.246094-4.988281-5.609375-11.222656-8.726563-18.699219-8.726563-3.742187 0-6.234375 2.496094-6.234375 6.234375 0 3.738282 2.492188 6.234375 6.234375 6.234375 6.855469 0 12.464844 5.609375 12.464844 12.464844 0 3.742187 2.492188 6.234375 6.234375 6.234375 3.738281 0 6.230469-2.492188 6.230469-6.234375 0-6.855469 5.613281-12.464844 12.46875-12.464844 6.855468 0 12.46875 5.609375 12.46875 12.464844 0 3.742187 2.492187 6.234375 6.230468 6.234375 3.742188 0 6.234376-2.492188 6.234376-6.234375 0-13.710937 11.21875-24.933594 24.933593-24.933594 3.738281 0 6.230469-2.492187 6.230469-6.230469 0-3.742187-1.867188-6.234374-5.609375-6.234374zm0 0"/><path d="m6.234375 317.898438c3.738281 0 6.230469-2.492188 6.230469-6.230469 0-6.859375 5.613281-12.46875 12.46875-12.46875 6.855468 0 12.464844 5.609375 12.464844 12.46875 0 3.738281 2.496093 6.230469 6.234374 6.230469 3.738282 0 6.234376-2.492188 6.234376-6.230469 0-13.714844-11.222657-24.933594-24.933594-24.933594-13.714844 0-24.933594 11.21875-24.933594 24.933594 0 3.738281 2.492188 6.230469 6.234375 6.230469zm0 0"/><path d="m124.667969 342.832031c-3.742188 0-6.234375 2.496094-6.234375 6.234375 0 3.738282 2.492187 6.234375 6.234375 6.234375 6.855469 0 12.464843 5.609375 12.464843 12.464844 0 3.738281 2.492188 6.234375 6.234376 6.234375 3.738281 0 6.230468-2.496094 6.230468-6.234375.003906-13.710937-11.21875-24.933594-24.929687-24.933594zm0 0"/><path d="m87.265625 342.832031c-6.230469 0-12.464844 2.496094-17.453125 6.859375-9.972656-18.078125-33.035156-24.3125-51.113281-14.339844-11.21875 6.234376-18.699219 18.703126-18.699219 32.414063 0 3.742187 2.492188 6.234375 6.234375 6.234375 3.738281 0 6.230469-2.492188 6.230469-6.234375 0-13.710937 11.222656-24.933594 24.933594-24.933594 13.714843 0 24.933593 11.222657 24.933593 24.933594 0 3.742187 2.492188 6.234375 6.234375 6.234375 3.738282 0 6.230469-2.492188 6.230469-6.234375 0-6.855469 5.613281-12.464844 12.46875-12.464844s12.464844 5.609375 12.464844 12.464844c0 3.742187 2.496093 6.234375 6.234375 6.234375 3.738281 0 6.234375-2.492188 6.234375-6.234375 0-13.710937-11.21875-24.933594-24.933594-24.933594zm0 0"/><path d="m249.332031 349.066406c-10.59375 0-18.699219 8.101563-18.699219 18.699219 0 3.742187 2.496094 6.234375 6.234376 6.234375 3.738281 0 6.234374-2.492188 6.234374-6.234375 0-3.738281 2.492188-6.230469 6.230469-6.230469 3.742188 0 6.234375 2.492188 6.234375 6.230469 0 3.742187 2.492188 6.234375 6.230469 6.234375 3.742187 0 6.234375-2.492188 6.234375-6.234375.003906-10.597656-8.101562-18.699219-18.699219-18.699219zm0 0"/><path d="m12.46875 255.566406c0 3.738282 2.492188 6.234375 6.230469 6.234375 3.742187 0 6.234375 2.492188 6.234375 6.230469 0 3.742188 2.492187 6.234375 6.234375 6.234375 3.738281 0 6.230469-2.492187 6.230469-6.234375 0-10.59375-8.101563-18.699219-18.699219-18.699219-3.738281 0-6.230469 2.496094-6.230469 6.234375zm0 0"/><path d="m355.300781 243.101562c-10.597656 0-18.699219 8.101563-18.699219 18.699219 0 3.738281 2.492188 6.230469 6.230469 6.230469 3.742188 0 6.234375-2.492188 6.234375-6.230469 0-3.742187 2.492188-6.234375 6.234375-6.234375 3.738281 0 6.230469 2.492188 6.230469 6.234375 0 3.738281 2.492188 6.230469 6.234375 6.230469 3.738281 0 6.230469-2.492188 6.230469-6.230469.003906-10.597656-8.101563-18.699219-18.695313-18.699219zm0 0"/><path d="m286.734375 292.964844c-3.738281 0-6.234375 2.496094-6.234375 6.234375s2.496094 6.234375 6.234375 6.234375c6.855469 0 12.464844 5.609375 12.464844 12.464844 0 3.742187 2.496093 6.234374 6.234375 6.234374 3.738281 0 6.234375-2.492187 6.234375-6.234374 0-6.855469 5.609375-12.464844 12.464843-12.464844 6.859376 0 12.46875 5.609375 12.46875 12.464844 0 3.742187 2.492188 6.234374 6.230469 6.234374 3.742188 0 6.234375-2.492187 6.234375-6.234374 0-13.710938-11.21875-24.933594-24.933594-24.933594-6.855468 0-13.710937 3.117187-18.699218 8.726562-4.988282-5.609375-11.84375-8.726562-18.699219-8.726562zm0 0"/><path d="m24.933594 49.867188c13.710937 0 24.933594-11.21875 24.933594-24.933594 0-13.710938-11.222657-24.933594-24.933594-24.933594-13.714844 0-24.933594 11.21875-24.933594 24.933594 0 13.710937 11.21875 24.933594 24.933594 24.933594zm0-37.398438c6.855468 0 12.464844 5.609375 12.464844 12.464844 0 6.855468-5.609376 12.464844-12.464844 12.464844-6.855469 0-12.464844-5.609376-12.464844-12.464844 0-6.855469 5.609375-12.464844 12.464844-12.464844zm0 0"/><path d="m305.433594 118.433594c13.710937 0 24.933594-11.21875 24.933594-24.933594s-11.21875-24.933594-24.933594-24.933594-24.933594 11.21875-24.933594 24.933594c0 13.710938 11.21875 24.933594 24.933594 24.933594zm0-37.398438c6.855468 0 12.464844 5.609375 12.464844 12.464844s-5.609376 12.46875-12.464844 12.46875c-6.855469 0-12.46875-5.613281-12.46875-12.46875s5.613281-12.464844 12.46875-12.464844zm0 0"/><path d="m68.566406 99.734375c10.597656 0 18.699219-8.105469 18.699219-18.699219 0-10.597656-8.101563-18.703125-18.699219-18.703125s-18.699218 8.105469-18.699218 18.703125c0 10.59375 8.101562 18.699219 18.699218 18.699219zm0-24.933594c3.738282 0 6.234375 2.492188 6.234375 6.234375 0 3.738282-2.496093 6.230469-6.234375 6.230469-3.738281 0-6.234375-2.492187-6.234375-6.230469 0-3.742187 2.496094-6.234375 6.234375-6.234375zm0 0"/><path d="m24.933594 155.832031c13.710937 0 24.933594-11.21875 24.933594-24.933593 0-13.710938-11.222657-24.929688-24.933594-24.929688-13.714844 0-24.933594 11.21875-24.933594 24.929688 0 13.714843 11.21875 24.933593 24.933594 24.933593zm0-37.398437c6.855468 0 12.464844 5.609375 12.464844 12.464844 0 6.859374-5.609376 12.46875-12.464844 12.46875-6.855469 0-12.46875-5.609376-12.46875-12.46875.003906-6.855469 5.613281-12.464844 12.46875-12.464844zm0 0"/><path d="m355.300781 37.398438c10.59375 0 18.699219-8.101563 18.699219-18.699219 0-10.59375-8.105469-18.699219-18.699219-18.699219-10.597656 0-18.699219 8.105469-18.699219 18.699219 0 10.597656 8.101563 18.699219 18.699219 18.699219zm0-24.929688c3.738281 0 6.230469 2.492188 6.230469 6.230469 0 3.742187-2.492188 6.234375-6.230469 6.234375-3.742187 0-6.234375-2.492188-6.234375-6.234375 0-3.738281 2.492188-6.230469 6.234375-6.230469zm0 0"/><path d="m305.433594 31.167969c0 3.441406-2.792969 6.230469-6.234375 6.230469-3.441407 0-6.234375-2.789063-6.234375-6.230469 0-3.441407 2.792968-6.234375 6.234375-6.234375 3.441406 0 6.234375 2.792968 6.234375 6.234375zm0 0"/></svg>