<svg height="512" viewBox="0 0 52 60" width="512" xmlns="http://www.w3.org/2000/svg"><g id="Page-1" fill="none" fill-rule="evenodd"><g id="032---Seafood" fill-rule="nonzero" transform="translate(-1 -1)"><circle id="Oval" cx="27" cy="6" fill="#02a9f4" r="4"/><path id="Shape" d="m27 2c-.5146843.00216946-1.0240724.10404706-1.5.3 1.5110147.60851068 2.5007405 2.07405844 2.5007405 3.703s-.9897258 3.09448932-2.5007405 3.703c1.496414.6077595 3.211506.25594653 4.3478056-.8918556s1.4708211-2.86635044.8480212-4.35656747-2.0807039-2.45966481-3.6958268-2.45757693z" fill="#0377bc"/><path id="Shape" d="m43 33h-2v2.58c0 7.09-3.79 12.31-10.41 13.97-.3324957.0867885-.5992049.3347153-.71.66-.5412208 1.0960188-1.6576346 1.7898383-2.88 1.7898383s-2.3387792-.6938195-2.88-1.7898383c-.1107951-.3252847-.3775043-.5732115-.71-.66-6.62-1.66-10.41-6.88-10.41-13.97v-2.58h-2c-.3685842.0138935-.7122823-.1854909-.8831899-.5123517-.17090756-.3268608-.13853377-.722884.0831899-1.0176483l4-5.09c.192574-.2459817.4876033-.3896966.8-.3896966s.607426.1437149.8.3896966l4 5.09c.2217237.2947643.2540975.6907875.0831899 1.0176483s-.5146057.5262452-.8831899.5123517h-2v3c0 4.97 3.03 8 8 8v-29.09c.0021121-.3000144-.1344405-.5841914-.37-.77-.1638557-.1365623-.3670848-.2171531-.58-.23-2.6377137-.093573-5.2436899-.6066668-7.72-1.52-.5295922-.2015434-1.0358625-.4597078-1.51-.77-.5787703-.4215734-.8886693-1.1198935-.8129612-1.83190999.0757081-.71201646.5255216-1.32955699 1.18-1.62000003.6544784-.29044305 1.4141909-.2096634 1.9929612.21191002.69502.36445164 1.4345846.63674586 2.2.81 2.4952176.59295526 5.055889.8651526 7.62.81 7.26 0 9.84-1.63 9.86-1.65.4293415-.3085704.9638736-.43349884 1.4855055-.34718565s.9874322.37676426 1.2944945.80718565c.6416909.90467315.4366581 2.1571562-.46 2.81-.4779074.3125914-.9873787.5740307-1.52.78-2.4753803.9028577-5.0769167 1.4123674-7.71 1.51-.2129152.0128469-.4161443.0934377-.58.23-.2355595.1858086-.3721121.4699856-.37.77v29.09c4.97 0 8-3.03 8-8v-3h-2c-.3685842.0138935-.7122823-.1854909-.8831899-.5123517s-.1385338-.722884.0831899-1.0176483l4-5.09c.192574-.2459817.4876033-.3896966.8-.3896966s.607426.1437149.8.3896966l4 5.09c.2217237.2947643.2540975.6907875.0831899 1.0176483s-.5146057.5262452-.8831899.5123517z" fill="#02a9f4"/><path id="Shape" d="m43.8 31.47-4-5.09c-.192574-.2459817-.4876033-.3896966-.8-.3896966s-.607426.1437149-.8.3896966l-.7.891 3.3 4.2c.2211035.2947648.253121.6903618.0822981 1.0168469-.1708229.3264852-.5140746.5257347-.8822981.5121531h-2v2.58c0 7.09-3.79 12.31-10.41 13.97-.3324957.0867885-.5992049.3347153-.71.66-.2541807.6437694-.7491912 1.1631717-1.38 1.448.4677571.225814.9805887.3427396 1.5.342 1.2374847.0551359 2.3816137-.655972 2.88-1.79.1107951-.3252847.3775043-.5732115.71-.66 6.62-1.66 10.41-6.88 10.41-13.97v-2.58h2c.3685842.0138935.7122823-.1854909.8831899-.5123517s.1385338-.722884-.0831899-1.0176483z" fill="#0377bc"/><path id="Shape" d="m52 35c.0019474 12.3920859-9.0743766 22.9154613-21.3323846 24.7334374-12.2580079 1.8179761-23.99789421-5.6181627-27.592643-17.4774028-3.59474879-11.8592402 2.04063444-24.5621353 13.2450276-29.8560346l.01-.01c2.4763101.9133332 5.0822863 1.426427 7.72 1.52.5310821.0301019.9471547.4680731.95 1v29.09c-4.97 0-8-3.03-8-8v-3h2c.3685842.0138935.7122823-.1854909.8831899-.5123517s.1385338-.722884-.0831899-1.0176483l-4-5.09c-.192574-.2459817-.4876033-.3896966-.8-.3896966s-.607426.1437149-.8.3896966l-4 5.09c-.22172367.2947643-.25409746.6907875-.0831899 1.0176483.1709076.3268608.5146057.5262452.8831899.5123517h2v2.58c0 7.09 3.79 12.31 10.41 13.97.3324957.0867885.5992049.3347153.71.66.5412208 1.0960188 1.6576346 1.7898383 2.88 1.7898383s2.3387792-.6938195 2.88-1.7898383c.1107951-.3252847.3775043-.5732115.71-.66 6.62-1.66 10.41-6.88 10.41-13.97v-2.58h2c.3685842.0138935.7122823-.1854909.8831899-.5123517s.1385338-.722884-.0831899-1.0176483l-4-5.09c-.192574-.2459817-.4876033-.3896966-.8-.3896966s-.607426.1437149-.8.3896966l-4 5.09c-.2217237.2947643-.2540975.6907875-.0831899 1.0176483s.5146057.5262452.8831899.5123517h2v3c0 4.97-3.03 8-8 8v-29.09c.0028453-.5319269.4189179-.9698981.95-1 2.6330833-.0976326 5.2346197-.6071423 7.71-1.51 8.7624582 4.1102263 14.3532924 12.9214435 14.34 22.6z" fill="#f44335"/><path id="Shape" d="m37.66 12.4c-.597765.2346065-1.2084231.4349318-1.829.6 9.8478116 5.2843969 14.9877519 16.4665668 12.5860497 27.3815139-2.4017022 10.9149472-11.7606567 18.9068105-22.9170497 19.5694861.5.03 1 .049 1.5.049 11.7010792.0034544 21.8381789-8.1120856 24.3952913-19.530336 2.5571124-11.4182505-3.1503832-23.0821809-13.7352913-28.069664z" fill="#c81e1e"/><path id="Shape" d="m48 35c.0031376 11.2907534-8.9219599 20.5631235-20.2046121 20.9907673-11.2826523.4276438-20.88403122-8.1425216-21.73557653-19.4011179s7.35156903-21.1754068 18.57018863-22.4496494c.2355595.1858086.3721121.4699856.37.77v29.09c-4.97 0-8-3.03-8-8v-3h2c.3685842.0138935.7122823-.1854909.8831899-.5123517s.1385338-.722884-.0831899-1.0176483l-4-5.09c-.192574-.2459817-.4876033-.3896966-.8-.3896966s-.607426.1437149-.8.3896966l-4 5.09c-.22172367.2947643-.25409746.6907875-.0831899 1.0176483.1709076.3268608.5146057.5262452.8831899.5123517h2v2.58c0 7.09 3.79 12.31 10.41 13.97.3324957.0867885.5992049.3347153.71.66.5412208 1.0960188 1.6576346 1.7898383 2.88 1.7898383s2.3387792-.6938195 2.88-1.7898383c.1107951-.3252847.3775043-.5732115.71-.66 6.62-1.66 10.41-6.88 10.41-13.97v-2.58h2c.3685842.0138935.7122823-.1854909.8831899-.5123517s.1385338-.722884-.0831899-1.0176483l-4-5.09c-.192574-.2459817-.4876033-.3896966-.8-.3896966s-.607426.1437149-.8.3896966l-4 5.09c-.2217237.2947643-.2540975.6907875-.0831899 1.0176483s.5146057.5262452.8831899.5123517h2v3c0 4.97-3.03 8-8 8v-29.09c-.0021121-.3000144.1344405-.5841914.37-.77 10.604487 1.2167934 18.6148059 10.1859427 18.63 20.86z" fill="#ffdc00"/><path id="Shape" d="m29.37 14.14c-.1537947.1295294-.2623689.3046491-.31.5 10.0276385 2.4712352 16.7634931 11.8750559 15.8762116 22.1645296-.8872814 10.2894738-9.1335493 18.4013568-19.4362116 19.1194704.5.035.994.076 1.5.076 11.1173768-.0266326 20.2876845-8.7132447 20.9161157-19.8128776s-7.5027911-20.7658109-18.5461157-22.0471224z" fill="#fec108"/><g fill="#000"><circle id="Oval" cx="27" cy="6" r="1"/><path id="Shape" d="m39.818 12.384c.8688699-.6284302 1.3364753-1.6726602 1.2266738-2.73933869-.1098016-1.0666785-.7803286-1.99375166-1.759-2.432-.9786715-.43824833-2.1168039-.32109148-2.9856738.30733869-1.6242334.7405636-3.3725982 1.17095639-5.155 1.269 1.4038859-2.08506597 1.0415588-4.88825886-.8463425-6.54784441-1.8879014-1.65958555-4.7144136-1.65958555-6.602315 0-1.8879013 1.65958555-2.2502284 4.46277844-.8463425 6.54784441-1.0844158-.10913436-2.1593225-.29797837-3.216-.565-.6452959-.1565383-1.2733961-.37695958-1.875-.658-1.3301778-.98803737-3.2094625-.71067776-4.1974999.61950004-.9880375 1.3301778-.7106779 3.20946256.6194999 4.19749996-10.27242509 5.8205448-15.33327348 17.8319524-12.32357376 29.2487456s13.33423426 19.3722998 25.14107376 19.3722998 22.131374-7.9555066 25.1410738-19.3722998c3.0096997-11.4167932-2.0511487-23.4282008-12.3235738-29.2487456zm-15.818-6.384c0-1.65685425 1.3431458-3 3-3s3 1.34314575 3 3-1.3431458 3-3 3-3-1.34314575-3-3zm-8.813 3.41c.169374-.22094564.4205444-.36442588.6968966-.39809985.2763523-.03367396.5546282.04529241.7721034.21909985.777337.41812516 1.6074732.72959442 2.468.926 2.57937.6114788 5.2256451.8947203 7.876.843 6.583 0 9.719-1.343 10.442-1.843.2150543-.15447801.4831159-.21616909.744062-.17123672s.4929363.19272745.643938.41023672c.3101151.45327679.2082938 1.0703757-.231 1.4-.246.174-2.578 1.714-8.718 2.107-1.056758.0663703-1.8808143.9411647-1.884 2v29.097c0 .5522847.4477153 1 1 1 5.551 0 9-3.449 9-9v-3c0-.5522847-.4477153-1-1-1l-2.014.087 4.031-5.087 4 5h-2.014c-.5522847 0-1 .4477153-1 1v2.58c0 6.724-3.519 11.462-9.674 13.005-.6473549.1720786-1.1670512.6543058-1.387 1.287-.3954973.6936298-1.1309886 1.1235857-1.9294381 1.1279172-.7984494.0043316-1.5385623-.4176193-1.9415619-1.1069172-.2205615-.647962-.7523766-1.1414414-1.415-1.313-6.134-1.538-9.653-6.28-9.653-13v-2.58c0-.5522847-.4477153-1-1-1l-2.014.087 4.028-5.087 3.986 5h-2c-.5522847 0-1 .4477153-1 1v3c0 5.551 3.449 9 9 9 .5522847 0 1-.4477153 1-1v-29.092c-.0037124-1.0590008-.828073-1.933654-1.885-2-6.139-.393-8.471-1.933-8.7-2.1-.4438086-.326287-.5451402-.94760973-.228-1.398zm5.4 21.442-4-5.09c-.3950163-.4660771-.9750452-.7348107-1.586-.7348107s-1.1909837.2687336-1.586.7348107l-4 5.094c-.45624797.5799226-.53871799 1.37039-.212 2.032.33589504.6848713 1.0342096 1.1169947 1.797 1.112h1v1.58c0 7.6 4.175 13.187 11.179 14.968.6852744 1.5010333 2.1859845 2.4617379 3.8360347 2.4557017s3.1436913-.9776949 3.8179653-2.4837017c6.992-1.753 11.167-7.338 11.167-14.94v-1.58h1c.76387.0061511 1.4636343-.4261478 1.8-1.112.3270765-.6633201.2434095-1.4556266-.215-2.036l-4-5.09c-.3950163-.4660771-.9750452-.7348107-1.586-.7348107s-1.1909837.2687336-1.586.7348107l-4 5.094c-.456248.5799226-.538718 1.37039-.212 2.032.336209.685525 1.0354898 1.1177653 1.799 1.112h1v2c0 4.1-2.171 6.593-6 6.954l.013-27.7c10.342034 1.5725356 17.7251132 10.8491264 16.9366022 21.2802715-.788511 10.431145-9.4821971 18.4924612-19.9431022 18.4924612s-19.15459123-8.0613162-19.94310224-18.4924612c-.788511-10.4311451 6.59456824-19.7077359 16.93660224-21.2802715v27.7c-3.829-.361-6-2.85-6-6.954v-2h1c.76387.0061511 1.4636343-.4261478 1.8-1.112.3273574-.6631316.2440811-1.4554243-.214-2.036zm6.413 28.148c-11.1559515.0036334-20.84215572-7.6833884-23.37255264-18.5485786s2.76288687-22.0407887 12.77255264-26.9664214c1.0132633.3633984 2.0530029.6482403 3.11.852-10.04370374 3.6388731-16.0218418 13.9669594-14.17457678 24.4886035 1.84726502 10.521644 10.98600298 18.1956892 21.66857678 18.1956892s19.8213118-7.6740452 21.6685768-18.1956892c1.847265-10.5216441-4.1308731-20.8497304-14.1745768-24.4886035 1.0562989-.2043932 2.0953509-.4895641 3.108-.853 10.0118628 4.925535 15.3060793 16.1034695 12.773939 26.9702334s-12.2220612 18.5531402-23.379939 18.5457666z"/></g></g></g></svg>